G04 #@! TF.GenerationSoftware,KiCad,Pcbnew,5.1.5+dfsg1-2build2*
G04 #@! TF.CreationDate,2021-01-22T19:49:40+11:00*
G04 #@! TF.ProjectId,mPCIe-GNSS,6d504349-652d-4474-9e53-532e6b696361,1*
G04 #@! TF.SameCoordinates,Original*
G04 #@! TF.FileFunction,Soldermask,Top*
G04 #@! TF.FilePolarity,Negative*
%FSLAX46Y46*%
G04 Gerber Fmt 4.6, Leading zero omitted, Abs format (unit mm)*
G04 Created by KiCad (PCBNEW 5.1.5+dfsg1-2build2) date 2021-01-22 19:49:40*
%MOMM*%
%LPD*%
G04 APERTURE LIST*
%ADD10C,0.350000*%
G04 APERTURE END LIST*
D10*
G36*
X131300000Y-129800000D02*
G01*
X130700000Y-129800000D01*
X130700000Y-127450000D01*
X131300000Y-127450000D01*
X131300000Y-129800000D01*
G37*
G36*
X145700000Y-129800000D02*
G01*
X145100000Y-129800000D01*
X145100000Y-127450000D01*
X145700000Y-127450000D01*
X145700000Y-129800000D01*
G37*
G36*
X135300000Y-129800000D02*
G01*
X134700000Y-129800000D01*
X134700000Y-127450000D01*
X135300000Y-127450000D01*
X135300000Y-129800000D01*
G37*
G36*
X125700000Y-129800000D02*
G01*
X125100000Y-129800000D01*
X125100000Y-127450000D01*
X125700000Y-127450000D01*
X125700000Y-129800000D01*
G37*
G36*
X126500000Y-129800000D02*
G01*
X125900000Y-129800000D01*
X125900000Y-127450000D01*
X126500000Y-127450000D01*
X126500000Y-129800000D01*
G37*
G36*
X127300000Y-129800000D02*
G01*
X126700000Y-129800000D01*
X126700000Y-127450000D01*
X127300000Y-127450000D01*
X127300000Y-129800000D01*
G37*
G36*
X128100000Y-129800000D02*
G01*
X127500000Y-129800000D01*
X127500000Y-127450000D01*
X128100000Y-127450000D01*
X128100000Y-129800000D01*
G37*
G36*
X128900000Y-129800000D02*
G01*
X128300000Y-129800000D01*
X128300000Y-127450000D01*
X128900000Y-127450000D01*
X128900000Y-129800000D01*
G37*
G36*
X129700000Y-129800000D02*
G01*
X129100000Y-129800000D01*
X129100000Y-127450000D01*
X129700000Y-127450000D01*
X129700000Y-129800000D01*
G37*
G36*
X130500000Y-129800000D02*
G01*
X129900000Y-129800000D01*
X129900000Y-127450000D01*
X130500000Y-127450000D01*
X130500000Y-129800000D01*
G37*
G36*
X148900000Y-129800000D02*
G01*
X148300000Y-129800000D01*
X148300000Y-127450000D01*
X148900000Y-127450000D01*
X148900000Y-129800000D01*
G37*
G36*
X147300000Y-129800000D02*
G01*
X146700000Y-129800000D01*
X146700000Y-127450000D01*
X147300000Y-127450000D01*
X147300000Y-129800000D01*
G37*
G36*
X146500000Y-129800000D02*
G01*
X145900000Y-129800000D01*
X145900000Y-127450000D01*
X146500000Y-127450000D01*
X146500000Y-129800000D01*
G37*
G36*
X148100000Y-129800000D02*
G01*
X147500000Y-129800000D01*
X147500000Y-127450000D01*
X148100000Y-127450000D01*
X148100000Y-129800000D01*
G37*
G36*
X144100000Y-129800000D02*
G01*
X143500000Y-129800000D01*
X143500000Y-127450000D01*
X144100000Y-127450000D01*
X144100000Y-129800000D01*
G37*
G36*
X144900000Y-129800000D02*
G01*
X144300000Y-129800000D01*
X144300000Y-127450000D01*
X144900000Y-127450000D01*
X144900000Y-129800000D01*
G37*
G36*
X136100000Y-129800000D02*
G01*
X135500000Y-129800000D01*
X135500000Y-127450000D01*
X136100000Y-127450000D01*
X136100000Y-129800000D01*
G37*
G36*
X136900000Y-129800000D02*
G01*
X136300000Y-129800000D01*
X136300000Y-127450000D01*
X136900000Y-127450000D01*
X136900000Y-129800000D01*
G37*
G36*
X137700000Y-129800000D02*
G01*
X137100000Y-129800000D01*
X137100000Y-127450000D01*
X137700000Y-127450000D01*
X137700000Y-129800000D01*
G37*
G36*
X138500000Y-129800000D02*
G01*
X137900000Y-129800000D01*
X137900000Y-127450000D01*
X138500000Y-127450000D01*
X138500000Y-129800000D01*
G37*
G36*
X139300000Y-129800000D02*
G01*
X138700000Y-129800000D01*
X138700000Y-127450000D01*
X139300000Y-127450000D01*
X139300000Y-129800000D01*
G37*
G36*
X140900000Y-129800000D02*
G01*
X140300000Y-129800000D01*
X140300000Y-127450000D01*
X140900000Y-127450000D01*
X140900000Y-129800000D01*
G37*
G36*
X141700000Y-129800000D02*
G01*
X141100000Y-129800000D01*
X141100000Y-127450000D01*
X141700000Y-127450000D01*
X141700000Y-129800000D01*
G37*
G36*
X142500000Y-129800000D02*
G01*
X141900000Y-129800000D01*
X141900000Y-127450000D01*
X142500000Y-127450000D01*
X142500000Y-129800000D01*
G37*
G36*
X143300000Y-129800000D02*
G01*
X142700000Y-129800000D01*
X142700000Y-127450000D01*
X143300000Y-127450000D01*
X143300000Y-129800000D01*
G37*
G36*
X140100000Y-129800000D02*
G01*
X139500000Y-129800000D01*
X139500000Y-127450000D01*
X140100000Y-127450000D01*
X140100000Y-129800000D01*
G37*
G36*
X133750000Y-123350000D02*
G01*
X133150000Y-123350000D01*
X133150000Y-122650000D01*
X133750000Y-122650000D01*
X133750000Y-123350000D01*
G37*
G36*
X132350000Y-123350000D02*
G01*
X131750000Y-123350000D01*
X131750000Y-122650000D01*
X132350000Y-122650000D01*
X132350000Y-123350000D01*
G37*
G36*
X129115367Y-122682543D02*
G01*
X129137355Y-122689212D01*
X129157620Y-122700045D01*
X129175380Y-122714620D01*
X129189955Y-122732380D01*
X129200788Y-122752645D01*
X129207457Y-122774633D01*
X129210000Y-122800448D01*
X129210000Y-123199552D01*
X129207457Y-123225367D01*
X129200788Y-123247355D01*
X129189955Y-123267620D01*
X129175380Y-123285380D01*
X129157620Y-123299955D01*
X129137355Y-123310788D01*
X129115367Y-123317457D01*
X129089552Y-123320000D01*
X128740448Y-123320000D01*
X128714633Y-123317457D01*
X128692645Y-123310788D01*
X128672380Y-123299955D01*
X128654620Y-123285380D01*
X128640045Y-123267620D01*
X128629212Y-123247355D01*
X128622543Y-123225367D01*
X128620000Y-123199552D01*
X128620000Y-122800448D01*
X128622543Y-122774633D01*
X128629212Y-122752645D01*
X128640045Y-122732380D01*
X128654620Y-122714620D01*
X128672380Y-122700045D01*
X128692645Y-122689212D01*
X128714633Y-122682543D01*
X128740448Y-122680000D01*
X129089552Y-122680000D01*
X129115367Y-122682543D01*
G37*
G36*
X130085367Y-122682543D02*
G01*
X130107355Y-122689212D01*
X130127620Y-122700045D01*
X130145380Y-122714620D01*
X130159955Y-122732380D01*
X130170788Y-122752645D01*
X130177457Y-122774633D01*
X130180000Y-122800448D01*
X130180000Y-123199552D01*
X130177457Y-123225367D01*
X130170788Y-123247355D01*
X130159955Y-123267620D01*
X130145380Y-123285380D01*
X130127620Y-123299955D01*
X130107355Y-123310788D01*
X130085367Y-123317457D01*
X130059552Y-123320000D01*
X129710448Y-123320000D01*
X129684633Y-123317457D01*
X129662645Y-123310788D01*
X129642380Y-123299955D01*
X129624620Y-123285380D01*
X129610045Y-123267620D01*
X129599212Y-123247355D01*
X129592543Y-123225367D01*
X129590000Y-123199552D01*
X129590000Y-122800448D01*
X129592543Y-122774633D01*
X129599212Y-122752645D01*
X129610045Y-122732380D01*
X129624620Y-122714620D01*
X129642380Y-122700045D01*
X129662645Y-122689212D01*
X129684633Y-122682543D01*
X129710448Y-122680000D01*
X130059552Y-122680000D01*
X130085367Y-122682543D01*
G37*
G36*
X125975000Y-120900000D02*
G01*
X123975000Y-120900000D01*
X123975000Y-115900000D01*
X125975000Y-115900000D01*
X125975000Y-120900000D01*
G37*
G36*
X135975000Y-120400000D02*
G01*
X134275000Y-120400000D01*
X134275000Y-116400000D01*
X135975000Y-116400000D01*
X135975000Y-120400000D01*
G37*
G36*
X141175367Y-118292543D02*
G01*
X141197355Y-118299212D01*
X141217620Y-118310045D01*
X141235380Y-118324620D01*
X141249955Y-118342380D01*
X141260788Y-118362645D01*
X141267457Y-118384633D01*
X141270000Y-118410448D01*
X141270000Y-118759552D01*
X141267457Y-118785367D01*
X141260788Y-118807355D01*
X141249955Y-118827620D01*
X141235380Y-118845380D01*
X141217620Y-118859955D01*
X141197355Y-118870788D01*
X141175367Y-118877457D01*
X141149552Y-118880000D01*
X140750448Y-118880000D01*
X140724633Y-118877457D01*
X140702645Y-118870788D01*
X140682380Y-118859955D01*
X140664620Y-118845380D01*
X140650045Y-118827620D01*
X140639212Y-118807355D01*
X140632543Y-118785367D01*
X140630000Y-118759552D01*
X140630000Y-118410448D01*
X140632543Y-118384633D01*
X140639212Y-118362645D01*
X140650045Y-118342380D01*
X140664620Y-118324620D01*
X140682380Y-118310045D01*
X140702645Y-118299212D01*
X140724633Y-118292543D01*
X140750448Y-118290000D01*
X141149552Y-118290000D01*
X141175367Y-118292543D01*
G37*
G36*
X142275367Y-118292543D02*
G01*
X142297355Y-118299212D01*
X142317620Y-118310045D01*
X142335380Y-118324620D01*
X142349955Y-118342380D01*
X142360788Y-118362645D01*
X142367457Y-118384633D01*
X142370000Y-118410448D01*
X142370000Y-118759552D01*
X142367457Y-118785367D01*
X142360788Y-118807355D01*
X142349955Y-118827620D01*
X142335380Y-118845380D01*
X142317620Y-118859955D01*
X142297355Y-118870788D01*
X142275367Y-118877457D01*
X142249552Y-118880000D01*
X141850448Y-118880000D01*
X141824633Y-118877457D01*
X141802645Y-118870788D01*
X141782380Y-118859955D01*
X141764620Y-118845380D01*
X141750045Y-118827620D01*
X141739212Y-118807355D01*
X141732543Y-118785367D01*
X141730000Y-118759552D01*
X141730000Y-118410448D01*
X141732543Y-118384633D01*
X141739212Y-118362645D01*
X141750045Y-118342380D01*
X141764620Y-118324620D01*
X141782380Y-118310045D01*
X141802645Y-118299212D01*
X141824633Y-118292543D01*
X141850448Y-118290000D01*
X142249552Y-118290000D01*
X142275367Y-118292543D01*
G37*
G36*
X143325367Y-118292543D02*
G01*
X143347355Y-118299212D01*
X143367620Y-118310045D01*
X143385380Y-118324620D01*
X143399955Y-118342380D01*
X143410788Y-118362645D01*
X143417457Y-118384633D01*
X143420000Y-118410448D01*
X143420000Y-118759552D01*
X143417457Y-118785367D01*
X143410788Y-118807355D01*
X143399955Y-118827620D01*
X143385380Y-118845380D01*
X143367620Y-118859955D01*
X143347355Y-118870788D01*
X143325367Y-118877457D01*
X143299552Y-118880000D01*
X142900448Y-118880000D01*
X142874633Y-118877457D01*
X142852645Y-118870788D01*
X142832380Y-118859955D01*
X142814620Y-118845380D01*
X142800045Y-118827620D01*
X142789212Y-118807355D01*
X142782543Y-118785367D01*
X142780000Y-118759552D01*
X142780000Y-118410448D01*
X142782543Y-118384633D01*
X142789212Y-118362645D01*
X142800045Y-118342380D01*
X142814620Y-118324620D01*
X142832380Y-118310045D01*
X142852645Y-118299212D01*
X142874633Y-118292543D01*
X142900448Y-118290000D01*
X143299552Y-118290000D01*
X143325367Y-118292543D01*
G37*
G36*
X140175367Y-118292543D02*
G01*
X140197355Y-118299212D01*
X140217620Y-118310045D01*
X140235380Y-118324620D01*
X140249955Y-118342380D01*
X140260788Y-118362645D01*
X140267457Y-118384633D01*
X140270000Y-118410448D01*
X140270000Y-118759552D01*
X140267457Y-118785367D01*
X140260788Y-118807355D01*
X140249955Y-118827620D01*
X140235380Y-118845380D01*
X140217620Y-118859955D01*
X140197355Y-118870788D01*
X140175367Y-118877457D01*
X140149552Y-118880000D01*
X139750448Y-118880000D01*
X139724633Y-118877457D01*
X139702645Y-118870788D01*
X139682380Y-118859955D01*
X139664620Y-118845380D01*
X139650045Y-118827620D01*
X139639212Y-118807355D01*
X139632543Y-118785367D01*
X139630000Y-118759552D01*
X139630000Y-118410448D01*
X139632543Y-118384633D01*
X139639212Y-118362645D01*
X139650045Y-118342380D01*
X139664620Y-118324620D01*
X139682380Y-118310045D01*
X139702645Y-118299212D01*
X139724633Y-118292543D01*
X139750448Y-118290000D01*
X140149552Y-118290000D01*
X140175367Y-118292543D01*
G37*
G36*
X143325367Y-117322543D02*
G01*
X143347355Y-117329212D01*
X143367620Y-117340045D01*
X143385380Y-117354620D01*
X143399955Y-117372380D01*
X143410788Y-117392645D01*
X143417457Y-117414633D01*
X143420000Y-117440448D01*
X143420000Y-117789552D01*
X143417457Y-117815367D01*
X143410788Y-117837355D01*
X143399955Y-117857620D01*
X143385380Y-117875380D01*
X143367620Y-117889955D01*
X143347355Y-117900788D01*
X143325367Y-117907457D01*
X143299552Y-117910000D01*
X142900448Y-117910000D01*
X142874633Y-117907457D01*
X142852645Y-117900788D01*
X142832380Y-117889955D01*
X142814620Y-117875380D01*
X142800045Y-117857620D01*
X142789212Y-117837355D01*
X142782543Y-117815367D01*
X142780000Y-117789552D01*
X142780000Y-117440448D01*
X142782543Y-117414633D01*
X142789212Y-117392645D01*
X142800045Y-117372380D01*
X142814620Y-117354620D01*
X142832380Y-117340045D01*
X142852645Y-117329212D01*
X142874633Y-117322543D01*
X142900448Y-117320000D01*
X143299552Y-117320000D01*
X143325367Y-117322543D01*
G37*
G36*
X140175367Y-117322543D02*
G01*
X140197355Y-117329212D01*
X140217620Y-117340045D01*
X140235380Y-117354620D01*
X140249955Y-117372380D01*
X140260788Y-117392645D01*
X140267457Y-117414633D01*
X140270000Y-117440448D01*
X140270000Y-117789552D01*
X140267457Y-117815367D01*
X140260788Y-117837355D01*
X140249955Y-117857620D01*
X140235380Y-117875380D01*
X140217620Y-117889955D01*
X140197355Y-117900788D01*
X140175367Y-117907457D01*
X140149552Y-117910000D01*
X139750448Y-117910000D01*
X139724633Y-117907457D01*
X139702645Y-117900788D01*
X139682380Y-117889955D01*
X139664620Y-117875380D01*
X139650045Y-117857620D01*
X139639212Y-117837355D01*
X139632543Y-117815367D01*
X139630000Y-117789552D01*
X139630000Y-117440448D01*
X139632543Y-117414633D01*
X139639212Y-117392645D01*
X139650045Y-117372380D01*
X139664620Y-117354620D01*
X139682380Y-117340045D01*
X139702645Y-117329212D01*
X139724633Y-117322543D01*
X139750448Y-117320000D01*
X140149552Y-117320000D01*
X140175367Y-117322543D01*
G37*
G36*
X142275367Y-117322543D02*
G01*
X142297355Y-117329212D01*
X142317620Y-117340045D01*
X142335380Y-117354620D01*
X142349955Y-117372380D01*
X142360788Y-117392645D01*
X142367457Y-117414633D01*
X142370000Y-117440448D01*
X142370000Y-117789552D01*
X142367457Y-117815367D01*
X142360788Y-117837355D01*
X142349955Y-117857620D01*
X142335380Y-117875380D01*
X142317620Y-117889955D01*
X142297355Y-117900788D01*
X142275367Y-117907457D01*
X142249552Y-117910000D01*
X141850448Y-117910000D01*
X141824633Y-117907457D01*
X141802645Y-117900788D01*
X141782380Y-117889955D01*
X141764620Y-117875380D01*
X141750045Y-117857620D01*
X141739212Y-117837355D01*
X141732543Y-117815367D01*
X141730000Y-117789552D01*
X141730000Y-117440448D01*
X141732543Y-117414633D01*
X141739212Y-117392645D01*
X141750045Y-117372380D01*
X141764620Y-117354620D01*
X141782380Y-117340045D01*
X141802645Y-117329212D01*
X141824633Y-117322543D01*
X141850448Y-117320000D01*
X142249552Y-117320000D01*
X142275367Y-117322543D01*
G37*
G36*
X141175367Y-117322543D02*
G01*
X141197355Y-117329212D01*
X141217620Y-117340045D01*
X141235380Y-117354620D01*
X141249955Y-117372380D01*
X141260788Y-117392645D01*
X141267457Y-117414633D01*
X141270000Y-117440448D01*
X141270000Y-117789552D01*
X141267457Y-117815367D01*
X141260788Y-117837355D01*
X141249955Y-117857620D01*
X141235380Y-117875380D01*
X141217620Y-117889955D01*
X141197355Y-117900788D01*
X141175367Y-117907457D01*
X141149552Y-117910000D01*
X140750448Y-117910000D01*
X140724633Y-117907457D01*
X140702645Y-117900788D01*
X140682380Y-117889955D01*
X140664620Y-117875380D01*
X140650045Y-117857620D01*
X140639212Y-117837355D01*
X140632543Y-117815367D01*
X140630000Y-117789552D01*
X140630000Y-117440448D01*
X140632543Y-117414633D01*
X140639212Y-117392645D01*
X140650045Y-117372380D01*
X140664620Y-117354620D01*
X140682380Y-117340045D01*
X140702645Y-117329212D01*
X140724633Y-117322543D01*
X140750448Y-117320000D01*
X141149552Y-117320000D01*
X141175367Y-117322543D01*
G37*
G36*
X145485367Y-115882543D02*
G01*
X145507355Y-115889212D01*
X145527620Y-115900045D01*
X145545380Y-115914620D01*
X145559955Y-115932380D01*
X145570788Y-115952645D01*
X145577457Y-115974633D01*
X145580000Y-116000448D01*
X145580000Y-116399552D01*
X145577457Y-116425367D01*
X145570788Y-116447355D01*
X145559955Y-116467620D01*
X145545380Y-116485380D01*
X145527620Y-116499955D01*
X145507355Y-116510788D01*
X145485367Y-116517457D01*
X145459552Y-116520000D01*
X145110448Y-116520000D01*
X145084633Y-116517457D01*
X145062645Y-116510788D01*
X145042380Y-116499955D01*
X145024620Y-116485380D01*
X145010045Y-116467620D01*
X144999212Y-116447355D01*
X144992543Y-116425367D01*
X144990000Y-116399552D01*
X144990000Y-116000448D01*
X144992543Y-115974633D01*
X144999212Y-115952645D01*
X145010045Y-115932380D01*
X145024620Y-115914620D01*
X145042380Y-115900045D01*
X145062645Y-115889212D01*
X145084633Y-115882543D01*
X145110448Y-115880000D01*
X145459552Y-115880000D01*
X145485367Y-115882543D01*
G37*
G36*
X144515367Y-115882543D02*
G01*
X144537355Y-115889212D01*
X144557620Y-115900045D01*
X144575380Y-115914620D01*
X144589955Y-115932380D01*
X144600788Y-115952645D01*
X144607457Y-115974633D01*
X144610000Y-116000448D01*
X144610000Y-116399552D01*
X144607457Y-116425367D01*
X144600788Y-116447355D01*
X144589955Y-116467620D01*
X144575380Y-116485380D01*
X144557620Y-116499955D01*
X144537355Y-116510788D01*
X144515367Y-116517457D01*
X144489552Y-116520000D01*
X144140448Y-116520000D01*
X144114633Y-116517457D01*
X144092645Y-116510788D01*
X144072380Y-116499955D01*
X144054620Y-116485380D01*
X144040045Y-116467620D01*
X144029212Y-116447355D01*
X144022543Y-116425367D01*
X144020000Y-116399552D01*
X144020000Y-116000448D01*
X144022543Y-115974633D01*
X144029212Y-115952645D01*
X144040045Y-115932380D01*
X144054620Y-115914620D01*
X144072380Y-115900045D01*
X144092645Y-115889212D01*
X144114633Y-115882543D01*
X144140448Y-115880000D01*
X144489552Y-115880000D01*
X144515367Y-115882543D01*
G37*
G36*
X140327000Y-116490000D02*
G01*
X140073000Y-116490000D01*
X140073000Y-115590000D01*
X140327000Y-115590000D01*
X140327000Y-116490000D01*
G37*
G36*
X141327000Y-116490000D02*
G01*
X141073000Y-116490000D01*
X141073000Y-115590000D01*
X141327000Y-115590000D01*
X141327000Y-116490000D01*
G37*
G36*
X140827000Y-116490000D02*
G01*
X140573000Y-116490000D01*
X140573000Y-115590000D01*
X140827000Y-115590000D01*
X140827000Y-116490000D01*
G37*
G36*
X141827000Y-116490000D02*
G01*
X141573000Y-116490000D01*
X141573000Y-115590000D01*
X141827000Y-115590000D01*
X141827000Y-116490000D01*
G37*
G36*
X139327000Y-116490000D02*
G01*
X139073000Y-116490000D01*
X139073000Y-115590000D01*
X139327000Y-115590000D01*
X139327000Y-116490000D01*
G37*
G36*
X138827000Y-116490000D02*
G01*
X138573000Y-116490000D01*
X138573000Y-115590000D01*
X138827000Y-115590000D01*
X138827000Y-116490000D01*
G37*
G36*
X139827000Y-116490000D02*
G01*
X139573000Y-116490000D01*
X139573000Y-115590000D01*
X139827000Y-115590000D01*
X139827000Y-116490000D01*
G37*
G36*
X144515367Y-114832543D02*
G01*
X144537355Y-114839212D01*
X144557620Y-114850045D01*
X144575380Y-114864620D01*
X144589955Y-114882380D01*
X144600788Y-114902645D01*
X144607457Y-114924633D01*
X144610000Y-114950448D01*
X144610000Y-115349552D01*
X144607457Y-115375367D01*
X144600788Y-115397355D01*
X144589955Y-115417620D01*
X144575380Y-115435380D01*
X144557620Y-115449955D01*
X144537355Y-115460788D01*
X144515367Y-115467457D01*
X144489552Y-115470000D01*
X144140448Y-115470000D01*
X144114633Y-115467457D01*
X144092645Y-115460788D01*
X144072380Y-115449955D01*
X144054620Y-115435380D01*
X144040045Y-115417620D01*
X144029212Y-115397355D01*
X144022543Y-115375367D01*
X144020000Y-115349552D01*
X144020000Y-114950448D01*
X144022543Y-114924633D01*
X144029212Y-114902645D01*
X144040045Y-114882380D01*
X144054620Y-114864620D01*
X144072380Y-114850045D01*
X144092645Y-114839212D01*
X144114633Y-114832543D01*
X144140448Y-114830000D01*
X144489552Y-114830000D01*
X144515367Y-114832543D01*
G37*
G36*
X145485367Y-114832543D02*
G01*
X145507355Y-114839212D01*
X145527620Y-114850045D01*
X145545380Y-114864620D01*
X145559955Y-114882380D01*
X145570788Y-114902645D01*
X145577457Y-114924633D01*
X145580000Y-114950448D01*
X145580000Y-115349552D01*
X145577457Y-115375367D01*
X145570788Y-115397355D01*
X145559955Y-115417620D01*
X145545380Y-115435380D01*
X145527620Y-115449955D01*
X145507355Y-115460788D01*
X145485367Y-115467457D01*
X145459552Y-115470000D01*
X145110448Y-115470000D01*
X145084633Y-115467457D01*
X145062645Y-115460788D01*
X145042380Y-115449955D01*
X145024620Y-115435380D01*
X145010045Y-115417620D01*
X144999212Y-115397355D01*
X144992543Y-115375367D01*
X144990000Y-115349552D01*
X144990000Y-114950448D01*
X144992543Y-114924633D01*
X144999212Y-114902645D01*
X145010045Y-114882380D01*
X145024620Y-114864620D01*
X145042380Y-114850045D01*
X145062645Y-114839212D01*
X145084633Y-114832543D01*
X145110448Y-114830000D01*
X145459552Y-114830000D01*
X145485367Y-114832543D01*
G37*
G36*
X138060000Y-115077000D02*
G01*
X137160000Y-115077000D01*
X137160000Y-114823000D01*
X138060000Y-114823000D01*
X138060000Y-115077000D01*
G37*
G36*
X143240000Y-115077000D02*
G01*
X142340000Y-115077000D01*
X142340000Y-114823000D01*
X143240000Y-114823000D01*
X143240000Y-115077000D01*
G37*
G36*
X141750000Y-115000000D02*
G01*
X138650000Y-115000000D01*
X138650000Y-111900000D01*
X141750000Y-111900000D01*
X141750000Y-115000000D01*
G37*
G36*
X138060000Y-114577000D02*
G01*
X137160000Y-114577000D01*
X137160000Y-114323000D01*
X138060000Y-114323000D01*
X138060000Y-114577000D01*
G37*
G36*
X143240000Y-114577000D02*
G01*
X142340000Y-114577000D01*
X142340000Y-114323000D01*
X143240000Y-114323000D01*
X143240000Y-114577000D01*
G37*
G36*
X144515367Y-113782543D02*
G01*
X144537355Y-113789212D01*
X144557620Y-113800045D01*
X144575380Y-113814620D01*
X144589955Y-113832380D01*
X144600788Y-113852645D01*
X144607457Y-113874633D01*
X144610000Y-113900448D01*
X144610000Y-114299552D01*
X144607457Y-114325367D01*
X144600788Y-114347355D01*
X144589955Y-114367620D01*
X144575380Y-114385380D01*
X144557620Y-114399955D01*
X144537355Y-114410788D01*
X144515367Y-114417457D01*
X144489552Y-114420000D01*
X144140448Y-114420000D01*
X144114633Y-114417457D01*
X144092645Y-114410788D01*
X144072380Y-114399955D01*
X144054620Y-114385380D01*
X144040045Y-114367620D01*
X144029212Y-114347355D01*
X144022543Y-114325367D01*
X144020000Y-114299552D01*
X144020000Y-113900448D01*
X144022543Y-113874633D01*
X144029212Y-113852645D01*
X144040045Y-113832380D01*
X144054620Y-113814620D01*
X144072380Y-113800045D01*
X144092645Y-113789212D01*
X144114633Y-113782543D01*
X144140448Y-113780000D01*
X144489552Y-113780000D01*
X144515367Y-113782543D01*
G37*
G36*
X145485367Y-113782543D02*
G01*
X145507355Y-113789212D01*
X145527620Y-113800045D01*
X145545380Y-113814620D01*
X145559955Y-113832380D01*
X145570788Y-113852645D01*
X145577457Y-113874633D01*
X145580000Y-113900448D01*
X145580000Y-114299552D01*
X145577457Y-114325367D01*
X145570788Y-114347355D01*
X145559955Y-114367620D01*
X145545380Y-114385380D01*
X145527620Y-114399955D01*
X145507355Y-114410788D01*
X145485367Y-114417457D01*
X145459552Y-114420000D01*
X145110448Y-114420000D01*
X145084633Y-114417457D01*
X145062645Y-114410788D01*
X145042380Y-114399955D01*
X145024620Y-114385380D01*
X145010045Y-114367620D01*
X144999212Y-114347355D01*
X144992543Y-114325367D01*
X144990000Y-114299552D01*
X144990000Y-113900448D01*
X144992543Y-113874633D01*
X144999212Y-113852645D01*
X145010045Y-113832380D01*
X145024620Y-113814620D01*
X145042380Y-113800045D01*
X145062645Y-113789212D01*
X145084633Y-113782543D01*
X145110448Y-113780000D01*
X145459552Y-113780000D01*
X145485367Y-113782543D01*
G37*
G36*
X143240000Y-114077000D02*
G01*
X142340000Y-114077000D01*
X142340000Y-113823000D01*
X143240000Y-113823000D01*
X143240000Y-114077000D01*
G37*
G36*
X138060000Y-114077000D02*
G01*
X137160000Y-114077000D01*
X137160000Y-113823000D01*
X138060000Y-113823000D01*
X138060000Y-114077000D01*
G37*
G36*
X143240000Y-113577000D02*
G01*
X142340000Y-113577000D01*
X142340000Y-113323000D01*
X143240000Y-113323000D01*
X143240000Y-113577000D01*
G37*
G36*
X138060000Y-113577000D02*
G01*
X137160000Y-113577000D01*
X137160000Y-113323000D01*
X138060000Y-113323000D01*
X138060000Y-113577000D01*
G37*
G36*
X124751890Y-111954416D02*
G01*
X124792164Y-111966633D01*
X124829288Y-111986477D01*
X124861823Y-112013177D01*
X124888523Y-112045712D01*
X124908367Y-112082836D01*
X124920584Y-112123110D01*
X124925000Y-112167947D01*
X124925000Y-112932053D01*
X124920584Y-112976890D01*
X124908367Y-113017164D01*
X124888523Y-113054288D01*
X124861823Y-113086823D01*
X124829288Y-113113523D01*
X124792164Y-113133367D01*
X124751890Y-113145584D01*
X124707053Y-113150000D01*
X123342947Y-113150000D01*
X123298110Y-113145584D01*
X123257836Y-113133367D01*
X123220712Y-113113523D01*
X123188177Y-113086823D01*
X123161477Y-113054288D01*
X123141633Y-113017164D01*
X123129416Y-112976890D01*
X123125000Y-112932053D01*
X123125000Y-112167947D01*
X123129416Y-112123110D01*
X123141633Y-112082836D01*
X123161477Y-112045712D01*
X123188177Y-112013177D01*
X123220712Y-111986477D01*
X123257836Y-111966633D01*
X123298110Y-111954416D01*
X123342947Y-111950000D01*
X124707053Y-111950000D01*
X124751890Y-111954416D01*
G37*
G36*
X143240000Y-113077000D02*
G01*
X142340000Y-113077000D01*
X142340000Y-112823000D01*
X143240000Y-112823000D01*
X143240000Y-113077000D01*
G37*
G36*
X138060000Y-113077000D02*
G01*
X137160000Y-113077000D01*
X137160000Y-112823000D01*
X138060000Y-112823000D01*
X138060000Y-113077000D01*
G37*
G36*
X138060000Y-112577000D02*
G01*
X137160000Y-112577000D01*
X137160000Y-112323000D01*
X138060000Y-112323000D01*
X138060000Y-112577000D01*
G37*
G36*
X143240000Y-112577000D02*
G01*
X142340000Y-112577000D01*
X142340000Y-112323000D01*
X143240000Y-112323000D01*
X143240000Y-112577000D01*
G37*
G36*
X138060000Y-112077000D02*
G01*
X137160000Y-112077000D01*
X137160000Y-111823000D01*
X138060000Y-111823000D01*
X138060000Y-112077000D01*
G37*
G36*
X143240000Y-112077000D02*
G01*
X142340000Y-112077000D01*
X142340000Y-111823000D01*
X143240000Y-111823000D01*
X143240000Y-112077000D01*
G37*
G36*
X128578351Y-110952591D02*
G01*
X128600812Y-110959404D01*
X128621511Y-110970468D01*
X128639648Y-110985352D01*
X128654532Y-111003489D01*
X128665596Y-111024188D01*
X128672409Y-111046649D01*
X128675000Y-111072948D01*
X128675000Y-111427052D01*
X128672409Y-111453351D01*
X128665596Y-111475812D01*
X128654532Y-111496511D01*
X128639648Y-111514648D01*
X128621511Y-111529532D01*
X128600812Y-111540596D01*
X128578351Y-111547409D01*
X128552052Y-111550000D01*
X127247948Y-111550000D01*
X127221649Y-111547409D01*
X127199188Y-111540596D01*
X127178489Y-111529532D01*
X127160352Y-111514648D01*
X127145468Y-111496511D01*
X127134404Y-111475812D01*
X127127591Y-111453351D01*
X127125000Y-111427052D01*
X127125000Y-111072948D01*
X127127591Y-111046649D01*
X127134404Y-111024188D01*
X127145468Y-111003489D01*
X127160352Y-110985352D01*
X127178489Y-110970468D01*
X127199188Y-110959404D01*
X127221649Y-110952591D01*
X127247948Y-110950000D01*
X128552052Y-110950000D01*
X128578351Y-110952591D01*
G37*
G36*
X140327000Y-111310000D02*
G01*
X140073000Y-111310000D01*
X140073000Y-110410000D01*
X140327000Y-110410000D01*
X140327000Y-111310000D01*
G37*
G36*
X141827000Y-111310000D02*
G01*
X141573000Y-111310000D01*
X141573000Y-110410000D01*
X141827000Y-110410000D01*
X141827000Y-111310000D01*
G37*
G36*
X141327000Y-111310000D02*
G01*
X141073000Y-111310000D01*
X141073000Y-110410000D01*
X141327000Y-110410000D01*
X141327000Y-111310000D01*
G37*
G36*
X140827000Y-111310000D02*
G01*
X140573000Y-111310000D01*
X140573000Y-110410000D01*
X140827000Y-110410000D01*
X140827000Y-111310000D01*
G37*
G36*
X139827000Y-111310000D02*
G01*
X139573000Y-111310000D01*
X139573000Y-110410000D01*
X139827000Y-110410000D01*
X139827000Y-111310000D01*
G37*
G36*
X139327000Y-111310000D02*
G01*
X139073000Y-111310000D01*
X139073000Y-110410000D01*
X139327000Y-110410000D01*
X139327000Y-111310000D01*
G37*
G36*
X138827000Y-111310000D02*
G01*
X138573000Y-111310000D01*
X138573000Y-110410000D01*
X138827000Y-110410000D01*
X138827000Y-111310000D01*
G37*
G36*
X128578351Y-109952591D02*
G01*
X128600812Y-109959404D01*
X128621511Y-109970468D01*
X128639648Y-109985352D01*
X128654532Y-110003489D01*
X128665596Y-110024188D01*
X128672409Y-110046649D01*
X128675000Y-110072948D01*
X128675000Y-110427052D01*
X128672409Y-110453351D01*
X128665596Y-110475812D01*
X128654532Y-110496511D01*
X128639648Y-110514648D01*
X128621511Y-110529532D01*
X128600812Y-110540596D01*
X128578351Y-110547409D01*
X128552052Y-110550000D01*
X127247948Y-110550000D01*
X127221649Y-110547409D01*
X127199188Y-110540596D01*
X127178489Y-110529532D01*
X127160352Y-110514648D01*
X127145468Y-110496511D01*
X127134404Y-110475812D01*
X127127591Y-110453351D01*
X127125000Y-110427052D01*
X127125000Y-110072948D01*
X127127591Y-110046649D01*
X127134404Y-110024188D01*
X127145468Y-110003489D01*
X127160352Y-109985352D01*
X127178489Y-109970468D01*
X127199188Y-109959404D01*
X127221649Y-109952591D01*
X127247948Y-109950000D01*
X128552052Y-109950000D01*
X128578351Y-109952591D01*
G37*
G36*
X124751890Y-108354416D02*
G01*
X124792164Y-108366633D01*
X124829288Y-108386477D01*
X124861823Y-108413177D01*
X124888523Y-108445712D01*
X124908367Y-108482836D01*
X124920584Y-108523110D01*
X124925000Y-108567947D01*
X124925000Y-109332053D01*
X124920584Y-109376890D01*
X124908367Y-109417164D01*
X124888523Y-109454288D01*
X124861823Y-109486823D01*
X124829288Y-109513523D01*
X124792164Y-109533367D01*
X124751890Y-109545584D01*
X124707053Y-109550000D01*
X123342947Y-109550000D01*
X123298110Y-109545584D01*
X123257836Y-109533367D01*
X123220712Y-109513523D01*
X123188177Y-109486823D01*
X123161477Y-109454288D01*
X123141633Y-109417164D01*
X123129416Y-109376890D01*
X123125000Y-109332053D01*
X123125000Y-108567947D01*
X123129416Y-108523110D01*
X123141633Y-108482836D01*
X123161477Y-108445712D01*
X123188177Y-108413177D01*
X123220712Y-108386477D01*
X123257836Y-108366633D01*
X123298110Y-108354416D01*
X123342947Y-108350000D01*
X124707053Y-108350000D01*
X124751890Y-108354416D01*
G37*
G36*
X145739046Y-103086412D02*
G01*
X145788019Y-103091235D01*
X145825717Y-103102671D01*
X145882267Y-103119825D01*
X145969129Y-103166254D01*
X146045264Y-103228736D01*
X146107746Y-103304871D01*
X146154175Y-103391733D01*
X146171329Y-103448283D01*
X146182765Y-103485981D01*
X146192419Y-103584000D01*
X146182765Y-103682019D01*
X146171329Y-103719717D01*
X146154175Y-103776267D01*
X146107746Y-103863129D01*
X146045264Y-103939264D01*
X145969129Y-104001746D01*
X145882267Y-104048175D01*
X145825717Y-104065329D01*
X145788019Y-104076765D01*
X145739046Y-104081588D01*
X145714560Y-104084000D01*
X144165440Y-104084000D01*
X144140954Y-104081588D01*
X144091981Y-104076765D01*
X144054283Y-104065329D01*
X143997733Y-104048175D01*
X143910871Y-104001746D01*
X143834736Y-103939264D01*
X143772254Y-103863129D01*
X143725825Y-103776267D01*
X143708671Y-103719717D01*
X143697235Y-103682019D01*
X143687581Y-103584000D01*
X143697235Y-103485981D01*
X143708671Y-103448283D01*
X143725825Y-103391733D01*
X143772254Y-103304871D01*
X143834736Y-103228736D01*
X143910871Y-103166254D01*
X143997733Y-103119825D01*
X144054283Y-103102671D01*
X144091981Y-103091235D01*
X144140954Y-103086412D01*
X144165440Y-103084000D01*
X145714560Y-103084000D01*
X145739046Y-103086412D01*
G37*
G36*
X130239046Y-103086412D02*
G01*
X130288019Y-103091235D01*
X130325717Y-103102671D01*
X130382267Y-103119825D01*
X130469129Y-103166254D01*
X130545264Y-103228736D01*
X130607746Y-103304871D01*
X130654175Y-103391733D01*
X130671329Y-103448283D01*
X130682765Y-103485981D01*
X130692419Y-103584000D01*
X130682765Y-103682019D01*
X130671329Y-103719717D01*
X130654175Y-103776267D01*
X130607746Y-103863129D01*
X130545264Y-103939264D01*
X130469129Y-104001746D01*
X130382267Y-104048175D01*
X130325717Y-104065329D01*
X130288019Y-104076765D01*
X130239046Y-104081588D01*
X130214560Y-104084000D01*
X128665440Y-104084000D01*
X128640954Y-104081588D01*
X128591981Y-104076765D01*
X128554283Y-104065329D01*
X128497733Y-104048175D01*
X128410871Y-104001746D01*
X128334736Y-103939264D01*
X128272254Y-103863129D01*
X128225825Y-103776267D01*
X128208671Y-103719717D01*
X128197235Y-103682019D01*
X128187581Y-103584000D01*
X128197235Y-103485981D01*
X128208671Y-103448283D01*
X128225825Y-103391733D01*
X128272254Y-103304871D01*
X128334736Y-103228736D01*
X128410871Y-103166254D01*
X128497733Y-103119825D01*
X128554283Y-103102671D01*
X128591981Y-103091235D01*
X128640954Y-103086412D01*
X128665440Y-103084000D01*
X130214560Y-103084000D01*
X130239046Y-103086412D01*
G37*
G36*
X150375000Y-103965000D02*
G01*
X150025000Y-103965000D01*
X150025000Y-103155000D01*
X150375000Y-103155000D01*
X150375000Y-103965000D01*
G37*
G36*
X151375000Y-103965000D02*
G01*
X151025000Y-103965000D01*
X151025000Y-103155000D01*
X151375000Y-103155000D01*
X151375000Y-103965000D01*
G37*
G36*
X150875000Y-102645000D02*
G01*
X150525000Y-102645000D01*
X150525000Y-101835000D01*
X150875000Y-101835000D01*
X150875000Y-102645000D01*
G37*
G36*
X124725367Y-101727543D02*
G01*
X124747355Y-101734212D01*
X124767620Y-101745045D01*
X124785380Y-101759620D01*
X124799955Y-101777380D01*
X124810788Y-101797645D01*
X124817457Y-101819633D01*
X124820000Y-101845448D01*
X124820000Y-102194552D01*
X124817457Y-102220367D01*
X124810788Y-102242355D01*
X124799955Y-102262620D01*
X124785380Y-102280380D01*
X124767620Y-102294955D01*
X124747355Y-102305788D01*
X124725367Y-102312457D01*
X124699552Y-102315000D01*
X124300448Y-102315000D01*
X124274633Y-102312457D01*
X124252645Y-102305788D01*
X124232380Y-102294955D01*
X124214620Y-102280380D01*
X124200045Y-102262620D01*
X124189212Y-102242355D01*
X124182543Y-102220367D01*
X124180000Y-102194552D01*
X124180000Y-101845448D01*
X124182543Y-101819633D01*
X124189212Y-101797645D01*
X124200045Y-101777380D01*
X124214620Y-101759620D01*
X124232380Y-101745045D01*
X124252645Y-101734212D01*
X124274633Y-101727543D01*
X124300448Y-101725000D01*
X124699552Y-101725000D01*
X124725367Y-101727543D01*
G37*
G36*
X123675367Y-101727543D02*
G01*
X123697355Y-101734212D01*
X123717620Y-101745045D01*
X123735380Y-101759620D01*
X123749955Y-101777380D01*
X123760788Y-101797645D01*
X123767457Y-101819633D01*
X123770000Y-101845448D01*
X123770000Y-102194552D01*
X123767457Y-102220367D01*
X123760788Y-102242355D01*
X123749955Y-102262620D01*
X123735380Y-102280380D01*
X123717620Y-102294955D01*
X123697355Y-102305788D01*
X123675367Y-102312457D01*
X123649552Y-102315000D01*
X123250448Y-102315000D01*
X123224633Y-102312457D01*
X123202645Y-102305788D01*
X123182380Y-102294955D01*
X123164620Y-102280380D01*
X123150045Y-102262620D01*
X123139212Y-102242355D01*
X123132543Y-102220367D01*
X123130000Y-102194552D01*
X123130000Y-101845448D01*
X123132543Y-101819633D01*
X123139212Y-101797645D01*
X123150045Y-101777380D01*
X123164620Y-101759620D01*
X123182380Y-101745045D01*
X123202645Y-101734212D01*
X123224633Y-101727543D01*
X123250448Y-101725000D01*
X123649552Y-101725000D01*
X123675367Y-101727543D01*
G37*
G36*
X145739046Y-100546412D02*
G01*
X145788019Y-100551235D01*
X145825717Y-100562671D01*
X145882267Y-100579825D01*
X145969129Y-100626254D01*
X146045264Y-100688736D01*
X146107746Y-100764871D01*
X146154175Y-100851733D01*
X146169575Y-100902500D01*
X146182765Y-100945981D01*
X146192419Y-101044000D01*
X146182765Y-101142019D01*
X146171329Y-101179717D01*
X146154175Y-101236267D01*
X146107746Y-101323129D01*
X146045264Y-101399264D01*
X145969129Y-101461746D01*
X145882267Y-101508175D01*
X145825717Y-101525329D01*
X145788019Y-101536765D01*
X145739046Y-101541588D01*
X145714560Y-101544000D01*
X144165440Y-101544000D01*
X144140954Y-101541588D01*
X144091981Y-101536765D01*
X144054283Y-101525329D01*
X143997733Y-101508175D01*
X143910871Y-101461746D01*
X143834736Y-101399264D01*
X143772254Y-101323129D01*
X143725825Y-101236267D01*
X143708671Y-101179717D01*
X143697235Y-101142019D01*
X143687581Y-101044000D01*
X143697235Y-100945981D01*
X143710425Y-100902500D01*
X143725825Y-100851733D01*
X143772254Y-100764871D01*
X143834736Y-100688736D01*
X143910871Y-100626254D01*
X143997733Y-100579825D01*
X144054283Y-100562671D01*
X144091981Y-100551235D01*
X144140954Y-100546412D01*
X144165440Y-100544000D01*
X145714560Y-100544000D01*
X145739046Y-100546412D01*
G37*
G36*
X130239046Y-100546412D02*
G01*
X130288019Y-100551235D01*
X130325717Y-100562671D01*
X130382267Y-100579825D01*
X130469129Y-100626254D01*
X130545264Y-100688736D01*
X130607746Y-100764871D01*
X130654175Y-100851733D01*
X130669575Y-100902500D01*
X130682765Y-100945981D01*
X130692419Y-101044000D01*
X130682765Y-101142019D01*
X130671329Y-101179717D01*
X130654175Y-101236267D01*
X130607746Y-101323129D01*
X130545264Y-101399264D01*
X130469129Y-101461746D01*
X130382267Y-101508175D01*
X130325717Y-101525329D01*
X130288019Y-101536765D01*
X130239046Y-101541588D01*
X130214560Y-101544000D01*
X128665440Y-101544000D01*
X128640954Y-101541588D01*
X128591981Y-101536765D01*
X128554283Y-101525329D01*
X128497733Y-101508175D01*
X128410871Y-101461746D01*
X128334736Y-101399264D01*
X128272254Y-101323129D01*
X128225825Y-101236267D01*
X128208671Y-101179717D01*
X128197235Y-101142019D01*
X128187581Y-101044000D01*
X128197235Y-100945981D01*
X128210425Y-100902500D01*
X128225825Y-100851733D01*
X128272254Y-100764871D01*
X128334736Y-100688736D01*
X128410871Y-100626254D01*
X128497733Y-100579825D01*
X128554283Y-100562671D01*
X128591981Y-100551235D01*
X128640954Y-100546412D01*
X128665440Y-100544000D01*
X130214560Y-100544000D01*
X130239046Y-100546412D01*
G37*
G36*
X123675367Y-100757543D02*
G01*
X123697355Y-100764212D01*
X123717620Y-100775045D01*
X123735380Y-100789620D01*
X123749955Y-100807380D01*
X123760788Y-100827645D01*
X123767457Y-100849633D01*
X123770000Y-100875448D01*
X123770000Y-101224552D01*
X123767457Y-101250367D01*
X123760788Y-101272355D01*
X123749955Y-101292620D01*
X123735380Y-101310380D01*
X123717620Y-101324955D01*
X123697355Y-101335788D01*
X123675367Y-101342457D01*
X123649552Y-101345000D01*
X123250448Y-101345000D01*
X123224633Y-101342457D01*
X123202645Y-101335788D01*
X123182380Y-101324955D01*
X123164620Y-101310380D01*
X123150045Y-101292620D01*
X123139212Y-101272355D01*
X123132543Y-101250367D01*
X123130000Y-101224552D01*
X123130000Y-100875448D01*
X123132543Y-100849633D01*
X123139212Y-100827645D01*
X123150045Y-100807380D01*
X123164620Y-100789620D01*
X123182380Y-100775045D01*
X123202645Y-100764212D01*
X123224633Y-100757543D01*
X123250448Y-100755000D01*
X123649552Y-100755000D01*
X123675367Y-100757543D01*
G37*
G36*
X124725367Y-100757543D02*
G01*
X124747355Y-100764212D01*
X124767620Y-100775045D01*
X124785380Y-100789620D01*
X124799955Y-100807380D01*
X124810788Y-100827645D01*
X124817457Y-100849633D01*
X124820000Y-100875448D01*
X124820000Y-101224552D01*
X124817457Y-101250367D01*
X124810788Y-101272355D01*
X124799955Y-101292620D01*
X124785380Y-101310380D01*
X124767620Y-101324955D01*
X124747355Y-101335788D01*
X124725367Y-101342457D01*
X124699552Y-101345000D01*
X124300448Y-101345000D01*
X124274633Y-101342457D01*
X124252645Y-101335788D01*
X124232380Y-101324955D01*
X124214620Y-101310380D01*
X124200045Y-101292620D01*
X124189212Y-101272355D01*
X124182543Y-101250367D01*
X124180000Y-101224552D01*
X124180000Y-100875448D01*
X124182543Y-100849633D01*
X124189212Y-100827645D01*
X124200045Y-100807380D01*
X124214620Y-100789620D01*
X124232380Y-100775045D01*
X124252645Y-100764212D01*
X124274633Y-100757543D01*
X124300448Y-100755000D01*
X124699552Y-100755000D01*
X124725367Y-100757543D01*
G37*
G36*
X150375000Y-100155000D02*
G01*
X150025000Y-100155000D01*
X150025000Y-99345000D01*
X150375000Y-99345000D01*
X150375000Y-100155000D01*
G37*
G36*
X151375000Y-100155000D02*
G01*
X151025000Y-100155000D01*
X151025000Y-99345000D01*
X151375000Y-99345000D01*
X151375000Y-100155000D01*
G37*
G36*
X145739046Y-98006412D02*
G01*
X145788019Y-98011235D01*
X145825717Y-98022671D01*
X145882267Y-98039825D01*
X145969129Y-98086254D01*
X146045264Y-98148736D01*
X146107746Y-98224871D01*
X146154175Y-98311733D01*
X146157812Y-98323724D01*
X146182765Y-98405981D01*
X146192419Y-98504000D01*
X146182765Y-98602019D01*
X146171329Y-98639717D01*
X146154175Y-98696267D01*
X146107746Y-98783129D01*
X146045264Y-98859264D01*
X145969129Y-98921746D01*
X145882267Y-98968175D01*
X145825717Y-98985329D01*
X145788019Y-98996765D01*
X145739046Y-99001588D01*
X145714560Y-99004000D01*
X144165440Y-99004000D01*
X144140954Y-99001588D01*
X144091981Y-98996765D01*
X144054283Y-98985329D01*
X143997733Y-98968175D01*
X143910871Y-98921746D01*
X143834736Y-98859264D01*
X143772254Y-98783129D01*
X143725825Y-98696267D01*
X143708671Y-98639717D01*
X143697235Y-98602019D01*
X143687581Y-98504000D01*
X143697235Y-98405981D01*
X143722188Y-98323724D01*
X143725825Y-98311733D01*
X143772254Y-98224871D01*
X143834736Y-98148736D01*
X143910871Y-98086254D01*
X143997733Y-98039825D01*
X144054283Y-98022671D01*
X144091981Y-98011235D01*
X144140954Y-98006412D01*
X144165440Y-98004000D01*
X145714560Y-98004000D01*
X145739046Y-98006412D01*
G37*
G36*
X130239046Y-98006412D02*
G01*
X130288019Y-98011235D01*
X130325717Y-98022671D01*
X130382267Y-98039825D01*
X130469129Y-98086254D01*
X130545264Y-98148736D01*
X130607746Y-98224871D01*
X130654175Y-98311733D01*
X130657812Y-98323724D01*
X130682765Y-98405981D01*
X130692419Y-98504000D01*
X130682765Y-98602019D01*
X130671329Y-98639717D01*
X130654175Y-98696267D01*
X130607746Y-98783129D01*
X130545264Y-98859264D01*
X130469129Y-98921746D01*
X130382267Y-98968175D01*
X130325717Y-98985329D01*
X130288019Y-98996765D01*
X130239046Y-99001588D01*
X130214560Y-99004000D01*
X128665440Y-99004000D01*
X128640954Y-99001588D01*
X128591981Y-98996765D01*
X128554283Y-98985329D01*
X128497733Y-98968175D01*
X128410871Y-98921746D01*
X128334736Y-98859264D01*
X128272254Y-98783129D01*
X128225825Y-98696267D01*
X128208671Y-98639717D01*
X128197235Y-98602019D01*
X128187581Y-98504000D01*
X128197235Y-98405981D01*
X128222188Y-98323724D01*
X128225825Y-98311733D01*
X128272254Y-98224871D01*
X128334736Y-98148736D01*
X128410871Y-98086254D01*
X128497733Y-98039825D01*
X128554283Y-98022671D01*
X128591981Y-98011235D01*
X128640954Y-98006412D01*
X128665440Y-98004000D01*
X130214560Y-98004000D01*
X130239046Y-98006412D01*
G37*
G36*
X150875000Y-98835000D02*
G01*
X150525000Y-98835000D01*
X150525000Y-98025000D01*
X150875000Y-98025000D01*
X150875000Y-98835000D01*
G37*
G36*
X124725367Y-98207543D02*
G01*
X124747355Y-98214212D01*
X124767620Y-98225045D01*
X124785380Y-98239620D01*
X124799955Y-98257380D01*
X124810788Y-98277645D01*
X124817457Y-98299633D01*
X124820000Y-98325448D01*
X124820000Y-98674552D01*
X124817457Y-98700367D01*
X124810788Y-98722355D01*
X124799955Y-98742620D01*
X124785380Y-98760380D01*
X124767620Y-98774955D01*
X124747355Y-98785788D01*
X124725367Y-98792457D01*
X124699552Y-98795000D01*
X124300448Y-98795000D01*
X124274633Y-98792457D01*
X124252645Y-98785788D01*
X124232380Y-98774955D01*
X124214620Y-98760380D01*
X124200045Y-98742620D01*
X124189212Y-98722355D01*
X124182543Y-98700367D01*
X124180000Y-98674552D01*
X124180000Y-98325448D01*
X124182543Y-98299633D01*
X124189212Y-98277645D01*
X124200045Y-98257380D01*
X124214620Y-98239620D01*
X124232380Y-98225045D01*
X124252645Y-98214212D01*
X124274633Y-98207543D01*
X124300448Y-98205000D01*
X124699552Y-98205000D01*
X124725367Y-98207543D01*
G37*
G36*
X123725367Y-98207543D02*
G01*
X123747355Y-98214212D01*
X123767620Y-98225045D01*
X123785380Y-98239620D01*
X123799955Y-98257380D01*
X123810788Y-98277645D01*
X123817457Y-98299633D01*
X123820000Y-98325448D01*
X123820000Y-98674552D01*
X123817457Y-98700367D01*
X123810788Y-98722355D01*
X123799955Y-98742620D01*
X123785380Y-98760380D01*
X123767620Y-98774955D01*
X123747355Y-98785788D01*
X123725367Y-98792457D01*
X123699552Y-98795000D01*
X123300448Y-98795000D01*
X123274633Y-98792457D01*
X123252645Y-98785788D01*
X123232380Y-98774955D01*
X123214620Y-98760380D01*
X123200045Y-98742620D01*
X123189212Y-98722355D01*
X123182543Y-98700367D01*
X123180000Y-98674552D01*
X123180000Y-98325448D01*
X123182543Y-98299633D01*
X123189212Y-98277645D01*
X123200045Y-98257380D01*
X123214620Y-98239620D01*
X123232380Y-98225045D01*
X123252645Y-98214212D01*
X123274633Y-98207543D01*
X123300448Y-98205000D01*
X123699552Y-98205000D01*
X123725367Y-98207543D01*
G37*
G36*
X123725367Y-97237543D02*
G01*
X123747355Y-97244212D01*
X123767620Y-97255045D01*
X123785380Y-97269620D01*
X123799955Y-97287380D01*
X123810788Y-97307645D01*
X123817457Y-97329633D01*
X123820000Y-97355448D01*
X123820000Y-97704552D01*
X123817457Y-97730367D01*
X123810788Y-97752355D01*
X123799955Y-97772620D01*
X123785380Y-97790380D01*
X123767620Y-97804955D01*
X123747355Y-97815788D01*
X123725367Y-97822457D01*
X123699552Y-97825000D01*
X123300448Y-97825000D01*
X123274633Y-97822457D01*
X123252645Y-97815788D01*
X123232380Y-97804955D01*
X123214620Y-97790380D01*
X123200045Y-97772620D01*
X123189212Y-97752355D01*
X123182543Y-97730367D01*
X123180000Y-97704552D01*
X123180000Y-97355448D01*
X123182543Y-97329633D01*
X123189212Y-97307645D01*
X123200045Y-97287380D01*
X123214620Y-97269620D01*
X123232380Y-97255045D01*
X123252645Y-97244212D01*
X123274633Y-97237543D01*
X123300448Y-97235000D01*
X123699552Y-97235000D01*
X123725367Y-97237543D01*
G37*
G36*
X124725367Y-97237543D02*
G01*
X124747355Y-97244212D01*
X124767620Y-97255045D01*
X124785380Y-97269620D01*
X124799955Y-97287380D01*
X124810788Y-97307645D01*
X124817457Y-97329633D01*
X124820000Y-97355448D01*
X124820000Y-97704552D01*
X124817457Y-97730367D01*
X124810788Y-97752355D01*
X124799955Y-97772620D01*
X124785380Y-97790380D01*
X124767620Y-97804955D01*
X124747355Y-97815788D01*
X124725367Y-97822457D01*
X124699552Y-97825000D01*
X124300448Y-97825000D01*
X124274633Y-97822457D01*
X124252645Y-97815788D01*
X124232380Y-97804955D01*
X124214620Y-97790380D01*
X124200045Y-97772620D01*
X124189212Y-97752355D01*
X124182543Y-97730367D01*
X124180000Y-97704552D01*
X124180000Y-97355448D01*
X124182543Y-97329633D01*
X124189212Y-97307645D01*
X124200045Y-97287380D01*
X124214620Y-97269620D01*
X124232380Y-97255045D01*
X124252645Y-97244212D01*
X124274633Y-97237543D01*
X124300448Y-97235000D01*
X124699552Y-97235000D01*
X124725367Y-97237543D01*
G37*
G36*
X145739046Y-95466412D02*
G01*
X145788019Y-95471235D01*
X145825717Y-95482671D01*
X145882267Y-95499825D01*
X145969129Y-95546254D01*
X146045264Y-95608736D01*
X146107746Y-95684871D01*
X146154175Y-95771733D01*
X146171329Y-95828283D01*
X146182765Y-95865981D01*
X146192419Y-95964000D01*
X146182765Y-96062019D01*
X146171329Y-96099717D01*
X146154175Y-96156267D01*
X146107746Y-96243129D01*
X146045264Y-96319264D01*
X145969129Y-96381746D01*
X145882267Y-96428175D01*
X145825717Y-96445329D01*
X145788019Y-96456765D01*
X145739046Y-96461588D01*
X145714560Y-96464000D01*
X144165440Y-96464000D01*
X144140954Y-96461588D01*
X144091981Y-96456765D01*
X144054283Y-96445329D01*
X143997733Y-96428175D01*
X143910871Y-96381746D01*
X143834736Y-96319264D01*
X143772254Y-96243129D01*
X143725825Y-96156267D01*
X143708671Y-96099717D01*
X143697235Y-96062019D01*
X143687581Y-95964000D01*
X143697235Y-95865981D01*
X143708671Y-95828283D01*
X143725825Y-95771733D01*
X143772254Y-95684871D01*
X143834736Y-95608736D01*
X143910871Y-95546254D01*
X143997733Y-95499825D01*
X144054283Y-95482671D01*
X144091981Y-95471235D01*
X144140954Y-95466412D01*
X144165440Y-95464000D01*
X145714560Y-95464000D01*
X145739046Y-95466412D01*
G37*
G36*
X130239046Y-95466412D02*
G01*
X130288019Y-95471235D01*
X130325717Y-95482671D01*
X130382267Y-95499825D01*
X130469129Y-95546254D01*
X130545264Y-95608736D01*
X130607746Y-95684871D01*
X130654175Y-95771733D01*
X130671329Y-95828283D01*
X130682765Y-95865981D01*
X130692419Y-95964000D01*
X130682765Y-96062019D01*
X130671329Y-96099717D01*
X130654175Y-96156267D01*
X130607746Y-96243129D01*
X130545264Y-96319264D01*
X130469129Y-96381746D01*
X130382267Y-96428175D01*
X130325717Y-96445329D01*
X130288019Y-96456765D01*
X130239046Y-96461588D01*
X130214560Y-96464000D01*
X128665440Y-96464000D01*
X128640954Y-96461588D01*
X128591981Y-96456765D01*
X128554283Y-96445329D01*
X128497733Y-96428175D01*
X128410871Y-96381746D01*
X128334736Y-96319264D01*
X128272254Y-96243129D01*
X128225825Y-96156267D01*
X128208671Y-96099717D01*
X128197235Y-96062019D01*
X128187581Y-95964000D01*
X128197235Y-95865981D01*
X128208671Y-95828283D01*
X128225825Y-95771733D01*
X128272254Y-95684871D01*
X128334736Y-95608736D01*
X128410871Y-95546254D01*
X128497733Y-95499825D01*
X128554283Y-95482671D01*
X128591981Y-95471235D01*
X128640954Y-95466412D01*
X128665440Y-95464000D01*
X130214560Y-95464000D01*
X130239046Y-95466412D01*
G37*
G36*
X145739046Y-92926412D02*
G01*
X145788019Y-92931235D01*
X145825717Y-92942671D01*
X145882267Y-92959825D01*
X145969129Y-93006254D01*
X146045264Y-93068736D01*
X146107746Y-93144871D01*
X146154175Y-93231733D01*
X146171329Y-93288283D01*
X146182765Y-93325981D01*
X146192419Y-93424000D01*
X146182765Y-93522019D01*
X146171329Y-93559717D01*
X146154175Y-93616267D01*
X146107746Y-93703129D01*
X146045264Y-93779264D01*
X145969129Y-93841746D01*
X145882267Y-93888175D01*
X145825717Y-93905329D01*
X145788019Y-93916765D01*
X145739046Y-93921588D01*
X145714560Y-93924000D01*
X144165440Y-93924000D01*
X144140954Y-93921588D01*
X144091981Y-93916765D01*
X144054283Y-93905329D01*
X143997733Y-93888175D01*
X143910871Y-93841746D01*
X143834736Y-93779264D01*
X143772254Y-93703129D01*
X143725825Y-93616267D01*
X143708671Y-93559717D01*
X143697235Y-93522019D01*
X143687581Y-93424000D01*
X143697235Y-93325981D01*
X143708671Y-93288283D01*
X143725825Y-93231733D01*
X143772254Y-93144871D01*
X143834736Y-93068736D01*
X143910871Y-93006254D01*
X143997733Y-92959825D01*
X144054283Y-92942671D01*
X144091981Y-92931235D01*
X144140954Y-92926412D01*
X144165440Y-92924000D01*
X145714560Y-92924000D01*
X145739046Y-92926412D01*
G37*
G36*
X130239046Y-92926412D02*
G01*
X130288019Y-92931235D01*
X130325717Y-92942671D01*
X130382267Y-92959825D01*
X130469129Y-93006254D01*
X130545264Y-93068736D01*
X130607746Y-93144871D01*
X130654175Y-93231733D01*
X130671329Y-93288283D01*
X130682765Y-93325981D01*
X130692419Y-93424000D01*
X130682765Y-93522019D01*
X130671329Y-93559717D01*
X130654175Y-93616267D01*
X130607746Y-93703129D01*
X130545264Y-93779264D01*
X130469129Y-93841746D01*
X130382267Y-93888175D01*
X130325717Y-93905329D01*
X130288019Y-93916765D01*
X130239046Y-93921588D01*
X130214560Y-93924000D01*
X128665440Y-93924000D01*
X128640954Y-93921588D01*
X128591981Y-93916765D01*
X128554283Y-93905329D01*
X128497733Y-93888175D01*
X128410871Y-93841746D01*
X128334736Y-93779264D01*
X128272254Y-93703129D01*
X128225825Y-93616267D01*
X128208671Y-93559717D01*
X128197235Y-93522019D01*
X128187581Y-93424000D01*
X128197235Y-93325981D01*
X128208671Y-93288283D01*
X128225825Y-93231733D01*
X128272254Y-93144871D01*
X128334736Y-93068736D01*
X128410871Y-93006254D01*
X128497733Y-92959825D01*
X128554283Y-92942671D01*
X128591981Y-92931235D01*
X128640954Y-92926412D01*
X128665440Y-92924000D01*
X130214560Y-92924000D01*
X130239046Y-92926412D01*
G37*
G36*
X145739046Y-90386412D02*
G01*
X145788019Y-90391235D01*
X145825717Y-90402671D01*
X145882267Y-90419825D01*
X145969129Y-90466254D01*
X146045264Y-90528736D01*
X146107746Y-90604871D01*
X146154175Y-90691733D01*
X146171329Y-90748283D01*
X146182765Y-90785981D01*
X146192419Y-90884000D01*
X146182765Y-90982019D01*
X146171329Y-91019717D01*
X146154175Y-91076267D01*
X146107746Y-91163129D01*
X146045264Y-91239264D01*
X145969129Y-91301746D01*
X145882267Y-91348175D01*
X145825717Y-91365329D01*
X145788019Y-91376765D01*
X145739046Y-91381588D01*
X145714560Y-91384000D01*
X144165440Y-91384000D01*
X144140954Y-91381588D01*
X144091981Y-91376765D01*
X144054283Y-91365329D01*
X143997733Y-91348175D01*
X143910871Y-91301746D01*
X143834736Y-91239264D01*
X143772254Y-91163129D01*
X143725825Y-91076267D01*
X143708671Y-91019717D01*
X143697235Y-90982019D01*
X143687581Y-90884000D01*
X143697235Y-90785981D01*
X143708671Y-90748283D01*
X143725825Y-90691733D01*
X143772254Y-90604871D01*
X143834736Y-90528736D01*
X143910871Y-90466254D01*
X143997733Y-90419825D01*
X144054283Y-90402671D01*
X144091981Y-90391235D01*
X144140954Y-90386412D01*
X144165440Y-90384000D01*
X145714560Y-90384000D01*
X145739046Y-90386412D01*
G37*
G36*
X130239046Y-90386412D02*
G01*
X130288019Y-90391235D01*
X130325717Y-90402671D01*
X130382267Y-90419825D01*
X130469129Y-90466254D01*
X130545264Y-90528736D01*
X130607746Y-90604871D01*
X130654175Y-90691733D01*
X130671329Y-90748283D01*
X130682765Y-90785981D01*
X130692419Y-90884000D01*
X130682765Y-90982019D01*
X130671329Y-91019717D01*
X130654175Y-91076267D01*
X130607746Y-91163129D01*
X130545264Y-91239264D01*
X130469129Y-91301746D01*
X130382267Y-91348175D01*
X130325717Y-91365329D01*
X130288019Y-91376765D01*
X130239046Y-91381588D01*
X130214560Y-91384000D01*
X128665440Y-91384000D01*
X128640954Y-91381588D01*
X128591981Y-91376765D01*
X128554283Y-91365329D01*
X128497733Y-91348175D01*
X128410871Y-91301746D01*
X128334736Y-91239264D01*
X128272254Y-91163129D01*
X128225825Y-91076267D01*
X128208671Y-91019717D01*
X128197235Y-90982019D01*
X128187581Y-90884000D01*
X128197235Y-90785981D01*
X128208671Y-90748283D01*
X128225825Y-90691733D01*
X128272254Y-90604871D01*
X128334736Y-90528736D01*
X128410871Y-90466254D01*
X128497733Y-90419825D01*
X128554283Y-90402671D01*
X128591981Y-90391235D01*
X128640954Y-90386412D01*
X128665440Y-90384000D01*
X130214560Y-90384000D01*
X130239046Y-90386412D01*
G37*
G36*
X128001507Y-79024857D02*
G01*
X128001969Y-79024902D01*
X128004873Y-79025480D01*
X128004877Y-79025480D01*
X128004881Y-79025481D01*
X128007293Y-79025961D01*
X128011840Y-79027844D01*
X128015933Y-79030579D01*
X128017667Y-79032313D01*
X128017678Y-79032322D01*
X128017687Y-79032333D01*
X128019421Y-79034067D01*
X128022156Y-79038160D01*
X128024039Y-79042707D01*
X128025098Y-79048031D01*
X128025143Y-79048493D01*
X128025290Y-79051477D01*
X128025290Y-84848523D01*
X128025143Y-84851507D01*
X128025098Y-84851969D01*
X128024039Y-84857293D01*
X128022156Y-84861840D01*
X128019421Y-84865933D01*
X128017687Y-84867667D01*
X128017678Y-84867678D01*
X128017667Y-84867687D01*
X128015933Y-84869421D01*
X128011840Y-84872156D01*
X128007293Y-84874039D01*
X128004881Y-84874519D01*
X128004877Y-84874520D01*
X128004873Y-84874520D01*
X128001969Y-84875098D01*
X128001507Y-84875143D01*
X127998523Y-84875290D01*
X122201477Y-84875290D01*
X122198493Y-84875143D01*
X122198031Y-84875098D01*
X122195127Y-84874520D01*
X122195123Y-84874520D01*
X122195119Y-84874519D01*
X122192707Y-84874039D01*
X122188160Y-84872156D01*
X122184067Y-84869421D01*
X122182333Y-84867687D01*
X122182322Y-84867678D01*
X122182313Y-84867667D01*
X122180579Y-84865933D01*
X122177844Y-84861840D01*
X122175961Y-84857293D01*
X122174902Y-84851969D01*
X122174857Y-84851507D01*
X122174710Y-84848523D01*
X122174710Y-79051477D01*
X122174857Y-79048493D01*
X122174902Y-79048031D01*
X122175961Y-79042707D01*
X122177844Y-79038160D01*
X122180579Y-79034067D01*
X122182313Y-79032333D01*
X122182322Y-79032322D01*
X122182333Y-79032313D01*
X122184067Y-79030579D01*
X122188160Y-79027844D01*
X122192707Y-79025961D01*
X122195119Y-79025481D01*
X122195123Y-79025480D01*
X122195127Y-79025480D01*
X122198031Y-79024902D01*
X122198493Y-79024857D01*
X122201477Y-79024710D01*
X127998523Y-79024710D01*
X128001507Y-79024857D01*
G37*
G36*
X152201507Y-79024857D02*
G01*
X152201969Y-79024902D01*
X152204873Y-79025480D01*
X152204877Y-79025480D01*
X152204881Y-79025481D01*
X152207293Y-79025961D01*
X152211840Y-79027844D01*
X152215933Y-79030579D01*
X152217667Y-79032313D01*
X152217678Y-79032322D01*
X152217687Y-79032333D01*
X152219421Y-79034067D01*
X152222156Y-79038160D01*
X152224039Y-79042707D01*
X152225098Y-79048031D01*
X152225143Y-79048493D01*
X152225290Y-79051477D01*
X152225290Y-84848523D01*
X152225143Y-84851507D01*
X152225098Y-84851969D01*
X152224039Y-84857293D01*
X152222156Y-84861840D01*
X152219421Y-84865933D01*
X152217687Y-84867667D01*
X152217678Y-84867678D01*
X152217667Y-84867687D01*
X152215933Y-84869421D01*
X152211840Y-84872156D01*
X152207293Y-84874039D01*
X152204881Y-84874519D01*
X152204877Y-84874520D01*
X152204873Y-84874520D01*
X152201969Y-84875098D01*
X152201507Y-84875143D01*
X152198523Y-84875290D01*
X146401477Y-84875290D01*
X146398493Y-84875143D01*
X146398031Y-84875098D01*
X146395127Y-84874520D01*
X146395123Y-84874520D01*
X146395119Y-84874519D01*
X146392707Y-84874039D01*
X146388160Y-84872156D01*
X146384067Y-84869421D01*
X146382333Y-84867687D01*
X146382322Y-84867678D01*
X146382313Y-84867667D01*
X146380579Y-84865933D01*
X146377844Y-84861840D01*
X146375961Y-84857293D01*
X146374902Y-84851969D01*
X146374857Y-84851507D01*
X146374710Y-84848523D01*
X146374710Y-79051477D01*
X146374857Y-79048493D01*
X146374902Y-79048031D01*
X146375961Y-79042707D01*
X146377844Y-79038160D01*
X146380579Y-79034067D01*
X146382313Y-79032333D01*
X146382322Y-79032322D01*
X146382333Y-79032313D01*
X146384067Y-79030579D01*
X146388160Y-79027844D01*
X146392707Y-79025961D01*
X146395119Y-79025481D01*
X146395123Y-79025480D01*
X146395127Y-79025480D01*
X146398031Y-79024902D01*
X146398493Y-79024857D01*
X146401477Y-79024710D01*
X152198523Y-79024710D01*
X152201507Y-79024857D01*
G37*
G36*
X143215000Y-83775000D02*
G01*
X142215000Y-83775000D01*
X142215000Y-82725000D01*
X143215000Y-82725000D01*
X143215000Y-83775000D01*
G37*
G36*
X130800367Y-82632543D02*
G01*
X130822355Y-82639212D01*
X130842620Y-82650045D01*
X130860380Y-82664620D01*
X130874955Y-82682380D01*
X130885788Y-82702645D01*
X130892457Y-82724633D01*
X130895000Y-82750448D01*
X130895000Y-83149552D01*
X130892457Y-83175367D01*
X130885788Y-83197355D01*
X130874955Y-83217620D01*
X130860380Y-83235380D01*
X130842620Y-83249955D01*
X130822355Y-83260788D01*
X130800367Y-83267457D01*
X130774552Y-83270000D01*
X130425448Y-83270000D01*
X130399633Y-83267457D01*
X130377645Y-83260788D01*
X130357380Y-83249955D01*
X130339620Y-83235380D01*
X130325045Y-83217620D01*
X130314212Y-83197355D01*
X130307543Y-83175367D01*
X130305000Y-83149552D01*
X130305000Y-82750448D01*
X130307543Y-82724633D01*
X130314212Y-82702645D01*
X130325045Y-82682380D01*
X130339620Y-82664620D01*
X130357380Y-82650045D01*
X130377645Y-82639212D01*
X130399633Y-82632543D01*
X130425448Y-82630000D01*
X130774552Y-82630000D01*
X130800367Y-82632543D01*
G37*
G36*
X129830367Y-82632543D02*
G01*
X129852355Y-82639212D01*
X129872620Y-82650045D01*
X129890380Y-82664620D01*
X129904955Y-82682380D01*
X129915788Y-82702645D01*
X129922457Y-82724633D01*
X129925000Y-82750448D01*
X129925000Y-83149552D01*
X129922457Y-83175367D01*
X129915788Y-83197355D01*
X129904955Y-83217620D01*
X129890380Y-83235380D01*
X129872620Y-83249955D01*
X129852355Y-83260788D01*
X129830367Y-83267457D01*
X129804552Y-83270000D01*
X129455448Y-83270000D01*
X129429633Y-83267457D01*
X129407645Y-83260788D01*
X129387380Y-83249955D01*
X129369620Y-83235380D01*
X129355045Y-83217620D01*
X129344212Y-83197355D01*
X129337543Y-83175367D01*
X129335000Y-83149552D01*
X129335000Y-82750448D01*
X129337543Y-82724633D01*
X129344212Y-82702645D01*
X129355045Y-82682380D01*
X129369620Y-82664620D01*
X129387380Y-82650045D01*
X129407645Y-82639212D01*
X129429633Y-82632543D01*
X129455448Y-82630000D01*
X129804552Y-82630000D01*
X129830367Y-82632543D01*
G37*
G36*
X133565367Y-82632543D02*
G01*
X133587355Y-82639212D01*
X133607620Y-82650045D01*
X133625380Y-82664620D01*
X133639955Y-82682380D01*
X133650788Y-82702645D01*
X133657457Y-82724633D01*
X133660000Y-82750448D01*
X133660000Y-83149552D01*
X133657457Y-83175367D01*
X133650788Y-83197355D01*
X133639955Y-83217620D01*
X133625380Y-83235380D01*
X133607620Y-83249955D01*
X133587355Y-83260788D01*
X133565367Y-83267457D01*
X133539552Y-83270000D01*
X133190448Y-83270000D01*
X133164633Y-83267457D01*
X133142645Y-83260788D01*
X133122380Y-83249955D01*
X133104620Y-83235380D01*
X133090045Y-83217620D01*
X133079212Y-83197355D01*
X133072543Y-83175367D01*
X133070000Y-83149552D01*
X133070000Y-82750448D01*
X133072543Y-82724633D01*
X133079212Y-82702645D01*
X133090045Y-82682380D01*
X133104620Y-82664620D01*
X133122380Y-82650045D01*
X133142645Y-82639212D01*
X133164633Y-82632543D01*
X133190448Y-82630000D01*
X133539552Y-82630000D01*
X133565367Y-82632543D01*
G37*
G36*
X134535367Y-82632543D02*
G01*
X134557355Y-82639212D01*
X134577620Y-82650045D01*
X134595380Y-82664620D01*
X134609955Y-82682380D01*
X134620788Y-82702645D01*
X134627457Y-82724633D01*
X134630000Y-82750448D01*
X134630000Y-83149552D01*
X134627457Y-83175367D01*
X134620788Y-83197355D01*
X134609955Y-83217620D01*
X134595380Y-83235380D01*
X134577620Y-83249955D01*
X134557355Y-83260788D01*
X134535367Y-83267457D01*
X134509552Y-83270000D01*
X134160448Y-83270000D01*
X134134633Y-83267457D01*
X134112645Y-83260788D01*
X134092380Y-83249955D01*
X134074620Y-83235380D01*
X134060045Y-83217620D01*
X134049212Y-83197355D01*
X134042543Y-83175367D01*
X134040000Y-83149552D01*
X134040000Y-82750448D01*
X134042543Y-82724633D01*
X134049212Y-82702645D01*
X134060045Y-82682380D01*
X134074620Y-82664620D01*
X134092380Y-82650045D01*
X134112645Y-82639212D01*
X134134633Y-82632543D01*
X134160448Y-82630000D01*
X134509552Y-82630000D01*
X134535367Y-82632543D01*
G37*
G36*
X138235367Y-82632543D02*
G01*
X138257355Y-82639212D01*
X138277620Y-82650045D01*
X138295380Y-82664620D01*
X138309955Y-82682380D01*
X138320788Y-82702645D01*
X138327457Y-82724633D01*
X138330000Y-82750448D01*
X138330000Y-83149552D01*
X138327457Y-83175367D01*
X138320788Y-83197355D01*
X138309955Y-83217620D01*
X138295380Y-83235380D01*
X138277620Y-83249955D01*
X138257355Y-83260788D01*
X138235367Y-83267457D01*
X138209552Y-83270000D01*
X137860448Y-83270000D01*
X137834633Y-83267457D01*
X137812645Y-83260788D01*
X137792380Y-83249955D01*
X137774620Y-83235380D01*
X137760045Y-83217620D01*
X137749212Y-83197355D01*
X137742543Y-83175367D01*
X137740000Y-83149552D01*
X137740000Y-82750448D01*
X137742543Y-82724633D01*
X137749212Y-82702645D01*
X137760045Y-82682380D01*
X137774620Y-82664620D01*
X137792380Y-82650045D01*
X137812645Y-82639212D01*
X137834633Y-82632543D01*
X137860448Y-82630000D01*
X138209552Y-82630000D01*
X138235367Y-82632543D01*
G37*
G36*
X137265367Y-82632543D02*
G01*
X137287355Y-82639212D01*
X137307620Y-82650045D01*
X137325380Y-82664620D01*
X137339955Y-82682380D01*
X137350788Y-82702645D01*
X137357457Y-82724633D01*
X137360000Y-82750448D01*
X137360000Y-83149552D01*
X137357457Y-83175367D01*
X137350788Y-83197355D01*
X137339955Y-83217620D01*
X137325380Y-83235380D01*
X137307620Y-83249955D01*
X137287355Y-83260788D01*
X137265367Y-83267457D01*
X137239552Y-83270000D01*
X136890448Y-83270000D01*
X136864633Y-83267457D01*
X136842645Y-83260788D01*
X136822380Y-83249955D01*
X136804620Y-83235380D01*
X136790045Y-83217620D01*
X136779212Y-83197355D01*
X136772543Y-83175367D01*
X136770000Y-83149552D01*
X136770000Y-82750448D01*
X136772543Y-82724633D01*
X136779212Y-82702645D01*
X136790045Y-82682380D01*
X136804620Y-82664620D01*
X136822380Y-82650045D01*
X136842645Y-82639212D01*
X136864633Y-82632543D01*
X136890448Y-82630000D01*
X137239552Y-82630000D01*
X137265367Y-82632543D01*
G37*
G36*
X144715000Y-82825000D02*
G01*
X143665000Y-82825000D01*
X143665000Y-80625000D01*
X144715000Y-80625000D01*
X144715000Y-82825000D01*
G37*
G36*
X141765000Y-82825000D02*
G01*
X140715000Y-82825000D01*
X140715000Y-80625000D01*
X141765000Y-80625000D01*
X141765000Y-82825000D01*
G37*
G36*
X133798019Y-81128912D02*
G01*
X133833371Y-81139636D01*
X133865950Y-81157050D01*
X133894511Y-81180489D01*
X133917950Y-81209050D01*
X133935364Y-81241629D01*
X133946088Y-81276981D01*
X133950000Y-81316697D01*
X133950000Y-81883303D01*
X133946088Y-81923019D01*
X133935364Y-81958371D01*
X133917950Y-81990950D01*
X133894511Y-82019511D01*
X133865950Y-82042950D01*
X133833371Y-82060364D01*
X133798019Y-82071088D01*
X133758303Y-82075000D01*
X133266697Y-82075000D01*
X133226981Y-82071088D01*
X133191629Y-82060364D01*
X133159050Y-82042950D01*
X133130489Y-82019511D01*
X133107050Y-81990950D01*
X133089636Y-81958371D01*
X133078912Y-81923019D01*
X133075000Y-81883303D01*
X133075000Y-81316697D01*
X133078912Y-81276981D01*
X133089636Y-81241629D01*
X133107050Y-81209050D01*
X133130489Y-81180489D01*
X133159050Y-81157050D01*
X133191629Y-81139636D01*
X133226981Y-81128912D01*
X133266697Y-81125000D01*
X133758303Y-81125000D01*
X133798019Y-81128912D01*
G37*
G36*
X131623019Y-81128912D02*
G01*
X131658371Y-81139636D01*
X131690950Y-81157050D01*
X131719511Y-81180489D01*
X131742950Y-81209050D01*
X131760364Y-81241629D01*
X131771088Y-81276981D01*
X131775000Y-81316697D01*
X131775000Y-81883303D01*
X131771088Y-81923019D01*
X131760364Y-81958371D01*
X131742950Y-81990950D01*
X131719511Y-82019511D01*
X131690950Y-82042950D01*
X131658371Y-82060364D01*
X131623019Y-82071088D01*
X131583303Y-82075000D01*
X131091697Y-82075000D01*
X131051981Y-82071088D01*
X131016629Y-82060364D01*
X130984050Y-82042950D01*
X130955489Y-82019511D01*
X130932050Y-81990950D01*
X130914636Y-81958371D01*
X130903912Y-81923019D01*
X130900000Y-81883303D01*
X130900000Y-81316697D01*
X130903912Y-81276981D01*
X130914636Y-81241629D01*
X130932050Y-81209050D01*
X130955489Y-81180489D01*
X130984050Y-81157050D01*
X131016629Y-81139636D01*
X131051981Y-81128912D01*
X131091697Y-81125000D01*
X131583303Y-81125000D01*
X131623019Y-81128912D01*
G37*
G36*
X130048019Y-81128912D02*
G01*
X130083371Y-81139636D01*
X130115950Y-81157050D01*
X130144511Y-81180489D01*
X130167950Y-81209050D01*
X130185364Y-81241629D01*
X130196088Y-81276981D01*
X130200000Y-81316697D01*
X130200000Y-81883303D01*
X130196088Y-81923019D01*
X130185364Y-81958371D01*
X130167950Y-81990950D01*
X130144511Y-82019511D01*
X130115950Y-82042950D01*
X130083371Y-82060364D01*
X130048019Y-82071088D01*
X130008303Y-82075000D01*
X129516697Y-82075000D01*
X129476981Y-82071088D01*
X129441629Y-82060364D01*
X129409050Y-82042950D01*
X129380489Y-82019511D01*
X129357050Y-81990950D01*
X129339636Y-81958371D01*
X129328912Y-81923019D01*
X129325000Y-81883303D01*
X129325000Y-81316697D01*
X129328912Y-81276981D01*
X129339636Y-81241629D01*
X129357050Y-81209050D01*
X129380489Y-81180489D01*
X129409050Y-81157050D01*
X129441629Y-81139636D01*
X129476981Y-81128912D01*
X129516697Y-81125000D01*
X130008303Y-81125000D01*
X130048019Y-81128912D01*
G37*
G36*
X135373019Y-81128912D02*
G01*
X135408371Y-81139636D01*
X135440950Y-81157050D01*
X135469511Y-81180489D01*
X135492950Y-81209050D01*
X135510364Y-81241629D01*
X135521088Y-81276981D01*
X135525000Y-81316697D01*
X135525000Y-81883303D01*
X135521088Y-81923019D01*
X135510364Y-81958371D01*
X135492950Y-81990950D01*
X135469511Y-82019511D01*
X135440950Y-82042950D01*
X135408371Y-82060364D01*
X135373019Y-82071088D01*
X135333303Y-82075000D01*
X134841697Y-82075000D01*
X134801981Y-82071088D01*
X134766629Y-82060364D01*
X134734050Y-82042950D01*
X134705489Y-82019511D01*
X134682050Y-81990950D01*
X134664636Y-81958371D01*
X134653912Y-81923019D01*
X134650000Y-81883303D01*
X134650000Y-81316697D01*
X134653912Y-81276981D01*
X134664636Y-81241629D01*
X134682050Y-81209050D01*
X134705489Y-81180489D01*
X134734050Y-81157050D01*
X134766629Y-81139636D01*
X134801981Y-81128912D01*
X134841697Y-81125000D01*
X135333303Y-81125000D01*
X135373019Y-81128912D01*
G37*
G36*
X139073019Y-81128912D02*
G01*
X139108371Y-81139636D01*
X139140950Y-81157050D01*
X139169511Y-81180489D01*
X139192950Y-81209050D01*
X139210364Y-81241629D01*
X139221088Y-81276981D01*
X139225000Y-81316697D01*
X139225000Y-81883303D01*
X139221088Y-81923019D01*
X139210364Y-81958371D01*
X139192950Y-81990950D01*
X139169511Y-82019511D01*
X139140950Y-82042950D01*
X139108371Y-82060364D01*
X139073019Y-82071088D01*
X139033303Y-82075000D01*
X138541697Y-82075000D01*
X138501981Y-82071088D01*
X138466629Y-82060364D01*
X138434050Y-82042950D01*
X138405489Y-82019511D01*
X138382050Y-81990950D01*
X138364636Y-81958371D01*
X138353912Y-81923019D01*
X138350000Y-81883303D01*
X138350000Y-81316697D01*
X138353912Y-81276981D01*
X138364636Y-81241629D01*
X138382050Y-81209050D01*
X138405489Y-81180489D01*
X138434050Y-81157050D01*
X138466629Y-81139636D01*
X138501981Y-81128912D01*
X138541697Y-81125000D01*
X139033303Y-81125000D01*
X139073019Y-81128912D01*
G37*
G36*
X137498019Y-81128912D02*
G01*
X137533371Y-81139636D01*
X137565950Y-81157050D01*
X137594511Y-81180489D01*
X137617950Y-81209050D01*
X137635364Y-81241629D01*
X137646088Y-81276981D01*
X137650000Y-81316697D01*
X137650000Y-81883303D01*
X137646088Y-81923019D01*
X137635364Y-81958371D01*
X137617950Y-81990950D01*
X137594511Y-82019511D01*
X137565950Y-82042950D01*
X137533371Y-82060364D01*
X137498019Y-82071088D01*
X137458303Y-82075000D01*
X136966697Y-82075000D01*
X136926981Y-82071088D01*
X136891629Y-82060364D01*
X136859050Y-82042950D01*
X136830489Y-82019511D01*
X136807050Y-81990950D01*
X136789636Y-81958371D01*
X136778912Y-81923019D01*
X136775000Y-81883303D01*
X136775000Y-81316697D01*
X136778912Y-81276981D01*
X136789636Y-81241629D01*
X136807050Y-81209050D01*
X136830489Y-81180489D01*
X136859050Y-81157050D01*
X136891629Y-81139636D01*
X136926981Y-81128912D01*
X136966697Y-81125000D01*
X137458303Y-81125000D01*
X137498019Y-81128912D01*
G37*
M02*
