G04 #@! TF.GenerationSoftware,KiCad,Pcbnew,5.1.5+dfsg1-2build2*
G04 #@! TF.CreationDate,2021-01-22T19:49:39+11:00*
G04 #@! TF.ProjectId,mPCIe-GNSS,6d504349-652d-4474-9e53-532e6b696361,1*
G04 #@! TF.SameCoordinates,Original*
G04 #@! TF.FileFunction,Paste,Top*
G04 #@! TF.FilePolarity,Positive*
%FSLAX46Y46*%
G04 Gerber Fmt 4.6, Leading zero omitted, Abs format (unit mm)*
G04 Created by KiCad (PCBNEW 5.1.5+dfsg1-2build2) date 2021-01-22 19:49:39*
%MOMM*%
%LPD*%
G04 APERTURE LIST*
G04 #@! TA.AperFunction,Profile*
%ADD10C,0.050000*%
G04 #@! TD*
%ADD11C,0.010000*%
%ADD12C,0.000100*%
%ADD13C,0.350000*%
%ADD14R,0.900000X0.254000*%
%ADD15R,0.254000X0.900000*%
%ADD16R,1.700000X4.000000*%
%ADD17R,2.000000X5.000000*%
%ADD18R,0.350000X0.810000*%
%ADD19R,1.050000X2.200000*%
%ADD20R,1.000000X1.050000*%
%ADD21R,0.600000X0.700000*%
G04 APERTURE END LIST*
D10*
G04 #@! TO.C,PC1*
X132600000Y-126750000D02*
G75*
G02X134100000Y-126750000I750000J0D01*
G01*
X123600000Y-126700000D02*
G75*
G02X124400000Y-127500000I0J-800000D01*
G01*
X150800000Y-126700000D02*
G75*
G03X150000000Y-127500000I0J-800000D01*
G01*
X134100000Y-130000000D02*
X134100000Y-126750000D01*
X124400000Y-130000000D02*
X124400000Y-127500000D01*
X122200000Y-126700000D02*
X123600000Y-126700000D01*
X150000000Y-130000000D02*
X150000000Y-127500000D01*
X150800000Y-126700000D02*
X152200000Y-126700000D01*
X132600000Y-130000000D02*
X124400000Y-130000000D01*
X122200000Y-79050000D02*
X152200000Y-79050000D01*
X152200000Y-126700000D02*
X152200000Y-79050000D01*
X122200000Y-126700000D02*
X122200000Y-79050000D01*
X134100000Y-130000000D02*
X150000000Y-130000000D01*
X132600000Y-130000000D02*
X132600000Y-126750000D01*
D11*
G04 #@! TO.C,U1*
G36*
X140450000Y-113199544D02*
G01*
X140450000Y-111950000D01*
X141702730Y-111950000D01*
X141702730Y-113199544D01*
X140450000Y-113199544D01*
G37*
X140450000Y-113199544D02*
X140450000Y-111950000D01*
X141702730Y-111950000D01*
X141702730Y-113199544D01*
X140450000Y-113199544D01*
G36*
X140450000Y-114952520D02*
G01*
X140450000Y-113700000D01*
X141702520Y-113700000D01*
X141702520Y-114952520D01*
X140450000Y-114952520D01*
G37*
X140450000Y-114952520D02*
X140450000Y-113700000D01*
X141702520Y-113700000D01*
X141702520Y-114952520D01*
X140450000Y-114952520D01*
G36*
X138700000Y-113199938D02*
G01*
X138700000Y-111950000D01*
X139949938Y-111950000D01*
X139949938Y-113199938D01*
X138700000Y-113199938D01*
G37*
X138700000Y-113199938D02*
X138700000Y-111950000D01*
X139949938Y-111950000D01*
X139949938Y-113199938D01*
X138700000Y-113199938D01*
G36*
X138700000Y-114952480D02*
G01*
X138700000Y-113700000D01*
X139949587Y-113700000D01*
X139949587Y-114952480D01*
X138700000Y-114952480D01*
G37*
X138700000Y-114952480D02*
X138700000Y-113700000D01*
X139949587Y-113700000D01*
X139949587Y-114952480D01*
X138700000Y-114952480D01*
D12*
G04 #@! TO.C,GNSS1*
G36*
X129190000Y-90384000D02*
G01*
X130090000Y-90384000D01*
X130142264Y-90386739D01*
X130193956Y-90394926D01*
X130244508Y-90408472D01*
X130293368Y-90427227D01*
X130340000Y-90450987D01*
X130383893Y-90479492D01*
X130424565Y-90512428D01*
X130461572Y-90549435D01*
X130494508Y-90590107D01*
X130523013Y-90634000D01*
X130546773Y-90680632D01*
X130565528Y-90729492D01*
X130579074Y-90780044D01*
X130587261Y-90831736D01*
X130590000Y-90884000D01*
X130587261Y-90936264D01*
X130579074Y-90987956D01*
X130565528Y-91038508D01*
X130546773Y-91087368D01*
X130523013Y-91134000D01*
X130494508Y-91177893D01*
X130461572Y-91218565D01*
X130424565Y-91255572D01*
X130383893Y-91288508D01*
X130340000Y-91317013D01*
X130293368Y-91340773D01*
X130244508Y-91359528D01*
X130193956Y-91373074D01*
X130142264Y-91381261D01*
X130090000Y-91384000D01*
X128290000Y-91384000D01*
X128237736Y-91381261D01*
X128186044Y-91373074D01*
X128135492Y-91359528D01*
X128086632Y-91340773D01*
X128040000Y-91317013D01*
X127996107Y-91288508D01*
X127955435Y-91255572D01*
X127918428Y-91218565D01*
X127885492Y-91177893D01*
X127856987Y-91134000D01*
X127833227Y-91087368D01*
X127814472Y-91038508D01*
X127800926Y-90987956D01*
X127792739Y-90936264D01*
X127790000Y-90884000D01*
X127792739Y-90831736D01*
X127800926Y-90780044D01*
X127814472Y-90729492D01*
X127833227Y-90680632D01*
X127856987Y-90634000D01*
X127885492Y-90590107D01*
X127918428Y-90549435D01*
X127955435Y-90512428D01*
X127996107Y-90479492D01*
X128040000Y-90450987D01*
X128086632Y-90427227D01*
X128135492Y-90408472D01*
X128186044Y-90394926D01*
X128237736Y-90386739D01*
X128290000Y-90384000D01*
X129190000Y-90384000D01*
G37*
X129190000Y-90384000D02*
X130090000Y-90384000D01*
X130142264Y-90386739D01*
X130193956Y-90394926D01*
X130244508Y-90408472D01*
X130293368Y-90427227D01*
X130340000Y-90450987D01*
X130383893Y-90479492D01*
X130424565Y-90512428D01*
X130461572Y-90549435D01*
X130494508Y-90590107D01*
X130523013Y-90634000D01*
X130546773Y-90680632D01*
X130565528Y-90729492D01*
X130579074Y-90780044D01*
X130587261Y-90831736D01*
X130590000Y-90884000D01*
X130587261Y-90936264D01*
X130579074Y-90987956D01*
X130565528Y-91038508D01*
X130546773Y-91087368D01*
X130523013Y-91134000D01*
X130494508Y-91177893D01*
X130461572Y-91218565D01*
X130424565Y-91255572D01*
X130383893Y-91288508D01*
X130340000Y-91317013D01*
X130293368Y-91340773D01*
X130244508Y-91359528D01*
X130193956Y-91373074D01*
X130142264Y-91381261D01*
X130090000Y-91384000D01*
X128290000Y-91384000D01*
X128237736Y-91381261D01*
X128186044Y-91373074D01*
X128135492Y-91359528D01*
X128086632Y-91340773D01*
X128040000Y-91317013D01*
X127996107Y-91288508D01*
X127955435Y-91255572D01*
X127918428Y-91218565D01*
X127885492Y-91177893D01*
X127856987Y-91134000D01*
X127833227Y-91087368D01*
X127814472Y-91038508D01*
X127800926Y-90987956D01*
X127792739Y-90936264D01*
X127790000Y-90884000D01*
X127792739Y-90831736D01*
X127800926Y-90780044D01*
X127814472Y-90729492D01*
X127833227Y-90680632D01*
X127856987Y-90634000D01*
X127885492Y-90590107D01*
X127918428Y-90549435D01*
X127955435Y-90512428D01*
X127996107Y-90479492D01*
X128040000Y-90450987D01*
X128086632Y-90427227D01*
X128135492Y-90408472D01*
X128186044Y-90394926D01*
X128237736Y-90386739D01*
X128290000Y-90384000D01*
X129190000Y-90384000D01*
G36*
X129190000Y-92924000D02*
G01*
X130090000Y-92924000D01*
X130142264Y-92926739D01*
X130193956Y-92934926D01*
X130244508Y-92948472D01*
X130293368Y-92967227D01*
X130340000Y-92990987D01*
X130383893Y-93019492D01*
X130424565Y-93052428D01*
X130461572Y-93089435D01*
X130494508Y-93130107D01*
X130523013Y-93174000D01*
X130546773Y-93220632D01*
X130565528Y-93269492D01*
X130579074Y-93320044D01*
X130587261Y-93371736D01*
X130590000Y-93424000D01*
X130587261Y-93476264D01*
X130579074Y-93527956D01*
X130565528Y-93578508D01*
X130546773Y-93627368D01*
X130523013Y-93674000D01*
X130494508Y-93717893D01*
X130461572Y-93758565D01*
X130424565Y-93795572D01*
X130383893Y-93828508D01*
X130340000Y-93857013D01*
X130293368Y-93880773D01*
X130244508Y-93899528D01*
X130193956Y-93913074D01*
X130142264Y-93921261D01*
X130090000Y-93924000D01*
X128290000Y-93924000D01*
X128237736Y-93921261D01*
X128186044Y-93913074D01*
X128135492Y-93899528D01*
X128086632Y-93880773D01*
X128040000Y-93857013D01*
X127996107Y-93828508D01*
X127955435Y-93795572D01*
X127918428Y-93758565D01*
X127885492Y-93717893D01*
X127856987Y-93674000D01*
X127833227Y-93627368D01*
X127814472Y-93578508D01*
X127800926Y-93527956D01*
X127792739Y-93476264D01*
X127790000Y-93424000D01*
X127792739Y-93371736D01*
X127800926Y-93320044D01*
X127814472Y-93269492D01*
X127833227Y-93220632D01*
X127856987Y-93174000D01*
X127885492Y-93130107D01*
X127918428Y-93089435D01*
X127955435Y-93052428D01*
X127996107Y-93019492D01*
X128040000Y-92990987D01*
X128086632Y-92967227D01*
X128135492Y-92948472D01*
X128186044Y-92934926D01*
X128237736Y-92926739D01*
X128290000Y-92924000D01*
X129190000Y-92924000D01*
G37*
X129190000Y-92924000D02*
X130090000Y-92924000D01*
X130142264Y-92926739D01*
X130193956Y-92934926D01*
X130244508Y-92948472D01*
X130293368Y-92967227D01*
X130340000Y-92990987D01*
X130383893Y-93019492D01*
X130424565Y-93052428D01*
X130461572Y-93089435D01*
X130494508Y-93130107D01*
X130523013Y-93174000D01*
X130546773Y-93220632D01*
X130565528Y-93269492D01*
X130579074Y-93320044D01*
X130587261Y-93371736D01*
X130590000Y-93424000D01*
X130587261Y-93476264D01*
X130579074Y-93527956D01*
X130565528Y-93578508D01*
X130546773Y-93627368D01*
X130523013Y-93674000D01*
X130494508Y-93717893D01*
X130461572Y-93758565D01*
X130424565Y-93795572D01*
X130383893Y-93828508D01*
X130340000Y-93857013D01*
X130293368Y-93880773D01*
X130244508Y-93899528D01*
X130193956Y-93913074D01*
X130142264Y-93921261D01*
X130090000Y-93924000D01*
X128290000Y-93924000D01*
X128237736Y-93921261D01*
X128186044Y-93913074D01*
X128135492Y-93899528D01*
X128086632Y-93880773D01*
X128040000Y-93857013D01*
X127996107Y-93828508D01*
X127955435Y-93795572D01*
X127918428Y-93758565D01*
X127885492Y-93717893D01*
X127856987Y-93674000D01*
X127833227Y-93627368D01*
X127814472Y-93578508D01*
X127800926Y-93527956D01*
X127792739Y-93476264D01*
X127790000Y-93424000D01*
X127792739Y-93371736D01*
X127800926Y-93320044D01*
X127814472Y-93269492D01*
X127833227Y-93220632D01*
X127856987Y-93174000D01*
X127885492Y-93130107D01*
X127918428Y-93089435D01*
X127955435Y-93052428D01*
X127996107Y-93019492D01*
X128040000Y-92990987D01*
X128086632Y-92967227D01*
X128135492Y-92948472D01*
X128186044Y-92934926D01*
X128237736Y-92926739D01*
X128290000Y-92924000D01*
X129190000Y-92924000D01*
G36*
X129190000Y-103084000D02*
G01*
X130090000Y-103084000D01*
X130142264Y-103086739D01*
X130193956Y-103094926D01*
X130244508Y-103108472D01*
X130293368Y-103127227D01*
X130340000Y-103150987D01*
X130383893Y-103179492D01*
X130424565Y-103212428D01*
X130461572Y-103249435D01*
X130494508Y-103290107D01*
X130523013Y-103334000D01*
X130546773Y-103380632D01*
X130565528Y-103429492D01*
X130579074Y-103480044D01*
X130587261Y-103531736D01*
X130590000Y-103584000D01*
X130587261Y-103636264D01*
X130579074Y-103687956D01*
X130565528Y-103738508D01*
X130546773Y-103787368D01*
X130523013Y-103834000D01*
X130494508Y-103877893D01*
X130461572Y-103918565D01*
X130424565Y-103955572D01*
X130383893Y-103988508D01*
X130340000Y-104017013D01*
X130293368Y-104040773D01*
X130244508Y-104059528D01*
X130193956Y-104073074D01*
X130142264Y-104081261D01*
X130090000Y-104084000D01*
X128290000Y-104084000D01*
X128237736Y-104081261D01*
X128186044Y-104073074D01*
X128135492Y-104059528D01*
X128086632Y-104040773D01*
X128040000Y-104017013D01*
X127996107Y-103988508D01*
X127955435Y-103955572D01*
X127918428Y-103918565D01*
X127885492Y-103877893D01*
X127856987Y-103834000D01*
X127833227Y-103787368D01*
X127814472Y-103738508D01*
X127800926Y-103687956D01*
X127792739Y-103636264D01*
X127790000Y-103584000D01*
X127792739Y-103531736D01*
X127800926Y-103480044D01*
X127814472Y-103429492D01*
X127833227Y-103380632D01*
X127856987Y-103334000D01*
X127885492Y-103290107D01*
X127918428Y-103249435D01*
X127955435Y-103212428D01*
X127996107Y-103179492D01*
X128040000Y-103150987D01*
X128086632Y-103127227D01*
X128135492Y-103108472D01*
X128186044Y-103094926D01*
X128237736Y-103086739D01*
X128290000Y-103084000D01*
X129190000Y-103084000D01*
G37*
X129190000Y-103084000D02*
X130090000Y-103084000D01*
X130142264Y-103086739D01*
X130193956Y-103094926D01*
X130244508Y-103108472D01*
X130293368Y-103127227D01*
X130340000Y-103150987D01*
X130383893Y-103179492D01*
X130424565Y-103212428D01*
X130461572Y-103249435D01*
X130494508Y-103290107D01*
X130523013Y-103334000D01*
X130546773Y-103380632D01*
X130565528Y-103429492D01*
X130579074Y-103480044D01*
X130587261Y-103531736D01*
X130590000Y-103584000D01*
X130587261Y-103636264D01*
X130579074Y-103687956D01*
X130565528Y-103738508D01*
X130546773Y-103787368D01*
X130523013Y-103834000D01*
X130494508Y-103877893D01*
X130461572Y-103918565D01*
X130424565Y-103955572D01*
X130383893Y-103988508D01*
X130340000Y-104017013D01*
X130293368Y-104040773D01*
X130244508Y-104059528D01*
X130193956Y-104073074D01*
X130142264Y-104081261D01*
X130090000Y-104084000D01*
X128290000Y-104084000D01*
X128237736Y-104081261D01*
X128186044Y-104073074D01*
X128135492Y-104059528D01*
X128086632Y-104040773D01*
X128040000Y-104017013D01*
X127996107Y-103988508D01*
X127955435Y-103955572D01*
X127918428Y-103918565D01*
X127885492Y-103877893D01*
X127856987Y-103834000D01*
X127833227Y-103787368D01*
X127814472Y-103738508D01*
X127800926Y-103687956D01*
X127792739Y-103636264D01*
X127790000Y-103584000D01*
X127792739Y-103531736D01*
X127800926Y-103480044D01*
X127814472Y-103429492D01*
X127833227Y-103380632D01*
X127856987Y-103334000D01*
X127885492Y-103290107D01*
X127918428Y-103249435D01*
X127955435Y-103212428D01*
X127996107Y-103179492D01*
X128040000Y-103150987D01*
X128086632Y-103127227D01*
X128135492Y-103108472D01*
X128186044Y-103094926D01*
X128237736Y-103086739D01*
X128290000Y-103084000D01*
X129190000Y-103084000D01*
G36*
X129190000Y-100544000D02*
G01*
X130090000Y-100544000D01*
X130142264Y-100546739D01*
X130193956Y-100554926D01*
X130244508Y-100568472D01*
X130293368Y-100587227D01*
X130340000Y-100610987D01*
X130383893Y-100639492D01*
X130424565Y-100672428D01*
X130461572Y-100709435D01*
X130494508Y-100750107D01*
X130523013Y-100794000D01*
X130546773Y-100840632D01*
X130565528Y-100889492D01*
X130579074Y-100940044D01*
X130587261Y-100991736D01*
X130590000Y-101044000D01*
X130587261Y-101096264D01*
X130579074Y-101147956D01*
X130565528Y-101198508D01*
X130546773Y-101247368D01*
X130523013Y-101294000D01*
X130494508Y-101337893D01*
X130461572Y-101378565D01*
X130424565Y-101415572D01*
X130383893Y-101448508D01*
X130340000Y-101477013D01*
X130293368Y-101500773D01*
X130244508Y-101519528D01*
X130193956Y-101533074D01*
X130142264Y-101541261D01*
X130090000Y-101544000D01*
X128290000Y-101544000D01*
X128237736Y-101541261D01*
X128186044Y-101533074D01*
X128135492Y-101519528D01*
X128086632Y-101500773D01*
X128040000Y-101477013D01*
X127996107Y-101448508D01*
X127955435Y-101415572D01*
X127918428Y-101378565D01*
X127885492Y-101337893D01*
X127856987Y-101294000D01*
X127833227Y-101247368D01*
X127814472Y-101198508D01*
X127800926Y-101147956D01*
X127792739Y-101096264D01*
X127790000Y-101044000D01*
X127792739Y-100991736D01*
X127800926Y-100940044D01*
X127814472Y-100889492D01*
X127833227Y-100840632D01*
X127856987Y-100794000D01*
X127885492Y-100750107D01*
X127918428Y-100709435D01*
X127955435Y-100672428D01*
X127996107Y-100639492D01*
X128040000Y-100610987D01*
X128086632Y-100587227D01*
X128135492Y-100568472D01*
X128186044Y-100554926D01*
X128237736Y-100546739D01*
X128290000Y-100544000D01*
X129190000Y-100544000D01*
G37*
X129190000Y-100544000D02*
X130090000Y-100544000D01*
X130142264Y-100546739D01*
X130193956Y-100554926D01*
X130244508Y-100568472D01*
X130293368Y-100587227D01*
X130340000Y-100610987D01*
X130383893Y-100639492D01*
X130424565Y-100672428D01*
X130461572Y-100709435D01*
X130494508Y-100750107D01*
X130523013Y-100794000D01*
X130546773Y-100840632D01*
X130565528Y-100889492D01*
X130579074Y-100940044D01*
X130587261Y-100991736D01*
X130590000Y-101044000D01*
X130587261Y-101096264D01*
X130579074Y-101147956D01*
X130565528Y-101198508D01*
X130546773Y-101247368D01*
X130523013Y-101294000D01*
X130494508Y-101337893D01*
X130461572Y-101378565D01*
X130424565Y-101415572D01*
X130383893Y-101448508D01*
X130340000Y-101477013D01*
X130293368Y-101500773D01*
X130244508Y-101519528D01*
X130193956Y-101533074D01*
X130142264Y-101541261D01*
X130090000Y-101544000D01*
X128290000Y-101544000D01*
X128237736Y-101541261D01*
X128186044Y-101533074D01*
X128135492Y-101519528D01*
X128086632Y-101500773D01*
X128040000Y-101477013D01*
X127996107Y-101448508D01*
X127955435Y-101415572D01*
X127918428Y-101378565D01*
X127885492Y-101337893D01*
X127856987Y-101294000D01*
X127833227Y-101247368D01*
X127814472Y-101198508D01*
X127800926Y-101147956D01*
X127792739Y-101096264D01*
X127790000Y-101044000D01*
X127792739Y-100991736D01*
X127800926Y-100940044D01*
X127814472Y-100889492D01*
X127833227Y-100840632D01*
X127856987Y-100794000D01*
X127885492Y-100750107D01*
X127918428Y-100709435D01*
X127955435Y-100672428D01*
X127996107Y-100639492D01*
X128040000Y-100610987D01*
X128086632Y-100587227D01*
X128135492Y-100568472D01*
X128186044Y-100554926D01*
X128237736Y-100546739D01*
X128290000Y-100544000D01*
X129190000Y-100544000D01*
G36*
X129190000Y-98004000D02*
G01*
X130090000Y-98004000D01*
X130142264Y-98006739D01*
X130193956Y-98014926D01*
X130244508Y-98028472D01*
X130293368Y-98047227D01*
X130340000Y-98070987D01*
X130383893Y-98099492D01*
X130424565Y-98132428D01*
X130461572Y-98169435D01*
X130494508Y-98210107D01*
X130523013Y-98254000D01*
X130546773Y-98300632D01*
X130565528Y-98349492D01*
X130579074Y-98400044D01*
X130587261Y-98451736D01*
X130590000Y-98504000D01*
X130587261Y-98556264D01*
X130579074Y-98607956D01*
X130565528Y-98658508D01*
X130546773Y-98707368D01*
X130523013Y-98754000D01*
X130494508Y-98797893D01*
X130461572Y-98838565D01*
X130424565Y-98875572D01*
X130383893Y-98908508D01*
X130340000Y-98937013D01*
X130293368Y-98960773D01*
X130244508Y-98979528D01*
X130193956Y-98993074D01*
X130142264Y-99001261D01*
X130090000Y-99004000D01*
X128290000Y-99004000D01*
X128237736Y-99001261D01*
X128186044Y-98993074D01*
X128135492Y-98979528D01*
X128086632Y-98960773D01*
X128040000Y-98937013D01*
X127996107Y-98908508D01*
X127955435Y-98875572D01*
X127918428Y-98838565D01*
X127885492Y-98797893D01*
X127856987Y-98754000D01*
X127833227Y-98707368D01*
X127814472Y-98658508D01*
X127800926Y-98607956D01*
X127792739Y-98556264D01*
X127790000Y-98504000D01*
X127792739Y-98451736D01*
X127800926Y-98400044D01*
X127814472Y-98349492D01*
X127833227Y-98300632D01*
X127856987Y-98254000D01*
X127885492Y-98210107D01*
X127918428Y-98169435D01*
X127955435Y-98132428D01*
X127996107Y-98099492D01*
X128040000Y-98070987D01*
X128086632Y-98047227D01*
X128135492Y-98028472D01*
X128186044Y-98014926D01*
X128237736Y-98006739D01*
X128290000Y-98004000D01*
X129190000Y-98004000D01*
G37*
X129190000Y-98004000D02*
X130090000Y-98004000D01*
X130142264Y-98006739D01*
X130193956Y-98014926D01*
X130244508Y-98028472D01*
X130293368Y-98047227D01*
X130340000Y-98070987D01*
X130383893Y-98099492D01*
X130424565Y-98132428D01*
X130461572Y-98169435D01*
X130494508Y-98210107D01*
X130523013Y-98254000D01*
X130546773Y-98300632D01*
X130565528Y-98349492D01*
X130579074Y-98400044D01*
X130587261Y-98451736D01*
X130590000Y-98504000D01*
X130587261Y-98556264D01*
X130579074Y-98607956D01*
X130565528Y-98658508D01*
X130546773Y-98707368D01*
X130523013Y-98754000D01*
X130494508Y-98797893D01*
X130461572Y-98838565D01*
X130424565Y-98875572D01*
X130383893Y-98908508D01*
X130340000Y-98937013D01*
X130293368Y-98960773D01*
X130244508Y-98979528D01*
X130193956Y-98993074D01*
X130142264Y-99001261D01*
X130090000Y-99004000D01*
X128290000Y-99004000D01*
X128237736Y-99001261D01*
X128186044Y-98993074D01*
X128135492Y-98979528D01*
X128086632Y-98960773D01*
X128040000Y-98937013D01*
X127996107Y-98908508D01*
X127955435Y-98875572D01*
X127918428Y-98838565D01*
X127885492Y-98797893D01*
X127856987Y-98754000D01*
X127833227Y-98707368D01*
X127814472Y-98658508D01*
X127800926Y-98607956D01*
X127792739Y-98556264D01*
X127790000Y-98504000D01*
X127792739Y-98451736D01*
X127800926Y-98400044D01*
X127814472Y-98349492D01*
X127833227Y-98300632D01*
X127856987Y-98254000D01*
X127885492Y-98210107D01*
X127918428Y-98169435D01*
X127955435Y-98132428D01*
X127996107Y-98099492D01*
X128040000Y-98070987D01*
X128086632Y-98047227D01*
X128135492Y-98028472D01*
X128186044Y-98014926D01*
X128237736Y-98006739D01*
X128290000Y-98004000D01*
X129190000Y-98004000D01*
G36*
X145190000Y-103084000D02*
G01*
X146090000Y-103084000D01*
X146142264Y-103086739D01*
X146193956Y-103094926D01*
X146244508Y-103108472D01*
X146293368Y-103127227D01*
X146340000Y-103150987D01*
X146383893Y-103179492D01*
X146424565Y-103212428D01*
X146461572Y-103249435D01*
X146494508Y-103290107D01*
X146523013Y-103334000D01*
X146546773Y-103380632D01*
X146565528Y-103429492D01*
X146579074Y-103480044D01*
X146587261Y-103531736D01*
X146590000Y-103584000D01*
X146587261Y-103636264D01*
X146579074Y-103687956D01*
X146565528Y-103738508D01*
X146546773Y-103787368D01*
X146523013Y-103834000D01*
X146494508Y-103877893D01*
X146461572Y-103918565D01*
X146424565Y-103955572D01*
X146383893Y-103988508D01*
X146340000Y-104017013D01*
X146293368Y-104040773D01*
X146244508Y-104059528D01*
X146193956Y-104073074D01*
X146142264Y-104081261D01*
X146090000Y-104084000D01*
X144290000Y-104084000D01*
X144237736Y-104081261D01*
X144186044Y-104073074D01*
X144135492Y-104059528D01*
X144086632Y-104040773D01*
X144040000Y-104017013D01*
X143996107Y-103988508D01*
X143955435Y-103955572D01*
X143918428Y-103918565D01*
X143885492Y-103877893D01*
X143856987Y-103834000D01*
X143833227Y-103787368D01*
X143814472Y-103738508D01*
X143800926Y-103687956D01*
X143792739Y-103636264D01*
X143790000Y-103584000D01*
X143792739Y-103531736D01*
X143800926Y-103480044D01*
X143814472Y-103429492D01*
X143833227Y-103380632D01*
X143856987Y-103334000D01*
X143885492Y-103290107D01*
X143918428Y-103249435D01*
X143955435Y-103212428D01*
X143996107Y-103179492D01*
X144040000Y-103150987D01*
X144086632Y-103127227D01*
X144135492Y-103108472D01*
X144186044Y-103094926D01*
X144237736Y-103086739D01*
X144290000Y-103084000D01*
X145190000Y-103084000D01*
G37*
X145190000Y-103084000D02*
X146090000Y-103084000D01*
X146142264Y-103086739D01*
X146193956Y-103094926D01*
X146244508Y-103108472D01*
X146293368Y-103127227D01*
X146340000Y-103150987D01*
X146383893Y-103179492D01*
X146424565Y-103212428D01*
X146461572Y-103249435D01*
X146494508Y-103290107D01*
X146523013Y-103334000D01*
X146546773Y-103380632D01*
X146565528Y-103429492D01*
X146579074Y-103480044D01*
X146587261Y-103531736D01*
X146590000Y-103584000D01*
X146587261Y-103636264D01*
X146579074Y-103687956D01*
X146565528Y-103738508D01*
X146546773Y-103787368D01*
X146523013Y-103834000D01*
X146494508Y-103877893D01*
X146461572Y-103918565D01*
X146424565Y-103955572D01*
X146383893Y-103988508D01*
X146340000Y-104017013D01*
X146293368Y-104040773D01*
X146244508Y-104059528D01*
X146193956Y-104073074D01*
X146142264Y-104081261D01*
X146090000Y-104084000D01*
X144290000Y-104084000D01*
X144237736Y-104081261D01*
X144186044Y-104073074D01*
X144135492Y-104059528D01*
X144086632Y-104040773D01*
X144040000Y-104017013D01*
X143996107Y-103988508D01*
X143955435Y-103955572D01*
X143918428Y-103918565D01*
X143885492Y-103877893D01*
X143856987Y-103834000D01*
X143833227Y-103787368D01*
X143814472Y-103738508D01*
X143800926Y-103687956D01*
X143792739Y-103636264D01*
X143790000Y-103584000D01*
X143792739Y-103531736D01*
X143800926Y-103480044D01*
X143814472Y-103429492D01*
X143833227Y-103380632D01*
X143856987Y-103334000D01*
X143885492Y-103290107D01*
X143918428Y-103249435D01*
X143955435Y-103212428D01*
X143996107Y-103179492D01*
X144040000Y-103150987D01*
X144086632Y-103127227D01*
X144135492Y-103108472D01*
X144186044Y-103094926D01*
X144237736Y-103086739D01*
X144290000Y-103084000D01*
X145190000Y-103084000D01*
G36*
X145190000Y-100544000D02*
G01*
X146090000Y-100544000D01*
X146142264Y-100546739D01*
X146193956Y-100554926D01*
X146244508Y-100568472D01*
X146293368Y-100587227D01*
X146340000Y-100610987D01*
X146383893Y-100639492D01*
X146424565Y-100672428D01*
X146461572Y-100709435D01*
X146494508Y-100750107D01*
X146523013Y-100794000D01*
X146546773Y-100840632D01*
X146565528Y-100889492D01*
X146579074Y-100940044D01*
X146587261Y-100991736D01*
X146590000Y-101044000D01*
X146587261Y-101096264D01*
X146579074Y-101147956D01*
X146565528Y-101198508D01*
X146546773Y-101247368D01*
X146523013Y-101294000D01*
X146494508Y-101337893D01*
X146461572Y-101378565D01*
X146424565Y-101415572D01*
X146383893Y-101448508D01*
X146340000Y-101477013D01*
X146293368Y-101500773D01*
X146244508Y-101519528D01*
X146193956Y-101533074D01*
X146142264Y-101541261D01*
X146090000Y-101544000D01*
X144290000Y-101544000D01*
X144237736Y-101541261D01*
X144186044Y-101533074D01*
X144135492Y-101519528D01*
X144086632Y-101500773D01*
X144040000Y-101477013D01*
X143996107Y-101448508D01*
X143955435Y-101415572D01*
X143918428Y-101378565D01*
X143885492Y-101337893D01*
X143856987Y-101294000D01*
X143833227Y-101247368D01*
X143814472Y-101198508D01*
X143800926Y-101147956D01*
X143792739Y-101096264D01*
X143790000Y-101044000D01*
X143792739Y-100991736D01*
X143800926Y-100940044D01*
X143814472Y-100889492D01*
X143833227Y-100840632D01*
X143856987Y-100794000D01*
X143885492Y-100750107D01*
X143918428Y-100709435D01*
X143955435Y-100672428D01*
X143996107Y-100639492D01*
X144040000Y-100610987D01*
X144086632Y-100587227D01*
X144135492Y-100568472D01*
X144186044Y-100554926D01*
X144237736Y-100546739D01*
X144290000Y-100544000D01*
X145190000Y-100544000D01*
G37*
X145190000Y-100544000D02*
X146090000Y-100544000D01*
X146142264Y-100546739D01*
X146193956Y-100554926D01*
X146244508Y-100568472D01*
X146293368Y-100587227D01*
X146340000Y-100610987D01*
X146383893Y-100639492D01*
X146424565Y-100672428D01*
X146461572Y-100709435D01*
X146494508Y-100750107D01*
X146523013Y-100794000D01*
X146546773Y-100840632D01*
X146565528Y-100889492D01*
X146579074Y-100940044D01*
X146587261Y-100991736D01*
X146590000Y-101044000D01*
X146587261Y-101096264D01*
X146579074Y-101147956D01*
X146565528Y-101198508D01*
X146546773Y-101247368D01*
X146523013Y-101294000D01*
X146494508Y-101337893D01*
X146461572Y-101378565D01*
X146424565Y-101415572D01*
X146383893Y-101448508D01*
X146340000Y-101477013D01*
X146293368Y-101500773D01*
X146244508Y-101519528D01*
X146193956Y-101533074D01*
X146142264Y-101541261D01*
X146090000Y-101544000D01*
X144290000Y-101544000D01*
X144237736Y-101541261D01*
X144186044Y-101533074D01*
X144135492Y-101519528D01*
X144086632Y-101500773D01*
X144040000Y-101477013D01*
X143996107Y-101448508D01*
X143955435Y-101415572D01*
X143918428Y-101378565D01*
X143885492Y-101337893D01*
X143856987Y-101294000D01*
X143833227Y-101247368D01*
X143814472Y-101198508D01*
X143800926Y-101147956D01*
X143792739Y-101096264D01*
X143790000Y-101044000D01*
X143792739Y-100991736D01*
X143800926Y-100940044D01*
X143814472Y-100889492D01*
X143833227Y-100840632D01*
X143856987Y-100794000D01*
X143885492Y-100750107D01*
X143918428Y-100709435D01*
X143955435Y-100672428D01*
X143996107Y-100639492D01*
X144040000Y-100610987D01*
X144086632Y-100587227D01*
X144135492Y-100568472D01*
X144186044Y-100554926D01*
X144237736Y-100546739D01*
X144290000Y-100544000D01*
X145190000Y-100544000D01*
G36*
X145190000Y-98004000D02*
G01*
X146090000Y-98004000D01*
X146142264Y-98006739D01*
X146193956Y-98014926D01*
X146244508Y-98028472D01*
X146293368Y-98047227D01*
X146340000Y-98070987D01*
X146383893Y-98099492D01*
X146424565Y-98132428D01*
X146461572Y-98169435D01*
X146494508Y-98210107D01*
X146523013Y-98254000D01*
X146546773Y-98300632D01*
X146565528Y-98349492D01*
X146579074Y-98400044D01*
X146587261Y-98451736D01*
X146590000Y-98504000D01*
X146587261Y-98556264D01*
X146579074Y-98607956D01*
X146565528Y-98658508D01*
X146546773Y-98707368D01*
X146523013Y-98754000D01*
X146494508Y-98797893D01*
X146461572Y-98838565D01*
X146424565Y-98875572D01*
X146383893Y-98908508D01*
X146340000Y-98937013D01*
X146293368Y-98960773D01*
X146244508Y-98979528D01*
X146193956Y-98993074D01*
X146142264Y-99001261D01*
X146090000Y-99004000D01*
X144290000Y-99004000D01*
X144237736Y-99001261D01*
X144186044Y-98993074D01*
X144135492Y-98979528D01*
X144086632Y-98960773D01*
X144040000Y-98937013D01*
X143996107Y-98908508D01*
X143955435Y-98875572D01*
X143918428Y-98838565D01*
X143885492Y-98797893D01*
X143856987Y-98754000D01*
X143833227Y-98707368D01*
X143814472Y-98658508D01*
X143800926Y-98607956D01*
X143792739Y-98556264D01*
X143790000Y-98504000D01*
X143792739Y-98451736D01*
X143800926Y-98400044D01*
X143814472Y-98349492D01*
X143833227Y-98300632D01*
X143856987Y-98254000D01*
X143885492Y-98210107D01*
X143918428Y-98169435D01*
X143955435Y-98132428D01*
X143996107Y-98099492D01*
X144040000Y-98070987D01*
X144086632Y-98047227D01*
X144135492Y-98028472D01*
X144186044Y-98014926D01*
X144237736Y-98006739D01*
X144290000Y-98004000D01*
X145190000Y-98004000D01*
G37*
X145190000Y-98004000D02*
X146090000Y-98004000D01*
X146142264Y-98006739D01*
X146193956Y-98014926D01*
X146244508Y-98028472D01*
X146293368Y-98047227D01*
X146340000Y-98070987D01*
X146383893Y-98099492D01*
X146424565Y-98132428D01*
X146461572Y-98169435D01*
X146494508Y-98210107D01*
X146523013Y-98254000D01*
X146546773Y-98300632D01*
X146565528Y-98349492D01*
X146579074Y-98400044D01*
X146587261Y-98451736D01*
X146590000Y-98504000D01*
X146587261Y-98556264D01*
X146579074Y-98607956D01*
X146565528Y-98658508D01*
X146546773Y-98707368D01*
X146523013Y-98754000D01*
X146494508Y-98797893D01*
X146461572Y-98838565D01*
X146424565Y-98875572D01*
X146383893Y-98908508D01*
X146340000Y-98937013D01*
X146293368Y-98960773D01*
X146244508Y-98979528D01*
X146193956Y-98993074D01*
X146142264Y-99001261D01*
X146090000Y-99004000D01*
X144290000Y-99004000D01*
X144237736Y-99001261D01*
X144186044Y-98993074D01*
X144135492Y-98979528D01*
X144086632Y-98960773D01*
X144040000Y-98937013D01*
X143996107Y-98908508D01*
X143955435Y-98875572D01*
X143918428Y-98838565D01*
X143885492Y-98797893D01*
X143856987Y-98754000D01*
X143833227Y-98707368D01*
X143814472Y-98658508D01*
X143800926Y-98607956D01*
X143792739Y-98556264D01*
X143790000Y-98504000D01*
X143792739Y-98451736D01*
X143800926Y-98400044D01*
X143814472Y-98349492D01*
X143833227Y-98300632D01*
X143856987Y-98254000D01*
X143885492Y-98210107D01*
X143918428Y-98169435D01*
X143955435Y-98132428D01*
X143996107Y-98099492D01*
X144040000Y-98070987D01*
X144086632Y-98047227D01*
X144135492Y-98028472D01*
X144186044Y-98014926D01*
X144237736Y-98006739D01*
X144290000Y-98004000D01*
X145190000Y-98004000D01*
G36*
X145190000Y-90384000D02*
G01*
X146090000Y-90384000D01*
X146142264Y-90386739D01*
X146193956Y-90394926D01*
X146244508Y-90408472D01*
X146293368Y-90427227D01*
X146340000Y-90450987D01*
X146383893Y-90479492D01*
X146424565Y-90512428D01*
X146461572Y-90549435D01*
X146494508Y-90590107D01*
X146523013Y-90634000D01*
X146546773Y-90680632D01*
X146565528Y-90729492D01*
X146579074Y-90780044D01*
X146587261Y-90831736D01*
X146590000Y-90884000D01*
X146587261Y-90936264D01*
X146579074Y-90987956D01*
X146565528Y-91038508D01*
X146546773Y-91087368D01*
X146523013Y-91134000D01*
X146494508Y-91177893D01*
X146461572Y-91218565D01*
X146424565Y-91255572D01*
X146383893Y-91288508D01*
X146340000Y-91317013D01*
X146293368Y-91340773D01*
X146244508Y-91359528D01*
X146193956Y-91373074D01*
X146142264Y-91381261D01*
X146090000Y-91384000D01*
X144290000Y-91384000D01*
X144237736Y-91381261D01*
X144186044Y-91373074D01*
X144135492Y-91359528D01*
X144086632Y-91340773D01*
X144040000Y-91317013D01*
X143996107Y-91288508D01*
X143955435Y-91255572D01*
X143918428Y-91218565D01*
X143885492Y-91177893D01*
X143856987Y-91134000D01*
X143833227Y-91087368D01*
X143814472Y-91038508D01*
X143800926Y-90987956D01*
X143792739Y-90936264D01*
X143790000Y-90884000D01*
X143792739Y-90831736D01*
X143800926Y-90780044D01*
X143814472Y-90729492D01*
X143833227Y-90680632D01*
X143856987Y-90634000D01*
X143885492Y-90590107D01*
X143918428Y-90549435D01*
X143955435Y-90512428D01*
X143996107Y-90479492D01*
X144040000Y-90450987D01*
X144086632Y-90427227D01*
X144135492Y-90408472D01*
X144186044Y-90394926D01*
X144237736Y-90386739D01*
X144290000Y-90384000D01*
X145190000Y-90384000D01*
G37*
X145190000Y-90384000D02*
X146090000Y-90384000D01*
X146142264Y-90386739D01*
X146193956Y-90394926D01*
X146244508Y-90408472D01*
X146293368Y-90427227D01*
X146340000Y-90450987D01*
X146383893Y-90479492D01*
X146424565Y-90512428D01*
X146461572Y-90549435D01*
X146494508Y-90590107D01*
X146523013Y-90634000D01*
X146546773Y-90680632D01*
X146565528Y-90729492D01*
X146579074Y-90780044D01*
X146587261Y-90831736D01*
X146590000Y-90884000D01*
X146587261Y-90936264D01*
X146579074Y-90987956D01*
X146565528Y-91038508D01*
X146546773Y-91087368D01*
X146523013Y-91134000D01*
X146494508Y-91177893D01*
X146461572Y-91218565D01*
X146424565Y-91255572D01*
X146383893Y-91288508D01*
X146340000Y-91317013D01*
X146293368Y-91340773D01*
X146244508Y-91359528D01*
X146193956Y-91373074D01*
X146142264Y-91381261D01*
X146090000Y-91384000D01*
X144290000Y-91384000D01*
X144237736Y-91381261D01*
X144186044Y-91373074D01*
X144135492Y-91359528D01*
X144086632Y-91340773D01*
X144040000Y-91317013D01*
X143996107Y-91288508D01*
X143955435Y-91255572D01*
X143918428Y-91218565D01*
X143885492Y-91177893D01*
X143856987Y-91134000D01*
X143833227Y-91087368D01*
X143814472Y-91038508D01*
X143800926Y-90987956D01*
X143792739Y-90936264D01*
X143790000Y-90884000D01*
X143792739Y-90831736D01*
X143800926Y-90780044D01*
X143814472Y-90729492D01*
X143833227Y-90680632D01*
X143856987Y-90634000D01*
X143885492Y-90590107D01*
X143918428Y-90549435D01*
X143955435Y-90512428D01*
X143996107Y-90479492D01*
X144040000Y-90450987D01*
X144086632Y-90427227D01*
X144135492Y-90408472D01*
X144186044Y-90394926D01*
X144237736Y-90386739D01*
X144290000Y-90384000D01*
X145190000Y-90384000D01*
G36*
X145190000Y-92924000D02*
G01*
X146090000Y-92924000D01*
X146142264Y-92926739D01*
X146193956Y-92934926D01*
X146244508Y-92948472D01*
X146293368Y-92967227D01*
X146340000Y-92990987D01*
X146383893Y-93019492D01*
X146424565Y-93052428D01*
X146461572Y-93089435D01*
X146494508Y-93130107D01*
X146523013Y-93174000D01*
X146546773Y-93220632D01*
X146565528Y-93269492D01*
X146579074Y-93320044D01*
X146587261Y-93371736D01*
X146590000Y-93424000D01*
X146587261Y-93476264D01*
X146579074Y-93527956D01*
X146565528Y-93578508D01*
X146546773Y-93627368D01*
X146523013Y-93674000D01*
X146494508Y-93717893D01*
X146461572Y-93758565D01*
X146424565Y-93795572D01*
X146383893Y-93828508D01*
X146340000Y-93857013D01*
X146293368Y-93880773D01*
X146244508Y-93899528D01*
X146193956Y-93913074D01*
X146142264Y-93921261D01*
X146090000Y-93924000D01*
X144290000Y-93924000D01*
X144237736Y-93921261D01*
X144186044Y-93913074D01*
X144135492Y-93899528D01*
X144086632Y-93880773D01*
X144040000Y-93857013D01*
X143996107Y-93828508D01*
X143955435Y-93795572D01*
X143918428Y-93758565D01*
X143885492Y-93717893D01*
X143856987Y-93674000D01*
X143833227Y-93627368D01*
X143814472Y-93578508D01*
X143800926Y-93527956D01*
X143792739Y-93476264D01*
X143790000Y-93424000D01*
X143792739Y-93371736D01*
X143800926Y-93320044D01*
X143814472Y-93269492D01*
X143833227Y-93220632D01*
X143856987Y-93174000D01*
X143885492Y-93130107D01*
X143918428Y-93089435D01*
X143955435Y-93052428D01*
X143996107Y-93019492D01*
X144040000Y-92990987D01*
X144086632Y-92967227D01*
X144135492Y-92948472D01*
X144186044Y-92934926D01*
X144237736Y-92926739D01*
X144290000Y-92924000D01*
X145190000Y-92924000D01*
G37*
X145190000Y-92924000D02*
X146090000Y-92924000D01*
X146142264Y-92926739D01*
X146193956Y-92934926D01*
X146244508Y-92948472D01*
X146293368Y-92967227D01*
X146340000Y-92990987D01*
X146383893Y-93019492D01*
X146424565Y-93052428D01*
X146461572Y-93089435D01*
X146494508Y-93130107D01*
X146523013Y-93174000D01*
X146546773Y-93220632D01*
X146565528Y-93269492D01*
X146579074Y-93320044D01*
X146587261Y-93371736D01*
X146590000Y-93424000D01*
X146587261Y-93476264D01*
X146579074Y-93527956D01*
X146565528Y-93578508D01*
X146546773Y-93627368D01*
X146523013Y-93674000D01*
X146494508Y-93717893D01*
X146461572Y-93758565D01*
X146424565Y-93795572D01*
X146383893Y-93828508D01*
X146340000Y-93857013D01*
X146293368Y-93880773D01*
X146244508Y-93899528D01*
X146193956Y-93913074D01*
X146142264Y-93921261D01*
X146090000Y-93924000D01*
X144290000Y-93924000D01*
X144237736Y-93921261D01*
X144186044Y-93913074D01*
X144135492Y-93899528D01*
X144086632Y-93880773D01*
X144040000Y-93857013D01*
X143996107Y-93828508D01*
X143955435Y-93795572D01*
X143918428Y-93758565D01*
X143885492Y-93717893D01*
X143856987Y-93674000D01*
X143833227Y-93627368D01*
X143814472Y-93578508D01*
X143800926Y-93527956D01*
X143792739Y-93476264D01*
X143790000Y-93424000D01*
X143792739Y-93371736D01*
X143800926Y-93320044D01*
X143814472Y-93269492D01*
X143833227Y-93220632D01*
X143856987Y-93174000D01*
X143885492Y-93130107D01*
X143918428Y-93089435D01*
X143955435Y-93052428D01*
X143996107Y-93019492D01*
X144040000Y-92990987D01*
X144086632Y-92967227D01*
X144135492Y-92948472D01*
X144186044Y-92934926D01*
X144237736Y-92926739D01*
X144290000Y-92924000D01*
X145190000Y-92924000D01*
G36*
X145190000Y-95464000D02*
G01*
X146090000Y-95464000D01*
X146142264Y-95466739D01*
X146193956Y-95474926D01*
X146244508Y-95488472D01*
X146293368Y-95507227D01*
X146340000Y-95530987D01*
X146383893Y-95559492D01*
X146424565Y-95592428D01*
X146461572Y-95629435D01*
X146494508Y-95670107D01*
X146523013Y-95714000D01*
X146546773Y-95760632D01*
X146565528Y-95809492D01*
X146579074Y-95860044D01*
X146587261Y-95911736D01*
X146590000Y-95964000D01*
X146587261Y-96016264D01*
X146579074Y-96067956D01*
X146565528Y-96118508D01*
X146546773Y-96167368D01*
X146523013Y-96214000D01*
X146494508Y-96257893D01*
X146461572Y-96298565D01*
X146424565Y-96335572D01*
X146383893Y-96368508D01*
X146340000Y-96397013D01*
X146293368Y-96420773D01*
X146244508Y-96439528D01*
X146193956Y-96453074D01*
X146142264Y-96461261D01*
X146090000Y-96464000D01*
X144290000Y-96464000D01*
X144237736Y-96461261D01*
X144186044Y-96453074D01*
X144135492Y-96439528D01*
X144086632Y-96420773D01*
X144040000Y-96397013D01*
X143996107Y-96368508D01*
X143955435Y-96335572D01*
X143918428Y-96298565D01*
X143885492Y-96257893D01*
X143856987Y-96214000D01*
X143833227Y-96167368D01*
X143814472Y-96118508D01*
X143800926Y-96067956D01*
X143792739Y-96016264D01*
X143790000Y-95964000D01*
X143792739Y-95911736D01*
X143800926Y-95860044D01*
X143814472Y-95809492D01*
X143833227Y-95760632D01*
X143856987Y-95714000D01*
X143885492Y-95670107D01*
X143918428Y-95629435D01*
X143955435Y-95592428D01*
X143996107Y-95559492D01*
X144040000Y-95530987D01*
X144086632Y-95507227D01*
X144135492Y-95488472D01*
X144186044Y-95474926D01*
X144237736Y-95466739D01*
X144290000Y-95464000D01*
X145190000Y-95464000D01*
G37*
X145190000Y-95464000D02*
X146090000Y-95464000D01*
X146142264Y-95466739D01*
X146193956Y-95474926D01*
X146244508Y-95488472D01*
X146293368Y-95507227D01*
X146340000Y-95530987D01*
X146383893Y-95559492D01*
X146424565Y-95592428D01*
X146461572Y-95629435D01*
X146494508Y-95670107D01*
X146523013Y-95714000D01*
X146546773Y-95760632D01*
X146565528Y-95809492D01*
X146579074Y-95860044D01*
X146587261Y-95911736D01*
X146590000Y-95964000D01*
X146587261Y-96016264D01*
X146579074Y-96067956D01*
X146565528Y-96118508D01*
X146546773Y-96167368D01*
X146523013Y-96214000D01*
X146494508Y-96257893D01*
X146461572Y-96298565D01*
X146424565Y-96335572D01*
X146383893Y-96368508D01*
X146340000Y-96397013D01*
X146293368Y-96420773D01*
X146244508Y-96439528D01*
X146193956Y-96453074D01*
X146142264Y-96461261D01*
X146090000Y-96464000D01*
X144290000Y-96464000D01*
X144237736Y-96461261D01*
X144186044Y-96453074D01*
X144135492Y-96439528D01*
X144086632Y-96420773D01*
X144040000Y-96397013D01*
X143996107Y-96368508D01*
X143955435Y-96335572D01*
X143918428Y-96298565D01*
X143885492Y-96257893D01*
X143856987Y-96214000D01*
X143833227Y-96167368D01*
X143814472Y-96118508D01*
X143800926Y-96067956D01*
X143792739Y-96016264D01*
X143790000Y-95964000D01*
X143792739Y-95911736D01*
X143800926Y-95860044D01*
X143814472Y-95809492D01*
X143833227Y-95760632D01*
X143856987Y-95714000D01*
X143885492Y-95670107D01*
X143918428Y-95629435D01*
X143955435Y-95592428D01*
X143996107Y-95559492D01*
X144040000Y-95530987D01*
X144086632Y-95507227D01*
X144135492Y-95488472D01*
X144186044Y-95474926D01*
X144237736Y-95466739D01*
X144290000Y-95464000D01*
X145190000Y-95464000D01*
G36*
X129190000Y-95464000D02*
G01*
X130090000Y-95464000D01*
X130142264Y-95466739D01*
X130193956Y-95474926D01*
X130244508Y-95488472D01*
X130293368Y-95507227D01*
X130340000Y-95530987D01*
X130383893Y-95559492D01*
X130424565Y-95592428D01*
X130461572Y-95629435D01*
X130494508Y-95670107D01*
X130523013Y-95714000D01*
X130546773Y-95760632D01*
X130565528Y-95809492D01*
X130579074Y-95860044D01*
X130587261Y-95911736D01*
X130590000Y-95964000D01*
X130587261Y-96016264D01*
X130579074Y-96067956D01*
X130565528Y-96118508D01*
X130546773Y-96167368D01*
X130523013Y-96214000D01*
X130494508Y-96257893D01*
X130461572Y-96298565D01*
X130424565Y-96335572D01*
X130383893Y-96368508D01*
X130340000Y-96397013D01*
X130293368Y-96420773D01*
X130244508Y-96439528D01*
X130193956Y-96453074D01*
X130142264Y-96461261D01*
X130090000Y-96464000D01*
X128290000Y-96464000D01*
X128237736Y-96461261D01*
X128186044Y-96453074D01*
X128135492Y-96439528D01*
X128086632Y-96420773D01*
X128040000Y-96397013D01*
X127996107Y-96368508D01*
X127955435Y-96335572D01*
X127918428Y-96298565D01*
X127885492Y-96257893D01*
X127856987Y-96214000D01*
X127833227Y-96167368D01*
X127814472Y-96118508D01*
X127800926Y-96067956D01*
X127792739Y-96016264D01*
X127790000Y-95964000D01*
X127792739Y-95911736D01*
X127800926Y-95860044D01*
X127814472Y-95809492D01*
X127833227Y-95760632D01*
X127856987Y-95714000D01*
X127885492Y-95670107D01*
X127918428Y-95629435D01*
X127955435Y-95592428D01*
X127996107Y-95559492D01*
X128040000Y-95530987D01*
X128086632Y-95507227D01*
X128135492Y-95488472D01*
X128186044Y-95474926D01*
X128237736Y-95466739D01*
X128290000Y-95464000D01*
X129190000Y-95464000D01*
G37*
X129190000Y-95464000D02*
X130090000Y-95464000D01*
X130142264Y-95466739D01*
X130193956Y-95474926D01*
X130244508Y-95488472D01*
X130293368Y-95507227D01*
X130340000Y-95530987D01*
X130383893Y-95559492D01*
X130424565Y-95592428D01*
X130461572Y-95629435D01*
X130494508Y-95670107D01*
X130523013Y-95714000D01*
X130546773Y-95760632D01*
X130565528Y-95809492D01*
X130579074Y-95860044D01*
X130587261Y-95911736D01*
X130590000Y-95964000D01*
X130587261Y-96016264D01*
X130579074Y-96067956D01*
X130565528Y-96118508D01*
X130546773Y-96167368D01*
X130523013Y-96214000D01*
X130494508Y-96257893D01*
X130461572Y-96298565D01*
X130424565Y-96335572D01*
X130383893Y-96368508D01*
X130340000Y-96397013D01*
X130293368Y-96420773D01*
X130244508Y-96439528D01*
X130193956Y-96453074D01*
X130142264Y-96461261D01*
X130090000Y-96464000D01*
X128290000Y-96464000D01*
X128237736Y-96461261D01*
X128186044Y-96453074D01*
X128135492Y-96439528D01*
X128086632Y-96420773D01*
X128040000Y-96397013D01*
X127996107Y-96368508D01*
X127955435Y-96335572D01*
X127918428Y-96298565D01*
X127885492Y-96257893D01*
X127856987Y-96214000D01*
X127833227Y-96167368D01*
X127814472Y-96118508D01*
X127800926Y-96067956D01*
X127792739Y-96016264D01*
X127790000Y-95964000D01*
X127792739Y-95911736D01*
X127800926Y-95860044D01*
X127814472Y-95809492D01*
X127833227Y-95760632D01*
X127856987Y-95714000D01*
X127885492Y-95670107D01*
X127918428Y-95629435D01*
X127955435Y-95592428D01*
X127996107Y-95559492D01*
X128040000Y-95530987D01*
X128086632Y-95507227D01*
X128135492Y-95488472D01*
X128186044Y-95474926D01*
X128237736Y-95466739D01*
X128290000Y-95464000D01*
X129190000Y-95464000D01*
G04 #@! TD*
D13*
G04 #@! TO.C,R3*
G36*
X141136958Y-118290710D02*
G01*
X141151276Y-118292834D01*
X141165317Y-118296351D01*
X141178946Y-118301228D01*
X141192031Y-118307417D01*
X141204447Y-118314858D01*
X141216073Y-118323481D01*
X141226798Y-118333202D01*
X141236519Y-118343927D01*
X141245142Y-118355553D01*
X141252583Y-118367969D01*
X141258772Y-118381054D01*
X141263649Y-118394683D01*
X141267166Y-118408724D01*
X141269290Y-118423042D01*
X141270000Y-118437500D01*
X141270000Y-118732500D01*
X141269290Y-118746958D01*
X141267166Y-118761276D01*
X141263649Y-118775317D01*
X141258772Y-118788946D01*
X141252583Y-118802031D01*
X141245142Y-118814447D01*
X141236519Y-118826073D01*
X141226798Y-118836798D01*
X141216073Y-118846519D01*
X141204447Y-118855142D01*
X141192031Y-118862583D01*
X141178946Y-118868772D01*
X141165317Y-118873649D01*
X141151276Y-118877166D01*
X141136958Y-118879290D01*
X141122500Y-118880000D01*
X140777500Y-118880000D01*
X140763042Y-118879290D01*
X140748724Y-118877166D01*
X140734683Y-118873649D01*
X140721054Y-118868772D01*
X140707969Y-118862583D01*
X140695553Y-118855142D01*
X140683927Y-118846519D01*
X140673202Y-118836798D01*
X140663481Y-118826073D01*
X140654858Y-118814447D01*
X140647417Y-118802031D01*
X140641228Y-118788946D01*
X140636351Y-118775317D01*
X140632834Y-118761276D01*
X140630710Y-118746958D01*
X140630000Y-118732500D01*
X140630000Y-118437500D01*
X140630710Y-118423042D01*
X140632834Y-118408724D01*
X140636351Y-118394683D01*
X140641228Y-118381054D01*
X140647417Y-118367969D01*
X140654858Y-118355553D01*
X140663481Y-118343927D01*
X140673202Y-118333202D01*
X140683927Y-118323481D01*
X140695553Y-118314858D01*
X140707969Y-118307417D01*
X140721054Y-118301228D01*
X140734683Y-118296351D01*
X140748724Y-118292834D01*
X140763042Y-118290710D01*
X140777500Y-118290000D01*
X141122500Y-118290000D01*
X141136958Y-118290710D01*
G37*
G36*
X141136958Y-117320710D02*
G01*
X141151276Y-117322834D01*
X141165317Y-117326351D01*
X141178946Y-117331228D01*
X141192031Y-117337417D01*
X141204447Y-117344858D01*
X141216073Y-117353481D01*
X141226798Y-117363202D01*
X141236519Y-117373927D01*
X141245142Y-117385553D01*
X141252583Y-117397969D01*
X141258772Y-117411054D01*
X141263649Y-117424683D01*
X141267166Y-117438724D01*
X141269290Y-117453042D01*
X141270000Y-117467500D01*
X141270000Y-117762500D01*
X141269290Y-117776958D01*
X141267166Y-117791276D01*
X141263649Y-117805317D01*
X141258772Y-117818946D01*
X141252583Y-117832031D01*
X141245142Y-117844447D01*
X141236519Y-117856073D01*
X141226798Y-117866798D01*
X141216073Y-117876519D01*
X141204447Y-117885142D01*
X141192031Y-117892583D01*
X141178946Y-117898772D01*
X141165317Y-117903649D01*
X141151276Y-117907166D01*
X141136958Y-117909290D01*
X141122500Y-117910000D01*
X140777500Y-117910000D01*
X140763042Y-117909290D01*
X140748724Y-117907166D01*
X140734683Y-117903649D01*
X140721054Y-117898772D01*
X140707969Y-117892583D01*
X140695553Y-117885142D01*
X140683927Y-117876519D01*
X140673202Y-117866798D01*
X140663481Y-117856073D01*
X140654858Y-117844447D01*
X140647417Y-117832031D01*
X140641228Y-117818946D01*
X140636351Y-117805317D01*
X140632834Y-117791276D01*
X140630710Y-117776958D01*
X140630000Y-117762500D01*
X140630000Y-117467500D01*
X140630710Y-117453042D01*
X140632834Y-117438724D01*
X140636351Y-117424683D01*
X140641228Y-117411054D01*
X140647417Y-117397969D01*
X140654858Y-117385553D01*
X140663481Y-117373927D01*
X140673202Y-117363202D01*
X140683927Y-117353481D01*
X140695553Y-117344858D01*
X140707969Y-117337417D01*
X140721054Y-117331228D01*
X140734683Y-117326351D01*
X140748724Y-117322834D01*
X140763042Y-117320710D01*
X140777500Y-117320000D01*
X141122500Y-117320000D01*
X141136958Y-117320710D01*
G37*
G04 #@! TD*
G04 #@! TO.C,R2*
G36*
X140136958Y-117320710D02*
G01*
X140151276Y-117322834D01*
X140165317Y-117326351D01*
X140178946Y-117331228D01*
X140192031Y-117337417D01*
X140204447Y-117344858D01*
X140216073Y-117353481D01*
X140226798Y-117363202D01*
X140236519Y-117373927D01*
X140245142Y-117385553D01*
X140252583Y-117397969D01*
X140258772Y-117411054D01*
X140263649Y-117424683D01*
X140267166Y-117438724D01*
X140269290Y-117453042D01*
X140270000Y-117467500D01*
X140270000Y-117762500D01*
X140269290Y-117776958D01*
X140267166Y-117791276D01*
X140263649Y-117805317D01*
X140258772Y-117818946D01*
X140252583Y-117832031D01*
X140245142Y-117844447D01*
X140236519Y-117856073D01*
X140226798Y-117866798D01*
X140216073Y-117876519D01*
X140204447Y-117885142D01*
X140192031Y-117892583D01*
X140178946Y-117898772D01*
X140165317Y-117903649D01*
X140151276Y-117907166D01*
X140136958Y-117909290D01*
X140122500Y-117910000D01*
X139777500Y-117910000D01*
X139763042Y-117909290D01*
X139748724Y-117907166D01*
X139734683Y-117903649D01*
X139721054Y-117898772D01*
X139707969Y-117892583D01*
X139695553Y-117885142D01*
X139683927Y-117876519D01*
X139673202Y-117866798D01*
X139663481Y-117856073D01*
X139654858Y-117844447D01*
X139647417Y-117832031D01*
X139641228Y-117818946D01*
X139636351Y-117805317D01*
X139632834Y-117791276D01*
X139630710Y-117776958D01*
X139630000Y-117762500D01*
X139630000Y-117467500D01*
X139630710Y-117453042D01*
X139632834Y-117438724D01*
X139636351Y-117424683D01*
X139641228Y-117411054D01*
X139647417Y-117397969D01*
X139654858Y-117385553D01*
X139663481Y-117373927D01*
X139673202Y-117363202D01*
X139683927Y-117353481D01*
X139695553Y-117344858D01*
X139707969Y-117337417D01*
X139721054Y-117331228D01*
X139734683Y-117326351D01*
X139748724Y-117322834D01*
X139763042Y-117320710D01*
X139777500Y-117320000D01*
X140122500Y-117320000D01*
X140136958Y-117320710D01*
G37*
G36*
X140136958Y-118290710D02*
G01*
X140151276Y-118292834D01*
X140165317Y-118296351D01*
X140178946Y-118301228D01*
X140192031Y-118307417D01*
X140204447Y-118314858D01*
X140216073Y-118323481D01*
X140226798Y-118333202D01*
X140236519Y-118343927D01*
X140245142Y-118355553D01*
X140252583Y-118367969D01*
X140258772Y-118381054D01*
X140263649Y-118394683D01*
X140267166Y-118408724D01*
X140269290Y-118423042D01*
X140270000Y-118437500D01*
X140270000Y-118732500D01*
X140269290Y-118746958D01*
X140267166Y-118761276D01*
X140263649Y-118775317D01*
X140258772Y-118788946D01*
X140252583Y-118802031D01*
X140245142Y-118814447D01*
X140236519Y-118826073D01*
X140226798Y-118836798D01*
X140216073Y-118846519D01*
X140204447Y-118855142D01*
X140192031Y-118862583D01*
X140178946Y-118868772D01*
X140165317Y-118873649D01*
X140151276Y-118877166D01*
X140136958Y-118879290D01*
X140122500Y-118880000D01*
X139777500Y-118880000D01*
X139763042Y-118879290D01*
X139748724Y-118877166D01*
X139734683Y-118873649D01*
X139721054Y-118868772D01*
X139707969Y-118862583D01*
X139695553Y-118855142D01*
X139683927Y-118846519D01*
X139673202Y-118836798D01*
X139663481Y-118826073D01*
X139654858Y-118814447D01*
X139647417Y-118802031D01*
X139641228Y-118788946D01*
X139636351Y-118775317D01*
X139632834Y-118761276D01*
X139630710Y-118746958D01*
X139630000Y-118732500D01*
X139630000Y-118437500D01*
X139630710Y-118423042D01*
X139632834Y-118408724D01*
X139636351Y-118394683D01*
X139641228Y-118381054D01*
X139647417Y-118367969D01*
X139654858Y-118355553D01*
X139663481Y-118343927D01*
X139673202Y-118333202D01*
X139683927Y-118323481D01*
X139695553Y-118314858D01*
X139707969Y-118307417D01*
X139721054Y-118301228D01*
X139734683Y-118296351D01*
X139748724Y-118292834D01*
X139763042Y-118290710D01*
X139777500Y-118290000D01*
X140122500Y-118290000D01*
X140136958Y-118290710D01*
G37*
G04 #@! TD*
G04 #@! TO.C,LED3*
G36*
X137452691Y-81126053D02*
G01*
X137473926Y-81129203D01*
X137494750Y-81134419D01*
X137514962Y-81141651D01*
X137534368Y-81150830D01*
X137552781Y-81161866D01*
X137570024Y-81174654D01*
X137585930Y-81189070D01*
X137600346Y-81204976D01*
X137613134Y-81222219D01*
X137624170Y-81240632D01*
X137633349Y-81260038D01*
X137640581Y-81280250D01*
X137645797Y-81301074D01*
X137648947Y-81322309D01*
X137650000Y-81343750D01*
X137650000Y-81856250D01*
X137648947Y-81877691D01*
X137645797Y-81898926D01*
X137640581Y-81919750D01*
X137633349Y-81939962D01*
X137624170Y-81959368D01*
X137613134Y-81977781D01*
X137600346Y-81995024D01*
X137585930Y-82010930D01*
X137570024Y-82025346D01*
X137552781Y-82038134D01*
X137534368Y-82049170D01*
X137514962Y-82058349D01*
X137494750Y-82065581D01*
X137473926Y-82070797D01*
X137452691Y-82073947D01*
X137431250Y-82075000D01*
X136993750Y-82075000D01*
X136972309Y-82073947D01*
X136951074Y-82070797D01*
X136930250Y-82065581D01*
X136910038Y-82058349D01*
X136890632Y-82049170D01*
X136872219Y-82038134D01*
X136854976Y-82025346D01*
X136839070Y-82010930D01*
X136824654Y-81995024D01*
X136811866Y-81977781D01*
X136800830Y-81959368D01*
X136791651Y-81939962D01*
X136784419Y-81919750D01*
X136779203Y-81898926D01*
X136776053Y-81877691D01*
X136775000Y-81856250D01*
X136775000Y-81343750D01*
X136776053Y-81322309D01*
X136779203Y-81301074D01*
X136784419Y-81280250D01*
X136791651Y-81260038D01*
X136800830Y-81240632D01*
X136811866Y-81222219D01*
X136824654Y-81204976D01*
X136839070Y-81189070D01*
X136854976Y-81174654D01*
X136872219Y-81161866D01*
X136890632Y-81150830D01*
X136910038Y-81141651D01*
X136930250Y-81134419D01*
X136951074Y-81129203D01*
X136972309Y-81126053D01*
X136993750Y-81125000D01*
X137431250Y-81125000D01*
X137452691Y-81126053D01*
G37*
G36*
X139027691Y-81126053D02*
G01*
X139048926Y-81129203D01*
X139069750Y-81134419D01*
X139089962Y-81141651D01*
X139109368Y-81150830D01*
X139127781Y-81161866D01*
X139145024Y-81174654D01*
X139160930Y-81189070D01*
X139175346Y-81204976D01*
X139188134Y-81222219D01*
X139199170Y-81240632D01*
X139208349Y-81260038D01*
X139215581Y-81280250D01*
X139220797Y-81301074D01*
X139223947Y-81322309D01*
X139225000Y-81343750D01*
X139225000Y-81856250D01*
X139223947Y-81877691D01*
X139220797Y-81898926D01*
X139215581Y-81919750D01*
X139208349Y-81939962D01*
X139199170Y-81959368D01*
X139188134Y-81977781D01*
X139175346Y-81995024D01*
X139160930Y-82010930D01*
X139145024Y-82025346D01*
X139127781Y-82038134D01*
X139109368Y-82049170D01*
X139089962Y-82058349D01*
X139069750Y-82065581D01*
X139048926Y-82070797D01*
X139027691Y-82073947D01*
X139006250Y-82075000D01*
X138568750Y-82075000D01*
X138547309Y-82073947D01*
X138526074Y-82070797D01*
X138505250Y-82065581D01*
X138485038Y-82058349D01*
X138465632Y-82049170D01*
X138447219Y-82038134D01*
X138429976Y-82025346D01*
X138414070Y-82010930D01*
X138399654Y-81995024D01*
X138386866Y-81977781D01*
X138375830Y-81959368D01*
X138366651Y-81939962D01*
X138359419Y-81919750D01*
X138354203Y-81898926D01*
X138351053Y-81877691D01*
X138350000Y-81856250D01*
X138350000Y-81343750D01*
X138351053Y-81322309D01*
X138354203Y-81301074D01*
X138359419Y-81280250D01*
X138366651Y-81260038D01*
X138375830Y-81240632D01*
X138386866Y-81222219D01*
X138399654Y-81204976D01*
X138414070Y-81189070D01*
X138429976Y-81174654D01*
X138447219Y-81161866D01*
X138465632Y-81150830D01*
X138485038Y-81141651D01*
X138505250Y-81134419D01*
X138526074Y-81129203D01*
X138547309Y-81126053D01*
X138568750Y-81125000D01*
X139006250Y-81125000D01*
X139027691Y-81126053D01*
G37*
G04 #@! TD*
G04 #@! TO.C,LED2*
G36*
X133752691Y-81126053D02*
G01*
X133773926Y-81129203D01*
X133794750Y-81134419D01*
X133814962Y-81141651D01*
X133834368Y-81150830D01*
X133852781Y-81161866D01*
X133870024Y-81174654D01*
X133885930Y-81189070D01*
X133900346Y-81204976D01*
X133913134Y-81222219D01*
X133924170Y-81240632D01*
X133933349Y-81260038D01*
X133940581Y-81280250D01*
X133945797Y-81301074D01*
X133948947Y-81322309D01*
X133950000Y-81343750D01*
X133950000Y-81856250D01*
X133948947Y-81877691D01*
X133945797Y-81898926D01*
X133940581Y-81919750D01*
X133933349Y-81939962D01*
X133924170Y-81959368D01*
X133913134Y-81977781D01*
X133900346Y-81995024D01*
X133885930Y-82010930D01*
X133870024Y-82025346D01*
X133852781Y-82038134D01*
X133834368Y-82049170D01*
X133814962Y-82058349D01*
X133794750Y-82065581D01*
X133773926Y-82070797D01*
X133752691Y-82073947D01*
X133731250Y-82075000D01*
X133293750Y-82075000D01*
X133272309Y-82073947D01*
X133251074Y-82070797D01*
X133230250Y-82065581D01*
X133210038Y-82058349D01*
X133190632Y-82049170D01*
X133172219Y-82038134D01*
X133154976Y-82025346D01*
X133139070Y-82010930D01*
X133124654Y-81995024D01*
X133111866Y-81977781D01*
X133100830Y-81959368D01*
X133091651Y-81939962D01*
X133084419Y-81919750D01*
X133079203Y-81898926D01*
X133076053Y-81877691D01*
X133075000Y-81856250D01*
X133075000Y-81343750D01*
X133076053Y-81322309D01*
X133079203Y-81301074D01*
X133084419Y-81280250D01*
X133091651Y-81260038D01*
X133100830Y-81240632D01*
X133111866Y-81222219D01*
X133124654Y-81204976D01*
X133139070Y-81189070D01*
X133154976Y-81174654D01*
X133172219Y-81161866D01*
X133190632Y-81150830D01*
X133210038Y-81141651D01*
X133230250Y-81134419D01*
X133251074Y-81129203D01*
X133272309Y-81126053D01*
X133293750Y-81125000D01*
X133731250Y-81125000D01*
X133752691Y-81126053D01*
G37*
G36*
X135327691Y-81126053D02*
G01*
X135348926Y-81129203D01*
X135369750Y-81134419D01*
X135389962Y-81141651D01*
X135409368Y-81150830D01*
X135427781Y-81161866D01*
X135445024Y-81174654D01*
X135460930Y-81189070D01*
X135475346Y-81204976D01*
X135488134Y-81222219D01*
X135499170Y-81240632D01*
X135508349Y-81260038D01*
X135515581Y-81280250D01*
X135520797Y-81301074D01*
X135523947Y-81322309D01*
X135525000Y-81343750D01*
X135525000Y-81856250D01*
X135523947Y-81877691D01*
X135520797Y-81898926D01*
X135515581Y-81919750D01*
X135508349Y-81939962D01*
X135499170Y-81959368D01*
X135488134Y-81977781D01*
X135475346Y-81995024D01*
X135460930Y-82010930D01*
X135445024Y-82025346D01*
X135427781Y-82038134D01*
X135409368Y-82049170D01*
X135389962Y-82058349D01*
X135369750Y-82065581D01*
X135348926Y-82070797D01*
X135327691Y-82073947D01*
X135306250Y-82075000D01*
X134868750Y-82075000D01*
X134847309Y-82073947D01*
X134826074Y-82070797D01*
X134805250Y-82065581D01*
X134785038Y-82058349D01*
X134765632Y-82049170D01*
X134747219Y-82038134D01*
X134729976Y-82025346D01*
X134714070Y-82010930D01*
X134699654Y-81995024D01*
X134686866Y-81977781D01*
X134675830Y-81959368D01*
X134666651Y-81939962D01*
X134659419Y-81919750D01*
X134654203Y-81898926D01*
X134651053Y-81877691D01*
X134650000Y-81856250D01*
X134650000Y-81343750D01*
X134651053Y-81322309D01*
X134654203Y-81301074D01*
X134659419Y-81280250D01*
X134666651Y-81260038D01*
X134675830Y-81240632D01*
X134686866Y-81222219D01*
X134699654Y-81204976D01*
X134714070Y-81189070D01*
X134729976Y-81174654D01*
X134747219Y-81161866D01*
X134765632Y-81150830D01*
X134785038Y-81141651D01*
X134805250Y-81134419D01*
X134826074Y-81129203D01*
X134847309Y-81126053D01*
X134868750Y-81125000D01*
X135306250Y-81125000D01*
X135327691Y-81126053D01*
G37*
G04 #@! TD*
G04 #@! TO.C,LED1*
G36*
X130002691Y-81126053D02*
G01*
X130023926Y-81129203D01*
X130044750Y-81134419D01*
X130064962Y-81141651D01*
X130084368Y-81150830D01*
X130102781Y-81161866D01*
X130120024Y-81174654D01*
X130135930Y-81189070D01*
X130150346Y-81204976D01*
X130163134Y-81222219D01*
X130174170Y-81240632D01*
X130183349Y-81260038D01*
X130190581Y-81280250D01*
X130195797Y-81301074D01*
X130198947Y-81322309D01*
X130200000Y-81343750D01*
X130200000Y-81856250D01*
X130198947Y-81877691D01*
X130195797Y-81898926D01*
X130190581Y-81919750D01*
X130183349Y-81939962D01*
X130174170Y-81959368D01*
X130163134Y-81977781D01*
X130150346Y-81995024D01*
X130135930Y-82010930D01*
X130120024Y-82025346D01*
X130102781Y-82038134D01*
X130084368Y-82049170D01*
X130064962Y-82058349D01*
X130044750Y-82065581D01*
X130023926Y-82070797D01*
X130002691Y-82073947D01*
X129981250Y-82075000D01*
X129543750Y-82075000D01*
X129522309Y-82073947D01*
X129501074Y-82070797D01*
X129480250Y-82065581D01*
X129460038Y-82058349D01*
X129440632Y-82049170D01*
X129422219Y-82038134D01*
X129404976Y-82025346D01*
X129389070Y-82010930D01*
X129374654Y-81995024D01*
X129361866Y-81977781D01*
X129350830Y-81959368D01*
X129341651Y-81939962D01*
X129334419Y-81919750D01*
X129329203Y-81898926D01*
X129326053Y-81877691D01*
X129325000Y-81856250D01*
X129325000Y-81343750D01*
X129326053Y-81322309D01*
X129329203Y-81301074D01*
X129334419Y-81280250D01*
X129341651Y-81260038D01*
X129350830Y-81240632D01*
X129361866Y-81222219D01*
X129374654Y-81204976D01*
X129389070Y-81189070D01*
X129404976Y-81174654D01*
X129422219Y-81161866D01*
X129440632Y-81150830D01*
X129460038Y-81141651D01*
X129480250Y-81134419D01*
X129501074Y-81129203D01*
X129522309Y-81126053D01*
X129543750Y-81125000D01*
X129981250Y-81125000D01*
X130002691Y-81126053D01*
G37*
G36*
X131577691Y-81126053D02*
G01*
X131598926Y-81129203D01*
X131619750Y-81134419D01*
X131639962Y-81141651D01*
X131659368Y-81150830D01*
X131677781Y-81161866D01*
X131695024Y-81174654D01*
X131710930Y-81189070D01*
X131725346Y-81204976D01*
X131738134Y-81222219D01*
X131749170Y-81240632D01*
X131758349Y-81260038D01*
X131765581Y-81280250D01*
X131770797Y-81301074D01*
X131773947Y-81322309D01*
X131775000Y-81343750D01*
X131775000Y-81856250D01*
X131773947Y-81877691D01*
X131770797Y-81898926D01*
X131765581Y-81919750D01*
X131758349Y-81939962D01*
X131749170Y-81959368D01*
X131738134Y-81977781D01*
X131725346Y-81995024D01*
X131710930Y-82010930D01*
X131695024Y-82025346D01*
X131677781Y-82038134D01*
X131659368Y-82049170D01*
X131639962Y-82058349D01*
X131619750Y-82065581D01*
X131598926Y-82070797D01*
X131577691Y-82073947D01*
X131556250Y-82075000D01*
X131118750Y-82075000D01*
X131097309Y-82073947D01*
X131076074Y-82070797D01*
X131055250Y-82065581D01*
X131035038Y-82058349D01*
X131015632Y-82049170D01*
X130997219Y-82038134D01*
X130979976Y-82025346D01*
X130964070Y-82010930D01*
X130949654Y-81995024D01*
X130936866Y-81977781D01*
X130925830Y-81959368D01*
X130916651Y-81939962D01*
X130909419Y-81919750D01*
X130904203Y-81898926D01*
X130901053Y-81877691D01*
X130900000Y-81856250D01*
X130900000Y-81343750D01*
X130901053Y-81322309D01*
X130904203Y-81301074D01*
X130909419Y-81280250D01*
X130916651Y-81260038D01*
X130925830Y-81240632D01*
X130936866Y-81222219D01*
X130949654Y-81204976D01*
X130964070Y-81189070D01*
X130979976Y-81174654D01*
X130997219Y-81161866D01*
X131015632Y-81150830D01*
X131035038Y-81141651D01*
X131055250Y-81134419D01*
X131076074Y-81129203D01*
X131097309Y-81126053D01*
X131118750Y-81125000D01*
X131556250Y-81125000D01*
X131577691Y-81126053D01*
G37*
G04 #@! TD*
D14*
G04 #@! TO.C,U1*
X137610000Y-114950000D03*
X137610000Y-114450000D03*
X137610000Y-113950000D03*
X137610000Y-113450000D03*
X137610000Y-112950000D03*
X137610000Y-112450000D03*
X137610000Y-111950000D03*
D15*
X138700000Y-110860000D03*
X139200000Y-110860000D03*
X139700000Y-110860000D03*
X140200000Y-110860000D03*
X140700000Y-110860000D03*
X141200000Y-110860000D03*
X141700000Y-110860000D03*
D14*
X142790000Y-111950000D03*
X142790000Y-112450000D03*
X142790000Y-112950000D03*
X142790000Y-113450000D03*
X142790000Y-113950000D03*
X142790000Y-114450000D03*
X142790000Y-114950000D03*
D15*
X141700000Y-116040000D03*
X141200000Y-116040000D03*
X140700000Y-116040000D03*
X140200000Y-116040000D03*
X139700000Y-116040000D03*
X139200000Y-116040000D03*
X138700000Y-116040000D03*
G04 #@! TD*
D13*
G04 #@! TO.C,C2*
G36*
X124686958Y-101725710D02*
G01*
X124701276Y-101727834D01*
X124715317Y-101731351D01*
X124728946Y-101736228D01*
X124742031Y-101742417D01*
X124754447Y-101749858D01*
X124766073Y-101758481D01*
X124776798Y-101768202D01*
X124786519Y-101778927D01*
X124795142Y-101790553D01*
X124802583Y-101802969D01*
X124808772Y-101816054D01*
X124813649Y-101829683D01*
X124817166Y-101843724D01*
X124819290Y-101858042D01*
X124820000Y-101872500D01*
X124820000Y-102167500D01*
X124819290Y-102181958D01*
X124817166Y-102196276D01*
X124813649Y-102210317D01*
X124808772Y-102223946D01*
X124802583Y-102237031D01*
X124795142Y-102249447D01*
X124786519Y-102261073D01*
X124776798Y-102271798D01*
X124766073Y-102281519D01*
X124754447Y-102290142D01*
X124742031Y-102297583D01*
X124728946Y-102303772D01*
X124715317Y-102308649D01*
X124701276Y-102312166D01*
X124686958Y-102314290D01*
X124672500Y-102315000D01*
X124327500Y-102315000D01*
X124313042Y-102314290D01*
X124298724Y-102312166D01*
X124284683Y-102308649D01*
X124271054Y-102303772D01*
X124257969Y-102297583D01*
X124245553Y-102290142D01*
X124233927Y-102281519D01*
X124223202Y-102271798D01*
X124213481Y-102261073D01*
X124204858Y-102249447D01*
X124197417Y-102237031D01*
X124191228Y-102223946D01*
X124186351Y-102210317D01*
X124182834Y-102196276D01*
X124180710Y-102181958D01*
X124180000Y-102167500D01*
X124180000Y-101872500D01*
X124180710Y-101858042D01*
X124182834Y-101843724D01*
X124186351Y-101829683D01*
X124191228Y-101816054D01*
X124197417Y-101802969D01*
X124204858Y-101790553D01*
X124213481Y-101778927D01*
X124223202Y-101768202D01*
X124233927Y-101758481D01*
X124245553Y-101749858D01*
X124257969Y-101742417D01*
X124271054Y-101736228D01*
X124284683Y-101731351D01*
X124298724Y-101727834D01*
X124313042Y-101725710D01*
X124327500Y-101725000D01*
X124672500Y-101725000D01*
X124686958Y-101725710D01*
G37*
G36*
X124686958Y-100755710D02*
G01*
X124701276Y-100757834D01*
X124715317Y-100761351D01*
X124728946Y-100766228D01*
X124742031Y-100772417D01*
X124754447Y-100779858D01*
X124766073Y-100788481D01*
X124776798Y-100798202D01*
X124786519Y-100808927D01*
X124795142Y-100820553D01*
X124802583Y-100832969D01*
X124808772Y-100846054D01*
X124813649Y-100859683D01*
X124817166Y-100873724D01*
X124819290Y-100888042D01*
X124820000Y-100902500D01*
X124820000Y-101197500D01*
X124819290Y-101211958D01*
X124817166Y-101226276D01*
X124813649Y-101240317D01*
X124808772Y-101253946D01*
X124802583Y-101267031D01*
X124795142Y-101279447D01*
X124786519Y-101291073D01*
X124776798Y-101301798D01*
X124766073Y-101311519D01*
X124754447Y-101320142D01*
X124742031Y-101327583D01*
X124728946Y-101333772D01*
X124715317Y-101338649D01*
X124701276Y-101342166D01*
X124686958Y-101344290D01*
X124672500Y-101345000D01*
X124327500Y-101345000D01*
X124313042Y-101344290D01*
X124298724Y-101342166D01*
X124284683Y-101338649D01*
X124271054Y-101333772D01*
X124257969Y-101327583D01*
X124245553Y-101320142D01*
X124233927Y-101311519D01*
X124223202Y-101301798D01*
X124213481Y-101291073D01*
X124204858Y-101279447D01*
X124197417Y-101267031D01*
X124191228Y-101253946D01*
X124186351Y-101240317D01*
X124182834Y-101226276D01*
X124180710Y-101211958D01*
X124180000Y-101197500D01*
X124180000Y-100902500D01*
X124180710Y-100888042D01*
X124182834Y-100873724D01*
X124186351Y-100859683D01*
X124191228Y-100846054D01*
X124197417Y-100832969D01*
X124204858Y-100820553D01*
X124213481Y-100808927D01*
X124223202Y-100798202D01*
X124233927Y-100788481D01*
X124245553Y-100779858D01*
X124257969Y-100772417D01*
X124271054Y-100766228D01*
X124284683Y-100761351D01*
X124298724Y-100757834D01*
X124313042Y-100755710D01*
X124327500Y-100755000D01*
X124672500Y-100755000D01*
X124686958Y-100755710D01*
G37*
G04 #@! TD*
G04 #@! TO.C,R7*
G36*
X144476958Y-113780710D02*
G01*
X144491276Y-113782834D01*
X144505317Y-113786351D01*
X144518946Y-113791228D01*
X144532031Y-113797417D01*
X144544447Y-113804858D01*
X144556073Y-113813481D01*
X144566798Y-113823202D01*
X144576519Y-113833927D01*
X144585142Y-113845553D01*
X144592583Y-113857969D01*
X144598772Y-113871054D01*
X144603649Y-113884683D01*
X144607166Y-113898724D01*
X144609290Y-113913042D01*
X144610000Y-113927500D01*
X144610000Y-114272500D01*
X144609290Y-114286958D01*
X144607166Y-114301276D01*
X144603649Y-114315317D01*
X144598772Y-114328946D01*
X144592583Y-114342031D01*
X144585142Y-114354447D01*
X144576519Y-114366073D01*
X144566798Y-114376798D01*
X144556073Y-114386519D01*
X144544447Y-114395142D01*
X144532031Y-114402583D01*
X144518946Y-114408772D01*
X144505317Y-114413649D01*
X144491276Y-114417166D01*
X144476958Y-114419290D01*
X144462500Y-114420000D01*
X144167500Y-114420000D01*
X144153042Y-114419290D01*
X144138724Y-114417166D01*
X144124683Y-114413649D01*
X144111054Y-114408772D01*
X144097969Y-114402583D01*
X144085553Y-114395142D01*
X144073927Y-114386519D01*
X144063202Y-114376798D01*
X144053481Y-114366073D01*
X144044858Y-114354447D01*
X144037417Y-114342031D01*
X144031228Y-114328946D01*
X144026351Y-114315317D01*
X144022834Y-114301276D01*
X144020710Y-114286958D01*
X144020000Y-114272500D01*
X144020000Y-113927500D01*
X144020710Y-113913042D01*
X144022834Y-113898724D01*
X144026351Y-113884683D01*
X144031228Y-113871054D01*
X144037417Y-113857969D01*
X144044858Y-113845553D01*
X144053481Y-113833927D01*
X144063202Y-113823202D01*
X144073927Y-113813481D01*
X144085553Y-113804858D01*
X144097969Y-113797417D01*
X144111054Y-113791228D01*
X144124683Y-113786351D01*
X144138724Y-113782834D01*
X144153042Y-113780710D01*
X144167500Y-113780000D01*
X144462500Y-113780000D01*
X144476958Y-113780710D01*
G37*
G36*
X145446958Y-113780710D02*
G01*
X145461276Y-113782834D01*
X145475317Y-113786351D01*
X145488946Y-113791228D01*
X145502031Y-113797417D01*
X145514447Y-113804858D01*
X145526073Y-113813481D01*
X145536798Y-113823202D01*
X145546519Y-113833927D01*
X145555142Y-113845553D01*
X145562583Y-113857969D01*
X145568772Y-113871054D01*
X145573649Y-113884683D01*
X145577166Y-113898724D01*
X145579290Y-113913042D01*
X145580000Y-113927500D01*
X145580000Y-114272500D01*
X145579290Y-114286958D01*
X145577166Y-114301276D01*
X145573649Y-114315317D01*
X145568772Y-114328946D01*
X145562583Y-114342031D01*
X145555142Y-114354447D01*
X145546519Y-114366073D01*
X145536798Y-114376798D01*
X145526073Y-114386519D01*
X145514447Y-114395142D01*
X145502031Y-114402583D01*
X145488946Y-114408772D01*
X145475317Y-114413649D01*
X145461276Y-114417166D01*
X145446958Y-114419290D01*
X145432500Y-114420000D01*
X145137500Y-114420000D01*
X145123042Y-114419290D01*
X145108724Y-114417166D01*
X145094683Y-114413649D01*
X145081054Y-114408772D01*
X145067969Y-114402583D01*
X145055553Y-114395142D01*
X145043927Y-114386519D01*
X145033202Y-114376798D01*
X145023481Y-114366073D01*
X145014858Y-114354447D01*
X145007417Y-114342031D01*
X145001228Y-114328946D01*
X144996351Y-114315317D01*
X144992834Y-114301276D01*
X144990710Y-114286958D01*
X144990000Y-114272500D01*
X144990000Y-113927500D01*
X144990710Y-113913042D01*
X144992834Y-113898724D01*
X144996351Y-113884683D01*
X145001228Y-113871054D01*
X145007417Y-113857969D01*
X145014858Y-113845553D01*
X145023481Y-113833927D01*
X145033202Y-113823202D01*
X145043927Y-113813481D01*
X145055553Y-113804858D01*
X145067969Y-113797417D01*
X145081054Y-113791228D01*
X145094683Y-113786351D01*
X145108724Y-113782834D01*
X145123042Y-113780710D01*
X145137500Y-113780000D01*
X145432500Y-113780000D01*
X145446958Y-113780710D01*
G37*
G04 #@! TD*
G04 #@! TO.C,R6*
G36*
X138196958Y-82630710D02*
G01*
X138211276Y-82632834D01*
X138225317Y-82636351D01*
X138238946Y-82641228D01*
X138252031Y-82647417D01*
X138264447Y-82654858D01*
X138276073Y-82663481D01*
X138286798Y-82673202D01*
X138296519Y-82683927D01*
X138305142Y-82695553D01*
X138312583Y-82707969D01*
X138318772Y-82721054D01*
X138323649Y-82734683D01*
X138327166Y-82748724D01*
X138329290Y-82763042D01*
X138330000Y-82777500D01*
X138330000Y-83122500D01*
X138329290Y-83136958D01*
X138327166Y-83151276D01*
X138323649Y-83165317D01*
X138318772Y-83178946D01*
X138312583Y-83192031D01*
X138305142Y-83204447D01*
X138296519Y-83216073D01*
X138286798Y-83226798D01*
X138276073Y-83236519D01*
X138264447Y-83245142D01*
X138252031Y-83252583D01*
X138238946Y-83258772D01*
X138225317Y-83263649D01*
X138211276Y-83267166D01*
X138196958Y-83269290D01*
X138182500Y-83270000D01*
X137887500Y-83270000D01*
X137873042Y-83269290D01*
X137858724Y-83267166D01*
X137844683Y-83263649D01*
X137831054Y-83258772D01*
X137817969Y-83252583D01*
X137805553Y-83245142D01*
X137793927Y-83236519D01*
X137783202Y-83226798D01*
X137773481Y-83216073D01*
X137764858Y-83204447D01*
X137757417Y-83192031D01*
X137751228Y-83178946D01*
X137746351Y-83165317D01*
X137742834Y-83151276D01*
X137740710Y-83136958D01*
X137740000Y-83122500D01*
X137740000Y-82777500D01*
X137740710Y-82763042D01*
X137742834Y-82748724D01*
X137746351Y-82734683D01*
X137751228Y-82721054D01*
X137757417Y-82707969D01*
X137764858Y-82695553D01*
X137773481Y-82683927D01*
X137783202Y-82673202D01*
X137793927Y-82663481D01*
X137805553Y-82654858D01*
X137817969Y-82647417D01*
X137831054Y-82641228D01*
X137844683Y-82636351D01*
X137858724Y-82632834D01*
X137873042Y-82630710D01*
X137887500Y-82630000D01*
X138182500Y-82630000D01*
X138196958Y-82630710D01*
G37*
G36*
X137226958Y-82630710D02*
G01*
X137241276Y-82632834D01*
X137255317Y-82636351D01*
X137268946Y-82641228D01*
X137282031Y-82647417D01*
X137294447Y-82654858D01*
X137306073Y-82663481D01*
X137316798Y-82673202D01*
X137326519Y-82683927D01*
X137335142Y-82695553D01*
X137342583Y-82707969D01*
X137348772Y-82721054D01*
X137353649Y-82734683D01*
X137357166Y-82748724D01*
X137359290Y-82763042D01*
X137360000Y-82777500D01*
X137360000Y-83122500D01*
X137359290Y-83136958D01*
X137357166Y-83151276D01*
X137353649Y-83165317D01*
X137348772Y-83178946D01*
X137342583Y-83192031D01*
X137335142Y-83204447D01*
X137326519Y-83216073D01*
X137316798Y-83226798D01*
X137306073Y-83236519D01*
X137294447Y-83245142D01*
X137282031Y-83252583D01*
X137268946Y-83258772D01*
X137255317Y-83263649D01*
X137241276Y-83267166D01*
X137226958Y-83269290D01*
X137212500Y-83270000D01*
X136917500Y-83270000D01*
X136903042Y-83269290D01*
X136888724Y-83267166D01*
X136874683Y-83263649D01*
X136861054Y-83258772D01*
X136847969Y-83252583D01*
X136835553Y-83245142D01*
X136823927Y-83236519D01*
X136813202Y-83226798D01*
X136803481Y-83216073D01*
X136794858Y-83204447D01*
X136787417Y-83192031D01*
X136781228Y-83178946D01*
X136776351Y-83165317D01*
X136772834Y-83151276D01*
X136770710Y-83136958D01*
X136770000Y-83122500D01*
X136770000Y-82777500D01*
X136770710Y-82763042D01*
X136772834Y-82748724D01*
X136776351Y-82734683D01*
X136781228Y-82721054D01*
X136787417Y-82707969D01*
X136794858Y-82695553D01*
X136803481Y-82683927D01*
X136813202Y-82673202D01*
X136823927Y-82663481D01*
X136835553Y-82654858D01*
X136847969Y-82647417D01*
X136861054Y-82641228D01*
X136874683Y-82636351D01*
X136888724Y-82632834D01*
X136903042Y-82630710D01*
X136917500Y-82630000D01*
X137212500Y-82630000D01*
X137226958Y-82630710D01*
G37*
G04 #@! TD*
G04 #@! TO.C,R5*
G36*
X134496958Y-82630710D02*
G01*
X134511276Y-82632834D01*
X134525317Y-82636351D01*
X134538946Y-82641228D01*
X134552031Y-82647417D01*
X134564447Y-82654858D01*
X134576073Y-82663481D01*
X134586798Y-82673202D01*
X134596519Y-82683927D01*
X134605142Y-82695553D01*
X134612583Y-82707969D01*
X134618772Y-82721054D01*
X134623649Y-82734683D01*
X134627166Y-82748724D01*
X134629290Y-82763042D01*
X134630000Y-82777500D01*
X134630000Y-83122500D01*
X134629290Y-83136958D01*
X134627166Y-83151276D01*
X134623649Y-83165317D01*
X134618772Y-83178946D01*
X134612583Y-83192031D01*
X134605142Y-83204447D01*
X134596519Y-83216073D01*
X134586798Y-83226798D01*
X134576073Y-83236519D01*
X134564447Y-83245142D01*
X134552031Y-83252583D01*
X134538946Y-83258772D01*
X134525317Y-83263649D01*
X134511276Y-83267166D01*
X134496958Y-83269290D01*
X134482500Y-83270000D01*
X134187500Y-83270000D01*
X134173042Y-83269290D01*
X134158724Y-83267166D01*
X134144683Y-83263649D01*
X134131054Y-83258772D01*
X134117969Y-83252583D01*
X134105553Y-83245142D01*
X134093927Y-83236519D01*
X134083202Y-83226798D01*
X134073481Y-83216073D01*
X134064858Y-83204447D01*
X134057417Y-83192031D01*
X134051228Y-83178946D01*
X134046351Y-83165317D01*
X134042834Y-83151276D01*
X134040710Y-83136958D01*
X134040000Y-83122500D01*
X134040000Y-82777500D01*
X134040710Y-82763042D01*
X134042834Y-82748724D01*
X134046351Y-82734683D01*
X134051228Y-82721054D01*
X134057417Y-82707969D01*
X134064858Y-82695553D01*
X134073481Y-82683927D01*
X134083202Y-82673202D01*
X134093927Y-82663481D01*
X134105553Y-82654858D01*
X134117969Y-82647417D01*
X134131054Y-82641228D01*
X134144683Y-82636351D01*
X134158724Y-82632834D01*
X134173042Y-82630710D01*
X134187500Y-82630000D01*
X134482500Y-82630000D01*
X134496958Y-82630710D01*
G37*
G36*
X133526958Y-82630710D02*
G01*
X133541276Y-82632834D01*
X133555317Y-82636351D01*
X133568946Y-82641228D01*
X133582031Y-82647417D01*
X133594447Y-82654858D01*
X133606073Y-82663481D01*
X133616798Y-82673202D01*
X133626519Y-82683927D01*
X133635142Y-82695553D01*
X133642583Y-82707969D01*
X133648772Y-82721054D01*
X133653649Y-82734683D01*
X133657166Y-82748724D01*
X133659290Y-82763042D01*
X133660000Y-82777500D01*
X133660000Y-83122500D01*
X133659290Y-83136958D01*
X133657166Y-83151276D01*
X133653649Y-83165317D01*
X133648772Y-83178946D01*
X133642583Y-83192031D01*
X133635142Y-83204447D01*
X133626519Y-83216073D01*
X133616798Y-83226798D01*
X133606073Y-83236519D01*
X133594447Y-83245142D01*
X133582031Y-83252583D01*
X133568946Y-83258772D01*
X133555317Y-83263649D01*
X133541276Y-83267166D01*
X133526958Y-83269290D01*
X133512500Y-83270000D01*
X133217500Y-83270000D01*
X133203042Y-83269290D01*
X133188724Y-83267166D01*
X133174683Y-83263649D01*
X133161054Y-83258772D01*
X133147969Y-83252583D01*
X133135553Y-83245142D01*
X133123927Y-83236519D01*
X133113202Y-83226798D01*
X133103481Y-83216073D01*
X133094858Y-83204447D01*
X133087417Y-83192031D01*
X133081228Y-83178946D01*
X133076351Y-83165317D01*
X133072834Y-83151276D01*
X133070710Y-83136958D01*
X133070000Y-83122500D01*
X133070000Y-82777500D01*
X133070710Y-82763042D01*
X133072834Y-82748724D01*
X133076351Y-82734683D01*
X133081228Y-82721054D01*
X133087417Y-82707969D01*
X133094858Y-82695553D01*
X133103481Y-82683927D01*
X133113202Y-82673202D01*
X133123927Y-82663481D01*
X133135553Y-82654858D01*
X133147969Y-82647417D01*
X133161054Y-82641228D01*
X133174683Y-82636351D01*
X133188724Y-82632834D01*
X133203042Y-82630710D01*
X133217500Y-82630000D01*
X133512500Y-82630000D01*
X133526958Y-82630710D01*
G37*
G04 #@! TD*
G04 #@! TO.C,R4*
G36*
X130761958Y-82630710D02*
G01*
X130776276Y-82632834D01*
X130790317Y-82636351D01*
X130803946Y-82641228D01*
X130817031Y-82647417D01*
X130829447Y-82654858D01*
X130841073Y-82663481D01*
X130851798Y-82673202D01*
X130861519Y-82683927D01*
X130870142Y-82695553D01*
X130877583Y-82707969D01*
X130883772Y-82721054D01*
X130888649Y-82734683D01*
X130892166Y-82748724D01*
X130894290Y-82763042D01*
X130895000Y-82777500D01*
X130895000Y-83122500D01*
X130894290Y-83136958D01*
X130892166Y-83151276D01*
X130888649Y-83165317D01*
X130883772Y-83178946D01*
X130877583Y-83192031D01*
X130870142Y-83204447D01*
X130861519Y-83216073D01*
X130851798Y-83226798D01*
X130841073Y-83236519D01*
X130829447Y-83245142D01*
X130817031Y-83252583D01*
X130803946Y-83258772D01*
X130790317Y-83263649D01*
X130776276Y-83267166D01*
X130761958Y-83269290D01*
X130747500Y-83270000D01*
X130452500Y-83270000D01*
X130438042Y-83269290D01*
X130423724Y-83267166D01*
X130409683Y-83263649D01*
X130396054Y-83258772D01*
X130382969Y-83252583D01*
X130370553Y-83245142D01*
X130358927Y-83236519D01*
X130348202Y-83226798D01*
X130338481Y-83216073D01*
X130329858Y-83204447D01*
X130322417Y-83192031D01*
X130316228Y-83178946D01*
X130311351Y-83165317D01*
X130307834Y-83151276D01*
X130305710Y-83136958D01*
X130305000Y-83122500D01*
X130305000Y-82777500D01*
X130305710Y-82763042D01*
X130307834Y-82748724D01*
X130311351Y-82734683D01*
X130316228Y-82721054D01*
X130322417Y-82707969D01*
X130329858Y-82695553D01*
X130338481Y-82683927D01*
X130348202Y-82673202D01*
X130358927Y-82663481D01*
X130370553Y-82654858D01*
X130382969Y-82647417D01*
X130396054Y-82641228D01*
X130409683Y-82636351D01*
X130423724Y-82632834D01*
X130438042Y-82630710D01*
X130452500Y-82630000D01*
X130747500Y-82630000D01*
X130761958Y-82630710D01*
G37*
G36*
X129791958Y-82630710D02*
G01*
X129806276Y-82632834D01*
X129820317Y-82636351D01*
X129833946Y-82641228D01*
X129847031Y-82647417D01*
X129859447Y-82654858D01*
X129871073Y-82663481D01*
X129881798Y-82673202D01*
X129891519Y-82683927D01*
X129900142Y-82695553D01*
X129907583Y-82707969D01*
X129913772Y-82721054D01*
X129918649Y-82734683D01*
X129922166Y-82748724D01*
X129924290Y-82763042D01*
X129925000Y-82777500D01*
X129925000Y-83122500D01*
X129924290Y-83136958D01*
X129922166Y-83151276D01*
X129918649Y-83165317D01*
X129913772Y-83178946D01*
X129907583Y-83192031D01*
X129900142Y-83204447D01*
X129891519Y-83216073D01*
X129881798Y-83226798D01*
X129871073Y-83236519D01*
X129859447Y-83245142D01*
X129847031Y-83252583D01*
X129833946Y-83258772D01*
X129820317Y-83263649D01*
X129806276Y-83267166D01*
X129791958Y-83269290D01*
X129777500Y-83270000D01*
X129482500Y-83270000D01*
X129468042Y-83269290D01*
X129453724Y-83267166D01*
X129439683Y-83263649D01*
X129426054Y-83258772D01*
X129412969Y-83252583D01*
X129400553Y-83245142D01*
X129388927Y-83236519D01*
X129378202Y-83226798D01*
X129368481Y-83216073D01*
X129359858Y-83204447D01*
X129352417Y-83192031D01*
X129346228Y-83178946D01*
X129341351Y-83165317D01*
X129337834Y-83151276D01*
X129335710Y-83136958D01*
X129335000Y-83122500D01*
X129335000Y-82777500D01*
X129335710Y-82763042D01*
X129337834Y-82748724D01*
X129341351Y-82734683D01*
X129346228Y-82721054D01*
X129352417Y-82707969D01*
X129359858Y-82695553D01*
X129368481Y-82683927D01*
X129378202Y-82673202D01*
X129388927Y-82663481D01*
X129400553Y-82654858D01*
X129412969Y-82647417D01*
X129426054Y-82641228D01*
X129439683Y-82636351D01*
X129453724Y-82632834D01*
X129468042Y-82630710D01*
X129482500Y-82630000D01*
X129777500Y-82630000D01*
X129791958Y-82630710D01*
G37*
G04 #@! TD*
G04 #@! TO.C,R1*
G36*
X129076958Y-122680710D02*
G01*
X129091276Y-122682834D01*
X129105317Y-122686351D01*
X129118946Y-122691228D01*
X129132031Y-122697417D01*
X129144447Y-122704858D01*
X129156073Y-122713481D01*
X129166798Y-122723202D01*
X129176519Y-122733927D01*
X129185142Y-122745553D01*
X129192583Y-122757969D01*
X129198772Y-122771054D01*
X129203649Y-122784683D01*
X129207166Y-122798724D01*
X129209290Y-122813042D01*
X129210000Y-122827500D01*
X129210000Y-123172500D01*
X129209290Y-123186958D01*
X129207166Y-123201276D01*
X129203649Y-123215317D01*
X129198772Y-123228946D01*
X129192583Y-123242031D01*
X129185142Y-123254447D01*
X129176519Y-123266073D01*
X129166798Y-123276798D01*
X129156073Y-123286519D01*
X129144447Y-123295142D01*
X129132031Y-123302583D01*
X129118946Y-123308772D01*
X129105317Y-123313649D01*
X129091276Y-123317166D01*
X129076958Y-123319290D01*
X129062500Y-123320000D01*
X128767500Y-123320000D01*
X128753042Y-123319290D01*
X128738724Y-123317166D01*
X128724683Y-123313649D01*
X128711054Y-123308772D01*
X128697969Y-123302583D01*
X128685553Y-123295142D01*
X128673927Y-123286519D01*
X128663202Y-123276798D01*
X128653481Y-123266073D01*
X128644858Y-123254447D01*
X128637417Y-123242031D01*
X128631228Y-123228946D01*
X128626351Y-123215317D01*
X128622834Y-123201276D01*
X128620710Y-123186958D01*
X128620000Y-123172500D01*
X128620000Y-122827500D01*
X128620710Y-122813042D01*
X128622834Y-122798724D01*
X128626351Y-122784683D01*
X128631228Y-122771054D01*
X128637417Y-122757969D01*
X128644858Y-122745553D01*
X128653481Y-122733927D01*
X128663202Y-122723202D01*
X128673927Y-122713481D01*
X128685553Y-122704858D01*
X128697969Y-122697417D01*
X128711054Y-122691228D01*
X128724683Y-122686351D01*
X128738724Y-122682834D01*
X128753042Y-122680710D01*
X128767500Y-122680000D01*
X129062500Y-122680000D01*
X129076958Y-122680710D01*
G37*
G36*
X130046958Y-122680710D02*
G01*
X130061276Y-122682834D01*
X130075317Y-122686351D01*
X130088946Y-122691228D01*
X130102031Y-122697417D01*
X130114447Y-122704858D01*
X130126073Y-122713481D01*
X130136798Y-122723202D01*
X130146519Y-122733927D01*
X130155142Y-122745553D01*
X130162583Y-122757969D01*
X130168772Y-122771054D01*
X130173649Y-122784683D01*
X130177166Y-122798724D01*
X130179290Y-122813042D01*
X130180000Y-122827500D01*
X130180000Y-123172500D01*
X130179290Y-123186958D01*
X130177166Y-123201276D01*
X130173649Y-123215317D01*
X130168772Y-123228946D01*
X130162583Y-123242031D01*
X130155142Y-123254447D01*
X130146519Y-123266073D01*
X130136798Y-123276798D01*
X130126073Y-123286519D01*
X130114447Y-123295142D01*
X130102031Y-123302583D01*
X130088946Y-123308772D01*
X130075317Y-123313649D01*
X130061276Y-123317166D01*
X130046958Y-123319290D01*
X130032500Y-123320000D01*
X129737500Y-123320000D01*
X129723042Y-123319290D01*
X129708724Y-123317166D01*
X129694683Y-123313649D01*
X129681054Y-123308772D01*
X129667969Y-123302583D01*
X129655553Y-123295142D01*
X129643927Y-123286519D01*
X129633202Y-123276798D01*
X129623481Y-123266073D01*
X129614858Y-123254447D01*
X129607417Y-123242031D01*
X129601228Y-123228946D01*
X129596351Y-123215317D01*
X129592834Y-123201276D01*
X129590710Y-123186958D01*
X129590000Y-123172500D01*
X129590000Y-122827500D01*
X129590710Y-122813042D01*
X129592834Y-122798724D01*
X129596351Y-122784683D01*
X129601228Y-122771054D01*
X129607417Y-122757969D01*
X129614858Y-122745553D01*
X129623481Y-122733927D01*
X129633202Y-122723202D01*
X129643927Y-122713481D01*
X129655553Y-122704858D01*
X129667969Y-122697417D01*
X129681054Y-122691228D01*
X129694683Y-122686351D01*
X129708724Y-122682834D01*
X129723042Y-122680710D01*
X129737500Y-122680000D01*
X130032500Y-122680000D01*
X130046958Y-122680710D01*
G37*
G04 #@! TD*
G04 #@! TO.C,C9*
G36*
X145446958Y-115880710D02*
G01*
X145461276Y-115882834D01*
X145475317Y-115886351D01*
X145488946Y-115891228D01*
X145502031Y-115897417D01*
X145514447Y-115904858D01*
X145526073Y-115913481D01*
X145536798Y-115923202D01*
X145546519Y-115933927D01*
X145555142Y-115945553D01*
X145562583Y-115957969D01*
X145568772Y-115971054D01*
X145573649Y-115984683D01*
X145577166Y-115998724D01*
X145579290Y-116013042D01*
X145580000Y-116027500D01*
X145580000Y-116372500D01*
X145579290Y-116386958D01*
X145577166Y-116401276D01*
X145573649Y-116415317D01*
X145568772Y-116428946D01*
X145562583Y-116442031D01*
X145555142Y-116454447D01*
X145546519Y-116466073D01*
X145536798Y-116476798D01*
X145526073Y-116486519D01*
X145514447Y-116495142D01*
X145502031Y-116502583D01*
X145488946Y-116508772D01*
X145475317Y-116513649D01*
X145461276Y-116517166D01*
X145446958Y-116519290D01*
X145432500Y-116520000D01*
X145137500Y-116520000D01*
X145123042Y-116519290D01*
X145108724Y-116517166D01*
X145094683Y-116513649D01*
X145081054Y-116508772D01*
X145067969Y-116502583D01*
X145055553Y-116495142D01*
X145043927Y-116486519D01*
X145033202Y-116476798D01*
X145023481Y-116466073D01*
X145014858Y-116454447D01*
X145007417Y-116442031D01*
X145001228Y-116428946D01*
X144996351Y-116415317D01*
X144992834Y-116401276D01*
X144990710Y-116386958D01*
X144990000Y-116372500D01*
X144990000Y-116027500D01*
X144990710Y-116013042D01*
X144992834Y-115998724D01*
X144996351Y-115984683D01*
X145001228Y-115971054D01*
X145007417Y-115957969D01*
X145014858Y-115945553D01*
X145023481Y-115933927D01*
X145033202Y-115923202D01*
X145043927Y-115913481D01*
X145055553Y-115904858D01*
X145067969Y-115897417D01*
X145081054Y-115891228D01*
X145094683Y-115886351D01*
X145108724Y-115882834D01*
X145123042Y-115880710D01*
X145137500Y-115880000D01*
X145432500Y-115880000D01*
X145446958Y-115880710D01*
G37*
G36*
X144476958Y-115880710D02*
G01*
X144491276Y-115882834D01*
X144505317Y-115886351D01*
X144518946Y-115891228D01*
X144532031Y-115897417D01*
X144544447Y-115904858D01*
X144556073Y-115913481D01*
X144566798Y-115923202D01*
X144576519Y-115933927D01*
X144585142Y-115945553D01*
X144592583Y-115957969D01*
X144598772Y-115971054D01*
X144603649Y-115984683D01*
X144607166Y-115998724D01*
X144609290Y-116013042D01*
X144610000Y-116027500D01*
X144610000Y-116372500D01*
X144609290Y-116386958D01*
X144607166Y-116401276D01*
X144603649Y-116415317D01*
X144598772Y-116428946D01*
X144592583Y-116442031D01*
X144585142Y-116454447D01*
X144576519Y-116466073D01*
X144566798Y-116476798D01*
X144556073Y-116486519D01*
X144544447Y-116495142D01*
X144532031Y-116502583D01*
X144518946Y-116508772D01*
X144505317Y-116513649D01*
X144491276Y-116517166D01*
X144476958Y-116519290D01*
X144462500Y-116520000D01*
X144167500Y-116520000D01*
X144153042Y-116519290D01*
X144138724Y-116517166D01*
X144124683Y-116513649D01*
X144111054Y-116508772D01*
X144097969Y-116502583D01*
X144085553Y-116495142D01*
X144073927Y-116486519D01*
X144063202Y-116476798D01*
X144053481Y-116466073D01*
X144044858Y-116454447D01*
X144037417Y-116442031D01*
X144031228Y-116428946D01*
X144026351Y-116415317D01*
X144022834Y-116401276D01*
X144020710Y-116386958D01*
X144020000Y-116372500D01*
X144020000Y-116027500D01*
X144020710Y-116013042D01*
X144022834Y-115998724D01*
X144026351Y-115984683D01*
X144031228Y-115971054D01*
X144037417Y-115957969D01*
X144044858Y-115945553D01*
X144053481Y-115933927D01*
X144063202Y-115923202D01*
X144073927Y-115913481D01*
X144085553Y-115904858D01*
X144097969Y-115897417D01*
X144111054Y-115891228D01*
X144124683Y-115886351D01*
X144138724Y-115882834D01*
X144153042Y-115880710D01*
X144167500Y-115880000D01*
X144462500Y-115880000D01*
X144476958Y-115880710D01*
G37*
G04 #@! TD*
G04 #@! TO.C,C8*
G36*
X144476958Y-114830710D02*
G01*
X144491276Y-114832834D01*
X144505317Y-114836351D01*
X144518946Y-114841228D01*
X144532031Y-114847417D01*
X144544447Y-114854858D01*
X144556073Y-114863481D01*
X144566798Y-114873202D01*
X144576519Y-114883927D01*
X144585142Y-114895553D01*
X144592583Y-114907969D01*
X144598772Y-114921054D01*
X144603649Y-114934683D01*
X144607166Y-114948724D01*
X144609290Y-114963042D01*
X144610000Y-114977500D01*
X144610000Y-115322500D01*
X144609290Y-115336958D01*
X144607166Y-115351276D01*
X144603649Y-115365317D01*
X144598772Y-115378946D01*
X144592583Y-115392031D01*
X144585142Y-115404447D01*
X144576519Y-115416073D01*
X144566798Y-115426798D01*
X144556073Y-115436519D01*
X144544447Y-115445142D01*
X144532031Y-115452583D01*
X144518946Y-115458772D01*
X144505317Y-115463649D01*
X144491276Y-115467166D01*
X144476958Y-115469290D01*
X144462500Y-115470000D01*
X144167500Y-115470000D01*
X144153042Y-115469290D01*
X144138724Y-115467166D01*
X144124683Y-115463649D01*
X144111054Y-115458772D01*
X144097969Y-115452583D01*
X144085553Y-115445142D01*
X144073927Y-115436519D01*
X144063202Y-115426798D01*
X144053481Y-115416073D01*
X144044858Y-115404447D01*
X144037417Y-115392031D01*
X144031228Y-115378946D01*
X144026351Y-115365317D01*
X144022834Y-115351276D01*
X144020710Y-115336958D01*
X144020000Y-115322500D01*
X144020000Y-114977500D01*
X144020710Y-114963042D01*
X144022834Y-114948724D01*
X144026351Y-114934683D01*
X144031228Y-114921054D01*
X144037417Y-114907969D01*
X144044858Y-114895553D01*
X144053481Y-114883927D01*
X144063202Y-114873202D01*
X144073927Y-114863481D01*
X144085553Y-114854858D01*
X144097969Y-114847417D01*
X144111054Y-114841228D01*
X144124683Y-114836351D01*
X144138724Y-114832834D01*
X144153042Y-114830710D01*
X144167500Y-114830000D01*
X144462500Y-114830000D01*
X144476958Y-114830710D01*
G37*
G36*
X145446958Y-114830710D02*
G01*
X145461276Y-114832834D01*
X145475317Y-114836351D01*
X145488946Y-114841228D01*
X145502031Y-114847417D01*
X145514447Y-114854858D01*
X145526073Y-114863481D01*
X145536798Y-114873202D01*
X145546519Y-114883927D01*
X145555142Y-114895553D01*
X145562583Y-114907969D01*
X145568772Y-114921054D01*
X145573649Y-114934683D01*
X145577166Y-114948724D01*
X145579290Y-114963042D01*
X145580000Y-114977500D01*
X145580000Y-115322500D01*
X145579290Y-115336958D01*
X145577166Y-115351276D01*
X145573649Y-115365317D01*
X145568772Y-115378946D01*
X145562583Y-115392031D01*
X145555142Y-115404447D01*
X145546519Y-115416073D01*
X145536798Y-115426798D01*
X145526073Y-115436519D01*
X145514447Y-115445142D01*
X145502031Y-115452583D01*
X145488946Y-115458772D01*
X145475317Y-115463649D01*
X145461276Y-115467166D01*
X145446958Y-115469290D01*
X145432500Y-115470000D01*
X145137500Y-115470000D01*
X145123042Y-115469290D01*
X145108724Y-115467166D01*
X145094683Y-115463649D01*
X145081054Y-115458772D01*
X145067969Y-115452583D01*
X145055553Y-115445142D01*
X145043927Y-115436519D01*
X145033202Y-115426798D01*
X145023481Y-115416073D01*
X145014858Y-115404447D01*
X145007417Y-115392031D01*
X145001228Y-115378946D01*
X144996351Y-115365317D01*
X144992834Y-115351276D01*
X144990710Y-115336958D01*
X144990000Y-115322500D01*
X144990000Y-114977500D01*
X144990710Y-114963042D01*
X144992834Y-114948724D01*
X144996351Y-114934683D01*
X145001228Y-114921054D01*
X145007417Y-114907969D01*
X145014858Y-114895553D01*
X145023481Y-114883927D01*
X145033202Y-114873202D01*
X145043927Y-114863481D01*
X145055553Y-114854858D01*
X145067969Y-114847417D01*
X145081054Y-114841228D01*
X145094683Y-114836351D01*
X145108724Y-114832834D01*
X145123042Y-114830710D01*
X145137500Y-114830000D01*
X145432500Y-114830000D01*
X145446958Y-114830710D01*
G37*
G04 #@! TD*
G04 #@! TO.C,C7*
G36*
X143286958Y-118290710D02*
G01*
X143301276Y-118292834D01*
X143315317Y-118296351D01*
X143328946Y-118301228D01*
X143342031Y-118307417D01*
X143354447Y-118314858D01*
X143366073Y-118323481D01*
X143376798Y-118333202D01*
X143386519Y-118343927D01*
X143395142Y-118355553D01*
X143402583Y-118367969D01*
X143408772Y-118381054D01*
X143413649Y-118394683D01*
X143417166Y-118408724D01*
X143419290Y-118423042D01*
X143420000Y-118437500D01*
X143420000Y-118732500D01*
X143419290Y-118746958D01*
X143417166Y-118761276D01*
X143413649Y-118775317D01*
X143408772Y-118788946D01*
X143402583Y-118802031D01*
X143395142Y-118814447D01*
X143386519Y-118826073D01*
X143376798Y-118836798D01*
X143366073Y-118846519D01*
X143354447Y-118855142D01*
X143342031Y-118862583D01*
X143328946Y-118868772D01*
X143315317Y-118873649D01*
X143301276Y-118877166D01*
X143286958Y-118879290D01*
X143272500Y-118880000D01*
X142927500Y-118880000D01*
X142913042Y-118879290D01*
X142898724Y-118877166D01*
X142884683Y-118873649D01*
X142871054Y-118868772D01*
X142857969Y-118862583D01*
X142845553Y-118855142D01*
X142833927Y-118846519D01*
X142823202Y-118836798D01*
X142813481Y-118826073D01*
X142804858Y-118814447D01*
X142797417Y-118802031D01*
X142791228Y-118788946D01*
X142786351Y-118775317D01*
X142782834Y-118761276D01*
X142780710Y-118746958D01*
X142780000Y-118732500D01*
X142780000Y-118437500D01*
X142780710Y-118423042D01*
X142782834Y-118408724D01*
X142786351Y-118394683D01*
X142791228Y-118381054D01*
X142797417Y-118367969D01*
X142804858Y-118355553D01*
X142813481Y-118343927D01*
X142823202Y-118333202D01*
X142833927Y-118323481D01*
X142845553Y-118314858D01*
X142857969Y-118307417D01*
X142871054Y-118301228D01*
X142884683Y-118296351D01*
X142898724Y-118292834D01*
X142913042Y-118290710D01*
X142927500Y-118290000D01*
X143272500Y-118290000D01*
X143286958Y-118290710D01*
G37*
G36*
X143286958Y-117320710D02*
G01*
X143301276Y-117322834D01*
X143315317Y-117326351D01*
X143328946Y-117331228D01*
X143342031Y-117337417D01*
X143354447Y-117344858D01*
X143366073Y-117353481D01*
X143376798Y-117363202D01*
X143386519Y-117373927D01*
X143395142Y-117385553D01*
X143402583Y-117397969D01*
X143408772Y-117411054D01*
X143413649Y-117424683D01*
X143417166Y-117438724D01*
X143419290Y-117453042D01*
X143420000Y-117467500D01*
X143420000Y-117762500D01*
X143419290Y-117776958D01*
X143417166Y-117791276D01*
X143413649Y-117805317D01*
X143408772Y-117818946D01*
X143402583Y-117832031D01*
X143395142Y-117844447D01*
X143386519Y-117856073D01*
X143376798Y-117866798D01*
X143366073Y-117876519D01*
X143354447Y-117885142D01*
X143342031Y-117892583D01*
X143328946Y-117898772D01*
X143315317Y-117903649D01*
X143301276Y-117907166D01*
X143286958Y-117909290D01*
X143272500Y-117910000D01*
X142927500Y-117910000D01*
X142913042Y-117909290D01*
X142898724Y-117907166D01*
X142884683Y-117903649D01*
X142871054Y-117898772D01*
X142857969Y-117892583D01*
X142845553Y-117885142D01*
X142833927Y-117876519D01*
X142823202Y-117866798D01*
X142813481Y-117856073D01*
X142804858Y-117844447D01*
X142797417Y-117832031D01*
X142791228Y-117818946D01*
X142786351Y-117805317D01*
X142782834Y-117791276D01*
X142780710Y-117776958D01*
X142780000Y-117762500D01*
X142780000Y-117467500D01*
X142780710Y-117453042D01*
X142782834Y-117438724D01*
X142786351Y-117424683D01*
X142791228Y-117411054D01*
X142797417Y-117397969D01*
X142804858Y-117385553D01*
X142813481Y-117373927D01*
X142823202Y-117363202D01*
X142833927Y-117353481D01*
X142845553Y-117344858D01*
X142857969Y-117337417D01*
X142871054Y-117331228D01*
X142884683Y-117326351D01*
X142898724Y-117322834D01*
X142913042Y-117320710D01*
X142927500Y-117320000D01*
X143272500Y-117320000D01*
X143286958Y-117320710D01*
G37*
G04 #@! TD*
G04 #@! TO.C,C6*
G36*
X142236958Y-117320710D02*
G01*
X142251276Y-117322834D01*
X142265317Y-117326351D01*
X142278946Y-117331228D01*
X142292031Y-117337417D01*
X142304447Y-117344858D01*
X142316073Y-117353481D01*
X142326798Y-117363202D01*
X142336519Y-117373927D01*
X142345142Y-117385553D01*
X142352583Y-117397969D01*
X142358772Y-117411054D01*
X142363649Y-117424683D01*
X142367166Y-117438724D01*
X142369290Y-117453042D01*
X142370000Y-117467500D01*
X142370000Y-117762500D01*
X142369290Y-117776958D01*
X142367166Y-117791276D01*
X142363649Y-117805317D01*
X142358772Y-117818946D01*
X142352583Y-117832031D01*
X142345142Y-117844447D01*
X142336519Y-117856073D01*
X142326798Y-117866798D01*
X142316073Y-117876519D01*
X142304447Y-117885142D01*
X142292031Y-117892583D01*
X142278946Y-117898772D01*
X142265317Y-117903649D01*
X142251276Y-117907166D01*
X142236958Y-117909290D01*
X142222500Y-117910000D01*
X141877500Y-117910000D01*
X141863042Y-117909290D01*
X141848724Y-117907166D01*
X141834683Y-117903649D01*
X141821054Y-117898772D01*
X141807969Y-117892583D01*
X141795553Y-117885142D01*
X141783927Y-117876519D01*
X141773202Y-117866798D01*
X141763481Y-117856073D01*
X141754858Y-117844447D01*
X141747417Y-117832031D01*
X141741228Y-117818946D01*
X141736351Y-117805317D01*
X141732834Y-117791276D01*
X141730710Y-117776958D01*
X141730000Y-117762500D01*
X141730000Y-117467500D01*
X141730710Y-117453042D01*
X141732834Y-117438724D01*
X141736351Y-117424683D01*
X141741228Y-117411054D01*
X141747417Y-117397969D01*
X141754858Y-117385553D01*
X141763481Y-117373927D01*
X141773202Y-117363202D01*
X141783927Y-117353481D01*
X141795553Y-117344858D01*
X141807969Y-117337417D01*
X141821054Y-117331228D01*
X141834683Y-117326351D01*
X141848724Y-117322834D01*
X141863042Y-117320710D01*
X141877500Y-117320000D01*
X142222500Y-117320000D01*
X142236958Y-117320710D01*
G37*
G36*
X142236958Y-118290710D02*
G01*
X142251276Y-118292834D01*
X142265317Y-118296351D01*
X142278946Y-118301228D01*
X142292031Y-118307417D01*
X142304447Y-118314858D01*
X142316073Y-118323481D01*
X142326798Y-118333202D01*
X142336519Y-118343927D01*
X142345142Y-118355553D01*
X142352583Y-118367969D01*
X142358772Y-118381054D01*
X142363649Y-118394683D01*
X142367166Y-118408724D01*
X142369290Y-118423042D01*
X142370000Y-118437500D01*
X142370000Y-118732500D01*
X142369290Y-118746958D01*
X142367166Y-118761276D01*
X142363649Y-118775317D01*
X142358772Y-118788946D01*
X142352583Y-118802031D01*
X142345142Y-118814447D01*
X142336519Y-118826073D01*
X142326798Y-118836798D01*
X142316073Y-118846519D01*
X142304447Y-118855142D01*
X142292031Y-118862583D01*
X142278946Y-118868772D01*
X142265317Y-118873649D01*
X142251276Y-118877166D01*
X142236958Y-118879290D01*
X142222500Y-118880000D01*
X141877500Y-118880000D01*
X141863042Y-118879290D01*
X141848724Y-118877166D01*
X141834683Y-118873649D01*
X141821054Y-118868772D01*
X141807969Y-118862583D01*
X141795553Y-118855142D01*
X141783927Y-118846519D01*
X141773202Y-118836798D01*
X141763481Y-118826073D01*
X141754858Y-118814447D01*
X141747417Y-118802031D01*
X141741228Y-118788946D01*
X141736351Y-118775317D01*
X141732834Y-118761276D01*
X141730710Y-118746958D01*
X141730000Y-118732500D01*
X141730000Y-118437500D01*
X141730710Y-118423042D01*
X141732834Y-118408724D01*
X141736351Y-118394683D01*
X141741228Y-118381054D01*
X141747417Y-118367969D01*
X141754858Y-118355553D01*
X141763481Y-118343927D01*
X141773202Y-118333202D01*
X141783927Y-118323481D01*
X141795553Y-118314858D01*
X141807969Y-118307417D01*
X141821054Y-118301228D01*
X141834683Y-118296351D01*
X141848724Y-118292834D01*
X141863042Y-118290710D01*
X141877500Y-118290000D01*
X142222500Y-118290000D01*
X142236958Y-118290710D01*
G37*
G04 #@! TD*
G04 #@! TO.C,C5*
G36*
X123686958Y-98205710D02*
G01*
X123701276Y-98207834D01*
X123715317Y-98211351D01*
X123728946Y-98216228D01*
X123742031Y-98222417D01*
X123754447Y-98229858D01*
X123766073Y-98238481D01*
X123776798Y-98248202D01*
X123786519Y-98258927D01*
X123795142Y-98270553D01*
X123802583Y-98282969D01*
X123808772Y-98296054D01*
X123813649Y-98309683D01*
X123817166Y-98323724D01*
X123819290Y-98338042D01*
X123820000Y-98352500D01*
X123820000Y-98647500D01*
X123819290Y-98661958D01*
X123817166Y-98676276D01*
X123813649Y-98690317D01*
X123808772Y-98703946D01*
X123802583Y-98717031D01*
X123795142Y-98729447D01*
X123786519Y-98741073D01*
X123776798Y-98751798D01*
X123766073Y-98761519D01*
X123754447Y-98770142D01*
X123742031Y-98777583D01*
X123728946Y-98783772D01*
X123715317Y-98788649D01*
X123701276Y-98792166D01*
X123686958Y-98794290D01*
X123672500Y-98795000D01*
X123327500Y-98795000D01*
X123313042Y-98794290D01*
X123298724Y-98792166D01*
X123284683Y-98788649D01*
X123271054Y-98783772D01*
X123257969Y-98777583D01*
X123245553Y-98770142D01*
X123233927Y-98761519D01*
X123223202Y-98751798D01*
X123213481Y-98741073D01*
X123204858Y-98729447D01*
X123197417Y-98717031D01*
X123191228Y-98703946D01*
X123186351Y-98690317D01*
X123182834Y-98676276D01*
X123180710Y-98661958D01*
X123180000Y-98647500D01*
X123180000Y-98352500D01*
X123180710Y-98338042D01*
X123182834Y-98323724D01*
X123186351Y-98309683D01*
X123191228Y-98296054D01*
X123197417Y-98282969D01*
X123204858Y-98270553D01*
X123213481Y-98258927D01*
X123223202Y-98248202D01*
X123233927Y-98238481D01*
X123245553Y-98229858D01*
X123257969Y-98222417D01*
X123271054Y-98216228D01*
X123284683Y-98211351D01*
X123298724Y-98207834D01*
X123313042Y-98205710D01*
X123327500Y-98205000D01*
X123672500Y-98205000D01*
X123686958Y-98205710D01*
G37*
G36*
X123686958Y-97235710D02*
G01*
X123701276Y-97237834D01*
X123715317Y-97241351D01*
X123728946Y-97246228D01*
X123742031Y-97252417D01*
X123754447Y-97259858D01*
X123766073Y-97268481D01*
X123776798Y-97278202D01*
X123786519Y-97288927D01*
X123795142Y-97300553D01*
X123802583Y-97312969D01*
X123808772Y-97326054D01*
X123813649Y-97339683D01*
X123817166Y-97353724D01*
X123819290Y-97368042D01*
X123820000Y-97382500D01*
X123820000Y-97677500D01*
X123819290Y-97691958D01*
X123817166Y-97706276D01*
X123813649Y-97720317D01*
X123808772Y-97733946D01*
X123802583Y-97747031D01*
X123795142Y-97759447D01*
X123786519Y-97771073D01*
X123776798Y-97781798D01*
X123766073Y-97791519D01*
X123754447Y-97800142D01*
X123742031Y-97807583D01*
X123728946Y-97813772D01*
X123715317Y-97818649D01*
X123701276Y-97822166D01*
X123686958Y-97824290D01*
X123672500Y-97825000D01*
X123327500Y-97825000D01*
X123313042Y-97824290D01*
X123298724Y-97822166D01*
X123284683Y-97818649D01*
X123271054Y-97813772D01*
X123257969Y-97807583D01*
X123245553Y-97800142D01*
X123233927Y-97791519D01*
X123223202Y-97781798D01*
X123213481Y-97771073D01*
X123204858Y-97759447D01*
X123197417Y-97747031D01*
X123191228Y-97733946D01*
X123186351Y-97720317D01*
X123182834Y-97706276D01*
X123180710Y-97691958D01*
X123180000Y-97677500D01*
X123180000Y-97382500D01*
X123180710Y-97368042D01*
X123182834Y-97353724D01*
X123186351Y-97339683D01*
X123191228Y-97326054D01*
X123197417Y-97312969D01*
X123204858Y-97300553D01*
X123213481Y-97288927D01*
X123223202Y-97278202D01*
X123233927Y-97268481D01*
X123245553Y-97259858D01*
X123257969Y-97252417D01*
X123271054Y-97246228D01*
X123284683Y-97241351D01*
X123298724Y-97237834D01*
X123313042Y-97235710D01*
X123327500Y-97235000D01*
X123672500Y-97235000D01*
X123686958Y-97235710D01*
G37*
G04 #@! TD*
G04 #@! TO.C,C4*
G36*
X124686958Y-97235710D02*
G01*
X124701276Y-97237834D01*
X124715317Y-97241351D01*
X124728946Y-97246228D01*
X124742031Y-97252417D01*
X124754447Y-97259858D01*
X124766073Y-97268481D01*
X124776798Y-97278202D01*
X124786519Y-97288927D01*
X124795142Y-97300553D01*
X124802583Y-97312969D01*
X124808772Y-97326054D01*
X124813649Y-97339683D01*
X124817166Y-97353724D01*
X124819290Y-97368042D01*
X124820000Y-97382500D01*
X124820000Y-97677500D01*
X124819290Y-97691958D01*
X124817166Y-97706276D01*
X124813649Y-97720317D01*
X124808772Y-97733946D01*
X124802583Y-97747031D01*
X124795142Y-97759447D01*
X124786519Y-97771073D01*
X124776798Y-97781798D01*
X124766073Y-97791519D01*
X124754447Y-97800142D01*
X124742031Y-97807583D01*
X124728946Y-97813772D01*
X124715317Y-97818649D01*
X124701276Y-97822166D01*
X124686958Y-97824290D01*
X124672500Y-97825000D01*
X124327500Y-97825000D01*
X124313042Y-97824290D01*
X124298724Y-97822166D01*
X124284683Y-97818649D01*
X124271054Y-97813772D01*
X124257969Y-97807583D01*
X124245553Y-97800142D01*
X124233927Y-97791519D01*
X124223202Y-97781798D01*
X124213481Y-97771073D01*
X124204858Y-97759447D01*
X124197417Y-97747031D01*
X124191228Y-97733946D01*
X124186351Y-97720317D01*
X124182834Y-97706276D01*
X124180710Y-97691958D01*
X124180000Y-97677500D01*
X124180000Y-97382500D01*
X124180710Y-97368042D01*
X124182834Y-97353724D01*
X124186351Y-97339683D01*
X124191228Y-97326054D01*
X124197417Y-97312969D01*
X124204858Y-97300553D01*
X124213481Y-97288927D01*
X124223202Y-97278202D01*
X124233927Y-97268481D01*
X124245553Y-97259858D01*
X124257969Y-97252417D01*
X124271054Y-97246228D01*
X124284683Y-97241351D01*
X124298724Y-97237834D01*
X124313042Y-97235710D01*
X124327500Y-97235000D01*
X124672500Y-97235000D01*
X124686958Y-97235710D01*
G37*
G36*
X124686958Y-98205710D02*
G01*
X124701276Y-98207834D01*
X124715317Y-98211351D01*
X124728946Y-98216228D01*
X124742031Y-98222417D01*
X124754447Y-98229858D01*
X124766073Y-98238481D01*
X124776798Y-98248202D01*
X124786519Y-98258927D01*
X124795142Y-98270553D01*
X124802583Y-98282969D01*
X124808772Y-98296054D01*
X124813649Y-98309683D01*
X124817166Y-98323724D01*
X124819290Y-98338042D01*
X124820000Y-98352500D01*
X124820000Y-98647500D01*
X124819290Y-98661958D01*
X124817166Y-98676276D01*
X124813649Y-98690317D01*
X124808772Y-98703946D01*
X124802583Y-98717031D01*
X124795142Y-98729447D01*
X124786519Y-98741073D01*
X124776798Y-98751798D01*
X124766073Y-98761519D01*
X124754447Y-98770142D01*
X124742031Y-98777583D01*
X124728946Y-98783772D01*
X124715317Y-98788649D01*
X124701276Y-98792166D01*
X124686958Y-98794290D01*
X124672500Y-98795000D01*
X124327500Y-98795000D01*
X124313042Y-98794290D01*
X124298724Y-98792166D01*
X124284683Y-98788649D01*
X124271054Y-98783772D01*
X124257969Y-98777583D01*
X124245553Y-98770142D01*
X124233927Y-98761519D01*
X124223202Y-98751798D01*
X124213481Y-98741073D01*
X124204858Y-98729447D01*
X124197417Y-98717031D01*
X124191228Y-98703946D01*
X124186351Y-98690317D01*
X124182834Y-98676276D01*
X124180710Y-98661958D01*
X124180000Y-98647500D01*
X124180000Y-98352500D01*
X124180710Y-98338042D01*
X124182834Y-98323724D01*
X124186351Y-98309683D01*
X124191228Y-98296054D01*
X124197417Y-98282969D01*
X124204858Y-98270553D01*
X124213481Y-98258927D01*
X124223202Y-98248202D01*
X124233927Y-98238481D01*
X124245553Y-98229858D01*
X124257969Y-98222417D01*
X124271054Y-98216228D01*
X124284683Y-98211351D01*
X124298724Y-98207834D01*
X124313042Y-98205710D01*
X124327500Y-98205000D01*
X124672500Y-98205000D01*
X124686958Y-98205710D01*
G37*
G04 #@! TD*
G04 #@! TO.C,C3*
G36*
X123636958Y-101725710D02*
G01*
X123651276Y-101727834D01*
X123665317Y-101731351D01*
X123678946Y-101736228D01*
X123692031Y-101742417D01*
X123704447Y-101749858D01*
X123716073Y-101758481D01*
X123726798Y-101768202D01*
X123736519Y-101778927D01*
X123745142Y-101790553D01*
X123752583Y-101802969D01*
X123758772Y-101816054D01*
X123763649Y-101829683D01*
X123767166Y-101843724D01*
X123769290Y-101858042D01*
X123770000Y-101872500D01*
X123770000Y-102167500D01*
X123769290Y-102181958D01*
X123767166Y-102196276D01*
X123763649Y-102210317D01*
X123758772Y-102223946D01*
X123752583Y-102237031D01*
X123745142Y-102249447D01*
X123736519Y-102261073D01*
X123726798Y-102271798D01*
X123716073Y-102281519D01*
X123704447Y-102290142D01*
X123692031Y-102297583D01*
X123678946Y-102303772D01*
X123665317Y-102308649D01*
X123651276Y-102312166D01*
X123636958Y-102314290D01*
X123622500Y-102315000D01*
X123277500Y-102315000D01*
X123263042Y-102314290D01*
X123248724Y-102312166D01*
X123234683Y-102308649D01*
X123221054Y-102303772D01*
X123207969Y-102297583D01*
X123195553Y-102290142D01*
X123183927Y-102281519D01*
X123173202Y-102271798D01*
X123163481Y-102261073D01*
X123154858Y-102249447D01*
X123147417Y-102237031D01*
X123141228Y-102223946D01*
X123136351Y-102210317D01*
X123132834Y-102196276D01*
X123130710Y-102181958D01*
X123130000Y-102167500D01*
X123130000Y-101872500D01*
X123130710Y-101858042D01*
X123132834Y-101843724D01*
X123136351Y-101829683D01*
X123141228Y-101816054D01*
X123147417Y-101802969D01*
X123154858Y-101790553D01*
X123163481Y-101778927D01*
X123173202Y-101768202D01*
X123183927Y-101758481D01*
X123195553Y-101749858D01*
X123207969Y-101742417D01*
X123221054Y-101736228D01*
X123234683Y-101731351D01*
X123248724Y-101727834D01*
X123263042Y-101725710D01*
X123277500Y-101725000D01*
X123622500Y-101725000D01*
X123636958Y-101725710D01*
G37*
G36*
X123636958Y-100755710D02*
G01*
X123651276Y-100757834D01*
X123665317Y-100761351D01*
X123678946Y-100766228D01*
X123692031Y-100772417D01*
X123704447Y-100779858D01*
X123716073Y-100788481D01*
X123726798Y-100798202D01*
X123736519Y-100808927D01*
X123745142Y-100820553D01*
X123752583Y-100832969D01*
X123758772Y-100846054D01*
X123763649Y-100859683D01*
X123767166Y-100873724D01*
X123769290Y-100888042D01*
X123770000Y-100902500D01*
X123770000Y-101197500D01*
X123769290Y-101211958D01*
X123767166Y-101226276D01*
X123763649Y-101240317D01*
X123758772Y-101253946D01*
X123752583Y-101267031D01*
X123745142Y-101279447D01*
X123736519Y-101291073D01*
X123726798Y-101301798D01*
X123716073Y-101311519D01*
X123704447Y-101320142D01*
X123692031Y-101327583D01*
X123678946Y-101333772D01*
X123665317Y-101338649D01*
X123651276Y-101342166D01*
X123636958Y-101344290D01*
X123622500Y-101345000D01*
X123277500Y-101345000D01*
X123263042Y-101344290D01*
X123248724Y-101342166D01*
X123234683Y-101338649D01*
X123221054Y-101333772D01*
X123207969Y-101327583D01*
X123195553Y-101320142D01*
X123183927Y-101311519D01*
X123173202Y-101301798D01*
X123163481Y-101291073D01*
X123154858Y-101279447D01*
X123147417Y-101267031D01*
X123141228Y-101253946D01*
X123136351Y-101240317D01*
X123132834Y-101226276D01*
X123130710Y-101211958D01*
X123130000Y-101197500D01*
X123130000Y-100902500D01*
X123130710Y-100888042D01*
X123132834Y-100873724D01*
X123136351Y-100859683D01*
X123141228Y-100846054D01*
X123147417Y-100832969D01*
X123154858Y-100820553D01*
X123163481Y-100808927D01*
X123173202Y-100798202D01*
X123183927Y-100788481D01*
X123195553Y-100779858D01*
X123207969Y-100772417D01*
X123221054Y-100766228D01*
X123234683Y-100761351D01*
X123248724Y-100757834D01*
X123263042Y-100755710D01*
X123277500Y-100755000D01*
X123622500Y-100755000D01*
X123636958Y-100755710D01*
G37*
G04 #@! TD*
D16*
G04 #@! TO.C,C1*
X135125000Y-118400000D03*
D17*
X124975000Y-118400000D03*
G04 #@! TD*
D18*
G04 #@! TO.C,Q2*
X150700000Y-98430000D03*
X151200000Y-99750000D03*
X150200000Y-99750000D03*
G04 #@! TD*
G04 #@! TO.C,Q1*
X150700000Y-102240000D03*
X151200000Y-103560000D03*
X150200000Y-103560000D03*
G04 #@! TD*
D13*
G04 #@! TO.C,J1*
G36*
X124699505Y-111951204D02*
G01*
X124723773Y-111954804D01*
X124747572Y-111960765D01*
X124770671Y-111969030D01*
X124792850Y-111979520D01*
X124813893Y-111992132D01*
X124833599Y-112006747D01*
X124851777Y-112023223D01*
X124868253Y-112041401D01*
X124882868Y-112061107D01*
X124895480Y-112082150D01*
X124905970Y-112104329D01*
X124914235Y-112127428D01*
X124920196Y-112151227D01*
X124923796Y-112175495D01*
X124925000Y-112199999D01*
X124925000Y-112900001D01*
X124923796Y-112924505D01*
X124920196Y-112948773D01*
X124914235Y-112972572D01*
X124905970Y-112995671D01*
X124895480Y-113017850D01*
X124882868Y-113038893D01*
X124868253Y-113058599D01*
X124851777Y-113076777D01*
X124833599Y-113093253D01*
X124813893Y-113107868D01*
X124792850Y-113120480D01*
X124770671Y-113130970D01*
X124747572Y-113139235D01*
X124723773Y-113145196D01*
X124699505Y-113148796D01*
X124675001Y-113150000D01*
X123374999Y-113150000D01*
X123350495Y-113148796D01*
X123326227Y-113145196D01*
X123302428Y-113139235D01*
X123279329Y-113130970D01*
X123257150Y-113120480D01*
X123236107Y-113107868D01*
X123216401Y-113093253D01*
X123198223Y-113076777D01*
X123181747Y-113058599D01*
X123167132Y-113038893D01*
X123154520Y-113017850D01*
X123144030Y-112995671D01*
X123135765Y-112972572D01*
X123129804Y-112948773D01*
X123126204Y-112924505D01*
X123125000Y-112900001D01*
X123125000Y-112199999D01*
X123126204Y-112175495D01*
X123129804Y-112151227D01*
X123135765Y-112127428D01*
X123144030Y-112104329D01*
X123154520Y-112082150D01*
X123167132Y-112061107D01*
X123181747Y-112041401D01*
X123198223Y-112023223D01*
X123216401Y-112006747D01*
X123236107Y-111992132D01*
X123257150Y-111979520D01*
X123279329Y-111969030D01*
X123302428Y-111960765D01*
X123326227Y-111954804D01*
X123350495Y-111951204D01*
X123374999Y-111950000D01*
X124675001Y-111950000D01*
X124699505Y-111951204D01*
G37*
G36*
X124699505Y-108351204D02*
G01*
X124723773Y-108354804D01*
X124747572Y-108360765D01*
X124770671Y-108369030D01*
X124792850Y-108379520D01*
X124813893Y-108392132D01*
X124833599Y-108406747D01*
X124851777Y-108423223D01*
X124868253Y-108441401D01*
X124882868Y-108461107D01*
X124895480Y-108482150D01*
X124905970Y-108504329D01*
X124914235Y-108527428D01*
X124920196Y-108551227D01*
X124923796Y-108575495D01*
X124925000Y-108599999D01*
X124925000Y-109300001D01*
X124923796Y-109324505D01*
X124920196Y-109348773D01*
X124914235Y-109372572D01*
X124905970Y-109395671D01*
X124895480Y-109417850D01*
X124882868Y-109438893D01*
X124868253Y-109458599D01*
X124851777Y-109476777D01*
X124833599Y-109493253D01*
X124813893Y-109507868D01*
X124792850Y-109520480D01*
X124770671Y-109530970D01*
X124747572Y-109539235D01*
X124723773Y-109545196D01*
X124699505Y-109548796D01*
X124675001Y-109550000D01*
X123374999Y-109550000D01*
X123350495Y-109548796D01*
X123326227Y-109545196D01*
X123302428Y-109539235D01*
X123279329Y-109530970D01*
X123257150Y-109520480D01*
X123236107Y-109507868D01*
X123216401Y-109493253D01*
X123198223Y-109476777D01*
X123181747Y-109458599D01*
X123167132Y-109438893D01*
X123154520Y-109417850D01*
X123144030Y-109395671D01*
X123135765Y-109372572D01*
X123129804Y-109348773D01*
X123126204Y-109324505D01*
X123125000Y-109300001D01*
X123125000Y-108599999D01*
X123126204Y-108575495D01*
X123129804Y-108551227D01*
X123135765Y-108527428D01*
X123144030Y-108504329D01*
X123154520Y-108482150D01*
X123167132Y-108461107D01*
X123181747Y-108441401D01*
X123198223Y-108423223D01*
X123216401Y-108406747D01*
X123236107Y-108392132D01*
X123257150Y-108379520D01*
X123279329Y-108369030D01*
X123302428Y-108360765D01*
X123326227Y-108354804D01*
X123350495Y-108351204D01*
X123374999Y-108350000D01*
X124675001Y-108350000D01*
X124699505Y-108351204D01*
G37*
G36*
X128539703Y-110950722D02*
G01*
X128554264Y-110952882D01*
X128568543Y-110956459D01*
X128582403Y-110961418D01*
X128595710Y-110967712D01*
X128608336Y-110975280D01*
X128620159Y-110984048D01*
X128631066Y-110993934D01*
X128640952Y-111004841D01*
X128649720Y-111016664D01*
X128657288Y-111029290D01*
X128663582Y-111042597D01*
X128668541Y-111056457D01*
X128672118Y-111070736D01*
X128674278Y-111085297D01*
X128675000Y-111100000D01*
X128675000Y-111400000D01*
X128674278Y-111414703D01*
X128672118Y-111429264D01*
X128668541Y-111443543D01*
X128663582Y-111457403D01*
X128657288Y-111470710D01*
X128649720Y-111483336D01*
X128640952Y-111495159D01*
X128631066Y-111506066D01*
X128620159Y-111515952D01*
X128608336Y-111524720D01*
X128595710Y-111532288D01*
X128582403Y-111538582D01*
X128568543Y-111543541D01*
X128554264Y-111547118D01*
X128539703Y-111549278D01*
X128525000Y-111550000D01*
X127275000Y-111550000D01*
X127260297Y-111549278D01*
X127245736Y-111547118D01*
X127231457Y-111543541D01*
X127217597Y-111538582D01*
X127204290Y-111532288D01*
X127191664Y-111524720D01*
X127179841Y-111515952D01*
X127168934Y-111506066D01*
X127159048Y-111495159D01*
X127150280Y-111483336D01*
X127142712Y-111470710D01*
X127136418Y-111457403D01*
X127131459Y-111443543D01*
X127127882Y-111429264D01*
X127125722Y-111414703D01*
X127125000Y-111400000D01*
X127125000Y-111100000D01*
X127125722Y-111085297D01*
X127127882Y-111070736D01*
X127131459Y-111056457D01*
X127136418Y-111042597D01*
X127142712Y-111029290D01*
X127150280Y-111016664D01*
X127159048Y-111004841D01*
X127168934Y-110993934D01*
X127179841Y-110984048D01*
X127191664Y-110975280D01*
X127204290Y-110967712D01*
X127217597Y-110961418D01*
X127231457Y-110956459D01*
X127245736Y-110952882D01*
X127260297Y-110950722D01*
X127275000Y-110950000D01*
X128525000Y-110950000D01*
X128539703Y-110950722D01*
G37*
G36*
X128539703Y-109950722D02*
G01*
X128554264Y-109952882D01*
X128568543Y-109956459D01*
X128582403Y-109961418D01*
X128595710Y-109967712D01*
X128608336Y-109975280D01*
X128620159Y-109984048D01*
X128631066Y-109993934D01*
X128640952Y-110004841D01*
X128649720Y-110016664D01*
X128657288Y-110029290D01*
X128663582Y-110042597D01*
X128668541Y-110056457D01*
X128672118Y-110070736D01*
X128674278Y-110085297D01*
X128675000Y-110100000D01*
X128675000Y-110400000D01*
X128674278Y-110414703D01*
X128672118Y-110429264D01*
X128668541Y-110443543D01*
X128663582Y-110457403D01*
X128657288Y-110470710D01*
X128649720Y-110483336D01*
X128640952Y-110495159D01*
X128631066Y-110506066D01*
X128620159Y-110515952D01*
X128608336Y-110524720D01*
X128595710Y-110532288D01*
X128582403Y-110538582D01*
X128568543Y-110543541D01*
X128554264Y-110547118D01*
X128539703Y-110549278D01*
X128525000Y-110550000D01*
X127275000Y-110550000D01*
X127260297Y-110549278D01*
X127245736Y-110547118D01*
X127231457Y-110543541D01*
X127217597Y-110538582D01*
X127204290Y-110532288D01*
X127191664Y-110524720D01*
X127179841Y-110515952D01*
X127168934Y-110506066D01*
X127159048Y-110495159D01*
X127150280Y-110483336D01*
X127142712Y-110470710D01*
X127136418Y-110457403D01*
X127131459Y-110443543D01*
X127127882Y-110429264D01*
X127125722Y-110414703D01*
X127125000Y-110400000D01*
X127125000Y-110100000D01*
X127125722Y-110085297D01*
X127127882Y-110070736D01*
X127131459Y-110056457D01*
X127136418Y-110042597D01*
X127142712Y-110029290D01*
X127150280Y-110016664D01*
X127159048Y-110004841D01*
X127168934Y-109993934D01*
X127179841Y-109984048D01*
X127191664Y-109975280D01*
X127204290Y-109967712D01*
X127217597Y-109961418D01*
X127231457Y-109956459D01*
X127245736Y-109952882D01*
X127260297Y-109950722D01*
X127275000Y-109950000D01*
X128525000Y-109950000D01*
X128539703Y-109950722D01*
G37*
G04 #@! TD*
D19*
G04 #@! TO.C,J2*
X141240000Y-81725000D03*
D20*
X142715000Y-83250000D03*
D19*
X144190000Y-81725000D03*
G04 #@! TD*
D21*
G04 #@! TO.C,D1*
X132050000Y-123000000D03*
X133450000Y-123000000D03*
G04 #@! TD*
M02*
