G04 #@! TF.GenerationSoftware,KiCad,Pcbnew,5.1.5+dfsg1-2build2*
G04 #@! TF.CreationDate,2021-01-22T19:49:40+11:00*
G04 #@! TF.ProjectId,mPCIe-GNSS,6d504349-652d-4474-9e53-532e6b696361,1*
G04 #@! TF.SameCoordinates,Original*
G04 #@! TF.FileFunction,Soldermask,Bot*
G04 #@! TF.FilePolarity,Negative*
%FSLAX46Y46*%
G04 Gerber Fmt 4.6, Leading zero omitted, Abs format (unit mm)*
G04 Created by KiCad (PCBNEW 5.1.5+dfsg1-2build2) date 2021-01-22 19:49:40*
%MOMM*%
%LPD*%
G04 APERTURE LIST*
%ADD10C,0.350000*%
G04 APERTURE END LIST*
D10*
G36*
X135700000Y-129800000D02*
G01*
X135100000Y-129800000D01*
X135100000Y-127450000D01*
X135700000Y-127450000D01*
X135700000Y-129800000D01*
G37*
G36*
X126100000Y-129800000D02*
G01*
X125500000Y-129800000D01*
X125500000Y-127450000D01*
X126100000Y-127450000D01*
X126100000Y-129800000D01*
G37*
G36*
X126900000Y-129800000D02*
G01*
X126300000Y-129800000D01*
X126300000Y-127450000D01*
X126900000Y-127450000D01*
X126900000Y-129800000D01*
G37*
G36*
X127700000Y-129800000D02*
G01*
X127100000Y-129800000D01*
X127100000Y-127450000D01*
X127700000Y-127450000D01*
X127700000Y-129800000D01*
G37*
G36*
X128500000Y-129800000D02*
G01*
X127900000Y-129800000D01*
X127900000Y-127450000D01*
X128500000Y-127450000D01*
X128500000Y-129800000D01*
G37*
G36*
X129300000Y-129800000D02*
G01*
X128700000Y-129800000D01*
X128700000Y-127450000D01*
X129300000Y-127450000D01*
X129300000Y-129800000D01*
G37*
G36*
X130100000Y-129800000D02*
G01*
X129500000Y-129800000D01*
X129500000Y-127450000D01*
X130100000Y-127450000D01*
X130100000Y-129800000D01*
G37*
G36*
X130900000Y-129800000D02*
G01*
X130300000Y-129800000D01*
X130300000Y-127450000D01*
X130900000Y-127450000D01*
X130900000Y-129800000D01*
G37*
G36*
X131700000Y-129800000D02*
G01*
X131100000Y-129800000D01*
X131100000Y-127450000D01*
X131700000Y-127450000D01*
X131700000Y-129800000D01*
G37*
G36*
X149300000Y-129800000D02*
G01*
X148700000Y-129800000D01*
X148700000Y-127450000D01*
X149300000Y-127450000D01*
X149300000Y-129800000D01*
G37*
G36*
X147700000Y-129800000D02*
G01*
X147100000Y-129800000D01*
X147100000Y-127450000D01*
X147700000Y-127450000D01*
X147700000Y-129800000D01*
G37*
G36*
X146900000Y-129800000D02*
G01*
X146300000Y-129800000D01*
X146300000Y-127450000D01*
X146900000Y-127450000D01*
X146900000Y-129800000D01*
G37*
G36*
X148500000Y-129800000D02*
G01*
X147900000Y-129800000D01*
X147900000Y-127450000D01*
X148500000Y-127450000D01*
X148500000Y-129800000D01*
G37*
G36*
X145300000Y-129800000D02*
G01*
X144700000Y-129800000D01*
X144700000Y-127450000D01*
X145300000Y-127450000D01*
X145300000Y-129800000D01*
G37*
G36*
X144500000Y-129800000D02*
G01*
X143900000Y-129800000D01*
X143900000Y-127450000D01*
X144500000Y-127450000D01*
X144500000Y-129800000D01*
G37*
G36*
X143700000Y-129800000D02*
G01*
X143100000Y-129800000D01*
X143100000Y-127450000D01*
X143700000Y-127450000D01*
X143700000Y-129800000D01*
G37*
G36*
X142900000Y-129800000D02*
G01*
X142300000Y-129800000D01*
X142300000Y-127450000D01*
X142900000Y-127450000D01*
X142900000Y-129800000D01*
G37*
G36*
X142100000Y-129800000D02*
G01*
X141500000Y-129800000D01*
X141500000Y-127450000D01*
X142100000Y-127450000D01*
X142100000Y-129800000D01*
G37*
G36*
X141300000Y-129800000D02*
G01*
X140700000Y-129800000D01*
X140700000Y-127450000D01*
X141300000Y-127450000D01*
X141300000Y-129800000D01*
G37*
G36*
X140500000Y-129800000D02*
G01*
X139900000Y-129800000D01*
X139900000Y-127450000D01*
X140500000Y-127450000D01*
X140500000Y-129800000D01*
G37*
G36*
X139700000Y-129800000D02*
G01*
X139100000Y-129800000D01*
X139100000Y-127450000D01*
X139700000Y-127450000D01*
X139700000Y-129800000D01*
G37*
G36*
X138900000Y-129800000D02*
G01*
X138300000Y-129800000D01*
X138300000Y-127450000D01*
X138900000Y-127450000D01*
X138900000Y-129800000D01*
G37*
G36*
X138100000Y-129800000D02*
G01*
X137500000Y-129800000D01*
X137500000Y-127450000D01*
X138100000Y-127450000D01*
X138100000Y-129800000D01*
G37*
G36*
X137300000Y-129800000D02*
G01*
X136700000Y-129800000D01*
X136700000Y-127450000D01*
X137300000Y-127450000D01*
X137300000Y-129800000D01*
G37*
G36*
X136500000Y-129800000D02*
G01*
X135900000Y-129800000D01*
X135900000Y-127450000D01*
X136500000Y-127450000D01*
X136500000Y-129800000D01*
G37*
G36*
X146100000Y-129800000D02*
G01*
X145500000Y-129800000D01*
X145500000Y-127450000D01*
X146100000Y-127450000D01*
X146100000Y-129800000D01*
G37*
G36*
X152201507Y-79024857D02*
G01*
X152201969Y-79024902D01*
X152204873Y-79025480D01*
X152204877Y-79025480D01*
X152204881Y-79025481D01*
X152207293Y-79025961D01*
X152211840Y-79027844D01*
X152215933Y-79030579D01*
X152217667Y-79032313D01*
X152217678Y-79032322D01*
X152217687Y-79032333D01*
X152219421Y-79034067D01*
X152222156Y-79038160D01*
X152224039Y-79042707D01*
X152225098Y-79048031D01*
X152225143Y-79048493D01*
X152225290Y-79051477D01*
X152225290Y-84848523D01*
X152225143Y-84851507D01*
X152225098Y-84851969D01*
X152224039Y-84857293D01*
X152222156Y-84861840D01*
X152219421Y-84865933D01*
X152217687Y-84867667D01*
X152217678Y-84867678D01*
X152217667Y-84867687D01*
X152215933Y-84869421D01*
X152211840Y-84872156D01*
X152207293Y-84874039D01*
X152204881Y-84874519D01*
X152204877Y-84874520D01*
X152204873Y-84874520D01*
X152201969Y-84875098D01*
X152201507Y-84875143D01*
X152198523Y-84875290D01*
X146401477Y-84875290D01*
X146398493Y-84875143D01*
X146398031Y-84875098D01*
X146395127Y-84874520D01*
X146395123Y-84874520D01*
X146395119Y-84874519D01*
X146392707Y-84874039D01*
X146388160Y-84872156D01*
X146384067Y-84869421D01*
X146382333Y-84867687D01*
X146382322Y-84867678D01*
X146382313Y-84867667D01*
X146380579Y-84865933D01*
X146377844Y-84861840D01*
X146375961Y-84857293D01*
X146374902Y-84851969D01*
X146374857Y-84851507D01*
X146374710Y-84848523D01*
X146374710Y-79051477D01*
X146374857Y-79048493D01*
X146374902Y-79048031D01*
X146375961Y-79042707D01*
X146377844Y-79038160D01*
X146380579Y-79034067D01*
X146382313Y-79032333D01*
X146382322Y-79032322D01*
X146382333Y-79032313D01*
X146384067Y-79030579D01*
X146388160Y-79027844D01*
X146392707Y-79025961D01*
X146395119Y-79025481D01*
X146395123Y-79025480D01*
X146395127Y-79025480D01*
X146398031Y-79024902D01*
X146398493Y-79024857D01*
X146401477Y-79024710D01*
X152198523Y-79024710D01*
X152201507Y-79024857D01*
G37*
G36*
X128001507Y-79024857D02*
G01*
X128001969Y-79024902D01*
X128004873Y-79025480D01*
X128004877Y-79025480D01*
X128004881Y-79025481D01*
X128007293Y-79025961D01*
X128011840Y-79027844D01*
X128015933Y-79030579D01*
X128017667Y-79032313D01*
X128017678Y-79032322D01*
X128017687Y-79032333D01*
X128019421Y-79034067D01*
X128022156Y-79038160D01*
X128024039Y-79042707D01*
X128025098Y-79048031D01*
X128025143Y-79048493D01*
X128025290Y-79051477D01*
X128025290Y-84848523D01*
X128025143Y-84851507D01*
X128025098Y-84851969D01*
X128024039Y-84857293D01*
X128022156Y-84861840D01*
X128019421Y-84865933D01*
X128017687Y-84867667D01*
X128017678Y-84867678D01*
X128017667Y-84867687D01*
X128015933Y-84869421D01*
X128011840Y-84872156D01*
X128007293Y-84874039D01*
X128004881Y-84874519D01*
X128004877Y-84874520D01*
X128004873Y-84874520D01*
X128001969Y-84875098D01*
X128001507Y-84875143D01*
X127998523Y-84875290D01*
X122201477Y-84875290D01*
X122198493Y-84875143D01*
X122198031Y-84875098D01*
X122195127Y-84874520D01*
X122195123Y-84874520D01*
X122195119Y-84874519D01*
X122192707Y-84874039D01*
X122188160Y-84872156D01*
X122184067Y-84869421D01*
X122182333Y-84867687D01*
X122182322Y-84867678D01*
X122182313Y-84867667D01*
X122180579Y-84865933D01*
X122177844Y-84861840D01*
X122175961Y-84857293D01*
X122174902Y-84851969D01*
X122174857Y-84851507D01*
X122174710Y-84848523D01*
X122174710Y-79051477D01*
X122174857Y-79048493D01*
X122174902Y-79048031D01*
X122175961Y-79042707D01*
X122177844Y-79038160D01*
X122180579Y-79034067D01*
X122182313Y-79032333D01*
X122182322Y-79032322D01*
X122182333Y-79032313D01*
X122184067Y-79030579D01*
X122188160Y-79027844D01*
X122192707Y-79025961D01*
X122195119Y-79025481D01*
X122195123Y-79025480D01*
X122195127Y-79025480D01*
X122198031Y-79024902D01*
X122198493Y-79024857D01*
X122201477Y-79024710D01*
X127998523Y-79024710D01*
X128001507Y-79024857D01*
G37*
M02*
