M48
; DRILL file {KiCad 5.1.5+dfsg1-2build2} date Fri Jan 22 19:49:40 2021
; FORMAT={-:-/ absolute / metric / decimal}
; #@! TF.CreationDate,2021-01-22T19:49:40+11:00
; #@! TF.GenerationSoftware,Kicad,Pcbnew,5.1.5+dfsg1-2build2
FMAT,2
METRIC
T1C0.300
T2C2.600
%
G90
G05
T1
X125.8Y-98.5
X130.975Y-91.5
X130.975Y-92.8
X132.45Y-83.9
X134.35Y-83.9
X134.7Y-123.0
X135.95Y-113.45
X136.5Y-113.95
X138.0Y-123.0
X138.05Y-83.9
X139.2Y-112.45
X139.2Y-114.45
X140.15Y-120.5
X140.75Y-121.1
X141.2Y-112.45
X141.2Y-114.45
X141.25Y-83.75
X141.25Y-84.9
X141.25Y-86.05
X141.25Y-87.2
X141.25Y-88.35
X141.25Y-89.5
X141.25Y-90.65
X141.25Y-91.8
X141.25Y-92.95
X141.95Y-94.0
X143.0Y-94.575
X144.175Y-83.75
X144.175Y-84.9
X144.175Y-86.05
X144.175Y-87.2
X144.175Y-88.35
X144.175Y-89.5
X144.175Y-92.175
X144.19Y-94.66
X144.3Y-113.25
X145.46Y-92.175
X145.46Y-94.65
X146.675Y-92.275
X146.675Y-94.525
X147.375Y-93.39
X148.6Y-125.8
X149.9Y-97.6
X149.9Y-101.4
T2
X125.1Y-81.95
X149.3Y-81.95
T0
M30
