G04 #@! TF.GenerationSoftware,KiCad,Pcbnew,5.1.5+dfsg1-2build2*
G04 #@! TF.CreationDate,2021-01-22T19:49:39+11:00*
G04 #@! TF.ProjectId,mPCIe-GNSS,6d504349-652d-4474-9e53-532e6b696361,1*
G04 #@! TF.SameCoordinates,Original*
G04 #@! TF.FileFunction,Legend,Top*
G04 #@! TF.FilePolarity,Positive*
%FSLAX46Y46*%
G04 Gerber Fmt 4.6, Leading zero omitted, Abs format (unit mm)*
G04 Created by KiCad (PCBNEW 5.1.5+dfsg1-2build2) date 2021-01-22 19:49:39*
%MOMM*%
%LPD*%
G04 APERTURE LIST*
G04 #@! TA.AperFunction,Profile*
%ADD10C,0.050000*%
G04 #@! TD*
%ADD11C,0.120000*%
%ADD12C,0.127000*%
%ADD13C,0.200000*%
%ADD14C,0.100000*%
%ADD15C,0.015000*%
G04 APERTURE END LIST*
D10*
G04 #@! TO.C,PC1*
X132600000Y-126750000D02*
G75*
G02X134100000Y-126750000I750000J0D01*
G01*
X123600000Y-126700000D02*
G75*
G02X124400000Y-127500000I0J-800000D01*
G01*
X150800000Y-126700000D02*
G75*
G03X150000000Y-127500000I0J-800000D01*
G01*
X134100000Y-130000000D02*
X134100000Y-126750000D01*
X124400000Y-130000000D02*
X124400000Y-127500000D01*
X122200000Y-126700000D02*
X123600000Y-126700000D01*
X150000000Y-130000000D02*
X150000000Y-127500000D01*
X150800000Y-126700000D02*
X152200000Y-126700000D01*
X132600000Y-130000000D02*
X124400000Y-130000000D01*
X122200000Y-79050000D02*
X152200000Y-79050000D01*
X152200000Y-126700000D02*
X152200000Y-79050000D01*
X122200000Y-126700000D02*
X122200000Y-79050000D01*
X134100000Y-130000000D02*
X150000000Y-130000000D01*
X132600000Y-130000000D02*
X132600000Y-126750000D01*
D11*
G04 #@! TO.C,LED3*
X138800000Y-80865000D02*
X136515000Y-80865000D01*
X136515000Y-80865000D02*
X136515000Y-82335000D01*
X136515000Y-82335000D02*
X138800000Y-82335000D01*
G04 #@! TO.C,LED2*
X135100000Y-80865000D02*
X132815000Y-80865000D01*
X132815000Y-80865000D02*
X132815000Y-82335000D01*
X132815000Y-82335000D02*
X135100000Y-82335000D01*
G04 #@! TO.C,LED1*
X131350000Y-80865000D02*
X129065000Y-80865000D01*
X129065000Y-80865000D02*
X129065000Y-82335000D01*
X129065000Y-82335000D02*
X131350000Y-82335000D01*
D12*
G04 #@! TO.C,U1*
X138200000Y-116450000D02*
G75*
G03X138200000Y-116450000I-250000J0D01*
G01*
X142700000Y-110950000D02*
X141950000Y-110950000D01*
X142700000Y-111700000D02*
X142700000Y-110950000D01*
X142700000Y-115950000D02*
X142700000Y-115200000D01*
X141950000Y-115950000D02*
X142700000Y-115950000D01*
X137700000Y-110950000D02*
X138450000Y-110950000D01*
X137700000Y-111700000D02*
X137700000Y-110950000D01*
X138053550Y-115950000D02*
X138450000Y-115950000D01*
X137700000Y-115596450D02*
X138053550Y-115950000D01*
X137700000Y-115200000D02*
X137700000Y-115596450D01*
G04 #@! TO.C,C1*
X124200000Y-115000000D02*
X124200000Y-115543000D01*
X135900000Y-115000000D02*
X124200000Y-115000000D01*
X135900000Y-115962000D02*
X135900000Y-115000000D01*
X135900000Y-121800000D02*
X135900000Y-120838000D01*
X124200000Y-121800000D02*
X135900000Y-121800000D01*
X124200000Y-121237000D02*
X124200000Y-121800000D01*
D13*
G04 #@! TO.C,GNSS1*
X127890000Y-89734000D02*
G75*
G03X127890000Y-89734000I-100000J0D01*
G01*
D12*
X129115000Y-104809000D02*
X129115000Y-104634000D01*
X145265000Y-104809000D02*
X145265000Y-104634000D01*
X145265000Y-88659000D02*
X145265000Y-89834000D01*
X129115000Y-88659000D02*
X129115000Y-89834000D01*
X145265000Y-104809000D02*
X129115000Y-104809000D01*
X129115000Y-88659000D02*
X145265000Y-88659000D01*
D13*
G04 #@! TO.C,Q2*
X150100000Y-100790000D02*
G75*
G03X150100000Y-100790000I-100000J0D01*
G01*
D12*
X151636931Y-98520246D02*
X151636931Y-99380246D01*
X151136931Y-98520246D02*
X151636931Y-98520246D01*
X149763726Y-98518559D02*
X149763726Y-99378559D01*
X150263726Y-98518559D02*
X149763726Y-98518559D01*
D13*
G04 #@! TO.C,Q1*
X150100000Y-104600000D02*
G75*
G03X150100000Y-104600000I-100000J0D01*
G01*
D12*
X151636931Y-102330246D02*
X151636931Y-103190246D01*
X151136931Y-102330246D02*
X151636931Y-102330246D01*
X149763726Y-102328559D02*
X149763726Y-103188559D01*
X150263726Y-102328559D02*
X149763726Y-102328559D01*
D11*
G04 #@! TO.C,J1*
X125185000Y-108640000D02*
X127685000Y-108640000D01*
X127685000Y-108640000D02*
X127685000Y-109690000D01*
X127685000Y-109690000D02*
X128675000Y-109690000D01*
X125185000Y-112860000D02*
X127685000Y-112860000D01*
X127685000Y-112860000D02*
X127685000Y-111810000D01*
X123215000Y-109810000D02*
X123215000Y-111690000D01*
G04 #@! TO.C,J2*
X141365000Y-80365000D02*
X144065000Y-80365000D01*
X141955000Y-83085000D02*
X141955000Y-83715000D01*
X144115000Y-83085000D02*
X143475000Y-83085000D01*
X141315000Y-83085000D02*
X141955000Y-83085000D01*
G04 #@! TO.C,D1*
X131600000Y-122400000D02*
X131600000Y-123600000D01*
X133450000Y-122400000D02*
X131600000Y-122400000D01*
X133450000Y-123600000D02*
X131600000Y-123600000D01*
G04 #@! TD*
G04 #@! TO.C,R3*
D14*
X141221428Y-119750000D02*
X140935714Y-119950000D01*
X141221428Y-120092857D02*
X140621428Y-120092857D01*
X140621428Y-119864285D01*
X140650000Y-119807142D01*
X140678571Y-119778571D01*
X140735714Y-119750000D01*
X140821428Y-119750000D01*
X140878571Y-119778571D01*
X140907142Y-119807142D01*
X140935714Y-119864285D01*
X140935714Y-120092857D01*
X140621428Y-119550000D02*
X140621428Y-119178571D01*
X140850000Y-119378571D01*
X140850000Y-119292857D01*
X140878571Y-119235714D01*
X140907142Y-119207142D01*
X140964285Y-119178571D01*
X141107142Y-119178571D01*
X141164285Y-119207142D01*
X141192857Y-119235714D01*
X141221428Y-119292857D01*
X141221428Y-119464285D01*
X141192857Y-119521428D01*
X141164285Y-119550000D01*
G04 #@! TO.C,R2*
X140221428Y-119750000D02*
X139935714Y-119950000D01*
X140221428Y-120092857D02*
X139621428Y-120092857D01*
X139621428Y-119864285D01*
X139650000Y-119807142D01*
X139678571Y-119778571D01*
X139735714Y-119750000D01*
X139821428Y-119750000D01*
X139878571Y-119778571D01*
X139907142Y-119807142D01*
X139935714Y-119864285D01*
X139935714Y-120092857D01*
X139678571Y-119521428D02*
X139650000Y-119492857D01*
X139621428Y-119435714D01*
X139621428Y-119292857D01*
X139650000Y-119235714D01*
X139678571Y-119207142D01*
X139735714Y-119178571D01*
X139792857Y-119178571D01*
X139878571Y-119207142D01*
X140221428Y-119550000D01*
X140221428Y-119178571D01*
G04 #@! TO.C,LED3*
X137314285Y-80400000D02*
X137600000Y-80400000D01*
X137257142Y-80571428D02*
X137457142Y-79971428D01*
X137657142Y-80571428D01*
X137857142Y-80571428D02*
X137857142Y-79971428D01*
X138200000Y-80571428D01*
X138200000Y-79971428D01*
X138400000Y-79971428D02*
X138742857Y-79971428D01*
X138571428Y-80571428D02*
X138571428Y-79971428D01*
G04 #@! TO.C,LED2*
X133585714Y-80571428D02*
X133242857Y-80571428D01*
X133414285Y-80571428D02*
X133414285Y-79971428D01*
X133357142Y-80057142D01*
X133300000Y-80114285D01*
X133242857Y-80142857D01*
X133842857Y-80571428D02*
X133842857Y-79971428D01*
X134071428Y-79971428D01*
X134128571Y-80000000D01*
X134157142Y-80028571D01*
X134185714Y-80085714D01*
X134185714Y-80171428D01*
X134157142Y-80228571D01*
X134128571Y-80257142D01*
X134071428Y-80285714D01*
X133842857Y-80285714D01*
X134442857Y-80571428D02*
X134442857Y-79971428D01*
X134671428Y-79971428D01*
X134728571Y-80000000D01*
X134757142Y-80028571D01*
X134785714Y-80085714D01*
X134785714Y-80171428D01*
X134757142Y-80228571D01*
X134728571Y-80257142D01*
X134671428Y-80285714D01*
X134442857Y-80285714D01*
X135014285Y-80542857D02*
X135100000Y-80571428D01*
X135242857Y-80571428D01*
X135300000Y-80542857D01*
X135328571Y-80514285D01*
X135357142Y-80457142D01*
X135357142Y-80400000D01*
X135328571Y-80342857D01*
X135300000Y-80314285D01*
X135242857Y-80285714D01*
X135128571Y-80257142D01*
X135071428Y-80228571D01*
X135042857Y-80200000D01*
X135014285Y-80142857D01*
X135014285Y-80085714D01*
X135042857Y-80028571D01*
X135071428Y-80000000D01*
X135128571Y-79971428D01*
X135271428Y-79971428D01*
X135357142Y-80000000D01*
G04 #@! TO.C,LED1*
X129750000Y-80571428D02*
X129750000Y-79971428D01*
X129978571Y-79971428D01*
X130035714Y-80000000D01*
X130064285Y-80028571D01*
X130092857Y-80085714D01*
X130092857Y-80171428D01*
X130064285Y-80228571D01*
X130035714Y-80257142D01*
X129978571Y-80285714D01*
X129750000Y-80285714D01*
X130292857Y-79971428D02*
X130435714Y-80571428D01*
X130550000Y-80142857D01*
X130664285Y-80571428D01*
X130807142Y-79971428D01*
X131378571Y-80571428D02*
X131178571Y-80285714D01*
X131035714Y-80571428D02*
X131035714Y-79971428D01*
X131264285Y-79971428D01*
X131321428Y-80000000D01*
X131350000Y-80028571D01*
X131378571Y-80085714D01*
X131378571Y-80171428D01*
X131350000Y-80228571D01*
X131321428Y-80257142D01*
X131264285Y-80285714D01*
X131035714Y-80285714D01*
G04 #@! TO.C,U1*
X136065747Y-114883370D02*
X136551461Y-114883370D01*
X136608604Y-114854799D01*
X136637176Y-114826228D01*
X136665747Y-114769085D01*
X136665747Y-114654799D01*
X136637176Y-114597656D01*
X136608604Y-114569085D01*
X136551461Y-114540513D01*
X136065747Y-114540513D01*
X136665747Y-113940513D02*
X136665747Y-114283370D01*
X136665747Y-114111942D02*
X136065747Y-114111942D01*
X136151461Y-114169085D01*
X136208604Y-114226228D01*
X136237176Y-114283370D01*
G04 #@! TO.C,C2*
X124714285Y-103200000D02*
X124742857Y-103228571D01*
X124771428Y-103314285D01*
X124771428Y-103371428D01*
X124742857Y-103457142D01*
X124685714Y-103514285D01*
X124628571Y-103542857D01*
X124514285Y-103571428D01*
X124428571Y-103571428D01*
X124314285Y-103542857D01*
X124257142Y-103514285D01*
X124200000Y-103457142D01*
X124171428Y-103371428D01*
X124171428Y-103314285D01*
X124200000Y-103228571D01*
X124228571Y-103200000D01*
X124228571Y-102971428D02*
X124200000Y-102942857D01*
X124171428Y-102885714D01*
X124171428Y-102742857D01*
X124200000Y-102685714D01*
X124228571Y-102657142D01*
X124285714Y-102628571D01*
X124342857Y-102628571D01*
X124428571Y-102657142D01*
X124771428Y-103000000D01*
X124771428Y-102628571D01*
G04 #@! TO.C,R7*
X146300000Y-114371428D02*
X146100000Y-114085714D01*
X145957142Y-114371428D02*
X145957142Y-113771428D01*
X146185714Y-113771428D01*
X146242857Y-113800000D01*
X146271428Y-113828571D01*
X146300000Y-113885714D01*
X146300000Y-113971428D01*
X146271428Y-114028571D01*
X146242857Y-114057142D01*
X146185714Y-114085714D01*
X145957142Y-114085714D01*
X146500000Y-113771428D02*
X146900000Y-113771428D01*
X146642857Y-114371428D01*
G04 #@! TO.C,R6*
X139000000Y-83221428D02*
X138800000Y-82935714D01*
X138657142Y-83221428D02*
X138657142Y-82621428D01*
X138885714Y-82621428D01*
X138942857Y-82650000D01*
X138971428Y-82678571D01*
X139000000Y-82735714D01*
X139000000Y-82821428D01*
X138971428Y-82878571D01*
X138942857Y-82907142D01*
X138885714Y-82935714D01*
X138657142Y-82935714D01*
X139514285Y-82621428D02*
X139400000Y-82621428D01*
X139342857Y-82650000D01*
X139314285Y-82678571D01*
X139257142Y-82764285D01*
X139228571Y-82878571D01*
X139228571Y-83107142D01*
X139257142Y-83164285D01*
X139285714Y-83192857D01*
X139342857Y-83221428D01*
X139457142Y-83221428D01*
X139514285Y-83192857D01*
X139542857Y-83164285D01*
X139571428Y-83107142D01*
X139571428Y-82964285D01*
X139542857Y-82907142D01*
X139514285Y-82878571D01*
X139457142Y-82850000D01*
X139342857Y-82850000D01*
X139285714Y-82878571D01*
X139257142Y-82907142D01*
X139228571Y-82964285D01*
G04 #@! TO.C,R5*
X135300000Y-83221428D02*
X135100000Y-82935714D01*
X134957142Y-83221428D02*
X134957142Y-82621428D01*
X135185714Y-82621428D01*
X135242857Y-82650000D01*
X135271428Y-82678571D01*
X135300000Y-82735714D01*
X135300000Y-82821428D01*
X135271428Y-82878571D01*
X135242857Y-82907142D01*
X135185714Y-82935714D01*
X134957142Y-82935714D01*
X135842857Y-82621428D02*
X135557142Y-82621428D01*
X135528571Y-82907142D01*
X135557142Y-82878571D01*
X135614285Y-82850000D01*
X135757142Y-82850000D01*
X135814285Y-82878571D01*
X135842857Y-82907142D01*
X135871428Y-82964285D01*
X135871428Y-83107142D01*
X135842857Y-83164285D01*
X135814285Y-83192857D01*
X135757142Y-83221428D01*
X135614285Y-83221428D01*
X135557142Y-83192857D01*
X135528571Y-83164285D01*
G04 #@! TO.C,R4*
X131550000Y-83221428D02*
X131350000Y-82935714D01*
X131207142Y-83221428D02*
X131207142Y-82621428D01*
X131435714Y-82621428D01*
X131492857Y-82650000D01*
X131521428Y-82678571D01*
X131550000Y-82735714D01*
X131550000Y-82821428D01*
X131521428Y-82878571D01*
X131492857Y-82907142D01*
X131435714Y-82935714D01*
X131207142Y-82935714D01*
X132064285Y-82821428D02*
X132064285Y-83221428D01*
X131921428Y-82592857D02*
X131778571Y-83021428D01*
X132150000Y-83021428D01*
G04 #@! TO.C,R1*
X128171428Y-123100000D02*
X127885714Y-123300000D01*
X128171428Y-123442857D02*
X127571428Y-123442857D01*
X127571428Y-123214285D01*
X127600000Y-123157142D01*
X127628571Y-123128571D01*
X127685714Y-123100000D01*
X127771428Y-123100000D01*
X127828571Y-123128571D01*
X127857142Y-123157142D01*
X127885714Y-123214285D01*
X127885714Y-123442857D01*
X128171428Y-122528571D02*
X128171428Y-122871428D01*
X128171428Y-122700000D02*
X127571428Y-122700000D01*
X127657142Y-122757142D01*
X127714285Y-122814285D01*
X127742857Y-122871428D01*
G04 #@! TO.C,C9*
X146300000Y-116414285D02*
X146271428Y-116442857D01*
X146185714Y-116471428D01*
X146128571Y-116471428D01*
X146042857Y-116442857D01*
X145985714Y-116385714D01*
X145957142Y-116328571D01*
X145928571Y-116214285D01*
X145928571Y-116128571D01*
X145957142Y-116014285D01*
X145985714Y-115957142D01*
X146042857Y-115900000D01*
X146128571Y-115871428D01*
X146185714Y-115871428D01*
X146271428Y-115900000D01*
X146300000Y-115928571D01*
X146585714Y-116471428D02*
X146700000Y-116471428D01*
X146757142Y-116442857D01*
X146785714Y-116414285D01*
X146842857Y-116328571D01*
X146871428Y-116214285D01*
X146871428Y-115985714D01*
X146842857Y-115928571D01*
X146814285Y-115900000D01*
X146757142Y-115871428D01*
X146642857Y-115871428D01*
X146585714Y-115900000D01*
X146557142Y-115928571D01*
X146528571Y-115985714D01*
X146528571Y-116128571D01*
X146557142Y-116185714D01*
X146585714Y-116214285D01*
X146642857Y-116242857D01*
X146757142Y-116242857D01*
X146814285Y-116214285D01*
X146842857Y-116185714D01*
X146871428Y-116128571D01*
G04 #@! TO.C,C8*
X146300000Y-115364285D02*
X146271428Y-115392857D01*
X146185714Y-115421428D01*
X146128571Y-115421428D01*
X146042857Y-115392857D01*
X145985714Y-115335714D01*
X145957142Y-115278571D01*
X145928571Y-115164285D01*
X145928571Y-115078571D01*
X145957142Y-114964285D01*
X145985714Y-114907142D01*
X146042857Y-114850000D01*
X146128571Y-114821428D01*
X146185714Y-114821428D01*
X146271428Y-114850000D01*
X146300000Y-114878571D01*
X146642857Y-115078571D02*
X146585714Y-115050000D01*
X146557142Y-115021428D01*
X146528571Y-114964285D01*
X146528571Y-114935714D01*
X146557142Y-114878571D01*
X146585714Y-114850000D01*
X146642857Y-114821428D01*
X146757142Y-114821428D01*
X146814285Y-114850000D01*
X146842857Y-114878571D01*
X146871428Y-114935714D01*
X146871428Y-114964285D01*
X146842857Y-115021428D01*
X146814285Y-115050000D01*
X146757142Y-115078571D01*
X146642857Y-115078571D01*
X146585714Y-115107142D01*
X146557142Y-115135714D01*
X146528571Y-115192857D01*
X146528571Y-115307142D01*
X146557142Y-115364285D01*
X146585714Y-115392857D01*
X146642857Y-115421428D01*
X146757142Y-115421428D01*
X146814285Y-115392857D01*
X146842857Y-115364285D01*
X146871428Y-115307142D01*
X146871428Y-115192857D01*
X146842857Y-115135714D01*
X146814285Y-115107142D01*
X146757142Y-115078571D01*
G04 #@! TO.C,C7*
X143314285Y-119750000D02*
X143342857Y-119778571D01*
X143371428Y-119864285D01*
X143371428Y-119921428D01*
X143342857Y-120007142D01*
X143285714Y-120064285D01*
X143228571Y-120092857D01*
X143114285Y-120121428D01*
X143028571Y-120121428D01*
X142914285Y-120092857D01*
X142857142Y-120064285D01*
X142800000Y-120007142D01*
X142771428Y-119921428D01*
X142771428Y-119864285D01*
X142800000Y-119778571D01*
X142828571Y-119750000D01*
X142771428Y-119550000D02*
X142771428Y-119150000D01*
X143371428Y-119407142D01*
G04 #@! TO.C,C6*
X142264285Y-119750000D02*
X142292857Y-119778571D01*
X142321428Y-119864285D01*
X142321428Y-119921428D01*
X142292857Y-120007142D01*
X142235714Y-120064285D01*
X142178571Y-120092857D01*
X142064285Y-120121428D01*
X141978571Y-120121428D01*
X141864285Y-120092857D01*
X141807142Y-120064285D01*
X141750000Y-120007142D01*
X141721428Y-119921428D01*
X141721428Y-119864285D01*
X141750000Y-119778571D01*
X141778571Y-119750000D01*
X141721428Y-119235714D02*
X141721428Y-119350000D01*
X141750000Y-119407142D01*
X141778571Y-119435714D01*
X141864285Y-119492857D01*
X141978571Y-119521428D01*
X142207142Y-119521428D01*
X142264285Y-119492857D01*
X142292857Y-119464285D01*
X142321428Y-119407142D01*
X142321428Y-119292857D01*
X142292857Y-119235714D01*
X142264285Y-119207142D01*
X142207142Y-119178571D01*
X142064285Y-119178571D01*
X142007142Y-119207142D01*
X141978571Y-119235714D01*
X141950000Y-119292857D01*
X141950000Y-119407142D01*
X141978571Y-119464285D01*
X142007142Y-119492857D01*
X142064285Y-119521428D01*
G04 #@! TO.C,C5*
X123714285Y-99715000D02*
X123742857Y-99743571D01*
X123771428Y-99829285D01*
X123771428Y-99886428D01*
X123742857Y-99972142D01*
X123685714Y-100029285D01*
X123628571Y-100057857D01*
X123514285Y-100086428D01*
X123428571Y-100086428D01*
X123314285Y-100057857D01*
X123257142Y-100029285D01*
X123200000Y-99972142D01*
X123171428Y-99886428D01*
X123171428Y-99829285D01*
X123200000Y-99743571D01*
X123228571Y-99715000D01*
X123171428Y-99172142D02*
X123171428Y-99457857D01*
X123457142Y-99486428D01*
X123428571Y-99457857D01*
X123400000Y-99400714D01*
X123400000Y-99257857D01*
X123428571Y-99200714D01*
X123457142Y-99172142D01*
X123514285Y-99143571D01*
X123657142Y-99143571D01*
X123714285Y-99172142D01*
X123742857Y-99200714D01*
X123771428Y-99257857D01*
X123771428Y-99400714D01*
X123742857Y-99457857D01*
X123714285Y-99486428D01*
G04 #@! TO.C,C4*
X124714285Y-99715000D02*
X124742857Y-99743571D01*
X124771428Y-99829285D01*
X124771428Y-99886428D01*
X124742857Y-99972142D01*
X124685714Y-100029285D01*
X124628571Y-100057857D01*
X124514285Y-100086428D01*
X124428571Y-100086428D01*
X124314285Y-100057857D01*
X124257142Y-100029285D01*
X124200000Y-99972142D01*
X124171428Y-99886428D01*
X124171428Y-99829285D01*
X124200000Y-99743571D01*
X124228571Y-99715000D01*
X124371428Y-99200714D02*
X124771428Y-99200714D01*
X124142857Y-99343571D02*
X124571428Y-99486428D01*
X124571428Y-99115000D01*
G04 #@! TO.C,C3*
X123664285Y-103200000D02*
X123692857Y-103228571D01*
X123721428Y-103314285D01*
X123721428Y-103371428D01*
X123692857Y-103457142D01*
X123635714Y-103514285D01*
X123578571Y-103542857D01*
X123464285Y-103571428D01*
X123378571Y-103571428D01*
X123264285Y-103542857D01*
X123207142Y-103514285D01*
X123150000Y-103457142D01*
X123121428Y-103371428D01*
X123121428Y-103314285D01*
X123150000Y-103228571D01*
X123178571Y-103200000D01*
X123121428Y-103000000D02*
X123121428Y-102628571D01*
X123350000Y-102828571D01*
X123350000Y-102742857D01*
X123378571Y-102685714D01*
X123407142Y-102657142D01*
X123464285Y-102628571D01*
X123607142Y-102628571D01*
X123664285Y-102657142D01*
X123692857Y-102685714D01*
X123721428Y-102742857D01*
X123721428Y-102914285D01*
X123692857Y-102971428D01*
X123664285Y-103000000D01*
G04 #@! TO.C,C1*
X130007142Y-118842857D02*
X130035714Y-118757142D01*
X130064285Y-118728571D01*
X130121428Y-118700000D01*
X130207142Y-118700000D01*
X130264285Y-118728571D01*
X130292857Y-118757142D01*
X130321428Y-118814285D01*
X130321428Y-119042857D01*
X129721428Y-119042857D01*
X129721428Y-118842857D01*
X129750000Y-118785714D01*
X129778571Y-118757142D01*
X129835714Y-118728571D01*
X129892857Y-118728571D01*
X129950000Y-118757142D01*
X129978571Y-118785714D01*
X130007142Y-118842857D01*
X130007142Y-119042857D01*
X130150000Y-118471428D02*
X130150000Y-118185714D01*
X130321428Y-118528571D02*
X129721428Y-118328571D01*
X130321428Y-118128571D01*
X129721428Y-118014285D02*
X129721428Y-117671428D01*
X130321428Y-117842857D02*
X129721428Y-117842857D01*
D15*
X127021749Y-116982665D02*
X127021749Y-116217334D01*
X127404414Y-116600000D02*
X126639084Y-116600000D01*
G04 #@! TO.C,GNSS1*
D14*
X136185714Y-96950000D02*
X136128571Y-96921428D01*
X136042857Y-96921428D01*
X135957142Y-96950000D01*
X135900000Y-97007142D01*
X135871428Y-97064285D01*
X135842857Y-97178571D01*
X135842857Y-97264285D01*
X135871428Y-97378571D01*
X135900000Y-97435714D01*
X135957142Y-97492857D01*
X136042857Y-97521428D01*
X136100000Y-97521428D01*
X136185714Y-97492857D01*
X136214285Y-97464285D01*
X136214285Y-97264285D01*
X136100000Y-97264285D01*
X136471428Y-97521428D02*
X136471428Y-96921428D01*
X136814285Y-97521428D01*
X136814285Y-96921428D01*
X137071428Y-97492857D02*
X137157142Y-97521428D01*
X137300000Y-97521428D01*
X137357142Y-97492857D01*
X137385714Y-97464285D01*
X137414285Y-97407142D01*
X137414285Y-97350000D01*
X137385714Y-97292857D01*
X137357142Y-97264285D01*
X137300000Y-97235714D01*
X137185714Y-97207142D01*
X137128571Y-97178571D01*
X137100000Y-97150000D01*
X137071428Y-97092857D01*
X137071428Y-97035714D01*
X137100000Y-96978571D01*
X137128571Y-96950000D01*
X137185714Y-96921428D01*
X137328571Y-96921428D01*
X137414285Y-96950000D01*
X137642857Y-97492857D02*
X137728571Y-97521428D01*
X137871428Y-97521428D01*
X137928571Y-97492857D01*
X137957142Y-97464285D01*
X137985714Y-97407142D01*
X137985714Y-97350000D01*
X137957142Y-97292857D01*
X137928571Y-97264285D01*
X137871428Y-97235714D01*
X137757142Y-97207142D01*
X137700000Y-97178571D01*
X137671428Y-97150000D01*
X137642857Y-97092857D01*
X137642857Y-97035714D01*
X137671428Y-96978571D01*
X137700000Y-96950000D01*
X137757142Y-96921428D01*
X137900000Y-96921428D01*
X137985714Y-96950000D01*
X138557142Y-97521428D02*
X138214285Y-97521428D01*
X138385714Y-97521428D02*
X138385714Y-96921428D01*
X138328571Y-97007142D01*
X138271428Y-97064285D01*
X138214285Y-97092857D01*
G04 #@! TO.C,Q2*
X151100057Y-101298171D02*
X151042914Y-101269600D01*
X150985771Y-101212457D01*
X150900057Y-101126742D01*
X150842914Y-101098171D01*
X150785771Y-101098171D01*
X150814342Y-101241028D02*
X150757200Y-101212457D01*
X150700057Y-101155314D01*
X150671485Y-101041028D01*
X150671485Y-100841028D01*
X150700057Y-100726742D01*
X150757200Y-100669600D01*
X150814342Y-100641028D01*
X150928628Y-100641028D01*
X150985771Y-100669600D01*
X151042914Y-100726742D01*
X151071485Y-100841028D01*
X151071485Y-101041028D01*
X151042914Y-101155314D01*
X150985771Y-101212457D01*
X150928628Y-101241028D01*
X150814342Y-101241028D01*
X151300057Y-100698171D02*
X151328628Y-100669600D01*
X151385771Y-100641028D01*
X151528628Y-100641028D01*
X151585771Y-100669600D01*
X151614342Y-100698171D01*
X151642914Y-100755314D01*
X151642914Y-100812457D01*
X151614342Y-100898171D01*
X151271485Y-101241028D01*
X151642914Y-101241028D01*
G04 #@! TO.C,Q1*
X151100057Y-105108171D02*
X151042914Y-105079600D01*
X150985771Y-105022457D01*
X150900057Y-104936742D01*
X150842914Y-104908171D01*
X150785771Y-104908171D01*
X150814342Y-105051028D02*
X150757200Y-105022457D01*
X150700057Y-104965314D01*
X150671485Y-104851028D01*
X150671485Y-104651028D01*
X150700057Y-104536742D01*
X150757200Y-104479600D01*
X150814342Y-104451028D01*
X150928628Y-104451028D01*
X150985771Y-104479600D01*
X151042914Y-104536742D01*
X151071485Y-104651028D01*
X151071485Y-104851028D01*
X151042914Y-104965314D01*
X150985771Y-105022457D01*
X150928628Y-105051028D01*
X150814342Y-105051028D01*
X151642914Y-105051028D02*
X151300057Y-105051028D01*
X151471485Y-105051028D02*
X151471485Y-104451028D01*
X151414342Y-104536742D01*
X151357200Y-104593885D01*
X151300057Y-104622457D01*
G04 #@! TO.C,J1*
X125571428Y-110950000D02*
X126000000Y-110950000D01*
X126085714Y-110978571D01*
X126142857Y-111035714D01*
X126171428Y-111121428D01*
X126171428Y-111178571D01*
X126171428Y-110350000D02*
X126171428Y-110692857D01*
X126171428Y-110521428D02*
X125571428Y-110521428D01*
X125657142Y-110578571D01*
X125714285Y-110635714D01*
X125742857Y-110692857D01*
G04 #@! TO.C,J2*
X142515000Y-81371428D02*
X142515000Y-81800000D01*
X142486428Y-81885714D01*
X142429285Y-81942857D01*
X142343571Y-81971428D01*
X142286428Y-81971428D01*
X142772142Y-81428571D02*
X142800714Y-81400000D01*
X142857857Y-81371428D01*
X143000714Y-81371428D01*
X143057857Y-81400000D01*
X143086428Y-81428571D01*
X143115000Y-81485714D01*
X143115000Y-81542857D01*
X143086428Y-81628571D01*
X142743571Y-81971428D01*
X143115000Y-81971428D01*
X142014285Y-79900000D02*
X142300000Y-79900000D01*
X141957142Y-80071428D02*
X142157142Y-79471428D01*
X142357142Y-80071428D01*
X142557142Y-80071428D02*
X142557142Y-79471428D01*
X142900000Y-80071428D01*
X142900000Y-79471428D01*
X143100000Y-79471428D02*
X143442857Y-79471428D01*
X143271428Y-80071428D02*
X143271428Y-79471428D01*
G04 #@! TO.C,D1*
X131221428Y-123442857D02*
X130621428Y-123442857D01*
X130621428Y-123300000D01*
X130650000Y-123214285D01*
X130707142Y-123157142D01*
X130764285Y-123128571D01*
X130878571Y-123100000D01*
X130964285Y-123100000D01*
X131078571Y-123128571D01*
X131135714Y-123157142D01*
X131192857Y-123214285D01*
X131221428Y-123300000D01*
X131221428Y-123442857D01*
X131221428Y-122528571D02*
X131221428Y-122871428D01*
X131221428Y-122700000D02*
X130621428Y-122700000D01*
X130707142Y-122757142D01*
X130764285Y-122814285D01*
X130792857Y-122871428D01*
G04 #@! TD*
M02*
