G04 #@! TF.GenerationSoftware,KiCad,Pcbnew,(5.1.6)-1*
G04 #@! TF.CreationDate,2021-01-10T11:39:08+11:00*
G04 #@! TF.ProjectId,mPCIe-GNSS,6d504349-652d-4474-9e53-532e6b696361,1*
G04 #@! TF.SameCoordinates,Original*
G04 #@! TF.FileFunction,Copper,L2,Bot*
G04 #@! TF.FilePolarity,Positive*
%FSLAX46Y46*%
G04 Gerber Fmt 4.6, Leading zero omitted, Abs format (unit mm)*
G04 Created by KiCad (PCBNEW (5.1.6)-1) date 2021-01-10 11:39:08*
%MOMM*%
%LPD*%
G01*
G04 APERTURE LIST*
G04 #@! TA.AperFunction,SMDPad,CuDef*
%ADD10R,0.600000X2.350000*%
G04 #@! TD*
G04 #@! TA.AperFunction,ViaPad*
%ADD11C,0.600000*%
G04 #@! TD*
G04 #@! TA.AperFunction,Conductor*
%ADD12C,0.254000*%
G04 #@! TD*
G04 #@! TA.AperFunction,Conductor*
%ADD13C,0.152400*%
G04 #@! TD*
G04 #@! TA.AperFunction,Conductor*
%ADD14C,0.152000*%
G04 #@! TD*
G04 APERTURE END LIST*
D10*
X120395000Y-126895000D03*
X121195000Y-126895000D03*
X121995000Y-126895000D03*
X122795000Y-126895000D03*
X123595000Y-126895000D03*
X124395000Y-126895000D03*
X125195000Y-126895000D03*
X125995000Y-126895000D03*
X143595000Y-126895000D03*
X142795000Y-126895000D03*
X141995000Y-126895000D03*
X141195000Y-126895000D03*
X140395000Y-126895000D03*
X139595000Y-126895000D03*
X138795000Y-126895000D03*
X137995000Y-126895000D03*
X137195000Y-126895000D03*
X136395000Y-126895000D03*
X135595000Y-126895000D03*
X134795000Y-126895000D03*
X133995000Y-126895000D03*
X133195000Y-126895000D03*
X132395000Y-126895000D03*
X131595000Y-126895000D03*
X130795000Y-126895000D03*
X129995000Y-126895000D03*
G04 #@! TA.AperFunction,SMDPad,CuDef*
G36*
G01*
X131222000Y-113789750D02*
X131222000Y-114302250D01*
G75*
G02*
X131003250Y-114521000I-218750J0D01*
G01*
X130565750Y-114521000D01*
G75*
G02*
X130347000Y-114302250I0J218750D01*
G01*
X130347000Y-113789750D01*
G75*
G02*
X130565750Y-113571000I218750J0D01*
G01*
X131003250Y-113571000D01*
G75*
G02*
X131222000Y-113789750I0J-218750D01*
G01*
G37*
G04 #@! TD.AperFunction*
G04 #@! TA.AperFunction,SMDPad,CuDef*
G36*
G01*
X132797000Y-113789750D02*
X132797000Y-114302250D01*
G75*
G02*
X132578250Y-114521000I-218750J0D01*
G01*
X132140750Y-114521000D01*
G75*
G02*
X131922000Y-114302250I0J218750D01*
G01*
X131922000Y-113789750D01*
G75*
G02*
X132140750Y-113571000I218750J0D01*
G01*
X132578250Y-113571000D01*
G75*
G02*
X132797000Y-113789750I0J-218750D01*
G01*
G37*
G04 #@! TD.AperFunction*
G04 #@! TA.AperFunction,SMDPad,CuDef*
G36*
G01*
X131922000Y-112778250D02*
X131922000Y-112265750D01*
G75*
G02*
X132140750Y-112047000I218750J0D01*
G01*
X132578250Y-112047000D01*
G75*
G02*
X132797000Y-112265750I0J-218750D01*
G01*
X132797000Y-112778250D01*
G75*
G02*
X132578250Y-112997000I-218750J0D01*
G01*
X132140750Y-112997000D01*
G75*
G02*
X131922000Y-112778250I0J218750D01*
G01*
G37*
G04 #@! TD.AperFunction*
G04 #@! TA.AperFunction,SMDPad,CuDef*
G36*
G01*
X130347000Y-112778250D02*
X130347000Y-112265750D01*
G75*
G02*
X130565750Y-112047000I218750J0D01*
G01*
X131003250Y-112047000D01*
G75*
G02*
X131222000Y-112265750I0J-218750D01*
G01*
X131222000Y-112778250D01*
G75*
G02*
X131003250Y-112997000I-218750J0D01*
G01*
X130565750Y-112997000D01*
G75*
G02*
X130347000Y-112778250I0J218750D01*
G01*
G37*
G04 #@! TD.AperFunction*
D11*
X127000000Y-101600000D03*
X130175000Y-101600000D03*
X133350000Y-101600000D03*
X133350000Y-98425000D03*
X136525000Y-98425000D03*
X136525000Y-101600000D03*
X136525000Y-92075000D03*
X133350000Y-92075000D03*
X133350000Y-88900000D03*
X130175000Y-88900000D03*
X130175000Y-92075000D03*
X127000000Y-92075000D03*
X127000000Y-88900000D03*
X127000000Y-98425000D03*
X133350000Y-95250000D03*
X130175000Y-95250000D03*
X136525000Y-95250000D03*
X133350000Y-85725000D03*
X139700000Y-85725000D03*
X130175000Y-85725000D03*
X127000000Y-85725000D03*
X123825000Y-85725000D03*
X120650000Y-85725000D03*
X120650000Y-88900000D03*
X120650000Y-92075000D03*
X120650000Y-98425000D03*
X120650000Y-95250000D03*
X127000000Y-104775000D03*
X130175000Y-104775000D03*
X133350000Y-104775000D03*
X136525000Y-104775000D03*
X139700000Y-104775000D03*
X142875000Y-104775000D03*
X142875000Y-101600000D03*
X142875000Y-98425000D03*
X142875000Y-95250000D03*
X142875000Y-92075000D03*
X142875000Y-88900000D03*
X142875000Y-85725000D03*
X138785600Y-124358400D03*
X131857200Y-115638000D03*
X131978400Y-110540800D03*
X145288000Y-119783100D03*
X127000000Y-108077000D03*
X138023600Y-112903000D03*
X129548000Y-108720000D03*
X140411200Y-124256800D03*
X130896000Y-115845000D03*
X129413000Y-112832000D03*
X129413000Y-113736000D03*
D12*
X142795000Y-126895000D02*
X142795000Y-125530600D01*
X138795000Y-126895000D02*
X138795000Y-125383800D01*
X132395000Y-126895000D02*
X132395000Y-116175800D01*
X132395000Y-116175800D02*
X131857200Y-115638000D01*
X145288000Y-119783100D02*
X138788900Y-119783100D01*
X138785600Y-117348000D02*
X138785600Y-119786400D01*
X131978400Y-110540800D02*
X138785600Y-117348000D01*
X138785600Y-119786400D02*
X138788900Y-119783100D01*
X138785600Y-124358400D02*
X138785600Y-119786400D01*
X120395000Y-126895000D02*
X120395000Y-123826000D01*
X127381000Y-108458000D02*
X127000000Y-108077000D01*
X131978400Y-110540800D02*
X129463800Y-110540800D01*
X129463800Y-110540800D02*
X127381000Y-108458000D01*
X127000000Y-108077000D02*
X127000000Y-117221000D01*
X120395000Y-123826000D02*
X124459000Y-123826000D01*
X127000000Y-121285000D02*
X127000000Y-117221000D01*
X124459000Y-123826000D02*
X127000000Y-121285000D01*
X143595000Y-125466000D02*
X145288000Y-123773000D01*
X145288000Y-123773000D02*
X145288000Y-119783100D01*
X143595000Y-126895000D02*
X143595000Y-125466000D01*
D13*
X133840600Y-108720000D02*
X138023600Y-112903000D01*
X129548000Y-108720000D02*
X133840600Y-108720000D01*
X140395000Y-124273000D02*
X140411200Y-124256800D01*
X140395000Y-126895000D02*
X140395000Y-124273000D01*
X137995000Y-126895000D02*
X137995000Y-125132000D01*
X137995000Y-125132000D02*
X137824000Y-124961000D01*
X137824000Y-124961000D02*
X137824000Y-117986000D01*
X137824000Y-117986000D02*
X133560000Y-113723000D01*
X133560000Y-113723000D02*
X132845500Y-113007900D01*
X132845500Y-113007900D02*
X132845400Y-113007900D01*
X132845400Y-113007900D02*
X132359500Y-112522000D01*
X132845500Y-113007900D02*
X132360000Y-112522000D01*
X132360000Y-114046000D02*
X132359500Y-114046000D01*
X137195000Y-126895000D02*
X137195000Y-125132000D01*
X137195000Y-125132000D02*
X137366000Y-124961000D01*
X137366000Y-124961000D02*
X137366000Y-118175000D01*
X137366000Y-118175000D02*
X133237000Y-114046000D01*
X133237000Y-114046000D02*
X132360000Y-114046000D01*
X130896000Y-115845000D02*
X131595000Y-116544000D01*
X131595000Y-116544000D02*
X131595000Y-126895000D01*
X130517500Y-112788500D02*
X130518000Y-112788500D01*
X130518000Y-112788500D02*
X130784500Y-112522000D01*
X130517500Y-112788500D02*
X130251000Y-113055000D01*
X130251000Y-113055000D02*
X129637000Y-113055000D01*
X129637000Y-113055000D02*
X129413000Y-112832000D01*
X130784000Y-112522000D02*
X130517500Y-112788500D01*
X130517500Y-113779500D02*
X130518000Y-113779500D01*
X130518000Y-113779500D02*
X130784500Y-114046000D01*
X130517500Y-113779500D02*
X130251000Y-113513000D01*
X130251000Y-113513000D02*
X129637000Y-113513000D01*
X129637000Y-113513000D02*
X129413000Y-113736000D01*
X130784000Y-114046000D02*
X130517500Y-113779500D01*
D14*
G36*
X146694000Y-116713682D02*
G01*
X146685306Y-124869000D01*
X145390045Y-124869000D01*
X145389870Y-124869017D01*
X145389071Y-124869020D01*
X145384679Y-124869466D01*
X145380260Y-124869435D01*
X145378857Y-124869572D01*
X145223580Y-124885893D01*
X145214635Y-124887730D01*
X145205621Y-124889449D01*
X145204272Y-124889857D01*
X145055122Y-124936026D01*
X145046705Y-124939564D01*
X145038195Y-124943003D01*
X145036950Y-124943665D01*
X144899608Y-125017926D01*
X144892035Y-125023034D01*
X144884359Y-125028057D01*
X144883266Y-125028948D01*
X144762963Y-125128471D01*
X144756509Y-125134970D01*
X144749972Y-125141372D01*
X144749073Y-125142458D01*
X144650394Y-125263452D01*
X144645333Y-125271070D01*
X144640156Y-125278630D01*
X144639485Y-125279870D01*
X144566185Y-125417727D01*
X144562689Y-125426209D01*
X144559091Y-125434605D01*
X144558674Y-125435952D01*
X144513547Y-125585421D01*
X144511765Y-125594419D01*
X144509866Y-125603355D01*
X144509718Y-125604757D01*
X144494482Y-125760144D01*
X144494482Y-125760161D01*
X144494001Y-125765045D01*
X144494000Y-128067000D01*
X144124505Y-128067000D01*
X144124505Y-125720000D01*
X144120095Y-125675226D01*
X144107035Y-125632172D01*
X144085826Y-125592494D01*
X144057285Y-125557715D01*
X144029059Y-125534551D01*
X145526973Y-124036639D01*
X145540520Y-124025521D01*
X145551640Y-124011972D01*
X145551647Y-124011965D01*
X145570712Y-123988734D01*
X145584934Y-123971405D01*
X145617935Y-123909664D01*
X145638257Y-123842670D01*
X145643400Y-123790453D01*
X145643400Y-123790446D01*
X145645118Y-123773000D01*
X145643400Y-123755555D01*
X145643400Y-120174971D01*
X145698435Y-120119936D01*
X145756262Y-120033391D01*
X145796094Y-119937229D01*
X145816400Y-119835143D01*
X145816400Y-119731057D01*
X145796094Y-119628971D01*
X145756262Y-119532809D01*
X145698435Y-119446264D01*
X145624836Y-119372665D01*
X145538291Y-119314838D01*
X145442129Y-119275006D01*
X145340043Y-119254700D01*
X145235957Y-119254700D01*
X145133871Y-119275006D01*
X145037709Y-119314838D01*
X144951164Y-119372665D01*
X144896129Y-119427700D01*
X139141000Y-119427700D01*
X139141000Y-117365445D01*
X139142718Y-117348000D01*
X139141000Y-117330554D01*
X139141000Y-117330547D01*
X139135857Y-117278330D01*
X139115535Y-117211336D01*
X139082534Y-117149595D01*
X139068312Y-117132266D01*
X139049247Y-117109035D01*
X139049240Y-117109028D01*
X139038120Y-117095479D01*
X139024573Y-117084361D01*
X132506800Y-110566590D01*
X132506800Y-110488757D01*
X132486494Y-110386671D01*
X132446662Y-110290509D01*
X132388835Y-110203964D01*
X132315236Y-110130365D01*
X132228691Y-110072538D01*
X132132529Y-110032706D01*
X132030443Y-110012400D01*
X131926357Y-110012400D01*
X131824271Y-110032706D01*
X131728109Y-110072538D01*
X131641564Y-110130365D01*
X131586529Y-110185400D01*
X129611011Y-110185400D01*
X128093568Y-108667957D01*
X129019600Y-108667957D01*
X129019600Y-108772043D01*
X129039906Y-108874129D01*
X129079738Y-108970291D01*
X129137565Y-109056836D01*
X129211164Y-109130435D01*
X129297709Y-109188262D01*
X129393871Y-109228094D01*
X129495957Y-109248400D01*
X129600043Y-109248400D01*
X129702129Y-109228094D01*
X129798291Y-109188262D01*
X129884836Y-109130435D01*
X129958435Y-109056836D01*
X129979974Y-109024600D01*
X133714431Y-109024600D01*
X137502763Y-112812932D01*
X137495200Y-112850957D01*
X137495200Y-112955043D01*
X137515506Y-113057129D01*
X137555338Y-113153291D01*
X137613165Y-113239836D01*
X137686764Y-113313435D01*
X137773309Y-113371262D01*
X137869471Y-113411094D01*
X137971557Y-113431400D01*
X138075643Y-113431400D01*
X138177729Y-113411094D01*
X138273891Y-113371262D01*
X138360436Y-113313435D01*
X138434035Y-113239836D01*
X138491862Y-113153291D01*
X138531694Y-113057129D01*
X138552000Y-112955043D01*
X138552000Y-112850957D01*
X138531694Y-112748871D01*
X138491862Y-112652709D01*
X138434035Y-112566164D01*
X138360436Y-112492565D01*
X138273891Y-112434738D01*
X138177729Y-112394906D01*
X138075643Y-112374600D01*
X137971557Y-112374600D01*
X137933532Y-112382163D01*
X134066559Y-108515190D01*
X134057026Y-108503574D01*
X134015762Y-108469709D01*
X134010645Y-108465510D01*
X133996593Y-108457999D01*
X133957729Y-108437225D01*
X133900312Y-108419808D01*
X133855556Y-108415400D01*
X133855546Y-108415400D01*
X133840600Y-108413928D01*
X133825654Y-108415400D01*
X129979974Y-108415400D01*
X129958435Y-108383164D01*
X129884836Y-108309565D01*
X129798291Y-108251738D01*
X129702129Y-108211906D01*
X129600043Y-108191600D01*
X129495957Y-108191600D01*
X129393871Y-108211906D01*
X129297709Y-108251738D01*
X129211164Y-108309565D01*
X129137565Y-108383164D01*
X129079738Y-108469709D01*
X129039906Y-108565871D01*
X129019600Y-108667957D01*
X128093568Y-108667957D01*
X127644651Y-108219041D01*
X127644646Y-108219035D01*
X127528400Y-108102789D01*
X127528400Y-108024957D01*
X127508094Y-107922871D01*
X127468262Y-107826709D01*
X127410435Y-107740164D01*
X127336836Y-107666565D01*
X127250291Y-107608738D01*
X127154129Y-107568906D01*
X127052043Y-107548600D01*
X126947957Y-107548600D01*
X126845871Y-107568906D01*
X126749709Y-107608738D01*
X126663164Y-107666565D01*
X126589565Y-107740164D01*
X126531738Y-107826709D01*
X126491906Y-107922871D01*
X126471600Y-108024957D01*
X126471600Y-108129043D01*
X126491906Y-108231129D01*
X126531738Y-108327291D01*
X126589565Y-108413836D01*
X126644600Y-108468871D01*
X126644601Y-117203547D01*
X126644600Y-121137788D01*
X124311790Y-123470600D01*
X120412453Y-123470600D01*
X120395000Y-123468881D01*
X120377547Y-123470600D01*
X120325330Y-123475743D01*
X120258336Y-123496065D01*
X120196595Y-123529066D01*
X120142479Y-123573479D01*
X120098066Y-123627595D01*
X120065065Y-123689336D01*
X120044743Y-123756330D01*
X120037881Y-123826000D01*
X120039601Y-123843463D01*
X120039600Y-125498128D01*
X120007172Y-125507965D01*
X119967494Y-125529174D01*
X119932715Y-125557715D01*
X119904174Y-125592494D01*
X119882965Y-125632172D01*
X119869905Y-125675226D01*
X119865495Y-125720000D01*
X119865495Y-128067000D01*
X119096000Y-128067000D01*
X119096000Y-125765045D01*
X119095983Y-125764870D01*
X119095980Y-125764071D01*
X119095534Y-125759679D01*
X119095565Y-125755260D01*
X119095428Y-125753857D01*
X119079107Y-125598580D01*
X119077270Y-125589635D01*
X119075551Y-125580621D01*
X119075143Y-125579272D01*
X119028974Y-125430122D01*
X119025436Y-125421705D01*
X119021997Y-125413195D01*
X119021335Y-125411950D01*
X118947074Y-125274608D01*
X118941966Y-125267035D01*
X118936943Y-125259359D01*
X118936052Y-125258266D01*
X118836529Y-125137963D01*
X118830030Y-125131509D01*
X118823628Y-125124972D01*
X118822542Y-125124073D01*
X118701548Y-125025394D01*
X118693930Y-125020333D01*
X118686370Y-125015156D01*
X118685130Y-125014485D01*
X118547273Y-124941185D01*
X118538791Y-124937689D01*
X118530395Y-124934091D01*
X118529048Y-124933674D01*
X118379579Y-124888547D01*
X118370581Y-124886765D01*
X118361645Y-124884866D01*
X118360243Y-124884718D01*
X118204856Y-124869482D01*
X118204849Y-124869482D01*
X118199955Y-124869000D01*
X116896000Y-124869000D01*
X116896000Y-80069466D01*
X118166600Y-80069466D01*
X118166600Y-80370534D01*
X118225336Y-80665818D01*
X118340550Y-80943969D01*
X118507814Y-81194298D01*
X118720702Y-81407186D01*
X118971031Y-81574450D01*
X119249182Y-81689664D01*
X119544466Y-81748400D01*
X119845534Y-81748400D01*
X120140818Y-81689664D01*
X120418969Y-81574450D01*
X120669298Y-81407186D01*
X120882186Y-81194298D01*
X121049450Y-80943969D01*
X121164664Y-80665818D01*
X121223400Y-80370534D01*
X121223400Y-80069466D01*
X142366600Y-80069466D01*
X142366600Y-80370534D01*
X142425336Y-80665818D01*
X142540550Y-80943969D01*
X142707814Y-81194298D01*
X142920702Y-81407186D01*
X143171031Y-81574450D01*
X143449182Y-81689664D01*
X143744466Y-81748400D01*
X144045534Y-81748400D01*
X144340818Y-81689664D01*
X144618969Y-81574450D01*
X144869298Y-81407186D01*
X145082186Y-81194298D01*
X145249450Y-80943969D01*
X145364664Y-80665818D01*
X145423400Y-80370534D01*
X145423400Y-80069466D01*
X145364664Y-79774182D01*
X145249450Y-79496031D01*
X145082186Y-79245702D01*
X144869298Y-79032814D01*
X144618969Y-78865550D01*
X144340818Y-78750336D01*
X144045534Y-78691600D01*
X143744466Y-78691600D01*
X143449182Y-78750336D01*
X143171031Y-78865550D01*
X142920702Y-79032814D01*
X142707814Y-79245702D01*
X142540550Y-79496031D01*
X142425336Y-79774182D01*
X142366600Y-80069466D01*
X121223400Y-80069466D01*
X121164664Y-79774182D01*
X121049450Y-79496031D01*
X120882186Y-79245702D01*
X120669298Y-79032814D01*
X120418969Y-78865550D01*
X120140818Y-78750336D01*
X119845534Y-78691600D01*
X119544466Y-78691600D01*
X119249182Y-78750336D01*
X118971031Y-78865550D01*
X118720702Y-79032814D01*
X118507814Y-79245702D01*
X118340550Y-79496031D01*
X118225336Y-79774182D01*
X118166600Y-80069466D01*
X116896000Y-80069466D01*
X116896000Y-77421000D01*
X146694001Y-77421000D01*
X146694000Y-116713682D01*
G37*
X146694000Y-116713682D02*
X146685306Y-124869000D01*
X145390045Y-124869000D01*
X145389870Y-124869017D01*
X145389071Y-124869020D01*
X145384679Y-124869466D01*
X145380260Y-124869435D01*
X145378857Y-124869572D01*
X145223580Y-124885893D01*
X145214635Y-124887730D01*
X145205621Y-124889449D01*
X145204272Y-124889857D01*
X145055122Y-124936026D01*
X145046705Y-124939564D01*
X145038195Y-124943003D01*
X145036950Y-124943665D01*
X144899608Y-125017926D01*
X144892035Y-125023034D01*
X144884359Y-125028057D01*
X144883266Y-125028948D01*
X144762963Y-125128471D01*
X144756509Y-125134970D01*
X144749972Y-125141372D01*
X144749073Y-125142458D01*
X144650394Y-125263452D01*
X144645333Y-125271070D01*
X144640156Y-125278630D01*
X144639485Y-125279870D01*
X144566185Y-125417727D01*
X144562689Y-125426209D01*
X144559091Y-125434605D01*
X144558674Y-125435952D01*
X144513547Y-125585421D01*
X144511765Y-125594419D01*
X144509866Y-125603355D01*
X144509718Y-125604757D01*
X144494482Y-125760144D01*
X144494482Y-125760161D01*
X144494001Y-125765045D01*
X144494000Y-128067000D01*
X144124505Y-128067000D01*
X144124505Y-125720000D01*
X144120095Y-125675226D01*
X144107035Y-125632172D01*
X144085826Y-125592494D01*
X144057285Y-125557715D01*
X144029059Y-125534551D01*
X145526973Y-124036639D01*
X145540520Y-124025521D01*
X145551640Y-124011972D01*
X145551647Y-124011965D01*
X145570712Y-123988734D01*
X145584934Y-123971405D01*
X145617935Y-123909664D01*
X145638257Y-123842670D01*
X145643400Y-123790453D01*
X145643400Y-123790446D01*
X145645118Y-123773000D01*
X145643400Y-123755555D01*
X145643400Y-120174971D01*
X145698435Y-120119936D01*
X145756262Y-120033391D01*
X145796094Y-119937229D01*
X145816400Y-119835143D01*
X145816400Y-119731057D01*
X145796094Y-119628971D01*
X145756262Y-119532809D01*
X145698435Y-119446264D01*
X145624836Y-119372665D01*
X145538291Y-119314838D01*
X145442129Y-119275006D01*
X145340043Y-119254700D01*
X145235957Y-119254700D01*
X145133871Y-119275006D01*
X145037709Y-119314838D01*
X144951164Y-119372665D01*
X144896129Y-119427700D01*
X139141000Y-119427700D01*
X139141000Y-117365445D01*
X139142718Y-117348000D01*
X139141000Y-117330554D01*
X139141000Y-117330547D01*
X139135857Y-117278330D01*
X139115535Y-117211336D01*
X139082534Y-117149595D01*
X139068312Y-117132266D01*
X139049247Y-117109035D01*
X139049240Y-117109028D01*
X139038120Y-117095479D01*
X139024573Y-117084361D01*
X132506800Y-110566590D01*
X132506800Y-110488757D01*
X132486494Y-110386671D01*
X132446662Y-110290509D01*
X132388835Y-110203964D01*
X132315236Y-110130365D01*
X132228691Y-110072538D01*
X132132529Y-110032706D01*
X132030443Y-110012400D01*
X131926357Y-110012400D01*
X131824271Y-110032706D01*
X131728109Y-110072538D01*
X131641564Y-110130365D01*
X131586529Y-110185400D01*
X129611011Y-110185400D01*
X128093568Y-108667957D01*
X129019600Y-108667957D01*
X129019600Y-108772043D01*
X129039906Y-108874129D01*
X129079738Y-108970291D01*
X129137565Y-109056836D01*
X129211164Y-109130435D01*
X129297709Y-109188262D01*
X129393871Y-109228094D01*
X129495957Y-109248400D01*
X129600043Y-109248400D01*
X129702129Y-109228094D01*
X129798291Y-109188262D01*
X129884836Y-109130435D01*
X129958435Y-109056836D01*
X129979974Y-109024600D01*
X133714431Y-109024600D01*
X137502763Y-112812932D01*
X137495200Y-112850957D01*
X137495200Y-112955043D01*
X137515506Y-113057129D01*
X137555338Y-113153291D01*
X137613165Y-113239836D01*
X137686764Y-113313435D01*
X137773309Y-113371262D01*
X137869471Y-113411094D01*
X137971557Y-113431400D01*
X138075643Y-113431400D01*
X138177729Y-113411094D01*
X138273891Y-113371262D01*
X138360436Y-113313435D01*
X138434035Y-113239836D01*
X138491862Y-113153291D01*
X138531694Y-113057129D01*
X138552000Y-112955043D01*
X138552000Y-112850957D01*
X138531694Y-112748871D01*
X138491862Y-112652709D01*
X138434035Y-112566164D01*
X138360436Y-112492565D01*
X138273891Y-112434738D01*
X138177729Y-112394906D01*
X138075643Y-112374600D01*
X137971557Y-112374600D01*
X137933532Y-112382163D01*
X134066559Y-108515190D01*
X134057026Y-108503574D01*
X134015762Y-108469709D01*
X134010645Y-108465510D01*
X133996593Y-108457999D01*
X133957729Y-108437225D01*
X133900312Y-108419808D01*
X133855556Y-108415400D01*
X133855546Y-108415400D01*
X133840600Y-108413928D01*
X133825654Y-108415400D01*
X129979974Y-108415400D01*
X129958435Y-108383164D01*
X129884836Y-108309565D01*
X129798291Y-108251738D01*
X129702129Y-108211906D01*
X129600043Y-108191600D01*
X129495957Y-108191600D01*
X129393871Y-108211906D01*
X129297709Y-108251738D01*
X129211164Y-108309565D01*
X129137565Y-108383164D01*
X129079738Y-108469709D01*
X129039906Y-108565871D01*
X129019600Y-108667957D01*
X128093568Y-108667957D01*
X127644651Y-108219041D01*
X127644646Y-108219035D01*
X127528400Y-108102789D01*
X127528400Y-108024957D01*
X127508094Y-107922871D01*
X127468262Y-107826709D01*
X127410435Y-107740164D01*
X127336836Y-107666565D01*
X127250291Y-107608738D01*
X127154129Y-107568906D01*
X127052043Y-107548600D01*
X126947957Y-107548600D01*
X126845871Y-107568906D01*
X126749709Y-107608738D01*
X126663164Y-107666565D01*
X126589565Y-107740164D01*
X126531738Y-107826709D01*
X126491906Y-107922871D01*
X126471600Y-108024957D01*
X126471600Y-108129043D01*
X126491906Y-108231129D01*
X126531738Y-108327291D01*
X126589565Y-108413836D01*
X126644600Y-108468871D01*
X126644601Y-117203547D01*
X126644600Y-121137788D01*
X124311790Y-123470600D01*
X120412453Y-123470600D01*
X120395000Y-123468881D01*
X120377547Y-123470600D01*
X120325330Y-123475743D01*
X120258336Y-123496065D01*
X120196595Y-123529066D01*
X120142479Y-123573479D01*
X120098066Y-123627595D01*
X120065065Y-123689336D01*
X120044743Y-123756330D01*
X120037881Y-123826000D01*
X120039601Y-123843463D01*
X120039600Y-125498128D01*
X120007172Y-125507965D01*
X119967494Y-125529174D01*
X119932715Y-125557715D01*
X119904174Y-125592494D01*
X119882965Y-125632172D01*
X119869905Y-125675226D01*
X119865495Y-125720000D01*
X119865495Y-128067000D01*
X119096000Y-128067000D01*
X119096000Y-125765045D01*
X119095983Y-125764870D01*
X119095980Y-125764071D01*
X119095534Y-125759679D01*
X119095565Y-125755260D01*
X119095428Y-125753857D01*
X119079107Y-125598580D01*
X119077270Y-125589635D01*
X119075551Y-125580621D01*
X119075143Y-125579272D01*
X119028974Y-125430122D01*
X119025436Y-125421705D01*
X119021997Y-125413195D01*
X119021335Y-125411950D01*
X118947074Y-125274608D01*
X118941966Y-125267035D01*
X118936943Y-125259359D01*
X118936052Y-125258266D01*
X118836529Y-125137963D01*
X118830030Y-125131509D01*
X118823628Y-125124972D01*
X118822542Y-125124073D01*
X118701548Y-125025394D01*
X118693930Y-125020333D01*
X118686370Y-125015156D01*
X118685130Y-125014485D01*
X118547273Y-124941185D01*
X118538791Y-124937689D01*
X118530395Y-124934091D01*
X118529048Y-124933674D01*
X118379579Y-124888547D01*
X118370581Y-124886765D01*
X118361645Y-124884866D01*
X118360243Y-124884718D01*
X118204856Y-124869482D01*
X118204849Y-124869482D01*
X118199955Y-124869000D01*
X116896000Y-124869000D01*
X116896000Y-80069466D01*
X118166600Y-80069466D01*
X118166600Y-80370534D01*
X118225336Y-80665818D01*
X118340550Y-80943969D01*
X118507814Y-81194298D01*
X118720702Y-81407186D01*
X118971031Y-81574450D01*
X119249182Y-81689664D01*
X119544466Y-81748400D01*
X119845534Y-81748400D01*
X120140818Y-81689664D01*
X120418969Y-81574450D01*
X120669298Y-81407186D01*
X120882186Y-81194298D01*
X121049450Y-80943969D01*
X121164664Y-80665818D01*
X121223400Y-80370534D01*
X121223400Y-80069466D01*
X142366600Y-80069466D01*
X142366600Y-80370534D01*
X142425336Y-80665818D01*
X142540550Y-80943969D01*
X142707814Y-81194298D01*
X142920702Y-81407186D01*
X143171031Y-81574450D01*
X143449182Y-81689664D01*
X143744466Y-81748400D01*
X144045534Y-81748400D01*
X144340818Y-81689664D01*
X144618969Y-81574450D01*
X144869298Y-81407186D01*
X145082186Y-81194298D01*
X145249450Y-80943969D01*
X145364664Y-80665818D01*
X145423400Y-80370534D01*
X145423400Y-80069466D01*
X145364664Y-79774182D01*
X145249450Y-79496031D01*
X145082186Y-79245702D01*
X144869298Y-79032814D01*
X144618969Y-78865550D01*
X144340818Y-78750336D01*
X144045534Y-78691600D01*
X143744466Y-78691600D01*
X143449182Y-78750336D01*
X143171031Y-78865550D01*
X142920702Y-79032814D01*
X142707814Y-79245702D01*
X142540550Y-79496031D01*
X142425336Y-79774182D01*
X142366600Y-80069466D01*
X121223400Y-80069466D01*
X121164664Y-79774182D01*
X121049450Y-79496031D01*
X120882186Y-79245702D01*
X120669298Y-79032814D01*
X120418969Y-78865550D01*
X120140818Y-78750336D01*
X119845534Y-78691600D01*
X119544466Y-78691600D01*
X119249182Y-78750336D01*
X118971031Y-78865550D01*
X118720702Y-79032814D01*
X118507814Y-79245702D01*
X118340550Y-79496031D01*
X118225336Y-79774182D01*
X118166600Y-80069466D01*
X116896000Y-80069466D01*
X116896000Y-77421000D01*
X146694001Y-77421000D01*
X146694000Y-116713682D01*
G36*
X129200152Y-110779763D02*
G01*
X129211279Y-110793321D01*
X129265395Y-110837734D01*
X129327136Y-110870735D01*
X129394129Y-110891057D01*
X129401023Y-110891736D01*
X129446347Y-110896200D01*
X129446354Y-110896200D01*
X129463799Y-110897918D01*
X129481245Y-110896200D01*
X131586529Y-110896200D01*
X131641564Y-110951235D01*
X131728109Y-111009062D01*
X131824271Y-111048894D01*
X131926357Y-111069200D01*
X132004190Y-111069200D01*
X132831428Y-111896439D01*
X132827287Y-111893040D01*
X132749790Y-111851616D01*
X132665700Y-111826108D01*
X132578250Y-111817495D01*
X132140750Y-111817495D01*
X132053300Y-111826108D01*
X131969210Y-111851616D01*
X131891713Y-111893040D01*
X131823786Y-111948786D01*
X131768040Y-112016713D01*
X131726616Y-112094210D01*
X131701108Y-112178300D01*
X131692495Y-112265750D01*
X131692495Y-112778250D01*
X131701108Y-112865700D01*
X131726616Y-112949790D01*
X131768040Y-113027287D01*
X131823786Y-113095214D01*
X131891713Y-113150960D01*
X131969210Y-113192384D01*
X132053300Y-113217892D01*
X132140750Y-113226505D01*
X132578250Y-113226505D01*
X132626835Y-113221720D01*
X132628974Y-113224326D01*
X132640590Y-113233859D01*
X132641096Y-113234275D01*
X132819606Y-113412934D01*
X132749790Y-113375616D01*
X132665700Y-113350108D01*
X132578250Y-113341495D01*
X132140750Y-113341495D01*
X132053300Y-113350108D01*
X131969210Y-113375616D01*
X131891713Y-113417040D01*
X131823786Y-113472786D01*
X131768040Y-113540713D01*
X131726616Y-113618210D01*
X131701108Y-113702300D01*
X131692495Y-113789750D01*
X131692495Y-114302250D01*
X131701108Y-114389700D01*
X131726616Y-114473790D01*
X131768040Y-114551287D01*
X131823786Y-114619214D01*
X131891713Y-114674960D01*
X131969210Y-114716384D01*
X132053300Y-114741892D01*
X132140750Y-114750505D01*
X132578250Y-114750505D01*
X132665700Y-114741892D01*
X132749790Y-114716384D01*
X132827287Y-114674960D01*
X132895214Y-114619214D01*
X132950960Y-114551287D01*
X132992384Y-114473790D01*
X133017892Y-114389700D01*
X133021743Y-114350600D01*
X133110831Y-114350600D01*
X137061401Y-118301171D01*
X137061400Y-124834831D01*
X136990186Y-124906045D01*
X136978575Y-124915574D01*
X136969046Y-124927185D01*
X136969040Y-124927191D01*
X136940510Y-124961955D01*
X136919909Y-125000497D01*
X136912226Y-125014871D01*
X136894809Y-125072288D01*
X136891097Y-125109975D01*
X136888928Y-125132000D01*
X136890401Y-125146956D01*
X136890401Y-125229606D01*
X136798114Y-125201611D01*
X136695000Y-125191455D01*
X136675500Y-125194000D01*
X136544000Y-125325500D01*
X136544000Y-126746000D01*
X136564000Y-126746000D01*
X136564000Y-127044000D01*
X136544000Y-127044000D01*
X136544000Y-127064000D01*
X136246000Y-127064000D01*
X136246000Y-127044000D01*
X136226000Y-127044000D01*
X136226000Y-126746000D01*
X136246000Y-126746000D01*
X136246000Y-125325500D01*
X136114500Y-125194000D01*
X136095000Y-125191455D01*
X135991886Y-125201611D01*
X135892735Y-125231688D01*
X135801356Y-125280531D01*
X135721262Y-125346262D01*
X135655531Y-125426356D01*
X135621248Y-125490495D01*
X135295000Y-125490495D01*
X135250226Y-125494905D01*
X135207172Y-125507965D01*
X135195000Y-125514471D01*
X135182828Y-125507965D01*
X135139774Y-125494905D01*
X135095000Y-125490495D01*
X134495000Y-125490495D01*
X134450226Y-125494905D01*
X134407172Y-125507965D01*
X134395000Y-125514471D01*
X134382828Y-125507965D01*
X134339774Y-125494905D01*
X134295000Y-125490495D01*
X133968752Y-125490495D01*
X133934469Y-125426356D01*
X133868738Y-125346262D01*
X133788644Y-125280531D01*
X133697265Y-125231688D01*
X133598114Y-125201611D01*
X133495000Y-125191455D01*
X133475500Y-125194000D01*
X133344000Y-125325500D01*
X133344000Y-126746000D01*
X133364000Y-126746000D01*
X133364000Y-127044000D01*
X133344000Y-127044000D01*
X133344000Y-127064000D01*
X133046000Y-127064000D01*
X133046000Y-127044000D01*
X133026000Y-127044000D01*
X133026000Y-126746000D01*
X133046000Y-126746000D01*
X133046000Y-125325500D01*
X132914500Y-125194000D01*
X132895000Y-125191455D01*
X132791886Y-125201611D01*
X132750400Y-125214196D01*
X132750400Y-116193245D01*
X132752118Y-116175799D01*
X132750400Y-116158354D01*
X132750400Y-116158347D01*
X132745257Y-116106130D01*
X132724935Y-116039136D01*
X132691934Y-115977395D01*
X132647521Y-115923279D01*
X132633962Y-115912152D01*
X132385600Y-115663789D01*
X132385600Y-115585957D01*
X132365294Y-115483871D01*
X132325462Y-115387709D01*
X132267635Y-115301164D01*
X132194036Y-115227565D01*
X132107491Y-115169738D01*
X132011329Y-115129906D01*
X131909243Y-115109600D01*
X131805157Y-115109600D01*
X131703071Y-115129906D01*
X131606909Y-115169738D01*
X131520364Y-115227565D01*
X131446765Y-115301164D01*
X131388938Y-115387709D01*
X131349106Y-115483871D01*
X131335594Y-115551803D01*
X131306435Y-115508164D01*
X131232836Y-115434565D01*
X131146291Y-115376738D01*
X131050129Y-115336906D01*
X130948043Y-115316600D01*
X130843957Y-115316600D01*
X130741871Y-115336906D01*
X130645709Y-115376738D01*
X130559164Y-115434565D01*
X130485565Y-115508164D01*
X130427738Y-115594709D01*
X130387906Y-115690871D01*
X130367600Y-115792957D01*
X130367600Y-115897043D01*
X130387906Y-115999129D01*
X130427738Y-116095291D01*
X130485565Y-116181836D01*
X130559164Y-116255435D01*
X130645709Y-116313262D01*
X130741871Y-116353094D01*
X130843957Y-116373400D01*
X130948043Y-116373400D01*
X130986067Y-116365837D01*
X131290400Y-116670170D01*
X131290401Y-125490948D01*
X131250226Y-125494905D01*
X131207172Y-125507965D01*
X131195000Y-125514471D01*
X131182828Y-125507965D01*
X131139774Y-125494905D01*
X131095000Y-125490495D01*
X130768752Y-125490495D01*
X130734469Y-125426356D01*
X130668738Y-125346262D01*
X130588644Y-125280531D01*
X130497265Y-125231688D01*
X130398114Y-125201611D01*
X130295000Y-125191455D01*
X130275500Y-125194000D01*
X130144000Y-125325500D01*
X130144000Y-126746000D01*
X130164000Y-126746000D01*
X130164000Y-127044000D01*
X130144000Y-127044000D01*
X130144000Y-127064000D01*
X129846000Y-127064000D01*
X129846000Y-127044000D01*
X129300500Y-127044000D01*
X129169000Y-127175500D01*
X129166464Y-128067000D01*
X128796000Y-128067000D01*
X128796000Y-125720000D01*
X129166455Y-125720000D01*
X129169000Y-126614500D01*
X129300500Y-126746000D01*
X129846000Y-126746000D01*
X129846000Y-125325500D01*
X129714500Y-125194000D01*
X129695000Y-125191455D01*
X129591886Y-125201611D01*
X129492735Y-125231688D01*
X129401356Y-125280531D01*
X129321262Y-125346262D01*
X129255531Y-125426356D01*
X129206688Y-125517735D01*
X129176611Y-125616886D01*
X129166455Y-125720000D01*
X128796000Y-125720000D01*
X128796000Y-125015045D01*
X128795966Y-125014699D01*
X128795925Y-125008824D01*
X128795445Y-125004258D01*
X128795445Y-124999672D01*
X128795298Y-124998270D01*
X128778982Y-124852808D01*
X128777064Y-124843784D01*
X128775300Y-124834874D01*
X128774883Y-124833527D01*
X128730624Y-124694005D01*
X128727023Y-124685605D01*
X128723529Y-124677127D01*
X128722859Y-124675887D01*
X128652342Y-124547618D01*
X128647171Y-124540067D01*
X128642105Y-124532441D01*
X128641206Y-124531354D01*
X128547119Y-124419224D01*
X128540562Y-124412803D01*
X128534127Y-124406323D01*
X128533035Y-124405432D01*
X128418958Y-124313713D01*
X128411289Y-124308695D01*
X128403710Y-124303583D01*
X128402468Y-124302922D01*
X128402460Y-124302918D01*
X128272748Y-124235106D01*
X128264294Y-124231691D01*
X128255821Y-124228129D01*
X128254471Y-124227721D01*
X128114052Y-124186394D01*
X128105070Y-124184681D01*
X128096093Y-124182838D01*
X128094690Y-124182701D01*
X127948918Y-124169434D01*
X127939797Y-124169498D01*
X127930609Y-124169434D01*
X127929206Y-124169571D01*
X127783634Y-124184872D01*
X127774682Y-124186710D01*
X127765676Y-124188428D01*
X127764326Y-124188836D01*
X127624497Y-124232120D01*
X127616080Y-124235658D01*
X127607570Y-124239097D01*
X127606325Y-124239759D01*
X127477567Y-124309377D01*
X127469990Y-124314488D01*
X127462318Y-124319509D01*
X127461225Y-124320400D01*
X127348442Y-124413702D01*
X127342005Y-124420185D01*
X127335451Y-124426603D01*
X127334552Y-124427689D01*
X127242040Y-124541121D01*
X127236979Y-124548739D01*
X127231802Y-124556299D01*
X127231132Y-124557539D01*
X127162412Y-124686780D01*
X127158927Y-124695236D01*
X127155318Y-124703658D01*
X127154901Y-124705005D01*
X127112595Y-124845132D01*
X127110816Y-124854115D01*
X127108914Y-124863065D01*
X127108766Y-124864468D01*
X127104341Y-124909598D01*
X127098660Y-124914260D01*
X127089208Y-124925777D01*
X127082185Y-124938916D01*
X127077860Y-124953173D01*
X127076402Y-124968608D01*
X127094000Y-127168410D01*
X127094000Y-128067000D01*
X126524505Y-128067000D01*
X126524505Y-125720000D01*
X126520095Y-125675226D01*
X126507035Y-125632172D01*
X126485826Y-125592494D01*
X126457285Y-125557715D01*
X126422506Y-125529174D01*
X126382828Y-125507965D01*
X126339774Y-125494905D01*
X126295000Y-125490495D01*
X125695000Y-125490495D01*
X125650226Y-125494905D01*
X125607172Y-125507965D01*
X125595000Y-125514471D01*
X125582828Y-125507965D01*
X125539774Y-125494905D01*
X125495000Y-125490495D01*
X124895000Y-125490495D01*
X124850226Y-125494905D01*
X124807172Y-125507965D01*
X124795000Y-125514471D01*
X124782828Y-125507965D01*
X124739774Y-125494905D01*
X124695000Y-125490495D01*
X124095000Y-125490495D01*
X124050226Y-125494905D01*
X124007172Y-125507965D01*
X123995000Y-125514471D01*
X123982828Y-125507965D01*
X123939774Y-125494905D01*
X123895000Y-125490495D01*
X123295000Y-125490495D01*
X123250226Y-125494905D01*
X123207172Y-125507965D01*
X123195000Y-125514471D01*
X123182828Y-125507965D01*
X123139774Y-125494905D01*
X123095000Y-125490495D01*
X122495000Y-125490495D01*
X122450226Y-125494905D01*
X122407172Y-125507965D01*
X122395000Y-125514471D01*
X122382828Y-125507965D01*
X122339774Y-125494905D01*
X122295000Y-125490495D01*
X121968752Y-125490495D01*
X121934469Y-125426356D01*
X121868738Y-125346262D01*
X121788644Y-125280531D01*
X121697265Y-125231688D01*
X121598114Y-125201611D01*
X121495000Y-125191455D01*
X121475500Y-125194000D01*
X121344000Y-125325500D01*
X121344000Y-126746000D01*
X121364000Y-126746000D01*
X121364000Y-127044000D01*
X121344000Y-127044000D01*
X121344000Y-127064000D01*
X121046000Y-127064000D01*
X121046000Y-127044000D01*
X121026000Y-127044000D01*
X121026000Y-126746000D01*
X121046000Y-126746000D01*
X121046000Y-125325500D01*
X120914500Y-125194000D01*
X120895000Y-125191455D01*
X120791886Y-125201611D01*
X120750400Y-125214196D01*
X120750400Y-124181400D01*
X124441555Y-124181400D01*
X124459000Y-124183118D01*
X124476445Y-124181400D01*
X124476453Y-124181400D01*
X124528670Y-124176257D01*
X124595664Y-124155935D01*
X124657405Y-124122934D01*
X124711521Y-124078521D01*
X124722653Y-124064957D01*
X127238973Y-121548639D01*
X127252520Y-121537521D01*
X127263640Y-121523972D01*
X127263647Y-121523965D01*
X127282712Y-121500734D01*
X127296934Y-121483405D01*
X127329935Y-121421664D01*
X127350257Y-121354670D01*
X127355400Y-121302453D01*
X127355400Y-121302446D01*
X127357118Y-121285000D01*
X127355400Y-121267555D01*
X127355400Y-112779957D01*
X128884600Y-112779957D01*
X128884600Y-112884043D01*
X128904906Y-112986129D01*
X128944738Y-113082291D01*
X129002565Y-113168836D01*
X129076164Y-113242435D01*
X129138371Y-113284000D01*
X129076164Y-113325565D01*
X129002565Y-113399164D01*
X128944738Y-113485709D01*
X128904906Y-113581871D01*
X128884600Y-113683957D01*
X128884600Y-113788043D01*
X128904906Y-113890129D01*
X128944738Y-113986291D01*
X129002565Y-114072836D01*
X129076164Y-114146435D01*
X129162709Y-114204262D01*
X129258871Y-114244094D01*
X129360957Y-114264400D01*
X129465043Y-114264400D01*
X129567129Y-114244094D01*
X129663291Y-114204262D01*
X129749836Y-114146435D01*
X129823435Y-114072836D01*
X129881262Y-113986291D01*
X129921094Y-113890129D01*
X129935521Y-113817600D01*
X130117495Y-113817600D01*
X130117495Y-114302250D01*
X130126108Y-114389700D01*
X130151616Y-114473790D01*
X130193040Y-114551287D01*
X130248786Y-114619214D01*
X130316713Y-114674960D01*
X130394210Y-114716384D01*
X130478300Y-114741892D01*
X130565750Y-114750505D01*
X131003250Y-114750505D01*
X131090700Y-114741892D01*
X131174790Y-114716384D01*
X131252287Y-114674960D01*
X131320214Y-114619214D01*
X131375960Y-114551287D01*
X131417384Y-114473790D01*
X131442892Y-114389700D01*
X131451505Y-114302250D01*
X131451505Y-113789750D01*
X131442892Y-113702300D01*
X131417384Y-113618210D01*
X131375960Y-113540713D01*
X131320214Y-113472786D01*
X131252287Y-113417040D01*
X131174790Y-113375616D01*
X131090700Y-113350108D01*
X131003250Y-113341495D01*
X130565750Y-113341495D01*
X130515239Y-113346470D01*
X130476959Y-113308190D01*
X130467426Y-113296574D01*
X130452105Y-113284000D01*
X130455809Y-113280960D01*
X130455810Y-113280959D01*
X130467426Y-113271426D01*
X130476959Y-113259810D01*
X130515239Y-113221530D01*
X130565750Y-113226505D01*
X131003250Y-113226505D01*
X131090700Y-113217892D01*
X131174790Y-113192384D01*
X131252287Y-113150960D01*
X131320214Y-113095214D01*
X131375960Y-113027287D01*
X131417384Y-112949790D01*
X131442892Y-112865700D01*
X131451505Y-112778250D01*
X131451505Y-112265750D01*
X131442892Y-112178300D01*
X131417384Y-112094210D01*
X131375960Y-112016713D01*
X131320214Y-111948786D01*
X131252287Y-111893040D01*
X131174790Y-111851616D01*
X131090700Y-111826108D01*
X131003250Y-111817495D01*
X130565750Y-111817495D01*
X130478300Y-111826108D01*
X130394210Y-111851616D01*
X130316713Y-111893040D01*
X130248786Y-111948786D01*
X130193040Y-112016713D01*
X130151616Y-112094210D01*
X130126108Y-112178300D01*
X130117495Y-112265750D01*
X130117495Y-112750400D01*
X129935521Y-112750400D01*
X129921094Y-112677871D01*
X129881262Y-112581709D01*
X129823435Y-112495164D01*
X129749836Y-112421565D01*
X129663291Y-112363738D01*
X129567129Y-112323906D01*
X129465043Y-112303600D01*
X129360957Y-112303600D01*
X129258871Y-112323906D01*
X129162709Y-112363738D01*
X129076164Y-112421565D01*
X129002565Y-112495164D01*
X128944738Y-112581709D01*
X128904906Y-112677871D01*
X128884600Y-112779957D01*
X127355400Y-112779957D01*
X127355400Y-108935010D01*
X129200152Y-110779763D01*
G37*
X129200152Y-110779763D02*
X129211279Y-110793321D01*
X129265395Y-110837734D01*
X129327136Y-110870735D01*
X129394129Y-110891057D01*
X129401023Y-110891736D01*
X129446347Y-110896200D01*
X129446354Y-110896200D01*
X129463799Y-110897918D01*
X129481245Y-110896200D01*
X131586529Y-110896200D01*
X131641564Y-110951235D01*
X131728109Y-111009062D01*
X131824271Y-111048894D01*
X131926357Y-111069200D01*
X132004190Y-111069200D01*
X132831428Y-111896439D01*
X132827287Y-111893040D01*
X132749790Y-111851616D01*
X132665700Y-111826108D01*
X132578250Y-111817495D01*
X132140750Y-111817495D01*
X132053300Y-111826108D01*
X131969210Y-111851616D01*
X131891713Y-111893040D01*
X131823786Y-111948786D01*
X131768040Y-112016713D01*
X131726616Y-112094210D01*
X131701108Y-112178300D01*
X131692495Y-112265750D01*
X131692495Y-112778250D01*
X131701108Y-112865700D01*
X131726616Y-112949790D01*
X131768040Y-113027287D01*
X131823786Y-113095214D01*
X131891713Y-113150960D01*
X131969210Y-113192384D01*
X132053300Y-113217892D01*
X132140750Y-113226505D01*
X132578250Y-113226505D01*
X132626835Y-113221720D01*
X132628974Y-113224326D01*
X132640590Y-113233859D01*
X132641096Y-113234275D01*
X132819606Y-113412934D01*
X132749790Y-113375616D01*
X132665700Y-113350108D01*
X132578250Y-113341495D01*
X132140750Y-113341495D01*
X132053300Y-113350108D01*
X131969210Y-113375616D01*
X131891713Y-113417040D01*
X131823786Y-113472786D01*
X131768040Y-113540713D01*
X131726616Y-113618210D01*
X131701108Y-113702300D01*
X131692495Y-113789750D01*
X131692495Y-114302250D01*
X131701108Y-114389700D01*
X131726616Y-114473790D01*
X131768040Y-114551287D01*
X131823786Y-114619214D01*
X131891713Y-114674960D01*
X131969210Y-114716384D01*
X132053300Y-114741892D01*
X132140750Y-114750505D01*
X132578250Y-114750505D01*
X132665700Y-114741892D01*
X132749790Y-114716384D01*
X132827287Y-114674960D01*
X132895214Y-114619214D01*
X132950960Y-114551287D01*
X132992384Y-114473790D01*
X133017892Y-114389700D01*
X133021743Y-114350600D01*
X133110831Y-114350600D01*
X137061401Y-118301171D01*
X137061400Y-124834831D01*
X136990186Y-124906045D01*
X136978575Y-124915574D01*
X136969046Y-124927185D01*
X136969040Y-124927191D01*
X136940510Y-124961955D01*
X136919909Y-125000497D01*
X136912226Y-125014871D01*
X136894809Y-125072288D01*
X136891097Y-125109975D01*
X136888928Y-125132000D01*
X136890401Y-125146956D01*
X136890401Y-125229606D01*
X136798114Y-125201611D01*
X136695000Y-125191455D01*
X136675500Y-125194000D01*
X136544000Y-125325500D01*
X136544000Y-126746000D01*
X136564000Y-126746000D01*
X136564000Y-127044000D01*
X136544000Y-127044000D01*
X136544000Y-127064000D01*
X136246000Y-127064000D01*
X136246000Y-127044000D01*
X136226000Y-127044000D01*
X136226000Y-126746000D01*
X136246000Y-126746000D01*
X136246000Y-125325500D01*
X136114500Y-125194000D01*
X136095000Y-125191455D01*
X135991886Y-125201611D01*
X135892735Y-125231688D01*
X135801356Y-125280531D01*
X135721262Y-125346262D01*
X135655531Y-125426356D01*
X135621248Y-125490495D01*
X135295000Y-125490495D01*
X135250226Y-125494905D01*
X135207172Y-125507965D01*
X135195000Y-125514471D01*
X135182828Y-125507965D01*
X135139774Y-125494905D01*
X135095000Y-125490495D01*
X134495000Y-125490495D01*
X134450226Y-125494905D01*
X134407172Y-125507965D01*
X134395000Y-125514471D01*
X134382828Y-125507965D01*
X134339774Y-125494905D01*
X134295000Y-125490495D01*
X133968752Y-125490495D01*
X133934469Y-125426356D01*
X133868738Y-125346262D01*
X133788644Y-125280531D01*
X133697265Y-125231688D01*
X133598114Y-125201611D01*
X133495000Y-125191455D01*
X133475500Y-125194000D01*
X133344000Y-125325500D01*
X133344000Y-126746000D01*
X133364000Y-126746000D01*
X133364000Y-127044000D01*
X133344000Y-127044000D01*
X133344000Y-127064000D01*
X133046000Y-127064000D01*
X133046000Y-127044000D01*
X133026000Y-127044000D01*
X133026000Y-126746000D01*
X133046000Y-126746000D01*
X133046000Y-125325500D01*
X132914500Y-125194000D01*
X132895000Y-125191455D01*
X132791886Y-125201611D01*
X132750400Y-125214196D01*
X132750400Y-116193245D01*
X132752118Y-116175799D01*
X132750400Y-116158354D01*
X132750400Y-116158347D01*
X132745257Y-116106130D01*
X132724935Y-116039136D01*
X132691934Y-115977395D01*
X132647521Y-115923279D01*
X132633962Y-115912152D01*
X132385600Y-115663789D01*
X132385600Y-115585957D01*
X132365294Y-115483871D01*
X132325462Y-115387709D01*
X132267635Y-115301164D01*
X132194036Y-115227565D01*
X132107491Y-115169738D01*
X132011329Y-115129906D01*
X131909243Y-115109600D01*
X131805157Y-115109600D01*
X131703071Y-115129906D01*
X131606909Y-115169738D01*
X131520364Y-115227565D01*
X131446765Y-115301164D01*
X131388938Y-115387709D01*
X131349106Y-115483871D01*
X131335594Y-115551803D01*
X131306435Y-115508164D01*
X131232836Y-115434565D01*
X131146291Y-115376738D01*
X131050129Y-115336906D01*
X130948043Y-115316600D01*
X130843957Y-115316600D01*
X130741871Y-115336906D01*
X130645709Y-115376738D01*
X130559164Y-115434565D01*
X130485565Y-115508164D01*
X130427738Y-115594709D01*
X130387906Y-115690871D01*
X130367600Y-115792957D01*
X130367600Y-115897043D01*
X130387906Y-115999129D01*
X130427738Y-116095291D01*
X130485565Y-116181836D01*
X130559164Y-116255435D01*
X130645709Y-116313262D01*
X130741871Y-116353094D01*
X130843957Y-116373400D01*
X130948043Y-116373400D01*
X130986067Y-116365837D01*
X131290400Y-116670170D01*
X131290401Y-125490948D01*
X131250226Y-125494905D01*
X131207172Y-125507965D01*
X131195000Y-125514471D01*
X131182828Y-125507965D01*
X131139774Y-125494905D01*
X131095000Y-125490495D01*
X130768752Y-125490495D01*
X130734469Y-125426356D01*
X130668738Y-125346262D01*
X130588644Y-125280531D01*
X130497265Y-125231688D01*
X130398114Y-125201611D01*
X130295000Y-125191455D01*
X130275500Y-125194000D01*
X130144000Y-125325500D01*
X130144000Y-126746000D01*
X130164000Y-126746000D01*
X130164000Y-127044000D01*
X130144000Y-127044000D01*
X130144000Y-127064000D01*
X129846000Y-127064000D01*
X129846000Y-127044000D01*
X129300500Y-127044000D01*
X129169000Y-127175500D01*
X129166464Y-128067000D01*
X128796000Y-128067000D01*
X128796000Y-125720000D01*
X129166455Y-125720000D01*
X129169000Y-126614500D01*
X129300500Y-126746000D01*
X129846000Y-126746000D01*
X129846000Y-125325500D01*
X129714500Y-125194000D01*
X129695000Y-125191455D01*
X129591886Y-125201611D01*
X129492735Y-125231688D01*
X129401356Y-125280531D01*
X129321262Y-125346262D01*
X129255531Y-125426356D01*
X129206688Y-125517735D01*
X129176611Y-125616886D01*
X129166455Y-125720000D01*
X128796000Y-125720000D01*
X128796000Y-125015045D01*
X128795966Y-125014699D01*
X128795925Y-125008824D01*
X128795445Y-125004258D01*
X128795445Y-124999672D01*
X128795298Y-124998270D01*
X128778982Y-124852808D01*
X128777064Y-124843784D01*
X128775300Y-124834874D01*
X128774883Y-124833527D01*
X128730624Y-124694005D01*
X128727023Y-124685605D01*
X128723529Y-124677127D01*
X128722859Y-124675887D01*
X128652342Y-124547618D01*
X128647171Y-124540067D01*
X128642105Y-124532441D01*
X128641206Y-124531354D01*
X128547119Y-124419224D01*
X128540562Y-124412803D01*
X128534127Y-124406323D01*
X128533035Y-124405432D01*
X128418958Y-124313713D01*
X128411289Y-124308695D01*
X128403710Y-124303583D01*
X128402468Y-124302922D01*
X128402460Y-124302918D01*
X128272748Y-124235106D01*
X128264294Y-124231691D01*
X128255821Y-124228129D01*
X128254471Y-124227721D01*
X128114052Y-124186394D01*
X128105070Y-124184681D01*
X128096093Y-124182838D01*
X128094690Y-124182701D01*
X127948918Y-124169434D01*
X127939797Y-124169498D01*
X127930609Y-124169434D01*
X127929206Y-124169571D01*
X127783634Y-124184872D01*
X127774682Y-124186710D01*
X127765676Y-124188428D01*
X127764326Y-124188836D01*
X127624497Y-124232120D01*
X127616080Y-124235658D01*
X127607570Y-124239097D01*
X127606325Y-124239759D01*
X127477567Y-124309377D01*
X127469990Y-124314488D01*
X127462318Y-124319509D01*
X127461225Y-124320400D01*
X127348442Y-124413702D01*
X127342005Y-124420185D01*
X127335451Y-124426603D01*
X127334552Y-124427689D01*
X127242040Y-124541121D01*
X127236979Y-124548739D01*
X127231802Y-124556299D01*
X127231132Y-124557539D01*
X127162412Y-124686780D01*
X127158927Y-124695236D01*
X127155318Y-124703658D01*
X127154901Y-124705005D01*
X127112595Y-124845132D01*
X127110816Y-124854115D01*
X127108914Y-124863065D01*
X127108766Y-124864468D01*
X127104341Y-124909598D01*
X127098660Y-124914260D01*
X127089208Y-124925777D01*
X127082185Y-124938916D01*
X127077860Y-124953173D01*
X127076402Y-124968608D01*
X127094000Y-127168410D01*
X127094000Y-128067000D01*
X126524505Y-128067000D01*
X126524505Y-125720000D01*
X126520095Y-125675226D01*
X126507035Y-125632172D01*
X126485826Y-125592494D01*
X126457285Y-125557715D01*
X126422506Y-125529174D01*
X126382828Y-125507965D01*
X126339774Y-125494905D01*
X126295000Y-125490495D01*
X125695000Y-125490495D01*
X125650226Y-125494905D01*
X125607172Y-125507965D01*
X125595000Y-125514471D01*
X125582828Y-125507965D01*
X125539774Y-125494905D01*
X125495000Y-125490495D01*
X124895000Y-125490495D01*
X124850226Y-125494905D01*
X124807172Y-125507965D01*
X124795000Y-125514471D01*
X124782828Y-125507965D01*
X124739774Y-125494905D01*
X124695000Y-125490495D01*
X124095000Y-125490495D01*
X124050226Y-125494905D01*
X124007172Y-125507965D01*
X123995000Y-125514471D01*
X123982828Y-125507965D01*
X123939774Y-125494905D01*
X123895000Y-125490495D01*
X123295000Y-125490495D01*
X123250226Y-125494905D01*
X123207172Y-125507965D01*
X123195000Y-125514471D01*
X123182828Y-125507965D01*
X123139774Y-125494905D01*
X123095000Y-125490495D01*
X122495000Y-125490495D01*
X122450226Y-125494905D01*
X122407172Y-125507965D01*
X122395000Y-125514471D01*
X122382828Y-125507965D01*
X122339774Y-125494905D01*
X122295000Y-125490495D01*
X121968752Y-125490495D01*
X121934469Y-125426356D01*
X121868738Y-125346262D01*
X121788644Y-125280531D01*
X121697265Y-125231688D01*
X121598114Y-125201611D01*
X121495000Y-125191455D01*
X121475500Y-125194000D01*
X121344000Y-125325500D01*
X121344000Y-126746000D01*
X121364000Y-126746000D01*
X121364000Y-127044000D01*
X121344000Y-127044000D01*
X121344000Y-127064000D01*
X121046000Y-127064000D01*
X121046000Y-127044000D01*
X121026000Y-127044000D01*
X121026000Y-126746000D01*
X121046000Y-126746000D01*
X121046000Y-125325500D01*
X120914500Y-125194000D01*
X120895000Y-125191455D01*
X120791886Y-125201611D01*
X120750400Y-125214196D01*
X120750400Y-124181400D01*
X124441555Y-124181400D01*
X124459000Y-124183118D01*
X124476445Y-124181400D01*
X124476453Y-124181400D01*
X124528670Y-124176257D01*
X124595664Y-124155935D01*
X124657405Y-124122934D01*
X124711521Y-124078521D01*
X124722653Y-124064957D01*
X127238973Y-121548639D01*
X127252520Y-121537521D01*
X127263640Y-121523972D01*
X127263647Y-121523965D01*
X127282712Y-121500734D01*
X127296934Y-121483405D01*
X127329935Y-121421664D01*
X127350257Y-121354670D01*
X127355400Y-121302453D01*
X127355400Y-121302446D01*
X127357118Y-121285000D01*
X127355400Y-121267555D01*
X127355400Y-112779957D01*
X128884600Y-112779957D01*
X128884600Y-112884043D01*
X128904906Y-112986129D01*
X128944738Y-113082291D01*
X129002565Y-113168836D01*
X129076164Y-113242435D01*
X129138371Y-113284000D01*
X129076164Y-113325565D01*
X129002565Y-113399164D01*
X128944738Y-113485709D01*
X128904906Y-113581871D01*
X128884600Y-113683957D01*
X128884600Y-113788043D01*
X128904906Y-113890129D01*
X128944738Y-113986291D01*
X129002565Y-114072836D01*
X129076164Y-114146435D01*
X129162709Y-114204262D01*
X129258871Y-114244094D01*
X129360957Y-114264400D01*
X129465043Y-114264400D01*
X129567129Y-114244094D01*
X129663291Y-114204262D01*
X129749836Y-114146435D01*
X129823435Y-114072836D01*
X129881262Y-113986291D01*
X129921094Y-113890129D01*
X129935521Y-113817600D01*
X130117495Y-113817600D01*
X130117495Y-114302250D01*
X130126108Y-114389700D01*
X130151616Y-114473790D01*
X130193040Y-114551287D01*
X130248786Y-114619214D01*
X130316713Y-114674960D01*
X130394210Y-114716384D01*
X130478300Y-114741892D01*
X130565750Y-114750505D01*
X131003250Y-114750505D01*
X131090700Y-114741892D01*
X131174790Y-114716384D01*
X131252287Y-114674960D01*
X131320214Y-114619214D01*
X131375960Y-114551287D01*
X131417384Y-114473790D01*
X131442892Y-114389700D01*
X131451505Y-114302250D01*
X131451505Y-113789750D01*
X131442892Y-113702300D01*
X131417384Y-113618210D01*
X131375960Y-113540713D01*
X131320214Y-113472786D01*
X131252287Y-113417040D01*
X131174790Y-113375616D01*
X131090700Y-113350108D01*
X131003250Y-113341495D01*
X130565750Y-113341495D01*
X130515239Y-113346470D01*
X130476959Y-113308190D01*
X130467426Y-113296574D01*
X130452105Y-113284000D01*
X130455809Y-113280960D01*
X130455810Y-113280959D01*
X130467426Y-113271426D01*
X130476959Y-113259810D01*
X130515239Y-113221530D01*
X130565750Y-113226505D01*
X131003250Y-113226505D01*
X131090700Y-113217892D01*
X131174790Y-113192384D01*
X131252287Y-113150960D01*
X131320214Y-113095214D01*
X131375960Y-113027287D01*
X131417384Y-112949790D01*
X131442892Y-112865700D01*
X131451505Y-112778250D01*
X131451505Y-112265750D01*
X131442892Y-112178300D01*
X131417384Y-112094210D01*
X131375960Y-112016713D01*
X131320214Y-111948786D01*
X131252287Y-111893040D01*
X131174790Y-111851616D01*
X131090700Y-111826108D01*
X131003250Y-111817495D01*
X130565750Y-111817495D01*
X130478300Y-111826108D01*
X130394210Y-111851616D01*
X130316713Y-111893040D01*
X130248786Y-111948786D01*
X130193040Y-112016713D01*
X130151616Y-112094210D01*
X130126108Y-112178300D01*
X130117495Y-112265750D01*
X130117495Y-112750400D01*
X129935521Y-112750400D01*
X129921094Y-112677871D01*
X129881262Y-112581709D01*
X129823435Y-112495164D01*
X129749836Y-112421565D01*
X129663291Y-112363738D01*
X129567129Y-112323906D01*
X129465043Y-112303600D01*
X129360957Y-112303600D01*
X129258871Y-112323906D01*
X129162709Y-112363738D01*
X129076164Y-112421565D01*
X129002565Y-112495164D01*
X128944738Y-112581709D01*
X128904906Y-112677871D01*
X128884600Y-112779957D01*
X127355400Y-112779957D01*
X127355400Y-108935010D01*
X129200152Y-110779763D01*
G36*
X138430200Y-117495212D02*
G01*
X138430201Y-119768945D01*
X138428482Y-119786400D01*
X138430201Y-119803853D01*
X138430200Y-123966529D01*
X138375165Y-124021564D01*
X138317338Y-124108109D01*
X138277506Y-124204271D01*
X138257200Y-124306357D01*
X138257200Y-124410443D01*
X138277506Y-124512529D01*
X138317338Y-124608691D01*
X138375165Y-124695236D01*
X138448764Y-124768835D01*
X138535309Y-124826662D01*
X138631471Y-124866494D01*
X138733557Y-124886800D01*
X138837643Y-124886800D01*
X138939729Y-124866494D01*
X139035891Y-124826662D01*
X139122436Y-124768835D01*
X139196035Y-124695236D01*
X139253862Y-124608691D01*
X139293694Y-124512529D01*
X139314000Y-124410443D01*
X139314000Y-124306357D01*
X139293694Y-124204271D01*
X139253862Y-124108109D01*
X139196035Y-124021564D01*
X139141000Y-123966529D01*
X139141000Y-120138500D01*
X144896129Y-120138500D01*
X144932601Y-120174972D01*
X144932600Y-123625788D01*
X143356038Y-125202352D01*
X143342480Y-125213479D01*
X143318306Y-125242935D01*
X143297265Y-125231688D01*
X143198114Y-125201611D01*
X143095000Y-125191455D01*
X143075500Y-125194000D01*
X142944000Y-125325500D01*
X142944000Y-126746000D01*
X142964000Y-126746000D01*
X142964000Y-127044000D01*
X142944000Y-127044000D01*
X142944000Y-127064000D01*
X142646000Y-127064000D01*
X142646000Y-127044000D01*
X142626000Y-127044000D01*
X142626000Y-126746000D01*
X142646000Y-126746000D01*
X142646000Y-125325500D01*
X142514500Y-125194000D01*
X142495000Y-125191455D01*
X142391886Y-125201611D01*
X142292735Y-125231688D01*
X142201356Y-125280531D01*
X142121262Y-125346262D01*
X142055531Y-125426356D01*
X142021248Y-125490495D01*
X141695000Y-125490495D01*
X141650226Y-125494905D01*
X141607172Y-125507965D01*
X141595000Y-125514471D01*
X141582828Y-125507965D01*
X141539774Y-125494905D01*
X141495000Y-125490495D01*
X140895000Y-125490495D01*
X140850226Y-125494905D01*
X140807172Y-125507965D01*
X140795000Y-125514471D01*
X140782828Y-125507965D01*
X140739774Y-125494905D01*
X140699600Y-125490948D01*
X140699600Y-124699599D01*
X140748036Y-124667235D01*
X140821635Y-124593636D01*
X140879462Y-124507091D01*
X140919294Y-124410929D01*
X140939600Y-124308843D01*
X140939600Y-124204757D01*
X140919294Y-124102671D01*
X140879462Y-124006509D01*
X140821635Y-123919964D01*
X140748036Y-123846365D01*
X140661491Y-123788538D01*
X140565329Y-123748706D01*
X140463243Y-123728400D01*
X140359157Y-123728400D01*
X140257071Y-123748706D01*
X140160909Y-123788538D01*
X140074364Y-123846365D01*
X140000765Y-123919964D01*
X139942938Y-124006509D01*
X139903106Y-124102671D01*
X139882800Y-124204757D01*
X139882800Y-124308843D01*
X139903106Y-124410929D01*
X139942938Y-124507091D01*
X140000765Y-124593636D01*
X140074364Y-124667235D01*
X140090401Y-124677950D01*
X140090401Y-125490948D01*
X140050226Y-125494905D01*
X140007172Y-125507965D01*
X139995000Y-125514471D01*
X139982828Y-125507965D01*
X139939774Y-125494905D01*
X139895000Y-125490495D01*
X139568752Y-125490495D01*
X139534469Y-125426356D01*
X139468738Y-125346262D01*
X139388644Y-125280531D01*
X139297265Y-125231688D01*
X139198114Y-125201611D01*
X139095000Y-125191455D01*
X139075500Y-125194000D01*
X138944000Y-125325500D01*
X138944000Y-126746000D01*
X138964000Y-126746000D01*
X138964000Y-127044000D01*
X138944000Y-127044000D01*
X138944000Y-127064000D01*
X138646000Y-127064000D01*
X138646000Y-127044000D01*
X138626000Y-127044000D01*
X138626000Y-126746000D01*
X138646000Y-126746000D01*
X138646000Y-125325500D01*
X138514500Y-125194000D01*
X138495000Y-125191455D01*
X138391886Y-125201611D01*
X138299600Y-125229606D01*
X138299600Y-125146946D01*
X138301072Y-125132000D01*
X138299600Y-125117054D01*
X138299600Y-125117044D01*
X138295192Y-125072288D01*
X138279545Y-125020706D01*
X138277775Y-125014870D01*
X138249490Y-124961955D01*
X138241397Y-124952094D01*
X138211426Y-124915574D01*
X138199805Y-124906037D01*
X138128600Y-124834832D01*
X138128600Y-118000928D01*
X138130072Y-117985964D01*
X138127966Y-117964606D01*
X138124192Y-117926288D01*
X138124185Y-117926266D01*
X138124184Y-117926253D01*
X138116950Y-117902415D01*
X138106775Y-117868871D01*
X138106766Y-117868855D01*
X138106761Y-117868837D01*
X138092251Y-117841699D01*
X138078490Y-117815955D01*
X138078479Y-117815941D01*
X138078470Y-117815925D01*
X138057582Y-117790479D01*
X138040426Y-117769574D01*
X138028799Y-117760032D01*
X133776738Y-113508969D01*
X133071499Y-112803139D01*
X133061926Y-112791474D01*
X133050357Y-112781979D01*
X133026505Y-112758108D01*
X133026505Y-112265750D01*
X133017892Y-112178300D01*
X132992384Y-112094210D01*
X132950960Y-112016713D01*
X132947561Y-112012572D01*
X138430200Y-117495212D01*
G37*
X138430200Y-117495212D02*
X138430201Y-119768945D01*
X138428482Y-119786400D01*
X138430201Y-119803853D01*
X138430200Y-123966529D01*
X138375165Y-124021564D01*
X138317338Y-124108109D01*
X138277506Y-124204271D01*
X138257200Y-124306357D01*
X138257200Y-124410443D01*
X138277506Y-124512529D01*
X138317338Y-124608691D01*
X138375165Y-124695236D01*
X138448764Y-124768835D01*
X138535309Y-124826662D01*
X138631471Y-124866494D01*
X138733557Y-124886800D01*
X138837643Y-124886800D01*
X138939729Y-124866494D01*
X139035891Y-124826662D01*
X139122436Y-124768835D01*
X139196035Y-124695236D01*
X139253862Y-124608691D01*
X139293694Y-124512529D01*
X139314000Y-124410443D01*
X139314000Y-124306357D01*
X139293694Y-124204271D01*
X139253862Y-124108109D01*
X139196035Y-124021564D01*
X139141000Y-123966529D01*
X139141000Y-120138500D01*
X144896129Y-120138500D01*
X144932601Y-120174972D01*
X144932600Y-123625788D01*
X143356038Y-125202352D01*
X143342480Y-125213479D01*
X143318306Y-125242935D01*
X143297265Y-125231688D01*
X143198114Y-125201611D01*
X143095000Y-125191455D01*
X143075500Y-125194000D01*
X142944000Y-125325500D01*
X142944000Y-126746000D01*
X142964000Y-126746000D01*
X142964000Y-127044000D01*
X142944000Y-127044000D01*
X142944000Y-127064000D01*
X142646000Y-127064000D01*
X142646000Y-127044000D01*
X142626000Y-127044000D01*
X142626000Y-126746000D01*
X142646000Y-126746000D01*
X142646000Y-125325500D01*
X142514500Y-125194000D01*
X142495000Y-125191455D01*
X142391886Y-125201611D01*
X142292735Y-125231688D01*
X142201356Y-125280531D01*
X142121262Y-125346262D01*
X142055531Y-125426356D01*
X142021248Y-125490495D01*
X141695000Y-125490495D01*
X141650226Y-125494905D01*
X141607172Y-125507965D01*
X141595000Y-125514471D01*
X141582828Y-125507965D01*
X141539774Y-125494905D01*
X141495000Y-125490495D01*
X140895000Y-125490495D01*
X140850226Y-125494905D01*
X140807172Y-125507965D01*
X140795000Y-125514471D01*
X140782828Y-125507965D01*
X140739774Y-125494905D01*
X140699600Y-125490948D01*
X140699600Y-124699599D01*
X140748036Y-124667235D01*
X140821635Y-124593636D01*
X140879462Y-124507091D01*
X140919294Y-124410929D01*
X140939600Y-124308843D01*
X140939600Y-124204757D01*
X140919294Y-124102671D01*
X140879462Y-124006509D01*
X140821635Y-123919964D01*
X140748036Y-123846365D01*
X140661491Y-123788538D01*
X140565329Y-123748706D01*
X140463243Y-123728400D01*
X140359157Y-123728400D01*
X140257071Y-123748706D01*
X140160909Y-123788538D01*
X140074364Y-123846365D01*
X140000765Y-123919964D01*
X139942938Y-124006509D01*
X139903106Y-124102671D01*
X139882800Y-124204757D01*
X139882800Y-124308843D01*
X139903106Y-124410929D01*
X139942938Y-124507091D01*
X140000765Y-124593636D01*
X140074364Y-124667235D01*
X140090401Y-124677950D01*
X140090401Y-125490948D01*
X140050226Y-125494905D01*
X140007172Y-125507965D01*
X139995000Y-125514471D01*
X139982828Y-125507965D01*
X139939774Y-125494905D01*
X139895000Y-125490495D01*
X139568752Y-125490495D01*
X139534469Y-125426356D01*
X139468738Y-125346262D01*
X139388644Y-125280531D01*
X139297265Y-125231688D01*
X139198114Y-125201611D01*
X139095000Y-125191455D01*
X139075500Y-125194000D01*
X138944000Y-125325500D01*
X138944000Y-126746000D01*
X138964000Y-126746000D01*
X138964000Y-127044000D01*
X138944000Y-127044000D01*
X138944000Y-127064000D01*
X138646000Y-127064000D01*
X138646000Y-127044000D01*
X138626000Y-127044000D01*
X138626000Y-126746000D01*
X138646000Y-126746000D01*
X138646000Y-125325500D01*
X138514500Y-125194000D01*
X138495000Y-125191455D01*
X138391886Y-125201611D01*
X138299600Y-125229606D01*
X138299600Y-125146946D01*
X138301072Y-125132000D01*
X138299600Y-125117054D01*
X138299600Y-125117044D01*
X138295192Y-125072288D01*
X138279545Y-125020706D01*
X138277775Y-125014870D01*
X138249490Y-124961955D01*
X138241397Y-124952094D01*
X138211426Y-124915574D01*
X138199805Y-124906037D01*
X138128600Y-124834832D01*
X138128600Y-118000928D01*
X138130072Y-117985964D01*
X138127966Y-117964606D01*
X138124192Y-117926288D01*
X138124185Y-117926266D01*
X138124184Y-117926253D01*
X138116950Y-117902415D01*
X138106775Y-117868871D01*
X138106766Y-117868855D01*
X138106761Y-117868837D01*
X138092251Y-117841699D01*
X138078490Y-117815955D01*
X138078479Y-117815941D01*
X138078470Y-117815925D01*
X138057582Y-117790479D01*
X138040426Y-117769574D01*
X138028799Y-117760032D01*
X133776738Y-113508969D01*
X133071499Y-112803139D01*
X133061926Y-112791474D01*
X133050357Y-112781979D01*
X133026505Y-112758108D01*
X133026505Y-112265750D01*
X133017892Y-112178300D01*
X132992384Y-112094210D01*
X132950960Y-112016713D01*
X132947561Y-112012572D01*
X138430200Y-117495212D01*
M02*
