M48
INCH,TZ
T1C0.0118
%
G90
G05
T1
X47500Y-33750
X47500Y-35000
X47500Y-36250
X47500Y-37500
X47500Y-38750
X48750Y-33750
X50000Y-33750
X50000Y-35000
X50000Y-36250
X50000Y-38750
X50000Y-40000
X50000Y-41250
X50000Y-42550
X50950Y-44422
X50950Y-44778
X51003Y-42803
X51250Y-33750
X51250Y-35000
X51250Y-36250
X51250Y-37500
X51250Y-40000
X51250Y-41250
X51534Y-45608
X51912Y-45527
X51960Y-43520
X52500Y-33750
X52500Y-35000
X52500Y-36250
X52500Y-37500
X52500Y-38750
X52500Y-40000
X52500Y-41250
X53750Y-36250
X53750Y-37500
X53750Y-38750
X53750Y-40000
X53750Y-41250
X54340Y-44450
X54640Y-48960
X55000Y-33750
X55000Y-41250
X55280Y-48920
X56250Y-33750
X56250Y-35000
X56250Y-36250
X56250Y-37500
X56250Y-38750
X56250Y-40000
X56250Y-41250
X57200Y-47159
T0
M30
