G04 #@! TF.GenerationSoftware,KiCad,Pcbnew,(5.1.6)-1*
G04 #@! TF.CreationDate,2021-01-10T11:39:08+11:00*
G04 #@! TF.ProjectId,mPCIe-GNSS,6d504349-652d-4474-9e53-532e6b696361,1*
G04 #@! TF.SameCoordinates,Original*
G04 #@! TF.FileFunction,Soldermask,Top*
G04 #@! TF.FilePolarity,Negative*
%FSLAX46Y46*%
G04 Gerber Fmt 4.6, Leading zero omitted, Abs format (unit mm)*
G04 Created by KiCad (PCBNEW (5.1.6)-1) date 2021-01-10 11:39:08*
%MOMM*%
%LPD*%
G01*
G04 APERTURE LIST*
%ADD10C,0.100000*%
%ADD11O,2.600000X1.100000*%
%ADD12R,0.910000X0.450000*%
%ADD13R,1.150000X2.300000*%
%ADD14R,1.100000X1.150000*%
%ADD15R,0.700000X2.450000*%
%ADD16O,0.350000X0.950000*%
%ADD17R,2.650000X1.750000*%
%ADD18R,0.800000X0.700000*%
%ADD19R,1.800000X4.200000*%
%ADD20R,1.100000X1.100000*%
G04 APERTURE END LIST*
D10*
G36*
X146812000Y-83058000D02*
G01*
X141097000Y-83058000D01*
X141097000Y-77343000D01*
X146812000Y-77343000D01*
X146812000Y-83058000D01*
G37*
X146812000Y-83058000D02*
X141097000Y-83058000D01*
X141097000Y-77343000D01*
X146812000Y-77343000D01*
X146812000Y-83058000D01*
G36*
X122555000Y-83058000D02*
G01*
X116840000Y-83058000D01*
X116840000Y-77343000D01*
X122555000Y-77343000D01*
X122555000Y-83058000D01*
G37*
X122555000Y-83058000D02*
X116840000Y-83058000D01*
X116840000Y-77343000D01*
X122555000Y-77343000D01*
X122555000Y-83058000D01*
G36*
X123132000Y-116496000D02*
G01*
X123132000Y-119196000D01*
X120432000Y-119196000D01*
X123132000Y-116496000D01*
G37*
D11*
X139512000Y-101727000D03*
X139512000Y-99187000D03*
X139512000Y-96647000D03*
X139512000Y-89027000D03*
X139512000Y-91567000D03*
X124012000Y-101727000D03*
X124012000Y-99187000D03*
X124012000Y-89027000D03*
X124012000Y-91567000D03*
X124012000Y-96647000D03*
X139512000Y-94107000D03*
X124012000Y-94107000D03*
D12*
X138024000Y-114105000D03*
X138024000Y-115105000D03*
X139344000Y-114605000D03*
X138024000Y-110701000D03*
X138024000Y-111701000D03*
X139344000Y-111201000D03*
D13*
X135812000Y-79756000D03*
D14*
X137287000Y-81281000D03*
D13*
X138762000Y-79756000D03*
G36*
G01*
X117523832Y-110370000D02*
X118882168Y-110370000D01*
G75*
G02*
X119153000Y-110640832I0J-270832D01*
G01*
X119153000Y-111399168D01*
G75*
G02*
X118882168Y-111670000I-270832J0D01*
G01*
X117523832Y-111670000D01*
G75*
G02*
X117253000Y-111399168I0J270832D01*
G01*
X117253000Y-110640832D01*
G75*
G02*
X117523832Y-110370000I270832J0D01*
G01*
G37*
G36*
G01*
X117523832Y-106770000D02*
X118882168Y-106770000D01*
G75*
G02*
X119153000Y-107040832I0J-270832D01*
G01*
X119153000Y-107799168D01*
G75*
G02*
X118882168Y-108070000I-270832J0D01*
G01*
X117523832Y-108070000D01*
G75*
G02*
X117253000Y-107799168I0J270832D01*
G01*
X117253000Y-107040832D01*
G75*
G02*
X117523832Y-106770000I270832J0D01*
G01*
G37*
G36*
G01*
X121428000Y-109370000D02*
X122728000Y-109370000D01*
G75*
G02*
X122903000Y-109545000I0J-175000D01*
G01*
X122903000Y-109895000D01*
G75*
G02*
X122728000Y-110070000I-175000J0D01*
G01*
X121428000Y-110070000D01*
G75*
G02*
X121253000Y-109895000I0J175000D01*
G01*
X121253000Y-109545000D01*
G75*
G02*
X121428000Y-109370000I175000J0D01*
G01*
G37*
G36*
G01*
X121428000Y-108370000D02*
X122728000Y-108370000D01*
G75*
G02*
X122903000Y-108545000I0J-175000D01*
G01*
X122903000Y-108895000D01*
G75*
G02*
X122728000Y-109070000I-175000J0D01*
G01*
X121428000Y-109070000D01*
G75*
G02*
X121253000Y-108895000I0J175000D01*
G01*
X121253000Y-108545000D01*
G75*
G02*
X121428000Y-108370000I175000J0D01*
G01*
G37*
D15*
X129595000Y-126895000D03*
X119995000Y-126895000D03*
X120795000Y-126895000D03*
X121595000Y-126895000D03*
X122395000Y-126895000D03*
X123195000Y-126895000D03*
X123995000Y-126895000D03*
X124795000Y-126895000D03*
X143195000Y-126895000D03*
X142395000Y-126895000D03*
X141595000Y-126895000D03*
X140795000Y-126895000D03*
X139995000Y-126895000D03*
X139195000Y-126895000D03*
X138395000Y-126895000D03*
X137595000Y-126895000D03*
X136795000Y-126895000D03*
X135995000Y-126895000D03*
X135195000Y-126895000D03*
X134395000Y-126895000D03*
X133595000Y-126895000D03*
X132795000Y-126895000D03*
X131995000Y-126895000D03*
X131195000Y-126895000D03*
X130395000Y-126895000D03*
X125595000Y-126895000D03*
G36*
G01*
X144756250Y-110901000D02*
X144193750Y-110901000D01*
G75*
G02*
X143950000Y-110657250I0J243750D01*
G01*
X143950000Y-110169750D01*
G75*
G02*
X144193750Y-109926000I243750J0D01*
G01*
X144756250Y-109926000D01*
G75*
G02*
X145000000Y-110169750I0J-243750D01*
G01*
X145000000Y-110657250D01*
G75*
G02*
X144756250Y-110901000I-243750J0D01*
G01*
G37*
G36*
G01*
X144756250Y-112476000D02*
X144193750Y-112476000D01*
G75*
G02*
X143950000Y-112232250I0J243750D01*
G01*
X143950000Y-111744750D01*
G75*
G02*
X144193750Y-111501000I243750J0D01*
G01*
X144756250Y-111501000D01*
G75*
G02*
X145000000Y-111744750I0J-243750D01*
G01*
X145000000Y-112232250D01*
G75*
G02*
X144756250Y-112476000I-243750J0D01*
G01*
G37*
G36*
G01*
X144769250Y-114305000D02*
X144206750Y-114305000D01*
G75*
G02*
X143963000Y-114061250I0J243750D01*
G01*
X143963000Y-113573750D01*
G75*
G02*
X144206750Y-113330000I243750J0D01*
G01*
X144769250Y-113330000D01*
G75*
G02*
X145013000Y-113573750I0J-243750D01*
G01*
X145013000Y-114061250D01*
G75*
G02*
X144769250Y-114305000I-243750J0D01*
G01*
G37*
G36*
G01*
X144769250Y-115880000D02*
X144206750Y-115880000D01*
G75*
G02*
X143963000Y-115636250I0J243750D01*
G01*
X143963000Y-115148750D01*
G75*
G02*
X144206750Y-114905000I243750J0D01*
G01*
X144769250Y-114905000D01*
G75*
G02*
X145013000Y-115148750I0J-243750D01*
G01*
X145013000Y-115636250D01*
G75*
G02*
X144769250Y-115880000I-243750J0D01*
G01*
G37*
G36*
G01*
X144756250Y-117708000D02*
X144193750Y-117708000D01*
G75*
G02*
X143950000Y-117464250I0J243750D01*
G01*
X143950000Y-116976750D01*
G75*
G02*
X144193750Y-116733000I243750J0D01*
G01*
X144756250Y-116733000D01*
G75*
G02*
X145000000Y-116976750I0J-243750D01*
G01*
X145000000Y-117464250D01*
G75*
G02*
X144756250Y-117708000I-243750J0D01*
G01*
G37*
G36*
G01*
X144756250Y-119283000D02*
X144193750Y-119283000D01*
G75*
G02*
X143950000Y-119039250I0J243750D01*
G01*
X143950000Y-118551750D01*
G75*
G02*
X144193750Y-118308000I243750J0D01*
G01*
X144756250Y-118308000D01*
G75*
G02*
X145000000Y-118551750I0J-243750D01*
G01*
X145000000Y-119039250D01*
G75*
G02*
X144756250Y-119283000I-243750J0D01*
G01*
G37*
G36*
G01*
X142013250Y-110901000D02*
X141450750Y-110901000D01*
G75*
G02*
X141207000Y-110657250I0J243750D01*
G01*
X141207000Y-110169750D01*
G75*
G02*
X141450750Y-109926000I243750J0D01*
G01*
X142013250Y-109926000D01*
G75*
G02*
X142257000Y-110169750I0J-243750D01*
G01*
X142257000Y-110657250D01*
G75*
G02*
X142013250Y-110901000I-243750J0D01*
G01*
G37*
G36*
G01*
X142013250Y-112476000D02*
X141450750Y-112476000D01*
G75*
G02*
X141207000Y-112232250I0J243750D01*
G01*
X141207000Y-111744750D01*
G75*
G02*
X141450750Y-111501000I243750J0D01*
G01*
X142013250Y-111501000D01*
G75*
G02*
X142257000Y-111744750I0J-243750D01*
G01*
X142257000Y-112232250D01*
G75*
G02*
X142013250Y-112476000I-243750J0D01*
G01*
G37*
G36*
G01*
X141962250Y-114305000D02*
X141399750Y-114305000D01*
G75*
G02*
X141156000Y-114061250I0J243750D01*
G01*
X141156000Y-113573750D01*
G75*
G02*
X141399750Y-113330000I243750J0D01*
G01*
X141962250Y-113330000D01*
G75*
G02*
X142206000Y-113573750I0J-243750D01*
G01*
X142206000Y-114061250D01*
G75*
G02*
X141962250Y-114305000I-243750J0D01*
G01*
G37*
G36*
G01*
X141962250Y-115880000D02*
X141399750Y-115880000D01*
G75*
G02*
X141156000Y-115636250I0J243750D01*
G01*
X141156000Y-115148750D01*
G75*
G02*
X141399750Y-114905000I243750J0D01*
G01*
X141962250Y-114905000D01*
G75*
G02*
X142206000Y-115148750I0J-243750D01*
G01*
X142206000Y-115636250D01*
G75*
G02*
X141962250Y-115880000I-243750J0D01*
G01*
G37*
G36*
G01*
X141962250Y-117708000D02*
X141399750Y-117708000D01*
G75*
G02*
X141156000Y-117464250I0J243750D01*
G01*
X141156000Y-116976750D01*
G75*
G02*
X141399750Y-116733000I243750J0D01*
G01*
X141962250Y-116733000D01*
G75*
G02*
X142206000Y-116976750I0J-243750D01*
G01*
X142206000Y-117464250D01*
G75*
G02*
X141962250Y-117708000I-243750J0D01*
G01*
G37*
G36*
G01*
X141962250Y-119283000D02*
X141399750Y-119283000D01*
G75*
G02*
X141156000Y-119039250I0J243750D01*
G01*
X141156000Y-118551750D01*
G75*
G02*
X141399750Y-118308000I243750J0D01*
G01*
X141962250Y-118308000D01*
G75*
G02*
X142206000Y-118551750I0J-243750D01*
G01*
X142206000Y-119039250D01*
G75*
G02*
X141962250Y-119283000I-243750J0D01*
G01*
G37*
G36*
G01*
X124242750Y-116581000D02*
X124805250Y-116581000D01*
G75*
G02*
X125049000Y-116824750I0J-243750D01*
G01*
X125049000Y-117312250D01*
G75*
G02*
X124805250Y-117556000I-243750J0D01*
G01*
X124242750Y-117556000D01*
G75*
G02*
X123999000Y-117312250I0J243750D01*
G01*
X123999000Y-116824750D01*
G75*
G02*
X124242750Y-116581000I243750J0D01*
G01*
G37*
G36*
G01*
X124242750Y-118156000D02*
X124805250Y-118156000D01*
G75*
G02*
X125049000Y-118399750I0J-243750D01*
G01*
X125049000Y-118887250D01*
G75*
G02*
X124805250Y-119131000I-243750J0D01*
G01*
X124242750Y-119131000D01*
G75*
G02*
X123999000Y-118887250I0J243750D01*
G01*
X123999000Y-118399750D01*
G75*
G02*
X124242750Y-118156000I243750J0D01*
G01*
G37*
D16*
X130447000Y-114734000D03*
X130897000Y-114734000D03*
X131347000Y-114734000D03*
X131797000Y-114734000D03*
X132247000Y-114734000D03*
X132697000Y-114734000D03*
X132697000Y-111834000D03*
X132247000Y-111834000D03*
X131797000Y-111834000D03*
X131347000Y-111834000D03*
X130897000Y-111834000D03*
X130447000Y-111834000D03*
D17*
X131572000Y-113284000D03*
D18*
X124524000Y-114298000D03*
X124524000Y-115698000D03*
G36*
G01*
X119007500Y-95077000D02*
X118482500Y-95077000D01*
G75*
G02*
X118220000Y-94814500I0J262500D01*
G01*
X118220000Y-94189500D01*
G75*
G02*
X118482500Y-93927000I262500J0D01*
G01*
X119007500Y-93927000D01*
G75*
G02*
X119270000Y-94189500I0J-262500D01*
G01*
X119270000Y-94814500D01*
G75*
G02*
X119007500Y-95077000I-262500J0D01*
G01*
G37*
G36*
G01*
X119007500Y-96827000D02*
X118482500Y-96827000D01*
G75*
G02*
X118220000Y-96564500I0J262500D01*
G01*
X118220000Y-95939500D01*
G75*
G02*
X118482500Y-95677000I262500J0D01*
G01*
X119007500Y-95677000D01*
G75*
G02*
X119270000Y-95939500I0J-262500D01*
G01*
X119270000Y-96564500D01*
G75*
G02*
X119007500Y-96827000I-262500J0D01*
G01*
G37*
G36*
G01*
X131322000Y-118545500D02*
X131322000Y-119070500D01*
G75*
G02*
X131059500Y-119333000I-262500J0D01*
G01*
X130434500Y-119333000D01*
G75*
G02*
X130172000Y-119070500I0J262500D01*
G01*
X130172000Y-118545500D01*
G75*
G02*
X130434500Y-118283000I262500J0D01*
G01*
X131059500Y-118283000D01*
G75*
G02*
X131322000Y-118545500I0J-262500D01*
G01*
G37*
G36*
G01*
X133072000Y-118545500D02*
X133072000Y-119070500D01*
G75*
G02*
X132809500Y-119333000I-262500J0D01*
G01*
X132184500Y-119333000D01*
G75*
G02*
X131922000Y-119070500I0J262500D01*
G01*
X131922000Y-118545500D01*
G75*
G02*
X132184500Y-118283000I262500J0D01*
G01*
X132809500Y-118283000D01*
G75*
G02*
X133072000Y-118545500I0J-262500D01*
G01*
G37*
G36*
G01*
X131936000Y-117546500D02*
X131936000Y-117021500D01*
G75*
G02*
X132198500Y-116759000I262500J0D01*
G01*
X132823500Y-116759000D01*
G75*
G02*
X133086000Y-117021500I0J-262500D01*
G01*
X133086000Y-117546500D01*
G75*
G02*
X132823500Y-117809000I-262500J0D01*
G01*
X132198500Y-117809000D01*
G75*
G02*
X131936000Y-117546500I0J262500D01*
G01*
G37*
G36*
G01*
X130186000Y-117546500D02*
X130186000Y-117021500D01*
G75*
G02*
X130448500Y-116759000I262500J0D01*
G01*
X131073500Y-116759000D01*
G75*
G02*
X131336000Y-117021500I0J-262500D01*
G01*
X131336000Y-117546500D01*
G75*
G02*
X131073500Y-117809000I-262500J0D01*
G01*
X130448500Y-117809000D01*
G75*
G02*
X130186000Y-117546500I0J262500D01*
G01*
G37*
G36*
G01*
X119007500Y-91521000D02*
X118482500Y-91521000D01*
G75*
G02*
X118220000Y-91258500I0J262500D01*
G01*
X118220000Y-90633500D01*
G75*
G02*
X118482500Y-90371000I262500J0D01*
G01*
X119007500Y-90371000D01*
G75*
G02*
X119270000Y-90633500I0J-262500D01*
G01*
X119270000Y-91258500D01*
G75*
G02*
X119007500Y-91521000I-262500J0D01*
G01*
G37*
G36*
G01*
X119007500Y-93271000D02*
X118482500Y-93271000D01*
G75*
G02*
X118220000Y-93008500I0J262500D01*
G01*
X118220000Y-92383500D01*
G75*
G02*
X118482500Y-92121000I262500J0D01*
G01*
X119007500Y-92121000D01*
G75*
G02*
X119270000Y-92383500I0J-262500D01*
G01*
X119270000Y-93008500D01*
G75*
G02*
X119007500Y-93271000I-262500J0D01*
G01*
G37*
G36*
G01*
X119007500Y-98633000D02*
X118482500Y-98633000D01*
G75*
G02*
X118220000Y-98370500I0J262500D01*
G01*
X118220000Y-97745500D01*
G75*
G02*
X118482500Y-97483000I262500J0D01*
G01*
X119007500Y-97483000D01*
G75*
G02*
X119270000Y-97745500I0J-262500D01*
G01*
X119270000Y-98370500D01*
G75*
G02*
X119007500Y-98633000I-262500J0D01*
G01*
G37*
G36*
G01*
X119007500Y-100383000D02*
X118482500Y-100383000D01*
G75*
G02*
X118220000Y-100120500I0J262500D01*
G01*
X118220000Y-99495500D01*
G75*
G02*
X118482500Y-99233000I262500J0D01*
G01*
X119007500Y-99233000D01*
G75*
G02*
X119270000Y-99495500I0J-262500D01*
G01*
X119270000Y-100120500D01*
G75*
G02*
X119007500Y-100383000I-262500J0D01*
G01*
G37*
D19*
X118482000Y-117046000D03*
D20*
X122432000Y-118496000D03*
M02*
