G04 #@! TF.GenerationSoftware,KiCad,Pcbnew,(5.1.6)-1*
G04 #@! TF.CreationDate,2021-01-10T11:39:08+11:00*
G04 #@! TF.ProjectId,mPCIe-GNSS,6d504349-652d-4474-9e53-532e6b696361,1*
G04 #@! TF.SameCoordinates,Original*
G04 #@! TF.FileFunction,Legend,Top*
G04 #@! TF.FilePolarity,Positive*
%FSLAX46Y46*%
G04 Gerber Fmt 4.6, Leading zero omitted, Abs format (unit mm)*
G04 Created by KiCad (PCBNEW (5.1.6)-1) date 2021-01-10 11:39:08*
%MOMM*%
%LPD*%
G01*
G04 APERTURE LIST*
%ADD10C,0.200000*%
%ADD11C,0.127000*%
%ADD12C,0.120000*%
%ADD13C,0.100000*%
G04 APERTURE END LIST*
D10*
X122462000Y-87877000D02*
G75*
G03*
X122462000Y-87877000I-100000J0D01*
G01*
D11*
X123687000Y-102952000D02*
X123687000Y-102777000D01*
X139837000Y-102952000D02*
X139837000Y-102777000D01*
X139837000Y-86802000D02*
X139837000Y-87977000D01*
X123687000Y-86802000D02*
X123687000Y-87977000D01*
X139837000Y-102952000D02*
X123687000Y-102952000D01*
X123687000Y-86802000D02*
X139837000Y-86802000D01*
X139114000Y-114110000D02*
X139114000Y-113610000D01*
X139114000Y-113610000D02*
X138254000Y-113610000D01*
X139114000Y-115100000D02*
X139114000Y-115600000D01*
X139114000Y-115600000D02*
X138254000Y-115600000D01*
D10*
X137084000Y-113905000D02*
G75*
G03*
X137084000Y-113905000I-100000J0D01*
G01*
D11*
X139114000Y-110706000D02*
X139114000Y-110206000D01*
X139114000Y-110206000D02*
X138254000Y-110206000D01*
X139114000Y-111696000D02*
X139114000Y-112196000D01*
X139114000Y-112196000D02*
X138254000Y-112196000D01*
D10*
X137084000Y-110501000D02*
G75*
G03*
X137084000Y-110501000I-100000J0D01*
G01*
D12*
X135887000Y-81116000D02*
X136527000Y-81116000D01*
X138687000Y-81116000D02*
X138047000Y-81116000D01*
X136527000Y-81116000D02*
X136527000Y-81746000D01*
X135937000Y-78396000D02*
X138637000Y-78396000D01*
X119363000Y-107110000D02*
X121863000Y-107110000D01*
X121863000Y-107110000D02*
X121863000Y-108160000D01*
X121863000Y-108160000D02*
X122853000Y-108160000D01*
X119363000Y-111330000D02*
X121863000Y-111330000D01*
X121863000Y-111330000D02*
X121863000Y-110280000D01*
X117393000Y-108280000D02*
X117393000Y-110160000D01*
X143740000Y-110401000D02*
X143740000Y-112686000D01*
X143740000Y-112686000D02*
X145210000Y-112686000D01*
X145210000Y-112686000D02*
X145210000Y-110401000D01*
X143753000Y-113805000D02*
X143753000Y-116090000D01*
X143753000Y-116090000D02*
X145223000Y-116090000D01*
X145223000Y-116090000D02*
X145223000Y-113805000D01*
X143740000Y-117208000D02*
X143740000Y-119493000D01*
X143740000Y-119493000D02*
X145210000Y-119493000D01*
X145210000Y-119493000D02*
X145210000Y-117208000D01*
X141222000Y-111363779D02*
X141222000Y-111038221D01*
X142242000Y-111363779D02*
X142242000Y-111038221D01*
X141171000Y-114767779D02*
X141171000Y-114442221D01*
X142191000Y-114767779D02*
X142191000Y-114442221D01*
X141171000Y-118170779D02*
X141171000Y-117845221D01*
X142191000Y-118170779D02*
X142191000Y-117845221D01*
X124014000Y-117693221D02*
X124014000Y-118018779D01*
X125034000Y-117693221D02*
X125034000Y-118018779D01*
D11*
X133072000Y-114784000D02*
X133072000Y-111784000D01*
X130072000Y-114784000D02*
X130072000Y-111784000D01*
D13*
X130172000Y-115034000D02*
G75*
G03*
X130172000Y-115034000I-100000J0D01*
G01*
D12*
X123924000Y-116148000D02*
X125124000Y-116148000D01*
X123924000Y-114298000D02*
X123924000Y-116148000D01*
X125124000Y-114298000D02*
X125124000Y-116148000D01*
X119255000Y-95548267D02*
X119255000Y-95205733D01*
X118235000Y-95548267D02*
X118235000Y-95205733D01*
X131793267Y-118298000D02*
X131450733Y-118298000D01*
X131793267Y-119318000D02*
X131450733Y-119318000D01*
X131464733Y-117794000D02*
X131807267Y-117794000D01*
X131464733Y-116774000D02*
X131807267Y-116774000D01*
X119255000Y-91992267D02*
X119255000Y-91649733D01*
X118235000Y-91992267D02*
X118235000Y-91649733D01*
X119255000Y-99104267D02*
X119255000Y-98761733D01*
X118235000Y-99104267D02*
X118235000Y-98761733D01*
D13*
X122348225Y-119896000D02*
G75*
G03*
X122348225Y-119896000I-316225J0D01*
G01*
D10*
X122732000Y-116495999D02*
G75*
G03*
X118732000Y-114596000I-2403065J101441D01*
G01*
D13*
X130747714Y-93807000D02*
X130690571Y-93778428D01*
X130604857Y-93778428D01*
X130519142Y-93807000D01*
X130462000Y-93864142D01*
X130433428Y-93921285D01*
X130404857Y-94035571D01*
X130404857Y-94121285D01*
X130433428Y-94235571D01*
X130462000Y-94292714D01*
X130519142Y-94349857D01*
X130604857Y-94378428D01*
X130662000Y-94378428D01*
X130747714Y-94349857D01*
X130776285Y-94321285D01*
X130776285Y-94121285D01*
X130662000Y-94121285D01*
X131033428Y-94378428D02*
X131033428Y-93778428D01*
X131376285Y-94378428D01*
X131376285Y-93778428D01*
X131633428Y-94349857D02*
X131719142Y-94378428D01*
X131862000Y-94378428D01*
X131919142Y-94349857D01*
X131947714Y-94321285D01*
X131976285Y-94264142D01*
X131976285Y-94207000D01*
X131947714Y-94149857D01*
X131919142Y-94121285D01*
X131862000Y-94092714D01*
X131747714Y-94064142D01*
X131690571Y-94035571D01*
X131662000Y-94007000D01*
X131633428Y-93949857D01*
X131633428Y-93892714D01*
X131662000Y-93835571D01*
X131690571Y-93807000D01*
X131747714Y-93778428D01*
X131890571Y-93778428D01*
X131976285Y-93807000D01*
X132204857Y-94349857D02*
X132290571Y-94378428D01*
X132433428Y-94378428D01*
X132490571Y-94349857D01*
X132519142Y-94321285D01*
X132547714Y-94264142D01*
X132547714Y-94207000D01*
X132519142Y-94149857D01*
X132490571Y-94121285D01*
X132433428Y-94092714D01*
X132319142Y-94064142D01*
X132262000Y-94035571D01*
X132233428Y-94007000D01*
X132204857Y-93949857D01*
X132204857Y-93892714D01*
X132233428Y-93835571D01*
X132262000Y-93807000D01*
X132319142Y-93778428D01*
X132462000Y-93778428D01*
X132547714Y-93807000D01*
X133119142Y-94378428D02*
X132776285Y-94378428D01*
X132947714Y-94378428D02*
X132947714Y-93778428D01*
X132890571Y-93864142D01*
X132833428Y-93921285D01*
X132776285Y-93949857D01*
X137132971Y-115119342D02*
X137104400Y-115176485D01*
X137047257Y-115233628D01*
X136961542Y-115319342D01*
X136932971Y-115376485D01*
X136932971Y-115433628D01*
X137075828Y-115405057D02*
X137047257Y-115462200D01*
X136990114Y-115519342D01*
X136875828Y-115547914D01*
X136675828Y-115547914D01*
X136561542Y-115519342D01*
X136504400Y-115462200D01*
X136475828Y-115405057D01*
X136475828Y-115290771D01*
X136504400Y-115233628D01*
X136561542Y-115176485D01*
X136675828Y-115147914D01*
X136875828Y-115147914D01*
X136990114Y-115176485D01*
X137047257Y-115233628D01*
X137075828Y-115290771D01*
X137075828Y-115405057D01*
X137075828Y-114576485D02*
X137075828Y-114919342D01*
X137075828Y-114747914D02*
X136475828Y-114747914D01*
X136561542Y-114805057D01*
X136618685Y-114862200D01*
X136647257Y-114919342D01*
X137132971Y-111766142D02*
X137104400Y-111823285D01*
X137047257Y-111880428D01*
X136961542Y-111966142D01*
X136932971Y-112023285D01*
X136932971Y-112080428D01*
X137075828Y-112051857D02*
X137047257Y-112109000D01*
X136990114Y-112166142D01*
X136875828Y-112194714D01*
X136675828Y-112194714D01*
X136561542Y-112166142D01*
X136504400Y-112109000D01*
X136475828Y-112051857D01*
X136475828Y-111937571D01*
X136504400Y-111880428D01*
X136561542Y-111823285D01*
X136675828Y-111794714D01*
X136875828Y-111794714D01*
X136990114Y-111823285D01*
X137047257Y-111880428D01*
X137075828Y-111937571D01*
X137075828Y-112051857D01*
X136532971Y-111566142D02*
X136504400Y-111537571D01*
X136475828Y-111480428D01*
X136475828Y-111337571D01*
X136504400Y-111280428D01*
X136532971Y-111251857D01*
X136590114Y-111223285D01*
X136647257Y-111223285D01*
X136732971Y-111251857D01*
X137075828Y-111594714D01*
X137075828Y-111223285D01*
X137087000Y-79427428D02*
X137087000Y-79856000D01*
X137058428Y-79941714D01*
X137001285Y-79998857D01*
X136915571Y-80027428D01*
X136858428Y-80027428D01*
X137344142Y-79484571D02*
X137372714Y-79456000D01*
X137429857Y-79427428D01*
X137572714Y-79427428D01*
X137629857Y-79456000D01*
X137658428Y-79484571D01*
X137687000Y-79541714D01*
X137687000Y-79598857D01*
X137658428Y-79684571D01*
X137315571Y-80027428D01*
X137687000Y-80027428D01*
X136537785Y-77888500D02*
X136823500Y-77888500D01*
X136480642Y-78059928D02*
X136680642Y-77459928D01*
X136880642Y-78059928D01*
X137080642Y-78059928D02*
X137080642Y-77459928D01*
X137423500Y-78059928D01*
X137423500Y-77459928D01*
X137623500Y-77459928D02*
X137966357Y-77459928D01*
X137794928Y-78059928D02*
X137794928Y-77459928D01*
X119249428Y-109420000D02*
X119678000Y-109420000D01*
X119763714Y-109448571D01*
X119820857Y-109505714D01*
X119849428Y-109591428D01*
X119849428Y-109648571D01*
X119849428Y-108820000D02*
X119849428Y-109162857D01*
X119849428Y-108991428D02*
X119249428Y-108991428D01*
X119335142Y-109048571D01*
X119392285Y-109105714D01*
X119420857Y-109162857D01*
X117712714Y-113047428D02*
X117369857Y-113047428D01*
X117541285Y-113047428D02*
X117541285Y-112447428D01*
X117484142Y-112533142D01*
X117427000Y-112590285D01*
X117369857Y-112618857D01*
X117969857Y-113047428D02*
X117969857Y-112447428D01*
X118198428Y-112447428D01*
X118255571Y-112476000D01*
X118284142Y-112504571D01*
X118312714Y-112561714D01*
X118312714Y-112647428D01*
X118284142Y-112704571D01*
X118255571Y-112733142D01*
X118198428Y-112761714D01*
X117969857Y-112761714D01*
X118569857Y-113047428D02*
X118569857Y-112447428D01*
X118798428Y-112447428D01*
X118855571Y-112476000D01*
X118884142Y-112504571D01*
X118912714Y-112561714D01*
X118912714Y-112647428D01*
X118884142Y-112704571D01*
X118855571Y-112733142D01*
X118798428Y-112761714D01*
X118569857Y-112761714D01*
X119141285Y-113018857D02*
X119227000Y-113047428D01*
X119369857Y-113047428D01*
X119427000Y-113018857D01*
X119455571Y-112990285D01*
X119484142Y-112933142D01*
X119484142Y-112876000D01*
X119455571Y-112818857D01*
X119427000Y-112790285D01*
X119369857Y-112761714D01*
X119255571Y-112733142D01*
X119198428Y-112704571D01*
X119169857Y-112676000D01*
X119141285Y-112618857D01*
X119141285Y-112561714D01*
X119169857Y-112504571D01*
X119198428Y-112476000D01*
X119255571Y-112447428D01*
X119398428Y-112447428D01*
X119484142Y-112476000D01*
X143343100Y-111899414D02*
X143343100Y-111613700D01*
X143514528Y-111956557D02*
X142914528Y-111756557D01*
X143514528Y-111556557D01*
X143514528Y-111356557D02*
X142914528Y-111356557D01*
X143514528Y-111013700D01*
X142914528Y-111013700D01*
X142914528Y-110813700D02*
X142914528Y-110470842D01*
X143514528Y-110642271D02*
X142914528Y-110642271D01*
X143464028Y-115331985D02*
X143464028Y-115674842D01*
X143464028Y-115503414D02*
X142864028Y-115503414D01*
X142949742Y-115560557D01*
X143006885Y-115617700D01*
X143035457Y-115674842D01*
X143464028Y-115074842D02*
X142864028Y-115074842D01*
X142864028Y-114846271D01*
X142892600Y-114789128D01*
X142921171Y-114760557D01*
X142978314Y-114731985D01*
X143064028Y-114731985D01*
X143121171Y-114760557D01*
X143149742Y-114789128D01*
X143178314Y-114846271D01*
X143178314Y-115074842D01*
X143464028Y-114474842D02*
X142864028Y-114474842D01*
X142864028Y-114246271D01*
X142892600Y-114189128D01*
X142921171Y-114160557D01*
X142978314Y-114131985D01*
X143064028Y-114131985D01*
X143121171Y-114160557D01*
X143149742Y-114189128D01*
X143178314Y-114246271D01*
X143178314Y-114474842D01*
X143435457Y-113903414D02*
X143464028Y-113817700D01*
X143464028Y-113674842D01*
X143435457Y-113617700D01*
X143406885Y-113589128D01*
X143349742Y-113560557D01*
X143292600Y-113560557D01*
X143235457Y-113589128D01*
X143206885Y-113617700D01*
X143178314Y-113674842D01*
X143149742Y-113789128D01*
X143121171Y-113846271D01*
X143092600Y-113874842D01*
X143035457Y-113903414D01*
X142978314Y-113903414D01*
X142921171Y-113874842D01*
X142892600Y-113846271D01*
X142864028Y-113789128D01*
X142864028Y-113646271D01*
X142892600Y-113560557D01*
X143476428Y-118820700D02*
X142876428Y-118820700D01*
X142876428Y-118592128D01*
X142905000Y-118534985D01*
X142933571Y-118506414D01*
X142990714Y-118477842D01*
X143076428Y-118477842D01*
X143133571Y-118506414D01*
X143162142Y-118534985D01*
X143190714Y-118592128D01*
X143190714Y-118820700D01*
X142876428Y-118277842D02*
X143476428Y-118134985D01*
X143047857Y-118020700D01*
X143476428Y-117906414D01*
X142876428Y-117763557D01*
X143476428Y-117192128D02*
X143190714Y-117392128D01*
X143476428Y-117534985D02*
X142876428Y-117534985D01*
X142876428Y-117306414D01*
X142905000Y-117249271D01*
X142933571Y-117220700D01*
X142990714Y-117192128D01*
X143076428Y-117192128D01*
X143133571Y-117220700D01*
X143162142Y-117249271D01*
X143190714Y-117306414D01*
X143190714Y-117534985D01*
X140835028Y-111301000D02*
X140549314Y-111501000D01*
X140835028Y-111643857D02*
X140235028Y-111643857D01*
X140235028Y-111415285D01*
X140263600Y-111358142D01*
X140292171Y-111329571D01*
X140349314Y-111301000D01*
X140435028Y-111301000D01*
X140492171Y-111329571D01*
X140520742Y-111358142D01*
X140549314Y-111415285D01*
X140549314Y-111643857D01*
X140235028Y-110786714D02*
X140235028Y-110901000D01*
X140263600Y-110958142D01*
X140292171Y-110986714D01*
X140377885Y-111043857D01*
X140492171Y-111072428D01*
X140720742Y-111072428D01*
X140777885Y-111043857D01*
X140806457Y-111015285D01*
X140835028Y-110958142D01*
X140835028Y-110843857D01*
X140806457Y-110786714D01*
X140777885Y-110758142D01*
X140720742Y-110729571D01*
X140577885Y-110729571D01*
X140520742Y-110758142D01*
X140492171Y-110786714D01*
X140463600Y-110843857D01*
X140463600Y-110958142D01*
X140492171Y-111015285D01*
X140520742Y-111043857D01*
X140577885Y-111072428D01*
X140784028Y-114705000D02*
X140498314Y-114905000D01*
X140784028Y-115047857D02*
X140184028Y-115047857D01*
X140184028Y-114819285D01*
X140212600Y-114762142D01*
X140241171Y-114733571D01*
X140298314Y-114705000D01*
X140384028Y-114705000D01*
X140441171Y-114733571D01*
X140469742Y-114762142D01*
X140498314Y-114819285D01*
X140498314Y-115047857D01*
X140184028Y-114162142D02*
X140184028Y-114447857D01*
X140469742Y-114476428D01*
X140441171Y-114447857D01*
X140412600Y-114390714D01*
X140412600Y-114247857D01*
X140441171Y-114190714D01*
X140469742Y-114162142D01*
X140526885Y-114133571D01*
X140669742Y-114133571D01*
X140726885Y-114162142D01*
X140755457Y-114190714D01*
X140784028Y-114247857D01*
X140784028Y-114390714D01*
X140755457Y-114447857D01*
X140726885Y-114476428D01*
X140784028Y-118108000D02*
X140498314Y-118308000D01*
X140784028Y-118450857D02*
X140184028Y-118450857D01*
X140184028Y-118222285D01*
X140212600Y-118165142D01*
X140241171Y-118136571D01*
X140298314Y-118108000D01*
X140384028Y-118108000D01*
X140441171Y-118136571D01*
X140469742Y-118165142D01*
X140498314Y-118222285D01*
X140498314Y-118450857D01*
X140384028Y-117593714D02*
X140784028Y-117593714D01*
X140155457Y-117736571D02*
X140584028Y-117879428D01*
X140584028Y-117508000D01*
X125757500Y-118127428D02*
X125557500Y-117841714D01*
X125414642Y-118127428D02*
X125414642Y-117527428D01*
X125643214Y-117527428D01*
X125700357Y-117556000D01*
X125728928Y-117584571D01*
X125757500Y-117641714D01*
X125757500Y-117727428D01*
X125728928Y-117784571D01*
X125700357Y-117813142D01*
X125643214Y-117841714D01*
X125414642Y-117841714D01*
X126328928Y-118127428D02*
X125986071Y-118127428D01*
X126157500Y-118127428D02*
X126157500Y-117527428D01*
X126100357Y-117613142D01*
X126043214Y-117670285D01*
X125986071Y-117698857D01*
X128701857Y-114288928D02*
X128701857Y-114774642D01*
X128730428Y-114831785D01*
X128759000Y-114860357D01*
X128816142Y-114888928D01*
X128930428Y-114888928D01*
X128987571Y-114860357D01*
X129016142Y-114831785D01*
X129044714Y-114774642D01*
X129044714Y-114288928D01*
X129644714Y-114888928D02*
X129301857Y-114888928D01*
X129473285Y-114888928D02*
X129473285Y-114288928D01*
X129416142Y-114374642D01*
X129359000Y-114431785D01*
X129301857Y-114460357D01*
X125414642Y-115269428D02*
X125414642Y-114669428D01*
X125557500Y-114669428D01*
X125643214Y-114698000D01*
X125700357Y-114755142D01*
X125728928Y-114812285D01*
X125757500Y-114926571D01*
X125757500Y-115012285D01*
X125728928Y-115126571D01*
X125700357Y-115183714D01*
X125643214Y-115240857D01*
X125557500Y-115269428D01*
X125414642Y-115269428D01*
X126328928Y-115269428D02*
X125986071Y-115269428D01*
X126157500Y-115269428D02*
X126157500Y-114669428D01*
X126100357Y-114755142D01*
X126043214Y-114812285D01*
X125986071Y-114840857D01*
X117816285Y-95477000D02*
X117844857Y-95505571D01*
X117873428Y-95591285D01*
X117873428Y-95648428D01*
X117844857Y-95734142D01*
X117787714Y-95791285D01*
X117730571Y-95819857D01*
X117616285Y-95848428D01*
X117530571Y-95848428D01*
X117416285Y-95819857D01*
X117359142Y-95791285D01*
X117302000Y-95734142D01*
X117273428Y-95648428D01*
X117273428Y-95591285D01*
X117302000Y-95505571D01*
X117330571Y-95477000D01*
X117273428Y-94962714D02*
X117273428Y-95077000D01*
X117302000Y-95134142D01*
X117330571Y-95162714D01*
X117416285Y-95219857D01*
X117530571Y-95248428D01*
X117759142Y-95248428D01*
X117816285Y-95219857D01*
X117844857Y-95191285D01*
X117873428Y-95134142D01*
X117873428Y-95019857D01*
X117844857Y-94962714D01*
X117816285Y-94934142D01*
X117759142Y-94905571D01*
X117616285Y-94905571D01*
X117559142Y-94934142D01*
X117530571Y-94962714D01*
X117502000Y-95019857D01*
X117502000Y-95134142D01*
X117530571Y-95191285D01*
X117559142Y-95219857D01*
X117616285Y-95248428D01*
X133822000Y-119022285D02*
X133793428Y-119050857D01*
X133707714Y-119079428D01*
X133650571Y-119079428D01*
X133564857Y-119050857D01*
X133507714Y-118993714D01*
X133479142Y-118936571D01*
X133450571Y-118822285D01*
X133450571Y-118736571D01*
X133479142Y-118622285D01*
X133507714Y-118565142D01*
X133564857Y-118508000D01*
X133650571Y-118479428D01*
X133707714Y-118479428D01*
X133793428Y-118508000D01*
X133822000Y-118536571D01*
X134364857Y-118479428D02*
X134079142Y-118479428D01*
X134050571Y-118765142D01*
X134079142Y-118736571D01*
X134136285Y-118708000D01*
X134279142Y-118708000D01*
X134336285Y-118736571D01*
X134364857Y-118765142D01*
X134393428Y-118822285D01*
X134393428Y-118965142D01*
X134364857Y-119022285D01*
X134336285Y-119050857D01*
X134279142Y-119079428D01*
X134136285Y-119079428D01*
X134079142Y-119050857D01*
X134050571Y-119022285D01*
X133822000Y-117498285D02*
X133793428Y-117526857D01*
X133707714Y-117555428D01*
X133650571Y-117555428D01*
X133564857Y-117526857D01*
X133507714Y-117469714D01*
X133479142Y-117412571D01*
X133450571Y-117298285D01*
X133450571Y-117212571D01*
X133479142Y-117098285D01*
X133507714Y-117041142D01*
X133564857Y-116984000D01*
X133650571Y-116955428D01*
X133707714Y-116955428D01*
X133793428Y-116984000D01*
X133822000Y-117012571D01*
X134336285Y-117155428D02*
X134336285Y-117555428D01*
X134193428Y-116926857D02*
X134050571Y-117355428D01*
X134422000Y-117355428D01*
X117816285Y-91921000D02*
X117844857Y-91949571D01*
X117873428Y-92035285D01*
X117873428Y-92092428D01*
X117844857Y-92178142D01*
X117787714Y-92235285D01*
X117730571Y-92263857D01*
X117616285Y-92292428D01*
X117530571Y-92292428D01*
X117416285Y-92263857D01*
X117359142Y-92235285D01*
X117302000Y-92178142D01*
X117273428Y-92092428D01*
X117273428Y-92035285D01*
X117302000Y-91949571D01*
X117330571Y-91921000D01*
X117273428Y-91721000D02*
X117273428Y-91349571D01*
X117502000Y-91549571D01*
X117502000Y-91463857D01*
X117530571Y-91406714D01*
X117559142Y-91378142D01*
X117616285Y-91349571D01*
X117759142Y-91349571D01*
X117816285Y-91378142D01*
X117844857Y-91406714D01*
X117873428Y-91463857D01*
X117873428Y-91635285D01*
X117844857Y-91692428D01*
X117816285Y-91721000D01*
X117816285Y-99033000D02*
X117844857Y-99061571D01*
X117873428Y-99147285D01*
X117873428Y-99204428D01*
X117844857Y-99290142D01*
X117787714Y-99347285D01*
X117730571Y-99375857D01*
X117616285Y-99404428D01*
X117530571Y-99404428D01*
X117416285Y-99375857D01*
X117359142Y-99347285D01*
X117302000Y-99290142D01*
X117273428Y-99204428D01*
X117273428Y-99147285D01*
X117302000Y-99061571D01*
X117330571Y-99033000D01*
X117330571Y-98804428D02*
X117302000Y-98775857D01*
X117273428Y-98718714D01*
X117273428Y-98575857D01*
X117302000Y-98518714D01*
X117330571Y-98490142D01*
X117387714Y-98461571D01*
X117444857Y-98461571D01*
X117530571Y-98490142D01*
X117873428Y-98833000D01*
X117873428Y-98461571D01*
X119889142Y-116353142D02*
X119974857Y-116381714D01*
X120003428Y-116410285D01*
X120032000Y-116467428D01*
X120032000Y-116553142D01*
X120003428Y-116610285D01*
X119974857Y-116638857D01*
X119917714Y-116667428D01*
X119689142Y-116667428D01*
X119689142Y-116067428D01*
X119889142Y-116067428D01*
X119946285Y-116096000D01*
X119974857Y-116124571D01*
X120003428Y-116181714D01*
X120003428Y-116238857D01*
X119974857Y-116296000D01*
X119946285Y-116324571D01*
X119889142Y-116353142D01*
X119689142Y-116353142D01*
X120260571Y-116496000D02*
X120546285Y-116496000D01*
X120203428Y-116667428D02*
X120403428Y-116067428D01*
X120603428Y-116667428D01*
X120717714Y-116067428D02*
X121060571Y-116067428D01*
X120889142Y-116667428D02*
X120889142Y-116067428D01*
M02*
